%TF.GenerationSoftware,KiCad,Pcbnew,(6.0.6)*%
%TF.CreationDate,2023-03-01T01:58:38-05:00*%
%TF.ProjectId,Driver-Board,44726976-6572-42d4-926f-6172642e6b69,rev?*%
%TF.SameCoordinates,Original*%
%TF.FileFunction,Copper,L1,Top*%
%TF.FilePolarity,Positive*%
%FSLAX46Y46*%
G04 Gerber Fmt 4.6, Leading zero omitted, Abs format (unit mm)*
G04 Created by KiCad (PCBNEW (6.0.6)) date 2023-03-01 01:58:38*
%MOMM*%
%LPD*%
G01*
G04 APERTURE LIST*
G04 Aperture macros list*
%AMRoundRect*
0 Rectangle with rounded corners*
0 $1 Rounding radius*
0 $2 $3 $4 $5 $6 $7 $8 $9 X,Y pos of 4 corners*
0 Add a 4 corners polygon primitive as box body*
4,1,4,$2,$3,$4,$5,$6,$7,$8,$9,$2,$3,0*
0 Add four circle primitives for the rounded corners*
1,1,$1+$1,$2,$3*
1,1,$1+$1,$4,$5*
1,1,$1+$1,$6,$7*
1,1,$1+$1,$8,$9*
0 Add four rect primitives between the rounded corners*
20,1,$1+$1,$2,$3,$4,$5,0*
20,1,$1+$1,$4,$5,$6,$7,0*
20,1,$1+$1,$6,$7,$8,$9,0*
20,1,$1+$1,$8,$9,$2,$3,0*%
G04 Aperture macros list end*
%TA.AperFunction,SMDPad,CuDef*%
%ADD10RoundRect,0.200000X-0.200000X-0.275000X0.200000X-0.275000X0.200000X0.275000X-0.200000X0.275000X0*%
%TD*%
%TA.AperFunction,SMDPad,CuDef*%
%ADD11RoundRect,0.135000X0.135000X0.185000X-0.135000X0.185000X-0.135000X-0.185000X0.135000X-0.185000X0*%
%TD*%
%TA.AperFunction,SMDPad,CuDef*%
%ADD12RoundRect,0.140000X0.140000X0.170000X-0.140000X0.170000X-0.140000X-0.170000X0.140000X-0.170000X0*%
%TD*%
%TA.AperFunction,SMDPad,CuDef*%
%ADD13RoundRect,0.225000X-0.250000X0.225000X-0.250000X-0.225000X0.250000X-0.225000X0.250000X0.225000X0*%
%TD*%
%TA.AperFunction,SMDPad,CuDef*%
%ADD14RoundRect,0.225000X0.225000X0.250000X-0.225000X0.250000X-0.225000X-0.250000X0.225000X-0.250000X0*%
%TD*%
%TA.AperFunction,SMDPad,CuDef*%
%ADD15RoundRect,0.140000X0.170000X-0.140000X0.170000X0.140000X-0.170000X0.140000X-0.170000X-0.140000X0*%
%TD*%
%TA.AperFunction,SMDPad,CuDef*%
%ADD16RoundRect,0.075000X0.075000X-0.662500X0.075000X0.662500X-0.075000X0.662500X-0.075000X-0.662500X0*%
%TD*%
%TA.AperFunction,SMDPad,CuDef*%
%ADD17RoundRect,0.075000X0.662500X-0.075000X0.662500X0.075000X-0.662500X0.075000X-0.662500X-0.075000X0*%
%TD*%
%TA.AperFunction,SMDPad,CuDef*%
%ADD18RoundRect,0.250000X0.625000X-0.375000X0.625000X0.375000X-0.625000X0.375000X-0.625000X-0.375000X0*%
%TD*%
%TA.AperFunction,SMDPad,CuDef*%
%ADD19RoundRect,0.225000X-0.225000X-0.250000X0.225000X-0.250000X0.225000X0.250000X-0.225000X0.250000X0*%
%TD*%
%TA.AperFunction,ComponentPad*%
%ADD20RoundRect,0.200000X0.200000X0.450000X-0.200000X0.450000X-0.200000X-0.450000X0.200000X-0.450000X0*%
%TD*%
%TA.AperFunction,ComponentPad*%
%ADD21O,0.800000X1.300000*%
%TD*%
%TA.AperFunction,SMDPad,CuDef*%
%ADD22RoundRect,0.140000X-0.170000X0.140000X-0.170000X-0.140000X0.170000X-0.140000X0.170000X0.140000X0*%
%TD*%
%TA.AperFunction,SMDPad,CuDef*%
%ADD23RoundRect,0.135000X-0.135000X-0.185000X0.135000X-0.185000X0.135000X0.185000X-0.135000X0.185000X0*%
%TD*%
%TA.AperFunction,SMDPad,CuDef*%
%ADD24RoundRect,0.040600X-0.944400X-0.249400X0.944400X-0.249400X0.944400X0.249400X-0.944400X0.249400X0*%
%TD*%
%TA.AperFunction,SMDPad,CuDef*%
%ADD25R,2.285000X2.285000*%
%TD*%
%TA.AperFunction,SMDPad,CuDef*%
%ADD26RoundRect,0.140000X-0.140000X-0.170000X0.140000X-0.170000X0.140000X0.170000X-0.140000X0.170000X0*%
%TD*%
%TA.AperFunction,SMDPad,CuDef*%
%ADD27RoundRect,0.135000X0.185000X-0.135000X0.185000X0.135000X-0.185000X0.135000X-0.185000X-0.135000X0*%
%TD*%
%TA.AperFunction,ComponentPad*%
%ADD28C,0.800000*%
%TD*%
%TA.AperFunction,ComponentPad*%
%ADD29C,6.400000*%
%TD*%
%TA.AperFunction,SMDPad,CuDef*%
%ADD30RoundRect,0.150000X0.587500X0.150000X-0.587500X0.150000X-0.587500X-0.150000X0.587500X-0.150000X0*%
%TD*%
%TA.AperFunction,ComponentPad*%
%ADD31RoundRect,0.200000X-0.200000X-0.450000X0.200000X-0.450000X0.200000X0.450000X-0.200000X0.450000X0*%
%TD*%
%TA.AperFunction,SMDPad,CuDef*%
%ADD32R,1.200000X0.900000*%
%TD*%
%TA.AperFunction,SMDPad,CuDef*%
%ADD33RoundRect,0.200000X0.275000X-0.200000X0.275000X0.200000X-0.275000X0.200000X-0.275000X-0.200000X0*%
%TD*%
%TA.AperFunction,SMDPad,CuDef*%
%ADD34RoundRect,0.250000X-0.625000X0.312500X-0.625000X-0.312500X0.625000X-0.312500X0.625000X0.312500X0*%
%TD*%
%TA.AperFunction,SMDPad,CuDef*%
%ADD35RoundRect,0.218750X0.256250X-0.218750X0.256250X0.218750X-0.256250X0.218750X-0.256250X-0.218750X0*%
%TD*%
%TA.AperFunction,SMDPad,CuDef*%
%ADD36RoundRect,0.150000X0.150000X-0.825000X0.150000X0.825000X-0.150000X0.825000X-0.150000X-0.825000X0*%
%TD*%
%TA.AperFunction,SMDPad,CuDef*%
%ADD37RoundRect,0.250000X-0.650000X0.325000X-0.650000X-0.325000X0.650000X-0.325000X0.650000X0.325000X0*%
%TD*%
%TA.AperFunction,SMDPad,CuDef*%
%ADD38RoundRect,0.250000X0.625000X-0.312500X0.625000X0.312500X-0.625000X0.312500X-0.625000X-0.312500X0*%
%TD*%
%TA.AperFunction,SMDPad,CuDef*%
%ADD39RoundRect,0.218750X-0.218750X-0.381250X0.218750X-0.381250X0.218750X0.381250X-0.218750X0.381250X0*%
%TD*%
%TA.AperFunction,SMDPad,CuDef*%
%ADD40R,1.400000X1.000000*%
%TD*%
%TA.AperFunction,SMDPad,CuDef*%
%ADD41RoundRect,0.412500X-0.412500X1.337500X-0.412500X-1.337500X0.412500X-1.337500X0.412500X1.337500X0*%
%TD*%
%TA.AperFunction,SMDPad,CuDef*%
%ADD42R,2.500000X1.900000*%
%TD*%
%TA.AperFunction,SMDPad,CuDef*%
%ADD43R,1.200000X1.400000*%
%TD*%
%TA.AperFunction,SMDPad,CuDef*%
%ADD44R,1.400000X1.600000*%
%TD*%
%TA.AperFunction,SMDPad,CuDef*%
%ADD45RoundRect,0.250000X0.650000X-0.325000X0.650000X0.325000X-0.650000X0.325000X-0.650000X-0.325000X0*%
%TD*%
%TA.AperFunction,ComponentPad*%
%ADD46R,1.700000X1.700000*%
%TD*%
%TA.AperFunction,ComponentPad*%
%ADD47O,1.700000X1.700000*%
%TD*%
%TA.AperFunction,SMDPad,CuDef*%
%ADD48RoundRect,0.150000X-0.150000X0.512500X-0.150000X-0.512500X0.150000X-0.512500X0.150000X0.512500X0*%
%TD*%
%TA.AperFunction,SMDPad,CuDef*%
%ADD49RoundRect,0.135000X-0.185000X0.135000X-0.185000X-0.135000X0.185000X-0.135000X0.185000X0.135000X0*%
%TD*%
%TA.AperFunction,SMDPad,CuDef*%
%ADD50RoundRect,0.250000X-0.312500X-0.625000X0.312500X-0.625000X0.312500X0.625000X-0.312500X0.625000X0*%
%TD*%
%TA.AperFunction,ViaPad*%
%ADD51C,0.800000*%
%TD*%
%TA.AperFunction,Conductor*%
%ADD52C,0.750000*%
%TD*%
%TA.AperFunction,Conductor*%
%ADD53C,0.300000*%
%TD*%
%TA.AperFunction,Conductor*%
%ADD54C,1.000000*%
%TD*%
%TA.AperFunction,Conductor*%
%ADD55C,0.600000*%
%TD*%
%TA.AperFunction,Conductor*%
%ADD56C,0.500000*%
%TD*%
%TA.AperFunction,Conductor*%
%ADD57C,0.250000*%
%TD*%
G04 APERTURE END LIST*
D10*
%TO.P,R19,1*%
%TO.N,Net-(D3-Pad1)*%
X75625000Y-74450000D03*
%TO.P,R19,2*%
%TO.N,GND*%
X77275000Y-74450000D03*
%TD*%
D11*
%TO.P,R4,1*%
%TO.N,SWCLK*%
X67010000Y-80050000D03*
%TO.P,R4,2*%
%TO.N,Net-(J1-Pad2)*%
X65990000Y-80050000D03*
%TD*%
D12*
%TO.P,C13,1*%
%TO.N,+3.3V*%
X69030000Y-84400000D03*
%TO.P,C13,2*%
%TO.N,GND*%
X68070000Y-84400000D03*
%TD*%
D13*
%TO.P,C5,1*%
%TO.N,+5V*%
X69400000Y-99525000D03*
%TO.P,C5,2*%
%TO.N,GND*%
X69400000Y-101075000D03*
%TD*%
D14*
%TO.P,C3,1*%
%TO.N,+3.3V*%
X72400000Y-94400000D03*
%TO.P,C3,2*%
%TO.N,GND*%
X70850000Y-94400000D03*
%TD*%
D15*
%TO.P,C28,1*%
%TO.N,A_CURRENT*%
X92600000Y-100780000D03*
%TO.P,C28,2*%
%TO.N,GND*%
X92600000Y-99820000D03*
%TD*%
D10*
%TO.P,R9,1*%
%TO.N,CAN+*%
X81275000Y-75400000D03*
%TO.P,R9,2*%
%TO.N,CAN-*%
X82925000Y-75400000D03*
%TD*%
D16*
%TO.P,U7,1,VBAT*%
%TO.N,+3.3V*%
X70700000Y-84762500D03*
%TO.P,U7,2,PC13*%
%TO.N,unconnected-(U7-Pad2)*%
X71200000Y-84762500D03*
%TO.P,U7,3,PC14*%
%TO.N,unconnected-(U7-Pad3)*%
X71700000Y-84762500D03*
%TO.P,U7,4,PC15*%
%TO.N,unconnected-(U7-Pad4)*%
X72200000Y-84762500D03*
%TO.P,U7,5,PD0*%
%TO.N,HSE_IN*%
X72700000Y-84762500D03*
%TO.P,U7,6,PD1*%
%TO.N,HSE_OUT*%
X73200000Y-84762500D03*
%TO.P,U7,7,NRST*%
%TO.N,Net-(R11-Pad2)*%
X73700000Y-84762500D03*
%TO.P,U7,8,VSSA*%
%TO.N,GND*%
X74200000Y-84762500D03*
%TO.P,U7,9,VDDA*%
%TO.N,+3.3V*%
X74700000Y-84762500D03*
%TO.P,U7,10,PA0*%
%TO.N,unconnected-(U7-Pad10)*%
X75200000Y-84762500D03*
%TO.P,U7,11,PA1*%
%TO.N,B_CURRENT_PWM*%
X75700000Y-84762500D03*
%TO.P,U7,12,PA2*%
%TO.N,A_CURRENT_PWM*%
X76200000Y-84762500D03*
D17*
%TO.P,U7,13,PA3*%
%TO.N,unconnected-(U7-Pad13)*%
X77612500Y-83350000D03*
%TO.P,U7,14,PA4*%
%TO.N,A+*%
X77612500Y-82850000D03*
%TO.P,U7,15,PA5*%
%TO.N,A-*%
X77612500Y-82350000D03*
%TO.P,U7,16,PA6*%
%TO.N,B+*%
X77612500Y-81850000D03*
%TO.P,U7,17,PA7*%
%TO.N,B-*%
X77612500Y-81350000D03*
%TO.P,U7,18,PB0*%
%TO.N,unconnected-(U7-Pad18)*%
X77612500Y-80850000D03*
%TO.P,U7,19,PB1*%
%TO.N,unconnected-(U7-Pad19)*%
X77612500Y-80350000D03*
%TO.P,U7,20,PB2*%
%TO.N,unconnected-(U7-Pad20)*%
X77612500Y-79850000D03*
%TO.P,U7,21,PB10*%
%TO.N,unconnected-(U7-Pad21)*%
X77612500Y-79350000D03*
%TO.P,U7,22,PB11*%
%TO.N,unconnected-(U7-Pad22)*%
X77612500Y-78850000D03*
%TO.P,U7,23,VSS*%
%TO.N,GND*%
X77612500Y-78350000D03*
%TO.P,U7,24,VDD*%
%TO.N,+3.3V*%
X77612500Y-77850000D03*
D16*
%TO.P,U7,25,PB12*%
%TO.N,LED*%
X76200000Y-76437500D03*
%TO.P,U7,26,PB13*%
%TO.N,unconnected-(U7-Pad26)*%
X75700000Y-76437500D03*
%TO.P,U7,27,PB14*%
%TO.N,ENC_DIR*%
X75200000Y-76437500D03*
%TO.P,U7,28,PB15*%
%TO.N,unconnected-(U7-Pad28)*%
X74700000Y-76437500D03*
%TO.P,U7,29,PA8*%
%TO.N,unconnected-(U7-Pad29)*%
X74200000Y-76437500D03*
%TO.P,U7,30,PA9*%
%TO.N,unconnected-(U7-Pad30)*%
X73700000Y-76437500D03*
%TO.P,U7,31,PA10*%
%TO.N,CAN_SILENT*%
X73200000Y-76437500D03*
%TO.P,U7,32,PA11*%
%TO.N,CAN_RX*%
X72700000Y-76437500D03*
%TO.P,U7,33,PA12*%
%TO.N,CAN_TX*%
X72200000Y-76437500D03*
%TO.P,U7,34,PA13*%
%TO.N,SWDIO*%
X71700000Y-76437500D03*
%TO.P,U7,35,VSS*%
%TO.N,GND*%
X71200000Y-76437500D03*
%TO.P,U7,36,VDD*%
%TO.N,+3.3V*%
X70700000Y-76437500D03*
D17*
%TO.P,U7,37,PA14*%
%TO.N,SWCLK*%
X69287500Y-77850000D03*
%TO.P,U7,38,PA15*%
%TO.N,unconnected-(U7-Pad38)*%
X69287500Y-78350000D03*
%TO.P,U7,39,PB3*%
%TO.N,unconnected-(U7-Pad39)*%
X69287500Y-78850000D03*
%TO.P,U7,40,PB4*%
%TO.N,unconnected-(U7-Pad40)*%
X69287500Y-79350000D03*
%TO.P,U7,41,PB5*%
%TO.N,unconnected-(U7-Pad41)*%
X69287500Y-79850000D03*
%TO.P,U7,42,PB6*%
%TO.N,I2C1_SCL*%
X69287500Y-80350000D03*
%TO.P,U7,43,PB7*%
%TO.N,I2C1_SDA*%
X69287500Y-80850000D03*
%TO.P,U7,44,BOOT0*%
%TO.N,Net-(R12-Pad2)*%
X69287500Y-81350000D03*
%TO.P,U7,45,PB8*%
%TO.N,unconnected-(U7-Pad45)*%
X69287500Y-81850000D03*
%TO.P,U7,46,PB9*%
%TO.N,BUTTON*%
X69287500Y-82350000D03*
%TO.P,U7,47,VSS*%
%TO.N,GND*%
X69287500Y-82850000D03*
%TO.P,U7,48,VDD*%
%TO.N,+3.3V*%
X69287500Y-83350000D03*
%TD*%
D18*
%TO.P,F1,1*%
%TO.N,+24V*%
X87350000Y-106100000D03*
%TO.P,F1,2*%
%TO.N,Net-(F1-Pad2)*%
X87350000Y-103300000D03*
%TD*%
D12*
%TO.P,C29,1*%
%TO.N,Net-(C29-Pad1)*%
X93200000Y-77800000D03*
%TO.P,C29,2*%
%TO.N,GND*%
X92240000Y-77800000D03*
%TD*%
D19*
%TO.P,C8,1*%
%TO.N,+5V*%
X73775000Y-101250000D03*
%TO.P,C8,2*%
%TO.N,GND*%
X75325000Y-101250000D03*
%TD*%
D20*
%TO.P,J3,1,Pin_1*%
%TO.N,CAN-*%
X82700000Y-73000000D03*
D21*
%TO.P,J3,2,Pin_2*%
%TO.N,CAN+*%
X81450000Y-73000000D03*
%TD*%
D11*
%TO.P,R5,1*%
%TO.N,SWDIO*%
X67010000Y-81200000D03*
%TO.P,R5,2*%
%TO.N,Net-(J1-Pad3)*%
X65990000Y-81200000D03*
%TD*%
D22*
%TO.P,C21,1*%
%TO.N,+3.3V*%
X86400000Y-90050000D03*
%TO.P,C21,2*%
%TO.N,GND*%
X86400000Y-91010000D03*
%TD*%
D23*
%TO.P,R12,1*%
%TO.N,GND*%
X65990000Y-82300000D03*
%TO.P,R12,2*%
%TO.N,Net-(R12-Pad2)*%
X67010000Y-82300000D03*
%TD*%
%TO.P,R18,1*%
%TO.N,Net-(C29-Pad1)*%
X94210000Y-77800000D03*
%TO.P,R18,2*%
%TO.N,B_CURRENT*%
X95230000Y-77800000D03*
%TD*%
D22*
%TO.P,C17,1*%
%TO.N,+3.3V*%
X68500000Y-85520000D03*
%TO.P,C17,2*%
%TO.N,GND*%
X68500000Y-86480000D03*
%TD*%
D19*
%TO.P,C10,1*%
%TO.N,BUCK_BST*%
X77975000Y-96500000D03*
%TO.P,C10,2*%
%TO.N,BUCK_SW*%
X79525000Y-96500000D03*
%TD*%
D24*
%TO.P,U6,1,GND*%
%TO.N,GND*%
X93512500Y-81095000D03*
%TO.P,U6,2,IN2*%
%TO.N,B-*%
X93512500Y-82365000D03*
%TO.P,U6,3,IN1*%
%TO.N,B+*%
X93512500Y-83635000D03*
%TO.P,U6,4,VREF*%
%TO.N,B_CURRENT*%
X93512500Y-84905000D03*
%TO.P,U6,5,VM*%
%TO.N,+24V*%
X98452500Y-84905000D03*
%TO.P,U6,6,OUT1*%
%TO.N,B+_OUT*%
X98452500Y-83635000D03*
%TO.P,U6,7,RS*%
%TO.N,Net-(R16-Pad1)*%
X98452500Y-82365000D03*
%TO.P,U6,8,OUT2*%
%TO.N,B-_OUT*%
X98452500Y-81095000D03*
D25*
%TO.P,U6,9,GND*%
%TO.N,GND*%
X95982500Y-83000000D03*
%TD*%
D26*
%TO.P,C16,1*%
%TO.N,+3.3V*%
X74970000Y-86450000D03*
%TO.P,C16,2*%
%TO.N,GND*%
X75930000Y-86450000D03*
%TD*%
D27*
%TO.P,R14,1*%
%TO.N,Net-(C27-Pad1)*%
X93800000Y-100810000D03*
%TO.P,R14,2*%
%TO.N,A_CURRENT*%
X93800000Y-99790000D03*
%TD*%
D28*
%TO.P,H2,1,1*%
%TO.N,GND*%
X100000000Y-105100000D03*
X99297056Y-103402944D03*
X97600000Y-107500000D03*
X95902944Y-106797056D03*
D29*
X97600000Y-105100000D03*
D28*
X95200000Y-105100000D03*
X95902944Y-103402944D03*
X99297056Y-106797056D03*
X97600000Y-102700000D03*
%TD*%
D22*
%TO.P,C19,1*%
%TO.N,Net-(C19-Pad1)*%
X72500000Y-88920000D03*
%TO.P,C19,2*%
%TO.N,GND*%
X72500000Y-89880000D03*
%TD*%
D30*
%TO.P,U2,1,GND*%
%TO.N,GND*%
X72637500Y-97850000D03*
%TO.P,U2,2,VO*%
%TO.N,+3.3V*%
X72637500Y-95950000D03*
%TO.P,U2,3,VI*%
%TO.N,+5V*%
X70762500Y-96900000D03*
%TD*%
D26*
%TO.P,C11,1*%
%TO.N,+3.3V*%
X84620000Y-75500000D03*
%TO.P,C11,2*%
%TO.N,GND*%
X85580000Y-75500000D03*
%TD*%
%TO.P,C6,1*%
%TO.N,+3.3V*%
X66000000Y-78950000D03*
%TO.P,C6,2*%
%TO.N,GND*%
X66960000Y-78950000D03*
%TD*%
D15*
%TO.P,C20,1*%
%TO.N,+3.3V*%
X86450000Y-86980000D03*
%TO.P,C20,2*%
%TO.N,GND*%
X86450000Y-86020000D03*
%TD*%
D21*
%TO.P,J2,2,Pin_2*%
%TO.N,CAN-*%
X82725000Y-106200000D03*
D31*
%TO.P,J2,1,Pin_1*%
%TO.N,CAN+*%
X81475000Y-106200000D03*
%TD*%
D32*
%TO.P,D1,1,K*%
%TO.N,BUCK_SW*%
X87400000Y-97350000D03*
%TO.P,D1,2,A*%
%TO.N,GND*%
X87400000Y-100650000D03*
%TD*%
D13*
%TO.P,C4,1*%
%TO.N,+5V*%
X71100000Y-99525000D03*
%TO.P,C4,2*%
%TO.N,GND*%
X71100000Y-101075000D03*
%TD*%
D33*
%TO.P,R2,1*%
%TO.N,+3.3V*%
X74200000Y-92925000D03*
%TO.P,R2,2*%
%TO.N,I2C1_SDA*%
X74200000Y-91275000D03*
%TD*%
D14*
%TO.P,C7,1*%
%TO.N,+5V*%
X79525000Y-94800000D03*
%TO.P,C7,2*%
%TO.N,GND*%
X77975000Y-94800000D03*
%TD*%
D34*
%TO.P,R15,1*%
%TO.N,Net-(R15-Pad1)*%
X101300000Y-98337500D03*
%TO.P,R15,2*%
%TO.N,GND*%
X101300000Y-101262500D03*
%TD*%
D35*
%TO.P,D3,1,K*%
%TO.N,Net-(D3-Pad1)*%
X73350000Y-71087500D03*
%TO.P,D3,2,A*%
%TO.N,LED*%
X73350000Y-69512500D03*
%TD*%
D28*
%TO.P,H1,1,1*%
%TO.N,GND*%
X68900000Y-105100000D03*
X64802944Y-103402944D03*
X64100000Y-105100000D03*
X66500000Y-107500000D03*
X64802944Y-106797056D03*
X68197056Y-103402944D03*
X66500000Y-102700000D03*
X68197056Y-106797056D03*
D29*
X66500000Y-105100000D03*
%TD*%
D12*
%TO.P,C18,1*%
%TO.N,HSE_IN*%
X70580000Y-86400000D03*
%TO.P,C18,2*%
%TO.N,GND*%
X69620000Y-86400000D03*
%TD*%
D35*
%TO.P,D2,1,K*%
%TO.N,Net-(D2-Pad1)*%
X71650000Y-71087500D03*
%TO.P,D2,2,A*%
%TO.N,+3.3V*%
X71650000Y-69512500D03*
%TD*%
D33*
%TO.P,R7,1*%
%TO.N,BUCK_FB*%
X75350000Y-97825000D03*
%TO.P,R7,2*%
%TO.N,GND*%
X75350000Y-96175000D03*
%TD*%
D36*
%TO.P,U3,1,TXD*%
%TO.N,CAN_TX*%
X80795000Y-82525000D03*
%TO.P,U3,2,GND*%
%TO.N,GND*%
X82065000Y-82525000D03*
%TO.P,U3,3,VCC*%
%TO.N,+5V*%
X83335000Y-82525000D03*
%TO.P,U3,4,RXD*%
%TO.N,CAN_RX*%
X84605000Y-82525000D03*
%TO.P,U3,5,VIO*%
%TO.N,+3.3V*%
X84605000Y-77575000D03*
%TO.P,U3,6,CANL*%
%TO.N,CAN-*%
X83335000Y-77575000D03*
%TO.P,U3,7,CANH*%
%TO.N,CAN+*%
X82065000Y-77575000D03*
%TO.P,U3,8,S*%
%TO.N,CAN_SILENT*%
X80795000Y-77575000D03*
%TD*%
D14*
%TO.P,C2,1*%
%TO.N,+3.3V*%
X72375000Y-92900000D03*
%TO.P,C2,2*%
%TO.N,GND*%
X70825000Y-92900000D03*
%TD*%
D37*
%TO.P,C26,1*%
%TO.N,+24V*%
X98300000Y-97625000D03*
%TO.P,C26,2*%
%TO.N,GND*%
X98300000Y-100575000D03*
%TD*%
D27*
%TO.P,R11,1*%
%TO.N,+3.3V*%
X73750000Y-87760000D03*
%TO.P,R11,2*%
%TO.N,Net-(R11-Pad2)*%
X73750000Y-86740000D03*
%TD*%
D24*
%TO.P,U5,1,GND*%
%TO.N,GND*%
X93430000Y-91695000D03*
%TO.P,U5,2,IN2*%
%TO.N,A-*%
X93430000Y-92965000D03*
%TO.P,U5,3,IN1*%
%TO.N,A+*%
X93430000Y-94235000D03*
%TO.P,U5,4,VREF*%
%TO.N,A_CURRENT*%
X93430000Y-95505000D03*
%TO.P,U5,5,VM*%
%TO.N,+24V*%
X98370000Y-95505000D03*
%TO.P,U5,6,OUT1*%
%TO.N,A+_OUT*%
X98370000Y-94235000D03*
%TO.P,U5,7,RS*%
%TO.N,Net-(R15-Pad1)*%
X98370000Y-92965000D03*
%TO.P,U5,8,OUT2*%
%TO.N,A-_OUT*%
X98370000Y-91695000D03*
D25*
%TO.P,U5,9,GND*%
%TO.N,GND*%
X95900000Y-93600000D03*
%TD*%
D27*
%TO.P,R13,1*%
%TO.N,A_CURRENT_PWM*%
X92600000Y-102810000D03*
%TO.P,R13,2*%
%TO.N,Net-(C27-Pad1)*%
X92600000Y-101790000D03*
%TD*%
D15*
%TO.P,C14,1*%
%TO.N,+3.3V*%
X70750000Y-74780000D03*
%TO.P,C14,2*%
%TO.N,GND*%
X70750000Y-73820000D03*
%TD*%
D38*
%TO.P,R3,1*%
%TO.N,BUCK_IN*%
X76550000Y-106012500D03*
%TO.P,R3,2*%
%TO.N,BUCK_EN*%
X76550000Y-103087500D03*
%TD*%
D39*
%TO.P,FB1,1*%
%TO.N,BUCK_IN*%
X78787500Y-103250000D03*
%TO.P,FB1,2*%
%TO.N,Net-(FB1-Pad2)*%
X80912500Y-103250000D03*
%TD*%
D40*
%TO.P,Q1,1,G*%
%TO.N,GND*%
X82900000Y-101500000D03*
%TO.P,Q1,2,S*%
%TO.N,Net-(FB1-Pad2)*%
X82900000Y-103400000D03*
%TO.P,Q1,3,D*%
%TO.N,Net-(F1-Pad2)*%
X85100000Y-102450000D03*
%TD*%
D37*
%TO.P,C24,1*%
%TO.N,+24V*%
X95800000Y-97625000D03*
%TO.P,C24,2*%
%TO.N,GND*%
X95800000Y-100575000D03*
%TD*%
D41*
%TO.P,J6,1,Pin_1*%
%TO.N,+24V*%
X87225000Y-70225000D03*
%TO.P,J6,2,Pin_2*%
%TO.N,GND*%
X76975000Y-70225000D03*
%TD*%
D15*
%TO.P,C15,1*%
%TO.N,+3.3V*%
X78700000Y-76680000D03*
%TO.P,C15,2*%
%TO.N,GND*%
X78700000Y-75720000D03*
%TD*%
D12*
%TO.P,C9,1*%
%TO.N,+5V*%
X83180000Y-84400000D03*
%TO.P,C9,2*%
%TO.N,GND*%
X82220000Y-84400000D03*
%TD*%
D37*
%TO.P,C23,1*%
%TO.N,+24V*%
X98300000Y-86925000D03*
%TO.P,C23,2*%
%TO.N,GND*%
X98300000Y-89875000D03*
%TD*%
D10*
%TO.P,R8,1*%
%TO.N,Net-(D2-Pad1)*%
X72175000Y-72800000D03*
%TO.P,R8,2*%
%TO.N,GND*%
X73825000Y-72800000D03*
%TD*%
D42*
%TO.P,L1,1*%
%TO.N,+5V*%
X83300000Y-95200000D03*
%TO.P,L1,2*%
%TO.N,BUCK_SW*%
X83300000Y-99300000D03*
%TD*%
D43*
%TO.P,Y1,1,1*%
%TO.N,HSE_IN*%
X69150000Y-88250000D03*
%TO.P,Y1,2,2*%
%TO.N,GND*%
X69150000Y-90450000D03*
%TO.P,Y1,3,3*%
%TO.N,Net-(C19-Pad1)*%
X70850000Y-90450000D03*
%TO.P,Y1,4,4*%
%TO.N,GND*%
X70850000Y-88250000D03*
%TD*%
D26*
%TO.P,C30,1*%
%TO.N,B_CURRENT*%
X94240000Y-78900000D03*
%TO.P,C30,2*%
%TO.N,GND*%
X95200000Y-78900000D03*
%TD*%
D10*
%TO.P,R6,1*%
%TO.N,+5V*%
X73725000Y-99550000D03*
%TO.P,R6,2*%
%TO.N,BUCK_FB*%
X75375000Y-99550000D03*
%TD*%
D44*
%TO.P,SW1,1,1*%
%TO.N,GND*%
X62550000Y-90850000D03*
X62550000Y-98050000D03*
%TO.P,SW1,2,2*%
%TO.N,BUTTON*%
X65550000Y-98050000D03*
X65550000Y-90850000D03*
%TD*%
D28*
%TO.P,H4,1,1*%
%TO.N,GND*%
X95902944Y-75797056D03*
X99297056Y-72402944D03*
X97600000Y-76500000D03*
X97600000Y-71700000D03*
X100000000Y-74100000D03*
X95200000Y-74100000D03*
D29*
X97600000Y-74100000D03*
D28*
X99297056Y-75797056D03*
X95902944Y-72402944D03*
%TD*%
D23*
%TO.P,R17,1*%
%TO.N,B_CURRENT_PWM*%
X92210000Y-78900000D03*
%TO.P,R17,2*%
%TO.N,Net-(C29-Pad1)*%
X93230000Y-78900000D03*
%TD*%
D45*
%TO.P,C1,1*%
%TO.N,BUCK_IN*%
X73900000Y-106025000D03*
%TO.P,C1,2*%
%TO.N,GND*%
X73900000Y-103075000D03*
%TD*%
D46*
%TO.P,J1,1,Pin_1*%
%TO.N,+3.3V*%
X63250000Y-79280000D03*
D47*
%TO.P,J1,2,Pin_2*%
%TO.N,Net-(J1-Pad2)*%
X63250000Y-81820000D03*
%TO.P,J1,3,Pin_3*%
%TO.N,Net-(J1-Pad3)*%
X63250000Y-84360000D03*
%TO.P,J1,4,Pin_4*%
%TO.N,GND*%
X63250000Y-86900000D03*
%TD*%
D48*
%TO.P,U1,1,BST*%
%TO.N,BUCK_BST*%
X79300000Y-98812500D03*
%TO.P,U1,2,GND*%
%TO.N,GND*%
X78350000Y-98812500D03*
%TO.P,U1,3,FB*%
%TO.N,BUCK_FB*%
X77400000Y-98812500D03*
%TO.P,U1,4,EN*%
%TO.N,BUCK_EN*%
X77400000Y-101087500D03*
%TO.P,U1,5,IN*%
%TO.N,BUCK_IN*%
X78350000Y-101087500D03*
%TO.P,U1,6,SW*%
%TO.N,BUCK_SW*%
X79300000Y-101087500D03*
%TD*%
D41*
%TO.P,J5,1,Pin_1*%
%TO.N,+24V*%
X87350000Y-108975000D03*
%TO.P,J5,2,Pin_2*%
%TO.N,GND*%
X77100000Y-108975000D03*
%TD*%
D49*
%TO.P,R10,1*%
%TO.N,HSE_OUT*%
X72450000Y-86740000D03*
%TO.P,R10,2*%
%TO.N,Net-(C19-Pad1)*%
X72450000Y-87760000D03*
%TD*%
D19*
%TO.P,C12,1*%
%TO.N,+3.3V*%
X72225000Y-74450000D03*
%TO.P,C12,2*%
%TO.N,GND*%
X73775000Y-74450000D03*
%TD*%
D28*
%TO.P,H3,1,1*%
%TO.N,GND*%
X64902944Y-75797056D03*
X68297056Y-72402944D03*
X69000000Y-74100000D03*
X64902944Y-72402944D03*
D29*
X66600000Y-74100000D03*
D28*
X64200000Y-74100000D03*
X68297056Y-75797056D03*
X66600000Y-71700000D03*
X66600000Y-76500000D03*
%TD*%
D33*
%TO.P,R1,1*%
%TO.N,+3.3V*%
X75800000Y-92925000D03*
%TO.P,R1,2*%
%TO.N,I2C1_SCL*%
X75800000Y-91275000D03*
%TD*%
D22*
%TO.P,C27,1*%
%TO.N,Net-(C27-Pad1)*%
X93800000Y-101820000D03*
%TO.P,C27,2*%
%TO.N,GND*%
X93800000Y-102780000D03*
%TD*%
D37*
%TO.P,C25,1*%
%TO.N,+24V*%
X95800000Y-86925000D03*
%TO.P,C25,2*%
%TO.N,GND*%
X95800000Y-89875000D03*
%TD*%
D50*
%TO.P,R16,2*%
%TO.N,GND*%
X101062500Y-78900000D03*
%TO.P,R16,1*%
%TO.N,Net-(R16-Pad1)*%
X98137500Y-78900000D03*
%TD*%
D22*
%TO.P,C22,1*%
%TO.N,+3.3V*%
X67300000Y-85520000D03*
%TO.P,C22,2*%
%TO.N,GND*%
X67300000Y-86480000D03*
%TD*%
D51*
%TO.N,GND*%
X100800000Y-102400000D03*
X101600000Y-102400000D03*
X102300000Y-79400000D03*
X102300000Y-77800000D03*
X102300000Y-78600000D03*
X102400000Y-102400000D03*
%TO.N,+3.3V*%
X83700000Y-79649000D03*
%TO.N,Net-(R16-Pad1)*%
X97000000Y-79800000D03*
X97000000Y-78900000D03*
X97000000Y-78000000D03*
%TO.N,Net-(R15-Pad1)*%
X100406261Y-97207182D03*
X101300000Y-97200000D03*
X102200000Y-97200000D03*
%TO.N,Net-(R16-Pad1)*%
X100300000Y-82800000D03*
X101100000Y-82800000D03*
X101900000Y-82800000D03*
X102700000Y-82800000D03*
%TO.N,Net-(R15-Pad1)*%
X102700000Y-93000000D03*
X101900000Y-93000000D03*
X101100000Y-93000000D03*
X100300000Y-93000000D03*
%TO.N,B-_OUT*%
X101100000Y-81500000D03*
X101100000Y-80700000D03*
X101900000Y-81500000D03*
X102700000Y-80700000D03*
X101900000Y-80700000D03*
X102700000Y-81500000D03*
X100300000Y-81500000D03*
X100300000Y-80700000D03*
%TO.N,GND*%
X76600000Y-69000000D03*
X76600000Y-71400000D03*
X67300000Y-87200000D03*
X77500000Y-108500000D03*
X74800000Y-72800000D03*
X67200000Y-84400000D03*
X78100000Y-74400000D03*
X76000000Y-87300000D03*
X77489270Y-97532190D03*
X70000000Y-71500000D03*
X93800000Y-103500000D03*
X66999503Y-78200000D03*
X77100000Y-94800000D03*
X76200000Y-101200000D03*
X68000000Y-90500000D03*
X78700000Y-75000000D03*
X76700000Y-108500000D03*
X69800000Y-94400000D03*
X76600000Y-70600000D03*
X96600000Y-94300000D03*
X77400000Y-69000000D03*
X76600000Y-69800000D03*
X76000000Y-95100000D03*
X95200000Y-92900000D03*
X87400000Y-101700000D03*
X72400000Y-103100000D03*
X71458782Y-86724500D03*
X74000000Y-97600000D03*
X79186554Y-78127286D03*
X76700000Y-107700000D03*
X77500000Y-107700000D03*
X69200000Y-91700000D03*
X69400000Y-102000000D03*
X86400000Y-91800000D03*
X86400000Y-85200000D03*
X76700000Y-109300000D03*
X62550000Y-89600000D03*
X74228200Y-82300000D03*
X85600000Y-74700000D03*
X76700000Y-110100000D03*
X69800000Y-93000000D03*
X71100000Y-102100000D03*
X77500000Y-109300000D03*
X95200000Y-79600000D03*
X96700000Y-83700000D03*
X95200000Y-94300000D03*
X66000000Y-83100000D03*
X95300000Y-83700000D03*
X96600000Y-92900000D03*
X62600000Y-99500000D03*
X77400000Y-69800000D03*
X77400000Y-71400000D03*
X77400000Y-70600000D03*
X95900000Y-93600000D03*
X67912299Y-83412299D03*
X96700000Y-82300000D03*
X70950500Y-78000000D03*
X81400000Y-84350500D03*
X92700000Y-99000000D03*
X91400000Y-77800000D03*
X96000000Y-83000000D03*
X95300000Y-82300000D03*
X81400000Y-101500000D03*
X72500000Y-90700000D03*
X77500000Y-110100000D03*
%TO.N,+3.3V*%
X86450000Y-87700000D03*
X70000000Y-76400000D03*
X73900000Y-94100000D03*
X74700000Y-94100000D03*
X70500000Y-69500000D03*
X70600000Y-83300000D03*
X66000000Y-78200000D03*
X73900000Y-94900000D03*
X86350000Y-89000000D03*
X73800000Y-88500000D03*
X79700000Y-76100000D03*
X75000000Y-87300000D03*
%TO.N,I2C1_SDA*%
X71800000Y-82900000D03*
X74200000Y-90300000D03*
%TO.N,B_CURRENT*%
X94200000Y-79600000D03*
X92000000Y-84900000D03*
%TO.N,B_CURRENT_PWM*%
X75700000Y-83550000D03*
X91600000Y-79500000D03*
%TO.N,A_CURRENT*%
X93800000Y-99000000D03*
X92800000Y-96200000D03*
%TO.N,A_CURRENT_PWM*%
X92600000Y-103500000D03*
X77000000Y-84700000D03*
%TO.N,+5V*%
X72800000Y-100900000D03*
X81300000Y-94600000D03*
X84000000Y-84350500D03*
X84100000Y-95700000D03*
X82500000Y-95700000D03*
X69400000Y-96900000D03*
X80500000Y-94600000D03*
X84100000Y-94700000D03*
X72800000Y-99500000D03*
X81300000Y-95400000D03*
X82500000Y-94700000D03*
X68500000Y-99500000D03*
%TO.N,I2C1_SCL*%
X75800000Y-90300000D03*
X71700000Y-80800000D03*
%TO.N,SWDIO*%
X71200000Y-79200000D03*
X67773910Y-80614425D03*
%TO.N,CAN_TX*%
X73774862Y-81200000D03*
X80800000Y-79649000D03*
%TO.N,CAN_RX*%
X85400000Y-79100000D03*
X74277527Y-79566580D03*
%TO.N,CAN_SILENT*%
X74901731Y-78747418D03*
X79628372Y-77230736D03*
%TO.N,ENC_DIR*%
X74100000Y-77900000D03*
%TO.N,A-*%
X91900000Y-93000000D03*
X76150000Y-82100000D03*
%TO.N,A+*%
X79300000Y-83800000D03*
X91900000Y-94200000D03*
%TO.N,A+_OUT*%
X102600000Y-95400000D03*
X102600000Y-94600000D03*
X100200000Y-94600000D03*
X101800000Y-94600000D03*
X101000000Y-94600000D03*
X101800000Y-95400000D03*
X100200000Y-95400000D03*
X101000000Y-95400000D03*
%TO.N,A-_OUT*%
X102700000Y-91700000D03*
X102700000Y-90900000D03*
X101100000Y-90900000D03*
X101100000Y-91700000D03*
X100300000Y-90900000D03*
X101900000Y-90900000D03*
X100300000Y-91700000D03*
X101900000Y-91700000D03*
%TO.N,B-*%
X79200000Y-81150000D03*
X91900000Y-82400000D03*
%TO.N,B+*%
X91900000Y-83620023D03*
X79150000Y-82300000D03*
%TO.N,B+_OUT*%
X101800000Y-85300000D03*
X100200000Y-84500000D03*
X100200000Y-85300000D03*
X102600000Y-84500000D03*
X102600000Y-85300000D03*
X101800000Y-84500000D03*
X101000000Y-85300000D03*
X101000000Y-84500000D03*
%TO.N,LED*%
X74400000Y-69500000D03*
X77000000Y-76100000D03*
%TO.N,CAN-*%
X82925000Y-74500000D03*
X82625000Y-104993422D03*
%TO.N,CAN+*%
X81575000Y-104993422D03*
X81275000Y-74500000D03*
%TD*%
D52*
%TO.N,GND*%
X101300000Y-102100000D02*
X101600000Y-102400000D01*
X101300000Y-101262500D02*
X101300000Y-102100000D01*
X100800000Y-101762500D02*
X101300000Y-101262500D01*
X100800000Y-102400000D02*
X100800000Y-101762500D01*
X102400000Y-102362500D02*
X101300000Y-101262500D01*
X102400000Y-102400000D02*
X102400000Y-102362500D01*
X102375500Y-102424500D02*
X102400000Y-102400000D01*
X100800000Y-102424500D02*
X102375500Y-102424500D01*
X102300000Y-77800000D02*
X102300000Y-79400000D01*
X101200000Y-78900000D02*
X102300000Y-77800000D01*
X101062500Y-78900000D02*
X101200000Y-78900000D01*
X102000000Y-78900000D02*
X102300000Y-78600000D01*
X101062500Y-78900000D02*
X102000000Y-78900000D01*
X102300000Y-79400000D02*
X101562500Y-79400000D01*
X101562500Y-79400000D02*
X101062500Y-78900000D01*
D53*
%TO.N,+3.3V*%
X84605000Y-78744000D02*
X83700000Y-79649000D01*
X84605000Y-77575000D02*
X84605000Y-78744000D01*
D52*
%TO.N,Net-(R16-Pad1)*%
X97000000Y-78900000D02*
X98137500Y-78900000D01*
X97900000Y-78900000D02*
X97000000Y-78000000D01*
X98137500Y-78900000D02*
X97900000Y-78900000D01*
X97900000Y-78900000D02*
X97000000Y-79800000D01*
X97000000Y-78000000D02*
X97000000Y-79800000D01*
D54*
%TO.N,Net-(R15-Pad1)*%
X102192818Y-97207182D02*
X102200000Y-97200000D01*
X100406261Y-97207182D02*
X102192818Y-97207182D01*
D55*
X101300000Y-97200000D02*
X101300000Y-98337500D01*
X102200000Y-97437500D02*
X101300000Y-98337500D01*
X102200000Y-97200000D02*
X102200000Y-97437500D01*
X100406261Y-97443761D02*
X101300000Y-98337500D01*
X100406261Y-97207182D02*
X100406261Y-97443761D01*
D56*
X101200000Y-98237500D02*
X101300000Y-98337500D01*
D53*
%TO.N,GND*%
X95200000Y-78900000D02*
X95200000Y-79600000D01*
D55*
%TO.N,Net-(R15-Pad1)*%
X100265000Y-92965000D02*
X98370000Y-92965000D01*
X100300000Y-93000000D02*
X100265000Y-92965000D01*
X100300000Y-93000000D02*
X101100000Y-93000000D01*
X101100000Y-93000000D02*
X101900000Y-93000000D01*
X102700000Y-93000000D02*
X101900000Y-93000000D01*
%TO.N,Net-(R16-Pad1)*%
X100300000Y-82800000D02*
X101100000Y-82800000D01*
X101100000Y-82800000D02*
X101900000Y-82800000D01*
X101900000Y-82800000D02*
X102700000Y-82800000D01*
X99800000Y-82800000D02*
X100300000Y-82800000D01*
X99365000Y-82365000D02*
X99800000Y-82800000D01*
X98452500Y-82365000D02*
X99365000Y-82365000D01*
D57*
%TO.N,GND*%
X70750000Y-73450000D02*
X70750000Y-73820000D01*
D55*
X73825000Y-74400000D02*
X73775000Y-74450000D01*
D53*
X72500000Y-89880000D02*
X72500000Y-90700000D01*
D56*
X82065000Y-84245000D02*
X82220000Y-84400000D01*
D55*
X86400000Y-91010000D02*
X86400000Y-91800000D01*
X85580000Y-75500000D02*
X85580000Y-74720000D01*
X73750000Y-97850000D02*
X72637500Y-97850000D01*
X86450000Y-85250000D02*
X86450000Y-86020000D01*
D54*
X62550000Y-98050000D02*
X62550000Y-90850000D01*
D57*
X68050000Y-90450000D02*
X68000000Y-90500000D01*
D55*
X73900000Y-103075000D02*
X72425000Y-103075000D01*
X82900000Y-101500000D02*
X81400000Y-101500000D01*
D53*
X66960000Y-78239503D02*
X66999503Y-78200000D01*
D55*
X95737500Y-91695000D02*
X95900000Y-91857500D01*
X81449500Y-84400000D02*
X81400000Y-84350500D01*
D54*
X62550000Y-90850000D02*
X62550000Y-89600000D01*
D57*
X69287500Y-82850000D02*
X68474598Y-82850000D01*
D56*
X77832190Y-97532190D02*
X77489270Y-97532190D01*
D53*
X92240000Y-77800000D02*
X91400000Y-77800000D01*
D55*
X73825000Y-72800000D02*
X74800000Y-72800000D01*
X93512500Y-81095000D02*
X95495000Y-81095000D01*
X86400000Y-85200000D02*
X86450000Y-85250000D01*
D53*
X92700000Y-99000000D02*
X92600000Y-99100000D01*
D57*
X68500000Y-86480000D02*
X67300000Y-86480000D01*
D53*
X65990000Y-83090000D02*
X66000000Y-83100000D01*
X77275000Y-74450000D02*
X78050000Y-74450000D01*
D54*
X95800000Y-89875000D02*
X95800000Y-93500000D01*
D55*
X75325000Y-101250000D02*
X76150000Y-101250000D01*
D57*
X67300000Y-86480000D02*
X67300000Y-87200000D01*
X69150000Y-91650000D02*
X69200000Y-91700000D01*
D55*
X87400000Y-100650000D02*
X87400000Y-101700000D01*
X95982500Y-81582500D02*
X95982500Y-83000000D01*
D57*
X69150000Y-90450000D02*
X68050000Y-90450000D01*
D56*
X70825000Y-93000000D02*
X69800000Y-93000000D01*
X82065000Y-82525000D02*
X82065000Y-84245000D01*
X78000000Y-97700000D02*
X77832190Y-97532190D01*
D54*
X95800000Y-100575000D02*
X98300000Y-100575000D01*
D57*
X70850000Y-88250000D02*
X70850000Y-87333282D01*
D56*
X70825000Y-94400000D02*
X69800000Y-94400000D01*
D55*
X82220000Y-84400000D02*
X81449500Y-84400000D01*
D53*
X75930000Y-87230000D02*
X76000000Y-87300000D01*
D55*
X74000000Y-97600000D02*
X73750000Y-97850000D01*
D56*
X78350000Y-98050000D02*
X78000000Y-97700000D01*
D54*
X95800000Y-89875000D02*
X98300000Y-89875000D01*
D57*
X70400000Y-73100000D02*
X70750000Y-73450000D01*
X70850000Y-87333282D02*
X71458782Y-86724500D01*
D53*
X77612500Y-78350000D02*
X78963840Y-78350000D01*
X66960000Y-78950000D02*
X66960000Y-78239503D01*
D57*
X70400000Y-71900000D02*
X70400000Y-73100000D01*
D53*
X92630000Y-99790000D02*
X92600000Y-99820000D01*
D57*
X70000000Y-71500000D02*
X70400000Y-71900000D01*
D53*
X92600000Y-99100000D02*
X92600000Y-99820000D01*
D55*
X69400000Y-101075000D02*
X69400000Y-102000000D01*
D53*
X95230000Y-78870000D02*
X95200000Y-78900000D01*
D57*
X68474598Y-82850000D02*
X67912299Y-83412299D01*
D53*
X78700000Y-75720000D02*
X78700000Y-75000000D01*
X78963840Y-78350000D02*
X79186554Y-78127286D01*
X93800000Y-102780000D02*
X93800000Y-103500000D01*
D55*
X85580000Y-74720000D02*
X85600000Y-74700000D01*
D57*
X69150000Y-90450000D02*
X69150000Y-91650000D01*
D54*
X62550000Y-99450000D02*
X62600000Y-99500000D01*
D55*
X76150000Y-101250000D02*
X76200000Y-101200000D01*
D53*
X71200000Y-76437500D02*
X71200000Y-77750500D01*
D56*
X78350000Y-98812500D02*
X78350000Y-98050000D01*
D55*
X95495000Y-81095000D02*
X95982500Y-81582500D01*
D53*
X75930000Y-86450000D02*
X75930000Y-87230000D01*
D57*
X68070000Y-84400000D02*
X67200000Y-84400000D01*
D55*
X76000000Y-95100000D02*
X75350000Y-95750000D01*
X73825000Y-72800000D02*
X73825000Y-74400000D01*
D54*
X62550000Y-89750000D02*
X62550000Y-89600000D01*
D57*
X68580000Y-86400000D02*
X68500000Y-86480000D01*
D54*
X62550000Y-98050000D02*
X62550000Y-99450000D01*
D53*
X74228200Y-82300000D02*
X74200000Y-82328200D01*
X74200000Y-82328200D02*
X74200000Y-84762500D01*
D55*
X93430000Y-91695000D02*
X95737500Y-91695000D01*
D53*
X71200000Y-77750500D02*
X70950500Y-78000000D01*
D55*
X71100000Y-101075000D02*
X71100000Y-102100000D01*
D53*
X78050000Y-74450000D02*
X78100000Y-74400000D01*
D57*
X69620000Y-86400000D02*
X68580000Y-86400000D01*
D55*
X72425000Y-103075000D02*
X72400000Y-103100000D01*
D53*
X65990000Y-82300000D02*
X65990000Y-83090000D01*
D55*
X77975000Y-94800000D02*
X77100000Y-94800000D01*
X95900000Y-91857500D02*
X95900000Y-93600000D01*
X75350000Y-95750000D02*
X75350000Y-96175000D01*
D54*
X95800000Y-93500000D02*
X95900000Y-93600000D01*
D55*
%TO.N,+3.3V*%
X86400000Y-89050000D02*
X86400000Y-90050000D01*
D56*
X71020000Y-74780000D02*
X71350000Y-74450000D01*
D57*
X68500000Y-85520000D02*
X67300000Y-85520000D01*
D53*
X70700000Y-76437500D02*
X70037500Y-76437500D01*
X79700000Y-76100000D02*
X79120000Y-76680000D01*
X69287500Y-83350000D02*
X70550000Y-83350000D01*
X70700000Y-74830000D02*
X70750000Y-74780000D01*
X74970000Y-86450000D02*
X74970000Y-87270000D01*
D57*
X69580000Y-85520000D02*
X68500000Y-85520000D01*
D55*
X86350000Y-89000000D02*
X86400000Y-89050000D01*
D57*
X70337500Y-84762500D02*
X69580000Y-85520000D01*
D53*
X73750000Y-87760000D02*
X73750000Y-88450000D01*
X72225000Y-73625000D02*
X71747183Y-73625000D01*
D55*
X70512500Y-69512500D02*
X70500000Y-69500000D01*
X71650000Y-69512500D02*
X70512500Y-69512500D01*
D56*
X84605000Y-75515000D02*
X84620000Y-75500000D01*
D53*
X70700000Y-83400000D02*
X70600000Y-83300000D01*
D57*
X70700000Y-84762500D02*
X70337500Y-84762500D01*
D53*
X63580000Y-78950000D02*
X63250000Y-79280000D01*
D55*
X86450000Y-87080000D02*
X86450000Y-87700000D01*
D53*
X69030000Y-83970000D02*
X69287500Y-83712500D01*
X69030000Y-84400000D02*
X69030000Y-83970000D01*
X74700000Y-86180000D02*
X74700000Y-84762500D01*
X69287500Y-83712500D02*
X69287500Y-83350000D01*
X74970000Y-87270000D02*
X75000000Y-87300000D01*
X70700000Y-76437500D02*
X70700000Y-74830000D01*
D56*
X84605000Y-77575000D02*
X84605000Y-75515000D01*
D53*
X66000000Y-78950000D02*
X63580000Y-78950000D01*
X70825000Y-71541834D02*
X70825000Y-70337500D01*
D56*
X71350000Y-74450000D02*
X72225000Y-74450000D01*
D53*
X70825000Y-70337500D02*
X71650000Y-69512500D01*
X70550000Y-83350000D02*
X70600000Y-83300000D01*
X78420000Y-76680000D02*
X78700000Y-76680000D01*
X70037500Y-76437500D02*
X70000000Y-76400000D01*
X73750000Y-88450000D02*
X73800000Y-88500000D01*
X71000000Y-72877817D02*
X71000000Y-71716834D01*
X74970000Y-86450000D02*
X74700000Y-86180000D01*
X72225000Y-74450000D02*
X72225000Y-73625000D01*
D56*
X70750000Y-74780000D02*
X71020000Y-74780000D01*
D53*
X71747183Y-73625000D02*
X71000000Y-72877817D01*
X71000000Y-71716834D02*
X70825000Y-71541834D01*
X79120000Y-76680000D02*
X78700000Y-76680000D01*
X77612500Y-77487500D02*
X78420000Y-76680000D01*
X77612500Y-77850000D02*
X77612500Y-77487500D01*
X66000000Y-78950000D02*
X66000000Y-78200000D01*
X70700000Y-84762500D02*
X70700000Y-83400000D01*
%TO.N,I2C1_SDA*%
X74200000Y-90300000D02*
X74200000Y-91275000D01*
X70375000Y-81098959D02*
X70126041Y-80850000D01*
X70126041Y-80850000D02*
X69287500Y-80850000D01*
X70375000Y-81475000D02*
X70375000Y-81098959D01*
X71800000Y-82900000D02*
X70375000Y-81475000D01*
%TO.N,Net-(D3-Pad1)*%
X75625000Y-72325000D02*
X75625000Y-74450000D01*
X73350000Y-71087500D02*
X74387500Y-71087500D01*
X74387500Y-71087500D02*
X75625000Y-72325000D01*
%TO.N,B_CURRENT*%
X94240000Y-78790000D02*
X94240000Y-78900000D01*
X94200000Y-79600000D02*
X94240000Y-79560000D01*
X93512500Y-84905000D02*
X92005000Y-84905000D01*
X95230000Y-77800000D02*
X94240000Y-78790000D01*
X92005000Y-84905000D02*
X92000000Y-84900000D01*
X94240000Y-79560000D02*
X94240000Y-78900000D01*
%TO.N,B_CURRENT_PWM*%
X91600000Y-79500000D02*
X91610000Y-79500000D01*
X91610000Y-79500000D02*
X92210000Y-78900000D01*
X75700000Y-84762500D02*
X75700000Y-83550000D01*
%TO.N,A_CURRENT*%
X92800000Y-96200000D02*
X93430000Y-95570000D01*
X92810000Y-100780000D02*
X93800000Y-99790000D01*
X92600000Y-100780000D02*
X92810000Y-100780000D01*
X93800000Y-99790000D02*
X93800000Y-99000000D01*
X93430000Y-95570000D02*
X93430000Y-95505000D01*
%TO.N,A_CURRENT_PWM*%
X92600000Y-103500000D02*
X92600000Y-102810000D01*
X77000000Y-84700000D02*
X76937500Y-84762500D01*
X76937500Y-84762500D02*
X76200000Y-84762500D01*
%TO.N,Net-(D2-Pad1)*%
X71650000Y-72275000D02*
X72175000Y-72800000D01*
X71650000Y-71087500D02*
X71650000Y-72275000D01*
D56*
%TO.N,BUCK_FB*%
X75375000Y-97850000D02*
X75350000Y-97825000D01*
D55*
X75350000Y-97825000D02*
X76412500Y-97825000D01*
X75350000Y-99525000D02*
X75375000Y-99550000D01*
X75350000Y-97825000D02*
X75350000Y-99525000D01*
X76412500Y-97825000D02*
X77400000Y-98812500D01*
D56*
%TO.N,+5V*%
X71125000Y-99550000D02*
X71100000Y-99525000D01*
D55*
X73775000Y-101250000D02*
X73150000Y-101250000D01*
X72850000Y-99550000D02*
X72800000Y-99500000D01*
X68525000Y-99525000D02*
X68500000Y-99500000D01*
X73725000Y-99550000D02*
X72850000Y-99550000D01*
X83950500Y-84400000D02*
X84000000Y-84350500D01*
D56*
X83335000Y-84245000D02*
X83180000Y-84400000D01*
D55*
X73775000Y-101250000D02*
X73775000Y-99600000D01*
X70762500Y-96900000D02*
X69400000Y-96900000D01*
D56*
X83335000Y-82525000D02*
X83335000Y-84245000D01*
D55*
X73775000Y-99600000D02*
X73725000Y-99550000D01*
X69400000Y-99525000D02*
X68525000Y-99525000D01*
X73150000Y-101250000D02*
X72800000Y-100900000D01*
X83180000Y-84400000D02*
X83950500Y-84400000D01*
%TO.N,BUCK_IN*%
X73900000Y-106025000D02*
X76537500Y-106025000D01*
X76537500Y-106025000D02*
X76550000Y-106012500D01*
X76550000Y-106012500D02*
X78187500Y-106012500D01*
X73975000Y-106025000D02*
X74050000Y-106100000D01*
X78787500Y-105412500D02*
X78787500Y-103250000D01*
X73900000Y-106025000D02*
X73975000Y-106025000D01*
X78187500Y-106012500D02*
X78787500Y-105412500D01*
X78350000Y-101087500D02*
X78350000Y-102812500D01*
X78350000Y-102812500D02*
X78787500Y-103250000D01*
%TO.N,BUCK_EN*%
X77400000Y-102237500D02*
X76550000Y-103087500D01*
X77400000Y-101087500D02*
X77400000Y-102237500D01*
D53*
%TO.N,I2C1_SCL*%
X71250000Y-80350000D02*
X69287500Y-80350000D01*
X75800000Y-90300000D02*
X75800000Y-91275000D01*
X71700000Y-80800000D02*
X71250000Y-80350000D01*
%TO.N,Net-(R12-Pad2)*%
X68140000Y-81350000D02*
X69287500Y-81350000D01*
X67250000Y-82240000D02*
X68140000Y-81350000D01*
%TO.N,Net-(R11-Pad2)*%
X73700000Y-86690000D02*
X73700000Y-84762500D01*
X73750000Y-86740000D02*
X73700000Y-86690000D01*
%TO.N,HSE_OUT*%
X72450000Y-86740000D02*
X73200000Y-85990000D01*
X73200000Y-85990000D02*
X73200000Y-84762500D01*
%TO.N,Net-(C19-Pad1)*%
X72350000Y-88950000D02*
X72520000Y-88950000D01*
X72450000Y-88880000D02*
X72520000Y-88950000D01*
X72450000Y-87760000D02*
X72450000Y-88880000D01*
X70850000Y-90450000D02*
X72350000Y-88950000D01*
%TO.N,SWDIO*%
X67010000Y-81200000D02*
X67188335Y-81200000D01*
X71200000Y-79200000D02*
X71700000Y-78700000D01*
X67188335Y-81200000D02*
X67773910Y-80614425D01*
X71700000Y-78700000D02*
X71700000Y-76437500D01*
%TO.N,Net-(J1-Pad3)*%
X65400000Y-81200000D02*
X65350000Y-81250000D01*
X65350000Y-81250000D02*
X65350000Y-81262965D01*
X65350000Y-81262965D02*
X64850000Y-81762965D01*
X64850000Y-82760000D02*
X63250000Y-84360000D01*
X64850000Y-81762965D02*
X64850000Y-82760000D01*
X65990000Y-81200000D02*
X65400000Y-81200000D01*
%TO.N,SWCLK*%
X67010000Y-80050000D02*
X67150000Y-80050000D01*
X67950000Y-78200000D02*
X68300000Y-77850000D01*
X67950000Y-79250000D02*
X67950000Y-78200000D01*
X67150000Y-80050000D02*
X67950000Y-79250000D01*
X68300000Y-77850000D02*
X69287500Y-77850000D01*
%TO.N,Net-(J1-Pad2)*%
X63250000Y-81820000D02*
X65020000Y-80050000D01*
X65020000Y-80050000D02*
X65700000Y-80050000D01*
D55*
%TO.N,BUCK_BST*%
X78024695Y-96500000D02*
X79300000Y-97775305D01*
X77975000Y-96500000D02*
X78024695Y-96500000D01*
X79300000Y-97775305D02*
X79300000Y-98812500D01*
%TO.N,BUCK_SW*%
X83300000Y-99300000D02*
X81087500Y-99300000D01*
X79525000Y-96500000D02*
X80500000Y-96500000D01*
X81087500Y-99300000D02*
X79300000Y-101087500D01*
X87400000Y-97350000D02*
X87250000Y-97350000D01*
X87250000Y-97350000D02*
X85300000Y-99300000D01*
X85300000Y-99300000D02*
X83300000Y-99300000D01*
X80500000Y-96500000D02*
X83300000Y-99300000D01*
D52*
%TO.N,Net-(FB1-Pad2)*%
X82750000Y-103250000D02*
X82900000Y-103400000D01*
X82900000Y-103400000D02*
X81062500Y-103400000D01*
X81062500Y-103400000D02*
X80912500Y-103250000D01*
D54*
%TO.N,Net-(F1-Pad2)*%
X85950000Y-103300000D02*
X85100000Y-102450000D01*
X87350000Y-103300000D02*
X85950000Y-103300000D01*
D53*
%TO.N,CAN_TX*%
X73774862Y-81200000D02*
X73641044Y-81066182D01*
X80795000Y-79654500D02*
X80795000Y-82525000D01*
X80795000Y-79654000D02*
X80800000Y-79649000D01*
X72200000Y-78958956D02*
X72200000Y-76437500D01*
X73641044Y-80400000D02*
X72200000Y-78958956D01*
X80795000Y-79654500D02*
X80795000Y-79654000D01*
X73641044Y-81066182D02*
X73641044Y-80400000D01*
%TO.N,CAN_RX*%
X84605000Y-79951208D02*
X84605000Y-82525000D01*
X72700000Y-78600000D02*
X72700000Y-76437500D01*
X85443958Y-79112250D02*
X84605000Y-79951208D01*
X85443958Y-79112250D02*
X85412250Y-79112250D01*
X73750500Y-79650500D02*
X72700000Y-78600000D01*
X85412250Y-79112250D02*
X85400000Y-79100000D01*
X74193607Y-79650500D02*
X73750500Y-79650500D01*
X74277527Y-79566580D02*
X74193607Y-79650500D01*
%TO.N,CAN_SILENT*%
X73847418Y-78747418D02*
X73200000Y-78100000D01*
X74901731Y-78747418D02*
X73847418Y-78747418D01*
X73200000Y-78100000D02*
X73200000Y-76437500D01*
X79972636Y-77575000D02*
X80795000Y-77575000D01*
X79628372Y-77230736D02*
X79972636Y-77575000D01*
%TO.N,ENC_DIR*%
X75000000Y-77600000D02*
X75200000Y-77400000D01*
X75200000Y-77400000D02*
X75200000Y-76437500D01*
X74200000Y-77800000D02*
X74400000Y-77600000D01*
X74400000Y-77600000D02*
X75000000Y-77600000D01*
X74200000Y-77800000D02*
X74100000Y-77900000D01*
%TO.N,A-*%
X76400000Y-82350000D02*
X76150000Y-82100000D01*
X91935000Y-92965000D02*
X93430000Y-92965000D01*
X77612500Y-82350000D02*
X76400000Y-82350000D01*
X91900000Y-93000000D02*
X91935000Y-92965000D01*
%TO.N,A+*%
X79300000Y-83800000D02*
X79300000Y-83698959D01*
X91900000Y-94200000D02*
X91935000Y-94235000D01*
X91935000Y-94235000D02*
X93430000Y-94235000D01*
X79300000Y-83698959D02*
X78451041Y-82850000D01*
X78451041Y-82850000D02*
X77612500Y-82850000D01*
%TO.N,B-*%
X77612500Y-81350000D02*
X79000000Y-81350000D01*
X91900000Y-82400000D02*
X93477500Y-82400000D01*
X93477500Y-82400000D02*
X93512500Y-82365000D01*
X79000000Y-81350000D02*
X79200000Y-81150000D01*
%TO.N,B+*%
X93497523Y-83620023D02*
X93512500Y-83635000D01*
X91900000Y-83620023D02*
X93497523Y-83620023D01*
X78700000Y-81850000D02*
X79150000Y-82300000D01*
X77612500Y-81850000D02*
X78700000Y-81850000D01*
D57*
%TO.N,HSE_IN*%
X70165000Y-87035000D02*
X69567391Y-87035000D01*
D53*
X69150000Y-88250000D02*
X69150000Y-88150000D01*
D57*
X72700000Y-84762500D02*
X72700000Y-85565685D01*
X69150000Y-87452391D02*
X69150000Y-88250000D01*
X70580000Y-86400000D02*
X70580000Y-86620000D01*
X70980000Y-86000000D02*
X70580000Y-86400000D01*
X72300000Y-86000000D02*
X70980000Y-86000000D01*
X70580000Y-86620000D02*
X70165000Y-87035000D01*
X72300000Y-85965685D02*
X72300000Y-86000000D01*
X72700000Y-85565685D02*
X72300000Y-85965685D01*
X69567391Y-87035000D02*
X69150000Y-87452391D01*
D56*
%TO.N,BUTTON*%
X65550000Y-90850000D02*
X65550000Y-84750000D01*
D57*
X67950000Y-82350000D02*
X69287500Y-82350000D01*
D56*
X65550000Y-84750000D02*
X66100000Y-84200000D01*
D54*
X65550000Y-90850000D02*
X65550000Y-98050000D01*
D57*
X65550000Y-84750000D02*
X67950000Y-82350000D01*
D53*
%TO.N,LED*%
X76262500Y-76500000D02*
X76200000Y-76437500D01*
X74387500Y-69512500D02*
X74400000Y-69500000D01*
X76800000Y-76500000D02*
X76262500Y-76500000D01*
X77000000Y-76300000D02*
X76800000Y-76500000D01*
X73350000Y-69512500D02*
X74387500Y-69512500D01*
X77000000Y-76100000D02*
X77000000Y-76300000D01*
%TO.N,Net-(C27-Pad1)*%
X93800000Y-101820000D02*
X93800000Y-100810000D01*
X93770000Y-101790000D02*
X93800000Y-101820000D01*
X92600000Y-101790000D02*
X93770000Y-101790000D01*
%TO.N,Net-(C29-Pad1)*%
X93230000Y-77830000D02*
X93200000Y-77800000D01*
X93230000Y-78900000D02*
X93230000Y-77830000D01*
X94210000Y-77800000D02*
X93200000Y-77800000D01*
D56*
%TO.N,CAN-*%
X82475001Y-105143421D02*
X82625000Y-104993422D01*
X82925000Y-75925000D02*
X83335000Y-76335000D01*
X82475001Y-105950001D02*
X82475001Y-105143421D01*
X82725000Y-106200000D02*
X82475001Y-105950001D01*
X82925000Y-74500000D02*
X82925000Y-73125000D01*
X82925000Y-74500000D02*
X82925000Y-75925000D01*
X83335000Y-76335000D02*
X83335000Y-77575000D01*
X82925000Y-73125000D02*
X82800000Y-73000000D01*
%TO.N,CAN+*%
X81275000Y-74500000D02*
X81275000Y-75675000D01*
X81275000Y-74500000D02*
X81275000Y-73275000D01*
X81275000Y-73275000D02*
X81550000Y-73000000D01*
X81724999Y-105950001D02*
X81724999Y-105143421D01*
X81475000Y-106200000D02*
X81724999Y-105950001D01*
X81275000Y-75675000D02*
X82065000Y-76465000D01*
X81724999Y-105143421D02*
X81575000Y-104993422D01*
X81275000Y-74500000D02*
X81275000Y-75050000D01*
X82065000Y-76465000D02*
X82065000Y-77575000D01*
%TD*%
%TA.AperFunction,Conductor*%
%TO.N,GND*%
G36*
X61909012Y-85246152D02*
G01*
X61933932Y-85275540D01*
X61948577Y-85299438D01*
X61951164Y-85303659D01*
X61954376Y-85307419D01*
X61954379Y-85307424D01*
X62078617Y-85452887D01*
X62114776Y-85495224D01*
X62132948Y-85510744D01*
X62302576Y-85655621D01*
X62302581Y-85655624D01*
X62306341Y-85658836D01*
X62521141Y-85790466D01*
X62525711Y-85792359D01*
X62525715Y-85792361D01*
X62749316Y-85884979D01*
X62753889Y-85886873D01*
X62809034Y-85900112D01*
X62994039Y-85944528D01*
X62994045Y-85944529D01*
X62998852Y-85945683D01*
X63250000Y-85965449D01*
X63501148Y-85945683D01*
X63505955Y-85944529D01*
X63505961Y-85944528D01*
X63690966Y-85900112D01*
X63746111Y-85886873D01*
X63750684Y-85884979D01*
X63974285Y-85792361D01*
X63974289Y-85792359D01*
X63978859Y-85790466D01*
X64193659Y-85658836D01*
X64341669Y-85532423D01*
X64406459Y-85503392D01*
X64476659Y-85513997D01*
X64529982Y-85560872D01*
X64549500Y-85628234D01*
X64549500Y-89283147D01*
X64529498Y-89351268D01*
X64489803Y-89390291D01*
X64388184Y-89453175D01*
X64380655Y-89457834D01*
X64257016Y-89581689D01*
X64165186Y-89730666D01*
X64162881Y-89737614D01*
X64162881Y-89737615D01*
X64115405Y-89880749D01*
X64110090Y-89896772D01*
X64099500Y-90000134D01*
X64099500Y-91699866D01*
X64099837Y-91703112D01*
X64099837Y-91703116D01*
X64109515Y-91796383D01*
X64110359Y-91804519D01*
X64112540Y-91811055D01*
X64112540Y-91811057D01*
X64140309Y-91894291D01*
X64165744Y-91970529D01*
X64257834Y-92119345D01*
X64263016Y-92124518D01*
X64267563Y-92130255D01*
X64266424Y-92131158D01*
X64296598Y-92186306D01*
X64299500Y-92213194D01*
X64299500Y-96687004D01*
X64279498Y-96755125D01*
X64262674Y-96776021D01*
X64257016Y-96781689D01*
X64253176Y-96787919D01*
X64253175Y-96787920D01*
X64232379Y-96821658D01*
X64165186Y-96930666D01*
X64162881Y-96937614D01*
X64162881Y-96937615D01*
X64115405Y-97080749D01*
X64110090Y-97096772D01*
X64099500Y-97200134D01*
X64099500Y-98899866D01*
X64099837Y-98903112D01*
X64099837Y-98903116D01*
X64109515Y-98996383D01*
X64110359Y-99004519D01*
X64112540Y-99011055D01*
X64112540Y-99011057D01*
X64129080Y-99060633D01*
X64165744Y-99170529D01*
X64257834Y-99319345D01*
X64381689Y-99442984D01*
X64530666Y-99534814D01*
X64537614Y-99537119D01*
X64537615Y-99537119D01*
X64690241Y-99587744D01*
X64690243Y-99587745D01*
X64696772Y-99589910D01*
X64800134Y-99600500D01*
X66299866Y-99600500D01*
X66303112Y-99600163D01*
X66303116Y-99600163D01*
X66397661Y-99590353D01*
X66397665Y-99590352D01*
X66404519Y-99589641D01*
X66411055Y-99587460D01*
X66411057Y-99587460D01*
X66563581Y-99536574D01*
X66570529Y-99534256D01*
X66719345Y-99442166D01*
X66842984Y-99318311D01*
X66934814Y-99169334D01*
X66970869Y-99060633D01*
X66987744Y-99009759D01*
X66987745Y-99009757D01*
X66989910Y-99003228D01*
X67000500Y-98899866D01*
X67000500Y-97200134D01*
X66990600Y-97104720D01*
X66990353Y-97102339D01*
X66990352Y-97102335D01*
X66989641Y-97095481D01*
X66976303Y-97055500D01*
X66936574Y-96936419D01*
X66934256Y-96929471D01*
X66842166Y-96780655D01*
X66836984Y-96775482D01*
X66832437Y-96769745D01*
X66833576Y-96768842D01*
X66803402Y-96713694D01*
X66800500Y-96686806D01*
X66800500Y-92212996D01*
X66820502Y-92144875D01*
X66837326Y-92123979D01*
X66837812Y-92123492D01*
X66842984Y-92118311D01*
X66934814Y-91969334D01*
X66949197Y-91925972D01*
X66987744Y-91809759D01*
X66987745Y-91809757D01*
X66989910Y-91803228D01*
X67000500Y-91699866D01*
X67000500Y-90000134D01*
X66999179Y-89987404D01*
X66990353Y-89902339D01*
X66990352Y-89902335D01*
X66989641Y-89895481D01*
X66970581Y-89838349D01*
X66936574Y-89736419D01*
X66934256Y-89729471D01*
X66842166Y-89580655D01*
X66718311Y-89457016D01*
X66712080Y-89453175D01*
X66610384Y-89390489D01*
X66562891Y-89337717D01*
X66550500Y-89283229D01*
X66550500Y-86569775D01*
X66570502Y-86501654D01*
X66624158Y-86455161D01*
X66694432Y-86445057D01*
X66733702Y-86457508D01*
X66809116Y-86495933D01*
X66815487Y-86497640D01*
X66815490Y-86497641D01*
X66984351Y-86542887D01*
X66984355Y-86542888D01*
X66989928Y-86544381D01*
X66995684Y-86544834D01*
X67065220Y-86550307D01*
X67065229Y-86550307D01*
X67067677Y-86550500D01*
X67299905Y-86550500D01*
X67532322Y-86550499D01*
X67580078Y-86546741D01*
X67604318Y-86544834D01*
X67604320Y-86544834D01*
X67610072Y-86544381D01*
X67790884Y-86495933D01*
X67798246Y-86492182D01*
X67842798Y-86469482D01*
X67912575Y-86456378D01*
X67957202Y-86469482D01*
X68001754Y-86492182D01*
X68009116Y-86495933D01*
X68102067Y-86520839D01*
X68184351Y-86542887D01*
X68184355Y-86542888D01*
X68189928Y-86544381D01*
X68195684Y-86544834D01*
X68265220Y-86550307D01*
X68265229Y-86550307D01*
X68267677Y-86550500D01*
X68464708Y-86550500D01*
X68532829Y-86570502D01*
X68579322Y-86624158D01*
X68589426Y-86694432D01*
X68559932Y-86759012D01*
X68500206Y-86797396D01*
X68477717Y-86801826D01*
X68437857Y-86805962D01*
X68402339Y-86809647D01*
X68402335Y-86809648D01*
X68395481Y-86810359D01*
X68388945Y-86812540D01*
X68388943Y-86812540D01*
X68249860Y-86858942D01*
X68229471Y-86865744D01*
X68080655Y-86957834D01*
X67957016Y-87081689D01*
X67953176Y-87087919D01*
X67953175Y-87087920D01*
X67932379Y-87121658D01*
X67865186Y-87230666D01*
X67862881Y-87237614D01*
X67862881Y-87237615D01*
X67823361Y-87356763D01*
X67810090Y-87396772D01*
X67799500Y-87500134D01*
X67799500Y-88999866D01*
X67810359Y-89104519D01*
X67812540Y-89111055D01*
X67812540Y-89111057D01*
X67840028Y-89193448D01*
X67865744Y-89270529D01*
X67957834Y-89419345D01*
X67963016Y-89424518D01*
X67995571Y-89457016D01*
X68081689Y-89542984D01*
X68230666Y-89634814D01*
X68237614Y-89637119D01*
X68237615Y-89637119D01*
X68390241Y-89687744D01*
X68390243Y-89687745D01*
X68396772Y-89689910D01*
X68500134Y-89700500D01*
X69373500Y-89700500D01*
X69441621Y-89720502D01*
X69488114Y-89774158D01*
X69499500Y-89826500D01*
X69499500Y-91199866D01*
X69499837Y-91203112D01*
X69499837Y-91203116D01*
X69509515Y-91296383D01*
X69510359Y-91304519D01*
X69512540Y-91311055D01*
X69512540Y-91311057D01*
X69526900Y-91354098D01*
X69565744Y-91470529D01*
X69657834Y-91619345D01*
X69781689Y-91742984D01*
X69930666Y-91834814D01*
X69937614Y-91837119D01*
X69937615Y-91837119D01*
X70090241Y-91887744D01*
X70090243Y-91887745D01*
X70096772Y-91889910D01*
X70200134Y-91900500D01*
X71152222Y-91900500D01*
X71220343Y-91920502D01*
X71266836Y-91974158D01*
X71276940Y-92044432D01*
X71263530Y-92083511D01*
X71263730Y-92083596D01*
X71260861Y-92090346D01*
X71260860Y-92090347D01*
X71197403Y-92239626D01*
X71195105Y-92245031D01*
X71175103Y-92313152D01*
X71164865Y-92351770D01*
X71144500Y-92526000D01*
X71144500Y-95718500D01*
X71124498Y-95786621D01*
X71070842Y-95833114D01*
X71018500Y-95844500D01*
X70086537Y-95844500D01*
X70086101Y-95844507D01*
X70086057Y-95844507D01*
X70076801Y-95844649D01*
X70063422Y-95844854D01*
X70057830Y-95845025D01*
X70057049Y-95845049D01*
X70057045Y-95845049D01*
X70055712Y-95845090D01*
X70054383Y-95845186D01*
X70054370Y-95845187D01*
X69999420Y-95849170D01*
X69990312Y-95849500D01*
X69896111Y-95849500D01*
X69849421Y-95840530D01*
X69733524Y-95794292D01*
X69728160Y-95792152D01*
X69722503Y-95791027D01*
X69722497Y-95791025D01*
X69526442Y-95752028D01*
X69526440Y-95752028D01*
X69520775Y-95750901D01*
X69515000Y-95750825D01*
X69514996Y-95750825D01*
X69408976Y-95749437D01*
X69309346Y-95748133D01*
X69303649Y-95749112D01*
X69303648Y-95749112D01*
X69106650Y-95782962D01*
X69106649Y-95782962D01*
X69100953Y-95783941D01*
X68902575Y-95857127D01*
X68897614Y-95860079D01*
X68897613Y-95860079D01*
X68854276Y-95885862D01*
X68720856Y-95965238D01*
X68561881Y-96104655D01*
X68430976Y-96270708D01*
X68428287Y-96275819D01*
X68428285Y-96275822D01*
X68378400Y-96370638D01*
X68332523Y-96457836D01*
X68269820Y-96659773D01*
X68244967Y-96869754D01*
X68258796Y-97080749D01*
X68260217Y-97086345D01*
X68260218Y-97086350D01*
X68289946Y-97203400D01*
X68310845Y-97285690D01*
X68399369Y-97477714D01*
X68521405Y-97650391D01*
X68630859Y-97757016D01*
X68654785Y-97780324D01*
X68689622Y-97842185D01*
X68684465Y-97915809D01*
X68570241Y-98212795D01*
X68549145Y-98267644D01*
X68506022Y-98324044D01*
X68439253Y-98348177D01*
X68429894Y-98348402D01*
X68427727Y-98348374D01*
X68409346Y-98348133D01*
X68403649Y-98349112D01*
X68403648Y-98349112D01*
X68206650Y-98382962D01*
X68206649Y-98382962D01*
X68200953Y-98383941D01*
X68002575Y-98457127D01*
X67997614Y-98460079D01*
X67997613Y-98460079D01*
X67854129Y-98545443D01*
X67820856Y-98565238D01*
X67661881Y-98704655D01*
X67530976Y-98870708D01*
X67528287Y-98875819D01*
X67528285Y-98875822D01*
X67515635Y-98899866D01*
X67432523Y-99057836D01*
X67369820Y-99259773D01*
X67344967Y-99469754D01*
X67358796Y-99680749D01*
X67410845Y-99885690D01*
X67499369Y-100077714D01*
X67621405Y-100250391D01*
X67625539Y-100254418D01*
X67719561Y-100346010D01*
X67772865Y-100397937D01*
X67777661Y-100401142D01*
X67777664Y-100401144D01*
X67920936Y-100496875D01*
X67948677Y-100515411D01*
X67953985Y-100517692D01*
X67953986Y-100517692D01*
X68137650Y-100596600D01*
X68137653Y-100596601D01*
X68142953Y-100598878D01*
X68148582Y-100600152D01*
X68148583Y-100600152D01*
X68343550Y-100644269D01*
X68343553Y-100644269D01*
X68349186Y-100645544D01*
X68354957Y-100645771D01*
X68354959Y-100645771D01*
X68416989Y-100648208D01*
X68560470Y-100653846D01*
X68630400Y-100643706D01*
X68686759Y-100635535D01*
X68763212Y-100648568D01*
X68772874Y-100653619D01*
X68785862Y-100660409D01*
X68976363Y-100715034D01*
X69008346Y-100717888D01*
X69090837Y-100725251D01*
X69090843Y-100725251D01*
X69093630Y-100725500D01*
X69706370Y-100725500D01*
X69709157Y-100725251D01*
X69709163Y-100725251D01*
X69791654Y-100717888D01*
X69823637Y-100715034D01*
X70014138Y-100660409D01*
X70014625Y-100662108D01*
X70048938Y-100655500D01*
X70451062Y-100655500D01*
X70485375Y-100662108D01*
X70485862Y-100660409D01*
X70676363Y-100715034D01*
X70708346Y-100717888D01*
X70790837Y-100725251D01*
X70790843Y-100725251D01*
X70793630Y-100725500D01*
X71406370Y-100725500D01*
X71409157Y-100725251D01*
X71409163Y-100725251D01*
X71510203Y-100716233D01*
X71579832Y-100730100D01*
X71630911Y-100779410D01*
X71647222Y-100848508D01*
X71646530Y-100856548D01*
X71644967Y-100869754D01*
X71658796Y-101080749D01*
X71660217Y-101086345D01*
X71660218Y-101086350D01*
X71691371Y-101209012D01*
X71710845Y-101285690D01*
X71799369Y-101477714D01*
X71921405Y-101650391D01*
X72072865Y-101797937D01*
X72077661Y-101801142D01*
X72077664Y-101801144D01*
X72175658Y-101866621D01*
X72248677Y-101915411D01*
X72253980Y-101917689D01*
X72253985Y-101917692D01*
X72357616Y-101962214D01*
X72395529Y-101988197D01*
X72395815Y-101988553D01*
X72435863Y-102022157D01*
X72439475Y-102025309D01*
X72441655Y-102027286D01*
X72443842Y-102029473D01*
X72446225Y-102031430D01*
X72446230Y-102031435D01*
X72478418Y-102057875D01*
X72479433Y-102058718D01*
X72548907Y-102117014D01*
X72548914Y-102117019D01*
X72553630Y-102120976D01*
X72558494Y-102123650D01*
X72562783Y-102127173D01*
X72648230Y-102172989D01*
X72649232Y-102173534D01*
X72728749Y-102217249D01*
X72728756Y-102217252D01*
X72734162Y-102220224D01*
X72739453Y-102221902D01*
X72744344Y-102224525D01*
X72750236Y-102226327D01*
X72750240Y-102226328D01*
X72836963Y-102252842D01*
X72838222Y-102253234D01*
X72873607Y-102264458D01*
X72930532Y-102282516D01*
X72936046Y-102283134D01*
X72941356Y-102284758D01*
X72946532Y-102285284D01*
X73000910Y-102310987D01*
X73010237Y-102318594D01*
X73185862Y-102410409D01*
X73191990Y-102412166D01*
X73191992Y-102412167D01*
X73291166Y-102440604D01*
X73376363Y-102465034D01*
X73408346Y-102467888D01*
X73490837Y-102475251D01*
X73490843Y-102475251D01*
X73493630Y-102475500D01*
X74056370Y-102475500D01*
X74059157Y-102475251D01*
X74059163Y-102475251D01*
X74141654Y-102467888D01*
X74173637Y-102465034D01*
X74258834Y-102440604D01*
X74358008Y-102412167D01*
X74358010Y-102412166D01*
X74364138Y-102410409D01*
X74539763Y-102318594D01*
X74549091Y-102310987D01*
X74688400Y-102197369D01*
X74693340Y-102193340D01*
X74729095Y-102149500D01*
X74814563Y-102044706D01*
X74814565Y-102044703D01*
X74818594Y-102039763D01*
X74825990Y-102025617D01*
X74878859Y-101924488D01*
X74910409Y-101864138D01*
X74916970Y-101841259D01*
X74947184Y-101735889D01*
X74965034Y-101673637D01*
X74975500Y-101556370D01*
X74975500Y-100943630D01*
X74972609Y-100911241D01*
X74986476Y-100841613D01*
X75035785Y-100790534D01*
X75109312Y-100774539D01*
X75120076Y-100775500D01*
X75629924Y-100775500D01*
X75632711Y-100775251D01*
X75632717Y-100775251D01*
X75711904Y-100768183D01*
X75744187Y-100765302D01*
X75866952Y-100730100D01*
X75923676Y-100713835D01*
X75923678Y-100713834D01*
X75929806Y-100712077D01*
X76059958Y-100644035D01*
X76095280Y-100625569D01*
X76095282Y-100625568D01*
X76100930Y-100622615D01*
X76110177Y-100615074D01*
X76143864Y-100587599D01*
X76209296Y-100560045D01*
X76279238Y-100572241D01*
X76331483Y-100620313D01*
X76349500Y-100685242D01*
X76349500Y-101648500D01*
X76329498Y-101716621D01*
X76275842Y-101763114D01*
X76223500Y-101774500D01*
X75867184Y-101774500D01*
X75864397Y-101774749D01*
X75864391Y-101774749D01*
X75778545Y-101782411D01*
X75746913Y-101785234D01*
X75551530Y-101841259D01*
X75371404Y-101935427D01*
X75366461Y-101939458D01*
X75366460Y-101939459D01*
X75243475Y-102039763D01*
X75213891Y-102063891D01*
X75209862Y-102068831D01*
X75122829Y-102175545D01*
X75085427Y-102221404D01*
X74991259Y-102401530D01*
X74935234Y-102596913D01*
X74924500Y-102717184D01*
X74924500Y-103457816D01*
X74935234Y-103578087D01*
X74991259Y-103773470D01*
X75085427Y-103953596D01*
X75089458Y-103958539D01*
X75089459Y-103958540D01*
X75172011Y-104059759D01*
X75213891Y-104111109D01*
X75218831Y-104115138D01*
X75354864Y-104226083D01*
X75371404Y-104239573D01*
X75377057Y-104242528D01*
X75377058Y-104242529D01*
X75380612Y-104244387D01*
X75551530Y-104333741D01*
X75746913Y-104389766D01*
X75778545Y-104392589D01*
X75864391Y-104400251D01*
X75864397Y-104400251D01*
X75867184Y-104400500D01*
X77232816Y-104400500D01*
X77235603Y-104400251D01*
X77235609Y-104400251D01*
X77321455Y-104392589D01*
X77353087Y-104389766D01*
X77548470Y-104333741D01*
X77554127Y-104330783D01*
X77560054Y-104328413D01*
X77560676Y-104329969D01*
X77622265Y-104317736D01*
X77688324Y-104343748D01*
X77729834Y-104401345D01*
X77737000Y-104443231D01*
X77737000Y-104656769D01*
X77716998Y-104724890D01*
X77663342Y-104771383D01*
X77593068Y-104781487D01*
X77560322Y-104770916D01*
X77560054Y-104771587D01*
X77554127Y-104769217D01*
X77548470Y-104766259D01*
X77353087Y-104710234D01*
X77309053Y-104706304D01*
X77235609Y-104699749D01*
X77235603Y-104699749D01*
X77232816Y-104699500D01*
X75867184Y-104699500D01*
X75864397Y-104699749D01*
X75864391Y-104699749D01*
X75790947Y-104706304D01*
X75746913Y-104710234D01*
X75551530Y-104766259D01*
X75371404Y-104860427D01*
X75330468Y-104893814D01*
X75317136Y-104904687D01*
X75251704Y-104932241D01*
X75181763Y-104920046D01*
X75157864Y-104904687D01*
X75144533Y-104893814D01*
X75103596Y-104860427D01*
X74923470Y-104766259D01*
X74728087Y-104710234D01*
X74684053Y-104706304D01*
X74610609Y-104699749D01*
X74610603Y-104699749D01*
X74607816Y-104699500D01*
X73192184Y-104699500D01*
X73189397Y-104699749D01*
X73189391Y-104699749D01*
X73115947Y-104706304D01*
X73071913Y-104710234D01*
X72876530Y-104766259D01*
X72696404Y-104860427D01*
X72691461Y-104864458D01*
X72691460Y-104864459D01*
X72608351Y-104932241D01*
X72538891Y-104988891D01*
X72534862Y-104993831D01*
X72419765Y-105134955D01*
X72410427Y-105146404D01*
X72407472Y-105152057D01*
X72407471Y-105152058D01*
X72398926Y-105168403D01*
X72316259Y-105326530D01*
X72260234Y-105521913D01*
X72258983Y-105535931D01*
X72250468Y-105631342D01*
X72249500Y-105642184D01*
X72249500Y-106407816D01*
X72260234Y-106528087D01*
X72316259Y-106723470D01*
X72372180Y-106830436D01*
X72407390Y-106897786D01*
X72410427Y-106903596D01*
X72414458Y-106908539D01*
X72414459Y-106908540D01*
X72497578Y-107010454D01*
X72538891Y-107061109D01*
X72543831Y-107065138D01*
X72685737Y-107180873D01*
X72696404Y-107189573D01*
X72876530Y-107283741D01*
X73071913Y-107339766D01*
X73103545Y-107342589D01*
X73189391Y-107350251D01*
X73189397Y-107350251D01*
X73192184Y-107350500D01*
X74607816Y-107350500D01*
X74610603Y-107350251D01*
X74610609Y-107350251D01*
X74696455Y-107342589D01*
X74728087Y-107339766D01*
X74923470Y-107283741D01*
X75103596Y-107189573D01*
X75173192Y-107132812D01*
X75238624Y-107105259D01*
X75308565Y-107117455D01*
X75332463Y-107132813D01*
X75371404Y-107164573D01*
X75551530Y-107258741D01*
X75746913Y-107314766D01*
X75778545Y-107317589D01*
X75864391Y-107325251D01*
X75864397Y-107325251D01*
X75867184Y-107325500D01*
X77232816Y-107325500D01*
X77235603Y-107325251D01*
X77235609Y-107325251D01*
X77321455Y-107317589D01*
X77353087Y-107314766D01*
X77548470Y-107258741D01*
X77728596Y-107164573D01*
X77733544Y-107160538D01*
X77818368Y-107091357D01*
X77883800Y-107063803D01*
X77898004Y-107063000D01*
X78123368Y-107063000D01*
X78136976Y-107063737D01*
X78170322Y-107067360D01*
X78170326Y-107067360D01*
X78176447Y-107068025D01*
X78194332Y-107066460D01*
X78228472Y-107063474D01*
X78233296Y-107063145D01*
X78236259Y-107063000D01*
X78239341Y-107063000D01*
X78246348Y-107062313D01*
X78283892Y-107058632D01*
X78285205Y-107058510D01*
X78332086Y-107054408D01*
X78381676Y-107050070D01*
X78387005Y-107048522D01*
X78392530Y-107047980D01*
X78485313Y-107019967D01*
X78486468Y-107019625D01*
X78518035Y-107010454D01*
X78579510Y-106992594D01*
X78584440Y-106990038D01*
X78589751Y-106988435D01*
X78595200Y-106985538D01*
X78675323Y-106942937D01*
X78676489Y-106942325D01*
X78702121Y-106929038D01*
X78762412Y-106897786D01*
X78766747Y-106894326D01*
X78771651Y-106891718D01*
X78817127Y-106854629D01*
X78846790Y-106830436D01*
X78847817Y-106829608D01*
X78885747Y-106799329D01*
X78885750Y-106799326D01*
X78888500Y-106797131D01*
X78890992Y-106794639D01*
X78892079Y-106793667D01*
X78896428Y-106789952D01*
X78926525Y-106765406D01*
X78926528Y-106765403D01*
X78931300Y-106761511D01*
X78957688Y-106729614D01*
X78961900Y-106724522D01*
X78969890Y-106715741D01*
X79484968Y-106200664D01*
X79495111Y-106191563D01*
X79521246Y-106170550D01*
X79526053Y-106166685D01*
X79559621Y-106126680D01*
X79562790Y-106123048D01*
X79564794Y-106120838D01*
X79566973Y-106118659D01*
X79595440Y-106084002D01*
X79596222Y-106083060D01*
X79620093Y-106054613D01*
X79658476Y-106008870D01*
X79661150Y-106004006D01*
X79664673Y-105999717D01*
X79710489Y-105914270D01*
X79711034Y-105913268D01*
X79754749Y-105833751D01*
X79754752Y-105833744D01*
X79757724Y-105828338D01*
X79759402Y-105823047D01*
X79762025Y-105818156D01*
X79783770Y-105747034D01*
X79790342Y-105725537D01*
X79790734Y-105724278D01*
X79818151Y-105637846D01*
X79820016Y-105631968D01*
X79820634Y-105626454D01*
X79822258Y-105621144D01*
X79832058Y-105524673D01*
X79832179Y-105523538D01*
X79838000Y-105471636D01*
X79838000Y-105468110D01*
X79838082Y-105466641D01*
X79838531Y-105460935D01*
X79842455Y-105422311D01*
X79842455Y-105422308D01*
X79843077Y-105416185D01*
X79838559Y-105368390D01*
X79838000Y-105356532D01*
X79838000Y-104449423D01*
X79858002Y-104381302D01*
X79911658Y-104334809D01*
X79981932Y-104324705D01*
X80043636Y-104351780D01*
X80152501Y-104440568D01*
X80157445Y-104444600D01*
X80163098Y-104447555D01*
X80163099Y-104447556D01*
X80326290Y-104532870D01*
X80326293Y-104532871D01*
X80331945Y-104535826D01*
X80338075Y-104537584D01*
X80338083Y-104537587D01*
X80373776Y-104547821D01*
X80433745Y-104585824D01*
X80463648Y-104650216D01*
X80459380Y-104706304D01*
X80444820Y-104753195D01*
X80419967Y-104963176D01*
X80433796Y-105174171D01*
X80435218Y-105179770D01*
X80444718Y-105217175D01*
X80442100Y-105288124D01*
X80434256Y-105306567D01*
X80401936Y-105368390D01*
X80387923Y-105395194D01*
X80334698Y-105580813D01*
X80334165Y-105586786D01*
X80328971Y-105644986D01*
X80324500Y-105695076D01*
X80324500Y-106704924D01*
X80324749Y-106707711D01*
X80324749Y-106707717D01*
X80329550Y-106761511D01*
X80334698Y-106819187D01*
X80348444Y-106867125D01*
X80384221Y-106991894D01*
X80387923Y-107004806D01*
X80433171Y-107091357D01*
X80471448Y-107164573D01*
X80477385Y-107175930D01*
X80481414Y-107180870D01*
X80481416Y-107180873D01*
X80590617Y-107314766D01*
X80599429Y-107325571D01*
X80604369Y-107329600D01*
X80739736Y-107440002D01*
X80749070Y-107447615D01*
X80920194Y-107537077D01*
X80926322Y-107538834D01*
X80926324Y-107538835D01*
X80996562Y-107558975D01*
X81105813Y-107590302D01*
X81138096Y-107593183D01*
X81217283Y-107600251D01*
X81217289Y-107600251D01*
X81220076Y-107600500D01*
X81729924Y-107600500D01*
X81732711Y-107600251D01*
X81732717Y-107600251D01*
X81811904Y-107593183D01*
X81844187Y-107590302D01*
X82029806Y-107537077D01*
X82093662Y-107503694D01*
X82114835Y-107492625D01*
X82184471Y-107478791D01*
X82219900Y-107487257D01*
X82349183Y-107538835D01*
X82396840Y-107557848D01*
X82402497Y-107558973D01*
X82402503Y-107558975D01*
X82598558Y-107597972D01*
X82598560Y-107597972D01*
X82604225Y-107599099D01*
X82610000Y-107599175D01*
X82610004Y-107599175D01*
X82716024Y-107600563D01*
X82815654Y-107601867D01*
X82831321Y-107599175D01*
X83018350Y-107567038D01*
X83018351Y-107567038D01*
X83024047Y-107566059D01*
X83222425Y-107492873D01*
X83231865Y-107487257D01*
X83399179Y-107387716D01*
X83399180Y-107387715D01*
X83404144Y-107384762D01*
X83563119Y-107245345D01*
X83694024Y-107079292D01*
X83700235Y-107067488D01*
X83786743Y-106903062D01*
X83792477Y-106892164D01*
X83849749Y-106707717D01*
X83853467Y-106695744D01*
X83853467Y-106695743D01*
X83855180Y-106690227D01*
X83860788Y-106642847D01*
X83875064Y-106522232D01*
X83875064Y-106522225D01*
X83875500Y-106518545D01*
X83875500Y-105896359D01*
X83861081Y-105739440D01*
X83849360Y-105697878D01*
X83830594Y-105631342D01*
X83803686Y-105535931D01*
X83739241Y-105405249D01*
X83727051Y-105335308D01*
X83732932Y-105309026D01*
X83748504Y-105263152D01*
X83760988Y-105177058D01*
X83778314Y-105057562D01*
X83778314Y-105057560D01*
X83778846Y-105053892D01*
X83780429Y-104993422D01*
X83761081Y-104782862D01*
X83759513Y-104777304D01*
X83759512Y-104777296D01*
X83756225Y-104765639D01*
X83756987Y-104694646D01*
X83796010Y-104635336D01*
X83837619Y-104611917D01*
X83913581Y-104586574D01*
X83920529Y-104584256D01*
X84069345Y-104492166D01*
X84192984Y-104368311D01*
X84215985Y-104330997D01*
X84226405Y-104314091D01*
X84284814Y-104219334D01*
X84301989Y-104167555D01*
X84337744Y-104059759D01*
X84337745Y-104059757D01*
X84339910Y-104053228D01*
X84350500Y-103949866D01*
X84350500Y-103826500D01*
X84370502Y-103758379D01*
X84424158Y-103711886D01*
X84476500Y-103700500D01*
X84529836Y-103700500D01*
X84597957Y-103720502D01*
X84618931Y-103737405D01*
X85001510Y-104119984D01*
X85012377Y-104132374D01*
X85025790Y-104149854D01*
X85085342Y-104204042D01*
X85085676Y-104204346D01*
X85089971Y-104208445D01*
X85105807Y-104224281D01*
X85107960Y-104226081D01*
X85107962Y-104226083D01*
X85125702Y-104240916D01*
X85129669Y-104244376D01*
X85190893Y-104300086D01*
X85205948Y-104309530D01*
X85219807Y-104319600D01*
X85225913Y-104324705D01*
X85233438Y-104330997D01*
X85255793Y-104343748D01*
X85305337Y-104372008D01*
X85309843Y-104374704D01*
X85379990Y-104418707D01*
X85396479Y-104425335D01*
X85411909Y-104432795D01*
X85427337Y-104441595D01*
X85493226Y-104464928D01*
X85505366Y-104469227D01*
X85510302Y-104471092D01*
X85562726Y-104492166D01*
X85587105Y-104501966D01*
X85592599Y-104503104D01*
X85592603Y-104503105D01*
X85604497Y-104505568D01*
X85621009Y-104510178D01*
X85637757Y-104516109D01*
X85708963Y-104527769D01*
X85719450Y-104529486D01*
X85724641Y-104530448D01*
X85805690Y-104547233D01*
X85810300Y-104547499D01*
X85810301Y-104547499D01*
X85833262Y-104548823D01*
X85846368Y-104550270D01*
X85852504Y-104551275D01*
X85852509Y-104551275D01*
X85858046Y-104552182D01*
X85863660Y-104552094D01*
X85863662Y-104552094D01*
X85964135Y-104550516D01*
X85966113Y-104550500D01*
X86184224Y-104550500D01*
X86252345Y-104570502D01*
X86298838Y-104624158D01*
X86308942Y-104694432D01*
X86279448Y-104759012D01*
X86264410Y-104773691D01*
X86166181Y-104854730D01*
X86123256Y-104892979D01*
X86109441Y-104906266D01*
X86069534Y-104947685D01*
X85987801Y-105039249D01*
X85950717Y-105087769D01*
X85919581Y-105128507D01*
X85918010Y-105130562D01*
X85916702Y-105132574D01*
X85916697Y-105132581D01*
X85911399Y-105139558D01*
X85905816Y-105146404D01*
X85885427Y-105171404D01*
X85791259Y-105351530D01*
X85781852Y-105384338D01*
X85742403Y-105521913D01*
X85735234Y-105546913D01*
X85734701Y-105552885D01*
X85732749Y-105574761D01*
X85730841Y-105588068D01*
X85723713Y-105624006D01*
X85709060Y-105745863D01*
X85704372Y-105803180D01*
X85704322Y-105804325D01*
X85704321Y-105804343D01*
X85703708Y-105818426D01*
X85703538Y-105822325D01*
X85703223Y-105879828D01*
X85724489Y-106531999D01*
X85724489Y-106532000D01*
X85724500Y-106532326D01*
X85724408Y-106532329D01*
X85724216Y-106533108D01*
X85724525Y-106533098D01*
X85812967Y-109245326D01*
X85816420Y-109296915D01*
X85816527Y-109297975D01*
X85816530Y-109298005D01*
X85817372Y-109306302D01*
X85818159Y-109314066D01*
X85825134Y-109365312D01*
X85843775Y-109474222D01*
X85844280Y-109476306D01*
X85844283Y-109476318D01*
X85860352Y-109542558D01*
X85868142Y-109574673D01*
X85878517Y-109607463D01*
X85916361Y-109703636D01*
X85917282Y-109705576D01*
X85917284Y-109705580D01*
X85917332Y-109705680D01*
X85960018Y-109795570D01*
X85969130Y-109811792D01*
X85985054Y-109880978D01*
X85961044Y-109947792D01*
X85904724Y-109991018D01*
X85859276Y-109999500D01*
X66655483Y-109999500D01*
X66639692Y-109998507D01*
X66638671Y-109998378D01*
X66610545Y-109994825D01*
X66603538Y-109995512D01*
X66603536Y-109995512D01*
X66596205Y-109996231D01*
X66583178Y-109997508D01*
X66565394Y-109997989D01*
X66178475Y-109981096D01*
X66167526Y-109980138D01*
X66162665Y-109979498D01*
X65754654Y-109925783D01*
X65743846Y-109923877D01*
X65337287Y-109833745D01*
X65326670Y-109830900D01*
X65266061Y-109811790D01*
X64929516Y-109705677D01*
X64919202Y-109701924D01*
X64534449Y-109542554D01*
X64524514Y-109537921D01*
X64155122Y-109345627D01*
X64145613Y-109340137D01*
X64106373Y-109315138D01*
X63794407Y-109116394D01*
X63785403Y-109110090D01*
X63455021Y-108856580D01*
X63446601Y-108849514D01*
X63139586Y-108568187D01*
X63131813Y-108560414D01*
X62850486Y-108253399D01*
X62843420Y-108244979D01*
X62589910Y-107914597D01*
X62583606Y-107905593D01*
X62359863Y-107554387D01*
X62354373Y-107544878D01*
X62162079Y-107175486D01*
X62157442Y-107165542D01*
X62155370Y-107160538D01*
X61998076Y-106780798D01*
X61994320Y-106770477D01*
X61981283Y-106729127D01*
X61869100Y-106373329D01*
X61866255Y-106362712D01*
X61776123Y-105956154D01*
X61774216Y-105945338D01*
X61770198Y-105914813D01*
X61719862Y-105532473D01*
X61718904Y-105521524D01*
X61711235Y-105345873D01*
X61702763Y-105151841D01*
X61703870Y-105128805D01*
X61704955Y-105121088D01*
X61705249Y-105100000D01*
X61701285Y-105064659D01*
X61700500Y-105050615D01*
X61700500Y-85341376D01*
X61720502Y-85273255D01*
X61774158Y-85226762D01*
X61844432Y-85216658D01*
X61909012Y-85246152D01*
G37*
%TD.AperFunction*%
%TA.AperFunction,Conductor*%
G36*
X99639911Y-98787147D02*
G01*
X99687030Y-98840253D01*
X99694156Y-98859201D01*
X99741259Y-99023470D01*
X99835427Y-99203596D01*
X99839458Y-99208539D01*
X99839459Y-99208540D01*
X99923904Y-99312080D01*
X99963891Y-99361109D01*
X99968831Y-99365138D01*
X100102359Y-99474040D01*
X100121404Y-99489573D01*
X100301530Y-99583741D01*
X100496913Y-99639766D01*
X100528545Y-99642589D01*
X100614391Y-99650251D01*
X100614397Y-99650251D01*
X100617184Y-99650500D01*
X101982816Y-99650500D01*
X101985603Y-99650251D01*
X101985609Y-99650251D01*
X102071455Y-99642589D01*
X102103087Y-99639766D01*
X102298470Y-99583741D01*
X102315125Y-99575034D01*
X102384761Y-99561200D01*
X102450821Y-99587210D01*
X102492333Y-99644806D01*
X102499500Y-99686696D01*
X102499500Y-105044517D01*
X102498507Y-105060307D01*
X102494825Y-105089455D01*
X102495512Y-105096462D01*
X102495512Y-105096464D01*
X102497508Y-105116817D01*
X102497989Y-105134606D01*
X102485963Y-105410054D01*
X102481096Y-105521524D01*
X102480138Y-105532473D01*
X102429803Y-105914813D01*
X102425784Y-105945338D01*
X102423877Y-105956154D01*
X102333745Y-106362712D01*
X102330900Y-106373329D01*
X102218718Y-106729127D01*
X102205680Y-106770477D01*
X102201924Y-106780798D01*
X102044631Y-107160538D01*
X102042558Y-107165542D01*
X102037921Y-107175486D01*
X101845627Y-107544878D01*
X101840137Y-107554387D01*
X101616394Y-107905593D01*
X101610090Y-107914597D01*
X101356580Y-108244979D01*
X101349514Y-108253399D01*
X101068187Y-108560414D01*
X101060414Y-108568187D01*
X100753399Y-108849514D01*
X100744979Y-108856580D01*
X100414597Y-109110090D01*
X100405593Y-109116394D01*
X100093628Y-109315138D01*
X100054387Y-109340137D01*
X100044878Y-109345627D01*
X99675486Y-109537921D01*
X99665551Y-109542554D01*
X99280798Y-109701924D01*
X99270484Y-109705677D01*
X98933939Y-109811790D01*
X98873330Y-109830900D01*
X98862713Y-109833745D01*
X98456154Y-109923877D01*
X98445346Y-109925783D01*
X98037335Y-109979498D01*
X98032474Y-109980138D01*
X98021525Y-109981096D01*
X97646017Y-109997491D01*
X97624731Y-109996617D01*
X97617535Y-109995708D01*
X97610545Y-109994825D01*
X97603538Y-109995512D01*
X97603535Y-109995512D01*
X97568995Y-109998899D01*
X97556700Y-109999500D01*
X88501500Y-109999500D01*
X88433379Y-109979498D01*
X88386886Y-109925842D01*
X88375500Y-109873500D01*
X88375500Y-109856372D01*
X88395502Y-109788251D01*
X88424996Y-109756256D01*
X91716806Y-107240815D01*
X92159745Y-106902343D01*
X92165079Y-106897942D01*
X92202425Y-106867125D01*
X92203340Y-106866370D01*
X92217409Y-106853847D01*
X92258219Y-106814686D01*
X92342116Y-106727920D01*
X92414367Y-106641042D01*
X92421759Y-106630663D01*
X92434793Y-106612364D01*
X92434802Y-106612351D01*
X92436169Y-106610431D01*
X92437390Y-106608413D01*
X92437397Y-106608402D01*
X92493427Y-106515781D01*
X92493431Y-106515774D01*
X92494648Y-106513762D01*
X92544899Y-106414640D01*
X92588309Y-106310328D01*
X92600114Y-106274647D01*
X92600683Y-106272367D01*
X92600687Y-106272354D01*
X92626914Y-106167301D01*
X92627485Y-106165015D01*
X92647880Y-106046064D01*
X92652934Y-106008111D01*
X92655184Y-105991218D01*
X92655186Y-105991200D01*
X92655342Y-105990029D01*
X92657129Y-105971268D01*
X92660380Y-105914813D01*
X92670526Y-105410054D01*
X92683653Y-104757004D01*
X92705020Y-104689299D01*
X92759600Y-104643894D01*
X92791548Y-104634840D01*
X92864016Y-104624333D01*
X92864021Y-104624332D01*
X92869730Y-104623504D01*
X92875194Y-104621649D01*
X92875199Y-104621648D01*
X93064483Y-104557395D01*
X93064488Y-104557393D01*
X93069955Y-104555537D01*
X93076103Y-104552094D01*
X93249395Y-104455046D01*
X93249399Y-104455043D01*
X93254442Y-104452219D01*
X93417012Y-104317012D01*
X93552219Y-104154442D01*
X93555043Y-104149399D01*
X93555046Y-104149395D01*
X93652713Y-103974998D01*
X93652714Y-103974996D01*
X93655537Y-103969955D01*
X93657393Y-103964488D01*
X93657395Y-103964483D01*
X93721647Y-103775200D01*
X93723504Y-103769730D01*
X93753846Y-103560470D01*
X93755429Y-103500000D01*
X93736081Y-103289440D01*
X93678686Y-103085931D01*
X93676770Y-103082046D01*
X93668877Y-103027603D01*
X93670307Y-103009439D01*
X93670307Y-103009427D01*
X93670500Y-103006981D01*
X93670500Y-102976500D01*
X93690502Y-102908379D01*
X93744158Y-102861886D01*
X93796499Y-102850500D01*
X94025363Y-102850499D01*
X94032322Y-102850499D01*
X94080078Y-102846741D01*
X94104318Y-102844834D01*
X94104320Y-102844834D01*
X94110072Y-102844381D01*
X94290884Y-102795933D01*
X94457673Y-102710950D01*
X94603147Y-102593147D01*
X94720950Y-102447673D01*
X94805933Y-102280884D01*
X94821034Y-102224525D01*
X94852887Y-102105649D01*
X94852888Y-102105645D01*
X94854381Y-102100072D01*
X94857546Y-102059862D01*
X94860307Y-102024780D01*
X94860307Y-102024771D01*
X94860500Y-102022323D01*
X94860499Y-101617678D01*
X94854381Y-101539928D01*
X94805933Y-101359116D01*
X94808328Y-101358474D01*
X94803505Y-101298866D01*
X94811422Y-101276340D01*
X94810876Y-101276130D01*
X94813245Y-101269959D01*
X94816239Y-101264083D01*
X94830635Y-101210359D01*
X94862922Y-101089860D01*
X94864416Y-101084286D01*
X94870500Y-101006981D01*
X94870499Y-100613020D01*
X94867290Y-100572241D01*
X94864869Y-100541465D01*
X94864868Y-100541460D01*
X94864416Y-100535714D01*
X94816239Y-100355917D01*
X94813243Y-100350037D01*
X94811369Y-100345155D01*
X94805630Y-100274390D01*
X94811369Y-100254845D01*
X94813243Y-100249963D01*
X94816239Y-100244083D01*
X94819896Y-100230437D01*
X94832033Y-100185141D01*
X94864416Y-100064286D01*
X94870500Y-99986981D01*
X94870499Y-99593020D01*
X94864416Y-99515714D01*
X94862919Y-99510128D01*
X94861942Y-99504441D01*
X94863810Y-99504120D01*
X94865933Y-99439330D01*
X94921647Y-99275200D01*
X94923504Y-99269730D01*
X94932377Y-99208540D01*
X94953846Y-99060470D01*
X94954970Y-99060633D01*
X94978942Y-98998932D01*
X95036351Y-98957161D01*
X95086564Y-98950740D01*
X95086591Y-98950126D01*
X95089391Y-98950251D01*
X95092184Y-98950500D01*
X96507816Y-98950500D01*
X96510603Y-98950251D01*
X96510609Y-98950251D01*
X96596455Y-98942589D01*
X96628087Y-98939766D01*
X96823470Y-98883741D01*
X96850064Y-98869838D01*
X96908439Y-98855500D01*
X97191561Y-98855500D01*
X97249936Y-98869838D01*
X97276530Y-98883741D01*
X97471913Y-98939766D01*
X97503545Y-98942589D01*
X97589391Y-98950251D01*
X97589397Y-98950251D01*
X97592184Y-98950500D01*
X99007816Y-98950500D01*
X99010603Y-98950251D01*
X99010609Y-98950251D01*
X99096455Y-98942589D01*
X99128087Y-98939766D01*
X99323470Y-98883741D01*
X99503596Y-98789573D01*
X99505171Y-98788289D01*
X99571560Y-98767946D01*
X99639911Y-98787147D01*
G37*
%TD.AperFunction*%
%TA.AperFunction,Conductor*%
G36*
X81362223Y-100615074D02*
G01*
X81419059Y-100657621D01*
X81425334Y-100666826D01*
X81457834Y-100719345D01*
X81581689Y-100842984D01*
X81587919Y-100846824D01*
X81587920Y-100846825D01*
X81603694Y-100856548D01*
X81730666Y-100934814D01*
X81737614Y-100937119D01*
X81737615Y-100937119D01*
X81890241Y-100987744D01*
X81890243Y-100987745D01*
X81896772Y-100989910D01*
X82000134Y-101000500D01*
X84098703Y-101000500D01*
X84166824Y-101020502D01*
X84213317Y-101074158D01*
X84223421Y-101144432D01*
X84193927Y-101209012D01*
X84138579Y-101246024D01*
X84079471Y-101265744D01*
X83930655Y-101357834D01*
X83807016Y-101481689D01*
X83715186Y-101630666D01*
X83712881Y-101637614D01*
X83712881Y-101637615D01*
X83663369Y-101786887D01*
X83660090Y-101796772D01*
X83649500Y-101900134D01*
X83649500Y-102023500D01*
X83629498Y-102091621D01*
X83575842Y-102138114D01*
X83523500Y-102149500D01*
X83020876Y-102149500D01*
X82995249Y-102146738D01*
X82990856Y-102145332D01*
X82984913Y-102144618D01*
X82984908Y-102144617D01*
X82783570Y-102120431D01*
X82783566Y-102120431D01*
X82777623Y-102119717D01*
X82771648Y-102120140D01*
X82771645Y-102120140D01*
X82569378Y-102134462D01*
X82569375Y-102134462D01*
X82563394Y-102134886D01*
X82551305Y-102138114D01*
X82524634Y-102145235D01*
X82492130Y-102149500D01*
X82150134Y-102149500D01*
X82146888Y-102149837D01*
X82146884Y-102149837D01*
X82052339Y-102159647D01*
X82052335Y-102159648D01*
X82045481Y-102160359D01*
X82038939Y-102162542D01*
X82038937Y-102162542D01*
X81934380Y-102197425D01*
X81863430Y-102200010D01*
X81814867Y-102175545D01*
X81672499Y-102059432D01*
X81672498Y-102059431D01*
X81667555Y-102055400D01*
X81661901Y-102052444D01*
X81498710Y-101967130D01*
X81498707Y-101967129D01*
X81493055Y-101964174D01*
X81486220Y-101962214D01*
X81309534Y-101911549D01*
X81309530Y-101911548D01*
X81303775Y-101909898D01*
X81297809Y-101909366D01*
X81297806Y-101909365D01*
X81190058Y-101899749D01*
X81190050Y-101899749D01*
X81187264Y-101899500D01*
X80637736Y-101899500D01*
X80634950Y-101899749D01*
X80634942Y-101899749D01*
X80527194Y-101909365D01*
X80527191Y-101909366D01*
X80521225Y-101909898D01*
X80515466Y-101911550D01*
X80515463Y-101911550D01*
X80501999Y-101915411D01*
X80496399Y-101917017D01*
X80494833Y-101917466D01*
X80423838Y-101917017D01*
X80364356Y-101878257D01*
X80335272Y-101813491D01*
X80338393Y-101763740D01*
X80342816Y-101747232D01*
X80342818Y-101747221D01*
X80344312Y-101741645D01*
X80345091Y-101731747D01*
X80350307Y-101665477D01*
X80350307Y-101665470D01*
X80350500Y-101663021D01*
X80350500Y-101574821D01*
X80370502Y-101506700D01*
X80387405Y-101485726D01*
X81229096Y-100644035D01*
X81291408Y-100610009D01*
X81362223Y-100615074D01*
G37*
%TD.AperFunction*%
%TA.AperFunction,Conductor*%
G36*
X87612532Y-98577265D02*
G01*
X87669368Y-98619812D01*
X87694179Y-98686332D01*
X87694500Y-98695321D01*
X87694500Y-101798500D01*
X87674498Y-101866621D01*
X87620842Y-101913114D01*
X87568500Y-101924500D01*
X86667184Y-101924500D01*
X86667184Y-101923132D01*
X86603387Y-101907502D01*
X86554510Y-101856008D01*
X86541306Y-101811528D01*
X86540353Y-101802339D01*
X86540352Y-101802335D01*
X86539641Y-101795481D01*
X86536223Y-101785234D01*
X86486574Y-101636419D01*
X86484256Y-101629471D01*
X86392166Y-101480655D01*
X86268311Y-101357016D01*
X86119334Y-101265186D01*
X86061564Y-101246024D01*
X85959759Y-101212256D01*
X85959757Y-101212255D01*
X85953228Y-101210090D01*
X85849866Y-101199500D01*
X85212476Y-101199500D01*
X85203122Y-101198740D01*
X85203093Y-101199136D01*
X85197491Y-101198725D01*
X85191954Y-101197818D01*
X85186341Y-101197906D01*
X85186339Y-101197906D01*
X85085895Y-101199484D01*
X85083916Y-101199500D01*
X84851297Y-101199500D01*
X84783176Y-101179498D01*
X84736683Y-101125842D01*
X84726579Y-101055568D01*
X84756073Y-100990988D01*
X84811421Y-100953976D01*
X84863581Y-100936574D01*
X84870529Y-100934256D01*
X85019345Y-100842166D01*
X85142984Y-100718311D01*
X85234814Y-100569334D01*
X85280121Y-100432741D01*
X85320551Y-100374383D01*
X85387429Y-100347010D01*
X85389450Y-100346812D01*
X85396404Y-100346131D01*
X85397705Y-100346010D01*
X85444586Y-100341908D01*
X85494176Y-100337570D01*
X85499505Y-100336022D01*
X85505030Y-100335480D01*
X85597813Y-100307467D01*
X85598968Y-100307125D01*
X85692010Y-100280094D01*
X85696940Y-100277538D01*
X85702251Y-100275935D01*
X85707700Y-100273038D01*
X85787823Y-100230437D01*
X85788989Y-100229825D01*
X85814621Y-100216538D01*
X85874912Y-100185286D01*
X85879247Y-100181826D01*
X85884151Y-100179218D01*
X85959290Y-100117936D01*
X85960317Y-100117108D01*
X85998247Y-100086829D01*
X85998250Y-100086826D01*
X86001000Y-100084631D01*
X86003492Y-100082139D01*
X86004579Y-100081167D01*
X86008928Y-100077452D01*
X86039025Y-100052906D01*
X86039028Y-100052903D01*
X86043800Y-100049011D01*
X86074405Y-100012016D01*
X86082394Y-100003237D01*
X87479405Y-98606226D01*
X87541717Y-98572200D01*
X87612532Y-98577265D01*
G37*
%TD.AperFunction*%
%TA.AperFunction,Conductor*%
G36*
X82482179Y-79281384D02*
G01*
X82540975Y-79321179D01*
X82568922Y-79386443D01*
X82568940Y-79416208D01*
X82544967Y-79618754D01*
X82558796Y-79829749D01*
X82560217Y-79835345D01*
X82560218Y-79835350D01*
X82602550Y-80002028D01*
X82610845Y-80034690D01*
X82699369Y-80226714D01*
X82821405Y-80399391D01*
X82839676Y-80417190D01*
X82957681Y-80532145D01*
X82972865Y-80546937D01*
X82977661Y-80550142D01*
X82977664Y-80550144D01*
X82988516Y-80557395D01*
X83026673Y-80582890D01*
X83038225Y-80590609D01*
X83083753Y-80645086D01*
X83092601Y-80715529D01*
X83061960Y-80779573D01*
X83000834Y-80817081D01*
X82866886Y-80852972D01*
X82860512Y-80854680D01*
X82818000Y-80876341D01*
X82697732Y-80937620D01*
X82697729Y-80937622D01*
X82691851Y-80940617D01*
X82686722Y-80944770D01*
X82686718Y-80944773D01*
X82552427Y-81053521D01*
X82544743Y-81059743D01*
X82540588Y-81064874D01*
X82429773Y-81201718D01*
X82429770Y-81201722D01*
X82425617Y-81206851D01*
X82422622Y-81212729D01*
X82422620Y-81212732D01*
X82386338Y-81283941D01*
X82339680Y-81375512D01*
X82337972Y-81381885D01*
X82337972Y-81381886D01*
X82292182Y-81552777D01*
X82292181Y-81552783D01*
X82290688Y-81558355D01*
X82290235Y-81564109D01*
X82290235Y-81564111D01*
X82284694Y-81634520D01*
X82284500Y-81636979D01*
X82284501Y-83413020D01*
X82290688Y-83491645D01*
X82292181Y-83497217D01*
X82292182Y-83497223D01*
X82324134Y-83616472D01*
X82322444Y-83687448D01*
X82300348Y-83728375D01*
X82289050Y-83742327D01*
X82204067Y-83909116D01*
X82202359Y-83915489D01*
X82202359Y-83915490D01*
X82179303Y-84001539D01*
X82155619Y-84089928D01*
X82149500Y-84167677D01*
X82149303Y-84167661D01*
X82147438Y-84183028D01*
X82145977Y-84187746D01*
X82143623Y-84210145D01*
X82125264Y-84384823D01*
X82124443Y-84392631D01*
X82133253Y-84489440D01*
X82140476Y-84568804D01*
X82143114Y-84597797D01*
X82144855Y-84603712D01*
X82146009Y-84609762D01*
X82145752Y-84609811D01*
X82149449Y-84632326D01*
X82149501Y-84632322D01*
X82149693Y-84634759D01*
X82149693Y-84634765D01*
X82154664Y-84697937D01*
X82155619Y-84710072D01*
X82204067Y-84890884D01*
X82289050Y-85057673D01*
X82293203Y-85062802D01*
X82293204Y-85062803D01*
X82380985Y-85171203D01*
X82406853Y-85203147D01*
X82411979Y-85207298D01*
X82533305Y-85305546D01*
X82552327Y-85320950D01*
X82719116Y-85405933D01*
X82725489Y-85407641D01*
X82725490Y-85407641D01*
X82894351Y-85452887D01*
X82894355Y-85452888D01*
X82899928Y-85454381D01*
X82905684Y-85454834D01*
X82975220Y-85460307D01*
X82975229Y-85460307D01*
X82977677Y-85460500D01*
X83179918Y-85460500D01*
X83382322Y-85460499D01*
X83430078Y-85456741D01*
X83454318Y-85454834D01*
X83454320Y-85454834D01*
X83460072Y-85454381D01*
X83465646Y-85452887D01*
X83468948Y-85452320D01*
X83490285Y-85450500D01*
X83633835Y-85450500D01*
X83661643Y-85453607D01*
X83667065Y-85454834D01*
X83843550Y-85494769D01*
X83843553Y-85494769D01*
X83849186Y-85496044D01*
X83854957Y-85496271D01*
X83854959Y-85496271D01*
X83910087Y-85498437D01*
X84060470Y-85504346D01*
X84066179Y-85503518D01*
X84066183Y-85503518D01*
X84264015Y-85474833D01*
X84264019Y-85474832D01*
X84269730Y-85474004D01*
X84338971Y-85450500D01*
X84464483Y-85407895D01*
X84464488Y-85407893D01*
X84469955Y-85406037D01*
X84474998Y-85403213D01*
X84649395Y-85305546D01*
X84649399Y-85305543D01*
X84654442Y-85302719D01*
X84817012Y-85167512D01*
X84952219Y-85004942D01*
X84955043Y-84999899D01*
X84955046Y-84999895D01*
X85052713Y-84825498D01*
X85052714Y-84825496D01*
X85055537Y-84820455D01*
X85057393Y-84814988D01*
X85057395Y-84814983D01*
X85121647Y-84625700D01*
X85123504Y-84620230D01*
X85130700Y-84570605D01*
X85153314Y-84414640D01*
X85153314Y-84414638D01*
X85153846Y-84410970D01*
X85155429Y-84350500D01*
X85146224Y-84250327D01*
X85159908Y-84180664D01*
X85214492Y-84126532D01*
X85242268Y-84112380D01*
X85242272Y-84112378D01*
X85248149Y-84109383D01*
X85253278Y-84105230D01*
X85253282Y-84105227D01*
X85390126Y-83994412D01*
X85395257Y-83990257D01*
X85402672Y-83981100D01*
X85510227Y-83848282D01*
X85510230Y-83848278D01*
X85514383Y-83843149D01*
X85539495Y-83793865D01*
X85589212Y-83696288D01*
X85600320Y-83674488D01*
X85646083Y-83503697D01*
X85647818Y-83497223D01*
X85647819Y-83497217D01*
X85649312Y-83491645D01*
X85653167Y-83442663D01*
X85655307Y-83415477D01*
X85655307Y-83415470D01*
X85655500Y-83413021D01*
X85655499Y-81636980D01*
X85649312Y-81558355D01*
X85615236Y-81431180D01*
X85602028Y-81381886D01*
X85602028Y-81381885D01*
X85600320Y-81375512D01*
X85519233Y-81216369D01*
X85505500Y-81159167D01*
X85505500Y-80376397D01*
X85525502Y-80308276D01*
X85542405Y-80287302D01*
X85565835Y-80263872D01*
X85628147Y-80229846D01*
X85636844Y-80228272D01*
X85647591Y-80226714D01*
X85664015Y-80224333D01*
X85664019Y-80224332D01*
X85669730Y-80223504D01*
X85675194Y-80221649D01*
X85675199Y-80221648D01*
X85864483Y-80157395D01*
X85864488Y-80157393D01*
X85869955Y-80155537D01*
X85880923Y-80149395D01*
X86054442Y-80052219D01*
X86055383Y-80053900D01*
X86114592Y-80034501D01*
X86183300Y-80052380D01*
X86231435Y-80104568D01*
X86244500Y-80160440D01*
X86244500Y-85148583D01*
X86244532Y-85149558D01*
X86244533Y-85149625D01*
X86246048Y-85195875D01*
X86246048Y-85204125D01*
X86244533Y-85250375D01*
X86244532Y-85250442D01*
X86244500Y-85251417D01*
X86244500Y-85831991D01*
X86224498Y-85900112D01*
X86170842Y-85946605D01*
X86142205Y-85955440D01*
X86139928Y-85955619D01*
X85959116Y-86004067D01*
X85958720Y-86002588D01*
X85895783Y-86007690D01*
X85833150Y-85974258D01*
X85800500Y-85919819D01*
X85800000Y-85918116D01*
X85800000Y-85900000D01*
X78400000Y-85900000D01*
X78400000Y-93300000D01*
X79993971Y-93300000D01*
X80062092Y-93320002D01*
X80108585Y-93373658D01*
X80118689Y-93443932D01*
X80089195Y-93508512D01*
X80037582Y-93544212D01*
X80002575Y-93557127D01*
X79997614Y-93560079D01*
X79997613Y-93560079D01*
X79986613Y-93566623D01*
X79910993Y-93583837D01*
X79809165Y-93574749D01*
X79809155Y-93574749D01*
X79806370Y-93574500D01*
X79243630Y-93574500D01*
X79240843Y-93574749D01*
X79240837Y-93574749D01*
X79158346Y-93582112D01*
X79126363Y-93584966D01*
X79073933Y-93600000D01*
X78941992Y-93637833D01*
X78941990Y-93637834D01*
X78935862Y-93639591D01*
X78760237Y-93731406D01*
X78755297Y-93735435D01*
X78755294Y-93735437D01*
X78692215Y-93786883D01*
X78606660Y-93856660D01*
X78481406Y-94010237D01*
X78389591Y-94185862D01*
X78387834Y-94191990D01*
X78387833Y-94191992D01*
X78384562Y-94203400D01*
X78334966Y-94376363D01*
X78324500Y-94493630D01*
X78324500Y-95106370D01*
X78324748Y-95109152D01*
X78324749Y-95109168D01*
X78327260Y-95137301D01*
X78313392Y-95206930D01*
X78264081Y-95258008D01*
X78201759Y-95274500D01*
X77693630Y-95274500D01*
X77690843Y-95274749D01*
X77690837Y-95274749D01*
X77608346Y-95282112D01*
X77576363Y-95284966D01*
X77491166Y-95309396D01*
X77391992Y-95337833D01*
X77391990Y-95337834D01*
X77385862Y-95339591D01*
X77210237Y-95431406D01*
X77056660Y-95556660D01*
X76931406Y-95710237D01*
X76928453Y-95715885D01*
X76928452Y-95715887D01*
X76910187Y-95750825D01*
X76839591Y-95885862D01*
X76837834Y-95891990D01*
X76837833Y-95891992D01*
X76809396Y-95991166D01*
X76784966Y-96076363D01*
X76784433Y-96082336D01*
X76778439Y-96149500D01*
X76774500Y-96193630D01*
X76774500Y-96667799D01*
X76754498Y-96735920D01*
X76700842Y-96782413D01*
X76632051Y-96792304D01*
X76632030Y-96792491D01*
X76631968Y-96792484D01*
X76631310Y-96792410D01*
X76631308Y-96792410D01*
X76627691Y-96792005D01*
X76625815Y-96791671D01*
X76621144Y-96790242D01*
X76524673Y-96780442D01*
X76523538Y-96780321D01*
X76492866Y-96776881D01*
X76475134Y-96774892D01*
X76475128Y-96774892D01*
X76471636Y-96774500D01*
X76468110Y-96774500D01*
X76466641Y-96774418D01*
X76460955Y-96773971D01*
X76436416Y-96771478D01*
X76422311Y-96770045D01*
X76422308Y-96770045D01*
X76416185Y-96769423D01*
X76372346Y-96773567D01*
X76368390Y-96773941D01*
X76356532Y-96774500D01*
X76080721Y-96774500D01*
X76022345Y-96760161D01*
X75985462Y-96740879D01*
X75985455Y-96740876D01*
X75979806Y-96737923D01*
X75973678Y-96736166D01*
X75973676Y-96736165D01*
X75877321Y-96708536D01*
X75794187Y-96684698D01*
X75761904Y-96681817D01*
X75682717Y-96674749D01*
X75682711Y-96674749D01*
X75679924Y-96674500D01*
X75020076Y-96674500D01*
X75017289Y-96674749D01*
X75017283Y-96674749D01*
X74938096Y-96681817D01*
X74905813Y-96684698D01*
X74822679Y-96708536D01*
X74726324Y-96736165D01*
X74726322Y-96736166D01*
X74720194Y-96737923D01*
X74658831Y-96770003D01*
X74619242Y-96790700D01*
X74549070Y-96827385D01*
X74544130Y-96831414D01*
X74544127Y-96831416D01*
X74431540Y-96923240D01*
X74399429Y-96949429D01*
X74395400Y-96954369D01*
X74284586Y-97090241D01*
X74277385Y-97099070D01*
X74274432Y-97104718D01*
X74274431Y-97104720D01*
X74268954Y-97115196D01*
X74187923Y-97270194D01*
X74186166Y-97276322D01*
X74186165Y-97276324D01*
X74181976Y-97290933D01*
X74134698Y-97455813D01*
X74132743Y-97477714D01*
X74125168Y-97562595D01*
X74124500Y-97570076D01*
X74124500Y-98079924D01*
X74124749Y-98082711D01*
X74124749Y-98082717D01*
X74134268Y-98189373D01*
X74120401Y-98259003D01*
X74071091Y-98310081D01*
X73997565Y-98326074D01*
X73979924Y-98324500D01*
X73470076Y-98324500D01*
X73467289Y-98324749D01*
X73467283Y-98324749D01*
X73388096Y-98331817D01*
X73355813Y-98334698D01*
X73308806Y-98348177D01*
X73173628Y-98386938D01*
X73114317Y-98389398D01*
X72926442Y-98352028D01*
X72926440Y-98352028D01*
X72920775Y-98350901D01*
X72915000Y-98350825D01*
X72914996Y-98350825D01*
X72808976Y-98349437D01*
X72709346Y-98348133D01*
X72703649Y-98349112D01*
X72703648Y-98349112D01*
X72506650Y-98382962D01*
X72506649Y-98382962D01*
X72500953Y-98383941D01*
X72486161Y-98389398D01*
X72482773Y-98390648D01*
X72411940Y-98395459D01*
X72349750Y-98361211D01*
X72315948Y-98298777D01*
X72313338Y-98279057D01*
X72312738Y-98267644D01*
X72285660Y-97753175D01*
X72255921Y-97188122D01*
X72272315Y-97119044D01*
X72323453Y-97069796D01*
X72381747Y-97055500D01*
X73247810Y-97055500D01*
X73286876Y-97053407D01*
X73326863Y-97051264D01*
X73326873Y-97051263D01*
X73328556Y-97051173D01*
X73346563Y-97049237D01*
X73352819Y-97048565D01*
X73352822Y-97048565D01*
X73355339Y-97048294D01*
X73357827Y-97047823D01*
X73467918Y-97026982D01*
X73467920Y-97026981D01*
X73473997Y-97025831D01*
X73636674Y-96960203D01*
X73647358Y-96954369D01*
X73698245Y-96926582D01*
X73698266Y-96926570D01*
X73698986Y-96926177D01*
X73710612Y-96919424D01*
X73729628Y-96908378D01*
X73729631Y-96908376D01*
X73733525Y-96906114D01*
X73741052Y-96900163D01*
X73868244Y-96799591D01*
X73871124Y-96797314D01*
X76797314Y-93871124D01*
X76851344Y-93810976D01*
X76868247Y-93790002D01*
X76936270Y-93690214D01*
X76968159Y-93615197D01*
X77003461Y-93532153D01*
X77003462Y-93532149D01*
X77004895Y-93528779D01*
X77024897Y-93460658D01*
X77035135Y-93422040D01*
X77055500Y-93247810D01*
X77055500Y-92526000D01*
X77038235Y-92365411D01*
X77026849Y-92313069D01*
X77023233Y-92297718D01*
X77021858Y-92291881D01*
X77021856Y-92291874D01*
X77020893Y-92287787D01*
X76958290Y-92123923D01*
X76954162Y-92117858D01*
X76915933Y-92061695D01*
X76894137Y-91994127D01*
X76908431Y-91932421D01*
X76962077Y-91829806D01*
X77015302Y-91644187D01*
X77025500Y-91529924D01*
X77025500Y-91020076D01*
X77015302Y-90905813D01*
X76962077Y-90720194D01*
X76959124Y-90714545D01*
X76959121Y-90714538D01*
X76932400Y-90663426D01*
X76918565Y-90593790D01*
X76921543Y-90575634D01*
X76921647Y-90575200D01*
X76923504Y-90569730D01*
X76929871Y-90525823D01*
X76953314Y-90364140D01*
X76953314Y-90364138D01*
X76953846Y-90360470D01*
X76955429Y-90300000D01*
X76936081Y-90089440D01*
X76932766Y-90077684D01*
X76907304Y-89987404D01*
X76878686Y-89885931D01*
X76856241Y-89840416D01*
X76787719Y-89701469D01*
X76785165Y-89696290D01*
X76703271Y-89586621D01*
X76662104Y-89531491D01*
X76662103Y-89531490D01*
X76658651Y-89526867D01*
X76503381Y-89383337D01*
X76431078Y-89337717D01*
X76329434Y-89273584D01*
X76329433Y-89273584D01*
X76324554Y-89270505D01*
X76128160Y-89192152D01*
X76122503Y-89191027D01*
X76122497Y-89191025D01*
X75926442Y-89152028D01*
X75926440Y-89152028D01*
X75920775Y-89150901D01*
X75915000Y-89150825D01*
X75914996Y-89150825D01*
X75808976Y-89149437D01*
X75709346Y-89148133D01*
X75703649Y-89149112D01*
X75703648Y-89149112D01*
X75506650Y-89182962D01*
X75506649Y-89182962D01*
X75500953Y-89183941D01*
X75302575Y-89257127D01*
X75297614Y-89260079D01*
X75297613Y-89260079D01*
X75131444Y-89358939D01*
X75120856Y-89365238D01*
X75084506Y-89397116D01*
X75020102Y-89426993D01*
X74949769Y-89417307D01*
X74915902Y-89394910D01*
X74907628Y-89387262D01*
X74907622Y-89387258D01*
X74903381Y-89383337D01*
X74898503Y-89380259D01*
X74898491Y-89380250D01*
X74798091Y-89316902D01*
X74751153Y-89263635D01*
X74740465Y-89193448D01*
X74755393Y-89148775D01*
X74852713Y-88974998D01*
X74852714Y-88974996D01*
X74855537Y-88969955D01*
X74857393Y-88964488D01*
X74857395Y-88964483D01*
X74921647Y-88775200D01*
X74923504Y-88769730D01*
X74953846Y-88560470D01*
X74954985Y-88560635D01*
X74980716Y-88499132D01*
X75039178Y-88458849D01*
X75060696Y-88455401D01*
X75060470Y-88453846D01*
X75264015Y-88424333D01*
X75264019Y-88424332D01*
X75269730Y-88423504D01*
X75326676Y-88404173D01*
X75464483Y-88357395D01*
X75464488Y-88357393D01*
X75469955Y-88355537D01*
X75500243Y-88338575D01*
X75649395Y-88255046D01*
X75649399Y-88255043D01*
X75654442Y-88252219D01*
X75817012Y-88117012D01*
X75952219Y-87954442D01*
X75955043Y-87949399D01*
X75955046Y-87949395D01*
X76052713Y-87774998D01*
X76052714Y-87774996D01*
X76055537Y-87769955D01*
X76057393Y-87764488D01*
X76057395Y-87764483D01*
X76121647Y-87575200D01*
X76123504Y-87569730D01*
X76124834Y-87560562D01*
X76153314Y-87364140D01*
X76153314Y-87364138D01*
X76153846Y-87360470D01*
X76155429Y-87300000D01*
X76136081Y-87089440D01*
X76078686Y-86885931D01*
X76036063Y-86799500D01*
X76012766Y-86752258D01*
X76000279Y-86687268D01*
X76000209Y-86687265D01*
X76000221Y-86686967D01*
X76000160Y-86686651D01*
X76000306Y-86684795D01*
X76000307Y-86684782D01*
X76000500Y-86682323D01*
X76000499Y-86376499D01*
X76020501Y-86308380D01*
X76074156Y-86261887D01*
X76126499Y-86250500D01*
X76346404Y-86250500D01*
X76348540Y-86250354D01*
X76348551Y-86250354D01*
X76366922Y-86249101D01*
X76387694Y-86247685D01*
X76561725Y-86204295D01*
X76567832Y-86201264D01*
X76567836Y-86201262D01*
X76716268Y-86127579D01*
X76722378Y-86124546D01*
X76862159Y-86012159D01*
X76866430Y-86006847D01*
X76866435Y-86006842D01*
X76951870Y-85900583D01*
X77010143Y-85860027D01*
X77048958Y-85854494D01*
X77048928Y-85853922D01*
X77054703Y-85853619D01*
X77060470Y-85853846D01*
X77066179Y-85853018D01*
X77066183Y-85853018D01*
X77264015Y-85824333D01*
X77264019Y-85824332D01*
X77269730Y-85823504D01*
X77361475Y-85792361D01*
X77464483Y-85757395D01*
X77464488Y-85757393D01*
X77469955Y-85755537D01*
X77474998Y-85752713D01*
X77649395Y-85655046D01*
X77649399Y-85655043D01*
X77654442Y-85652219D01*
X77817012Y-85517012D01*
X77952219Y-85354442D01*
X77955043Y-85349399D01*
X77955046Y-85349395D01*
X78052713Y-85174998D01*
X78052714Y-85174996D01*
X78055537Y-85169955D01*
X78057393Y-85164488D01*
X78057395Y-85164483D01*
X78121647Y-84975200D01*
X78123504Y-84969730D01*
X78125928Y-84953018D01*
X78153314Y-84764140D01*
X78153314Y-84764138D01*
X78153846Y-84760470D01*
X78155429Y-84700000D01*
X78142905Y-84563705D01*
X78156589Y-84494040D01*
X78205766Y-84442833D01*
X78274820Y-84426341D01*
X78341829Y-84449801D01*
X78371273Y-84479456D01*
X78378372Y-84489501D01*
X78421405Y-84550391D01*
X78442155Y-84570605D01*
X78505514Y-84632326D01*
X78572865Y-84697937D01*
X78577661Y-84701142D01*
X78577664Y-84701144D01*
X78720936Y-84796875D01*
X78748677Y-84815411D01*
X78753985Y-84817692D01*
X78753986Y-84817692D01*
X78937650Y-84896600D01*
X78937653Y-84896601D01*
X78942953Y-84898878D01*
X78948582Y-84900152D01*
X78948583Y-84900152D01*
X79143550Y-84944269D01*
X79143553Y-84944269D01*
X79149186Y-84945544D01*
X79154957Y-84945771D01*
X79154959Y-84945771D01*
X79216989Y-84948208D01*
X79360470Y-84953846D01*
X79366179Y-84953018D01*
X79366183Y-84953018D01*
X79564015Y-84924333D01*
X79564019Y-84924332D01*
X79569730Y-84923504D01*
X79665826Y-84890884D01*
X79764483Y-84857395D01*
X79764488Y-84857393D01*
X79769955Y-84855537D01*
X79774998Y-84852713D01*
X79949395Y-84755046D01*
X79949399Y-84755043D01*
X79954442Y-84752219D01*
X80117012Y-84617012D01*
X80252219Y-84454442D01*
X80339426Y-84298723D01*
X80390163Y-84249061D01*
X80459694Y-84234714D01*
X80481972Y-84238583D01*
X80497770Y-84242816D01*
X80497775Y-84242817D01*
X80503355Y-84244312D01*
X80509111Y-84244765D01*
X80579523Y-84250307D01*
X80579530Y-84250307D01*
X80581979Y-84250500D01*
X80794913Y-84250500D01*
X81008020Y-84250499D01*
X81056943Y-84246649D01*
X81080891Y-84244765D01*
X81080893Y-84244765D01*
X81086645Y-84244312D01*
X81269488Y-84195320D01*
X81374186Y-84141974D01*
X81432268Y-84112380D01*
X81432271Y-84112378D01*
X81438149Y-84109383D01*
X81443278Y-84105230D01*
X81443282Y-84105227D01*
X81580126Y-83994412D01*
X81585257Y-83990257D01*
X81592672Y-83981100D01*
X81700227Y-83848282D01*
X81700230Y-83848278D01*
X81704383Y-83843149D01*
X81729495Y-83793865D01*
X81779212Y-83696288D01*
X81790320Y-83674488D01*
X81836083Y-83503697D01*
X81837818Y-83497223D01*
X81837819Y-83497217D01*
X81839312Y-83491645D01*
X81843167Y-83442663D01*
X81845307Y-83415477D01*
X81845307Y-83415470D01*
X81845500Y-83413021D01*
X81845499Y-81636980D01*
X81839312Y-81558355D01*
X81805236Y-81431180D01*
X81792028Y-81381886D01*
X81792028Y-81381885D01*
X81790320Y-81375512D01*
X81709233Y-81216369D01*
X81695500Y-81159167D01*
X81695500Y-80417190D01*
X81715502Y-80349069D01*
X81724625Y-80336622D01*
X81748526Y-80307884D01*
X81748532Y-80307875D01*
X81752219Y-80303442D01*
X81815227Y-80190933D01*
X81852713Y-80123998D01*
X81852714Y-80123996D01*
X81855537Y-80118955D01*
X81857393Y-80113488D01*
X81857395Y-80113483D01*
X81904409Y-79974982D01*
X81923504Y-79918730D01*
X81927997Y-79887748D01*
X81953314Y-79713140D01*
X81953314Y-79713138D01*
X81953846Y-79709470D01*
X81955429Y-79649000D01*
X81936081Y-79438440D01*
X81938733Y-79438196D01*
X81944859Y-79378789D01*
X81989166Y-79323315D01*
X82061475Y-79300500D01*
X82272377Y-79300499D01*
X82278020Y-79300499D01*
X82326943Y-79296649D01*
X82350891Y-79294765D01*
X82350893Y-79294765D01*
X82356645Y-79294312D01*
X82362217Y-79292819D01*
X82362223Y-79292818D01*
X82411203Y-79279694D01*
X82482179Y-79281384D01*
G37*
%TD.AperFunction*%
%TA.AperFunction,Conductor*%
G36*
X85958611Y-91039195D02*
G01*
X86084351Y-91072887D01*
X86084355Y-91072888D01*
X86089928Y-91074381D01*
X86095682Y-91074834D01*
X86095683Y-91074834D01*
X86128387Y-91077408D01*
X86194728Y-91102694D01*
X86236867Y-91159832D01*
X86244500Y-91203020D01*
X86244500Y-91748583D01*
X86244532Y-91749558D01*
X86244533Y-91749625D01*
X86246048Y-91795875D01*
X86246048Y-91804125D01*
X86244533Y-91850375D01*
X86244532Y-91850442D01*
X86244500Y-91851417D01*
X86244500Y-94584615D01*
X86246654Y-94641623D01*
X86248089Y-94660586D01*
X86254540Y-94717283D01*
X86272869Y-94837681D01*
X86298490Y-94948796D01*
X86309776Y-94985004D01*
X86351827Y-95090996D01*
X86405157Y-95200493D01*
X86432063Y-95250815D01*
X86432671Y-95251855D01*
X86432674Y-95251861D01*
X86436266Y-95258008D01*
X86441651Y-95267225D01*
X86472269Y-95315359D01*
X86870420Y-95891992D01*
X86911791Y-95951908D01*
X86934037Y-96019329D01*
X86916301Y-96088075D01*
X86864213Y-96136318D01*
X86808106Y-96149500D01*
X86750134Y-96149500D01*
X86746888Y-96149837D01*
X86746884Y-96149837D01*
X86652339Y-96159647D01*
X86652335Y-96159648D01*
X86645481Y-96160359D01*
X86638945Y-96162540D01*
X86638943Y-96162540D01*
X86554127Y-96190837D01*
X86479471Y-96215744D01*
X86330655Y-96307834D01*
X86207016Y-96431689D01*
X86115186Y-96580666D01*
X86112881Y-96587614D01*
X86112881Y-96587615D01*
X86063337Y-96736984D01*
X86060090Y-96746772D01*
X86049500Y-96850134D01*
X86049500Y-97012678D01*
X86029498Y-97080799D01*
X86012595Y-97101773D01*
X85276997Y-97837371D01*
X85214685Y-97871397D01*
X85143870Y-97866332D01*
X85098885Y-97837450D01*
X85018311Y-97757016D01*
X84869334Y-97665186D01*
X84836870Y-97654418D01*
X84709759Y-97612256D01*
X84709757Y-97612255D01*
X84703228Y-97610090D01*
X84599866Y-97599500D01*
X83137322Y-97599500D01*
X83069201Y-97579498D01*
X83048226Y-97562595D01*
X82601227Y-97115595D01*
X82567202Y-97053283D01*
X82572267Y-96982467D01*
X82614814Y-96925632D01*
X82681334Y-96900821D01*
X82690323Y-96900500D01*
X84599866Y-96900500D01*
X84603112Y-96900163D01*
X84603116Y-96900163D01*
X84697661Y-96890353D01*
X84697665Y-96890352D01*
X84704519Y-96889641D01*
X84711055Y-96887460D01*
X84711057Y-96887460D01*
X84863581Y-96836574D01*
X84870529Y-96834256D01*
X85019345Y-96742166D01*
X85142984Y-96618311D01*
X85234814Y-96469334D01*
X85249019Y-96426509D01*
X85287744Y-96309759D01*
X85287745Y-96309757D01*
X85289910Y-96303228D01*
X85300500Y-96199866D01*
X85300500Y-94200134D01*
X85289641Y-94095481D01*
X85263087Y-94015887D01*
X85236574Y-93936419D01*
X85234256Y-93929471D01*
X85142166Y-93780655D01*
X85018311Y-93657016D01*
X84869334Y-93565186D01*
X84810264Y-93545593D01*
X84751904Y-93505162D01*
X84724668Y-93439597D01*
X84737202Y-93369716D01*
X84785527Y-93317704D01*
X84849932Y-93300000D01*
X85800000Y-93300000D01*
X85800000Y-91160902D01*
X85820002Y-91092781D01*
X85873658Y-91046288D01*
X85943932Y-91036184D01*
X85958611Y-91039195D01*
G37*
%TD.AperFunction*%
%TA.AperFunction,Conductor*%
G36*
X102441621Y-86475502D02*
G01*
X102488114Y-86529158D01*
X102499500Y-86581500D01*
X102499500Y-89518500D01*
X102479498Y-89586621D01*
X102425842Y-89633114D01*
X102373500Y-89644500D01*
X99926000Y-89644500D01*
X99765411Y-89661765D01*
X99762127Y-89662479D01*
X99762123Y-89662480D01*
X99713514Y-89673054D01*
X99713493Y-89673059D01*
X99713069Y-89673151D01*
X99712615Y-89673258D01*
X99691881Y-89678142D01*
X99691874Y-89678144D01*
X99687787Y-89679107D01*
X99523923Y-89741710D01*
X99476253Y-89774158D01*
X99381948Y-89838349D01*
X99381943Y-89838353D01*
X99378912Y-89840416D01*
X99376138Y-89842820D01*
X99326528Y-89885806D01*
X99326511Y-89885822D01*
X99325256Y-89886909D01*
X99324053Y-89888069D01*
X99324038Y-89888082D01*
X99294369Y-89916673D01*
X99267736Y-89942338D01*
X99264571Y-89946637D01*
X99264569Y-89946639D01*
X99227575Y-89996884D01*
X99163730Y-90083596D01*
X99095105Y-90245031D01*
X99075103Y-90313152D01*
X99064865Y-90351770D01*
X99044500Y-90526000D01*
X99044500Y-90526449D01*
X99020796Y-90592666D01*
X98964529Y-90635962D01*
X98918937Y-90644500D01*
X97526000Y-90644500D01*
X97522652Y-90644860D01*
X97522651Y-90644860D01*
X97439693Y-90653779D01*
X97426224Y-90654501D01*
X97338782Y-90654501D01*
X97334098Y-90654770D01*
X97161165Y-90694695D01*
X97001374Y-90771941D01*
X96862668Y-90882668D01*
X96751941Y-91021374D01*
X96748875Y-91027717D01*
X96748874Y-91027718D01*
X96712629Y-91102694D01*
X96674695Y-91181165D01*
X96673111Y-91188026D01*
X96645007Y-91309759D01*
X96634770Y-91354098D01*
X96634500Y-91358781D01*
X96634501Y-92031218D01*
X96634770Y-92035902D01*
X96674695Y-92208835D01*
X96687237Y-92234779D01*
X96691498Y-92244647D01*
X96708734Y-92289762D01*
X96714362Y-92360534D01*
X96704474Y-92389564D01*
X96674695Y-92451165D01*
X96673111Y-92458026D01*
X96656641Y-92529367D01*
X96634770Y-92624098D01*
X96634500Y-92628781D01*
X96634501Y-93301218D01*
X96634770Y-93305902D01*
X96674695Y-93478835D01*
X96677761Y-93485177D01*
X96706758Y-93545161D01*
X96718398Y-93615197D01*
X96706758Y-93654839D01*
X96674695Y-93721165D01*
X96634770Y-93894098D01*
X96634500Y-93898781D01*
X96634501Y-94571218D01*
X96634770Y-94575902D01*
X96674695Y-94748835D01*
X96677761Y-94755177D01*
X96706758Y-94815161D01*
X96718398Y-94885197D01*
X96706758Y-94924839D01*
X96674695Y-94991165D01*
X96634770Y-95164098D01*
X96634500Y-95168781D01*
X96634500Y-95170605D01*
X96634501Y-95519780D01*
X96614499Y-95587900D01*
X96606020Y-95599568D01*
X96279794Y-95998288D01*
X96221176Y-96038344D01*
X96182275Y-96044500D01*
X95277784Y-96044500D01*
X95209663Y-96024498D01*
X95163170Y-95970842D01*
X95153066Y-95900568D01*
X95155013Y-95890156D01*
X95164030Y-95851100D01*
X95164030Y-95851099D01*
X95165230Y-95845902D01*
X95165500Y-95841219D01*
X95165499Y-95168782D01*
X95165230Y-95164098D01*
X95125305Y-94991165D01*
X95093242Y-94924839D01*
X95081602Y-94854803D01*
X95093242Y-94815161D01*
X95122239Y-94755177D01*
X95125305Y-94748835D01*
X95165230Y-94575902D01*
X95165500Y-94571219D01*
X95165499Y-93898782D01*
X95165230Y-93894098D01*
X95125305Y-93721165D01*
X95093242Y-93654839D01*
X95081602Y-93584803D01*
X95093242Y-93545161D01*
X95122239Y-93485177D01*
X95125305Y-93478835D01*
X95165230Y-93305902D01*
X95165500Y-93301219D01*
X95165499Y-92628782D01*
X95165230Y-92624098D01*
X95125305Y-92451165D01*
X95081492Y-92360534D01*
X95051126Y-92297718D01*
X95051125Y-92297717D01*
X95048059Y-92291374D01*
X94937332Y-92152668D01*
X94798626Y-92041941D01*
X94776445Y-92031218D01*
X94681115Y-91985134D01*
X94638835Y-91964695D01*
X94541997Y-91942338D01*
X94471100Y-91925970D01*
X94471099Y-91925970D01*
X94465902Y-91924770D01*
X94461219Y-91924500D01*
X94459395Y-91924500D01*
X93421450Y-91924501D01*
X92398782Y-91924501D01*
X92394098Y-91924770D01*
X92379190Y-91928212D01*
X92304158Y-91922472D01*
X92228160Y-91892152D01*
X92222503Y-91891027D01*
X92222497Y-91891025D01*
X92026442Y-91852028D01*
X92026440Y-91852028D01*
X92020775Y-91850901D01*
X92015000Y-91850825D01*
X92014996Y-91850825D01*
X91908976Y-91849437D01*
X91809346Y-91848133D01*
X91803649Y-91849112D01*
X91803648Y-91849112D01*
X91606650Y-91882962D01*
X91606649Y-91882962D01*
X91600953Y-91883941D01*
X91525110Y-91911921D01*
X91454278Y-91916733D01*
X91392087Y-91882486D01*
X91358285Y-91820053D01*
X91355500Y-91793709D01*
X91355500Y-88381500D01*
X91375502Y-88313379D01*
X91429158Y-88266886D01*
X91481500Y-88255500D01*
X99056559Y-88255500D01*
X99141284Y-88248521D01*
X99177597Y-88245530D01*
X99177603Y-88245529D01*
X99180180Y-88245317D01*
X99182731Y-88244894D01*
X99182738Y-88244893D01*
X99195980Y-88242696D01*
X99220858Y-88238570D01*
X99224155Y-88237647D01*
X99224159Y-88237646D01*
X99371771Y-88196318D01*
X99371773Y-88196317D01*
X99378599Y-88194406D01*
X99384824Y-88191021D01*
X99384828Y-88191020D01*
X99482883Y-88137710D01*
X99532712Y-88110620D01*
X99590728Y-88069697D01*
X99653478Y-88020266D01*
X99771024Y-87890059D01*
X99774549Y-87883631D01*
X99774552Y-87883627D01*
X99831409Y-87779951D01*
X99855373Y-87736254D01*
X99882054Y-87670462D01*
X99896084Y-87633053D01*
X99933685Y-87461714D01*
X99934463Y-87453935D01*
X99937177Y-87439780D01*
X99937015Y-87439750D01*
X99938115Y-87433846D01*
X99939766Y-87428087D01*
X99946132Y-87356763D01*
X99950251Y-87310609D01*
X99950251Y-87310603D01*
X99950500Y-87307816D01*
X99950500Y-87299853D01*
X99951125Y-87287315D01*
X100022143Y-86577140D01*
X100022166Y-86576910D01*
X100022818Y-86569877D01*
X100049017Y-86503893D01*
X100106732Y-86462547D01*
X100148280Y-86455500D01*
X102373500Y-86455500D01*
X102441621Y-86475502D01*
G37*
%TD.AperFunction*%
%TA.AperFunction,Conductor*%
G36*
X72984458Y-89918363D02*
G01*
X73043253Y-89958157D01*
X73071201Y-90023422D01*
X73069558Y-90059742D01*
X73069820Y-90059773D01*
X73069142Y-90065503D01*
X73069141Y-90065507D01*
X73066201Y-90090351D01*
X73044967Y-90269754D01*
X73058796Y-90480749D01*
X73070289Y-90526000D01*
X73081041Y-90568337D01*
X73078423Y-90639286D01*
X73070579Y-90657729D01*
X73040882Y-90714533D01*
X73040880Y-90714537D01*
X73037923Y-90720194D01*
X72984698Y-90905813D01*
X72974500Y-91020076D01*
X72974500Y-91518500D01*
X72954498Y-91586621D01*
X72900842Y-91633114D01*
X72848500Y-91644500D01*
X72249978Y-91644500D01*
X72181857Y-91624498D01*
X72135364Y-91570842D01*
X72125260Y-91500568D01*
X72134334Y-91470112D01*
X72134814Y-91469334D01*
X72189910Y-91303228D01*
X72200500Y-91199866D01*
X72200500Y-90425189D01*
X72220502Y-90357068D01*
X72237405Y-90336094D01*
X72586095Y-89987404D01*
X72648407Y-89953378D01*
X72675190Y-89950499D01*
X72732322Y-89950499D01*
X72780078Y-89946741D01*
X72804318Y-89944834D01*
X72804320Y-89944834D01*
X72810072Y-89944381D01*
X72877867Y-89926216D01*
X72913481Y-89916673D01*
X72984458Y-89918363D01*
G37*
%TD.AperFunction*%
%TA.AperFunction,Conductor*%
G36*
X71337726Y-87323488D02*
G01*
X71384477Y-87376919D01*
X71394920Y-87447143D01*
X71391824Y-87462423D01*
X71387079Y-87480134D01*
X71385584Y-87485714D01*
X71379500Y-87563019D01*
X71379501Y-87956980D01*
X71379695Y-87959440D01*
X71384741Y-88023570D01*
X71385584Y-88034286D01*
X71395333Y-88070669D01*
X71428489Y-88194406D01*
X71433761Y-88214083D01*
X71497193Y-88338577D01*
X71510297Y-88408352D01*
X71498980Y-88446894D01*
X71499431Y-88447067D01*
X71497295Y-88452632D01*
X71497192Y-88452982D01*
X71497064Y-88453233D01*
X71497062Y-88453237D01*
X71494067Y-88459116D01*
X71492360Y-88465486D01*
X71492359Y-88465489D01*
X71475969Y-88526660D01*
X71443357Y-88583144D01*
X71063906Y-88962595D01*
X71001594Y-88996621D01*
X70974811Y-88999500D01*
X70626500Y-88999500D01*
X70558379Y-88979498D01*
X70511886Y-88925842D01*
X70500500Y-88873500D01*
X70500500Y-87928287D01*
X70520502Y-87860166D01*
X70558987Y-87821901D01*
X70623807Y-87780766D01*
X70626398Y-87779165D01*
X70697447Y-87736474D01*
X70702404Y-87731787D01*
X70705444Y-87729479D01*
X70706080Y-87729038D01*
X70710066Y-87726023D01*
X70714428Y-87723255D01*
X70718781Y-87719363D01*
X70773874Y-87664270D01*
X70776396Y-87661816D01*
X70830702Y-87610462D01*
X70830704Y-87610460D01*
X70835658Y-87605775D01*
X70839492Y-87600134D01*
X70843917Y-87594934D01*
X70844298Y-87595258D01*
X70851060Y-87587084D01*
X71009088Y-87429056D01*
X71040980Y-87405884D01*
X71058864Y-87396772D01*
X71207673Y-87320950D01*
X71208268Y-87322118D01*
X71269510Y-87303814D01*
X71337726Y-87323488D01*
G37*
%TD.AperFunction*%
%TA.AperFunction,Conductor*%
G36*
X95811250Y-78845583D02*
G01*
X95845867Y-78907568D01*
X95848737Y-78927282D01*
X95854498Y-79015170D01*
X95858796Y-79080749D01*
X95860217Y-79086345D01*
X95860218Y-79086350D01*
X95870623Y-79127317D01*
X95874500Y-79158333D01*
X95874500Y-79527056D01*
X95871746Y-79553258D01*
X95871536Y-79554248D01*
X95869820Y-79559773D01*
X95844967Y-79769754D01*
X95845345Y-79775520D01*
X95857726Y-79964416D01*
X95858796Y-79980749D01*
X95860217Y-79986345D01*
X95860218Y-79986350D01*
X95893896Y-80118955D01*
X95910845Y-80185690D01*
X95913262Y-80190933D01*
X95986773Y-80350391D01*
X95999369Y-80377714D01*
X96121405Y-80550391D01*
X96126688Y-80555537D01*
X96231248Y-80657395D01*
X96272865Y-80697937D01*
X96277661Y-80701142D01*
X96277664Y-80701144D01*
X96404557Y-80785931D01*
X96448677Y-80815411D01*
X96453985Y-80817692D01*
X96453986Y-80817692D01*
X96640737Y-80897926D01*
X96695431Y-80943194D01*
X96717000Y-81013694D01*
X96717001Y-81248133D01*
X96717001Y-81431218D01*
X96717270Y-81435902D01*
X96757195Y-81608835D01*
X96760261Y-81615177D01*
X96789258Y-81675161D01*
X96800898Y-81745197D01*
X96789258Y-81784839D01*
X96757195Y-81851165D01*
X96755611Y-81858026D01*
X96719931Y-82012574D01*
X96717270Y-82024098D01*
X96717000Y-82028781D01*
X96717001Y-82701218D01*
X96717270Y-82705902D01*
X96757195Y-82878835D01*
X96784094Y-82934478D01*
X96789258Y-82945161D01*
X96800898Y-83015197D01*
X96789258Y-83054839D01*
X96757195Y-83121165D01*
X96755611Y-83128026D01*
X96721156Y-83277268D01*
X96717270Y-83294098D01*
X96717000Y-83298781D01*
X96717001Y-83971218D01*
X96717270Y-83975902D01*
X96757195Y-84148835D01*
X96772582Y-84180664D01*
X96789258Y-84215161D01*
X96800898Y-84285197D01*
X96789258Y-84324839D01*
X96757195Y-84391165D01*
X96755611Y-84398026D01*
X96720435Y-84550391D01*
X96717270Y-84564098D01*
X96717000Y-84568781D01*
X96717001Y-84756763D01*
X96717001Y-84905221D01*
X96696999Y-84973341D01*
X96688520Y-84985009D01*
X96350382Y-85398288D01*
X96291764Y-85438344D01*
X96252863Y-85444500D01*
X95360284Y-85444500D01*
X95292163Y-85424498D01*
X95245670Y-85370842D01*
X95235566Y-85300568D01*
X95237513Y-85290156D01*
X95246530Y-85251100D01*
X95246530Y-85251099D01*
X95247730Y-85245902D01*
X95248000Y-85241219D01*
X95247999Y-84568782D01*
X95247730Y-84564098D01*
X95207805Y-84391165D01*
X95175742Y-84324839D01*
X95164102Y-84254803D01*
X95175742Y-84215161D01*
X95192418Y-84180664D01*
X95207805Y-84148835D01*
X95217873Y-84105227D01*
X95246530Y-83981100D01*
X95246530Y-83981099D01*
X95247730Y-83975902D01*
X95248000Y-83971219D01*
X95247999Y-83298782D01*
X95247730Y-83294098D01*
X95207805Y-83121165D01*
X95175742Y-83054839D01*
X95164102Y-82984803D01*
X95175742Y-82945161D01*
X95180906Y-82934478D01*
X95207805Y-82878835D01*
X95229036Y-82786873D01*
X95246530Y-82711100D01*
X95246530Y-82711099D01*
X95247730Y-82705902D01*
X95248000Y-82701219D01*
X95247999Y-82028782D01*
X95247730Y-82024098D01*
X95207805Y-81851165D01*
X95153752Y-81739350D01*
X95133626Y-81697718D01*
X95133625Y-81697717D01*
X95130559Y-81691374D01*
X95019832Y-81552668D01*
X94881126Y-81441941D01*
X94858945Y-81431218D01*
X94743711Y-81375512D01*
X94721335Y-81364695D01*
X94590703Y-81334536D01*
X94553600Y-81325970D01*
X94553599Y-81325970D01*
X94548402Y-81324770D01*
X94543719Y-81324500D01*
X94541895Y-81324500D01*
X93503950Y-81324501D01*
X92481282Y-81324501D01*
X92476598Y-81324770D01*
X92471391Y-81325972D01*
X92471392Y-81325972D01*
X92409430Y-81340277D01*
X92334396Y-81334536D01*
X92309243Y-81324501D01*
X92228160Y-81292152D01*
X92222503Y-81291027D01*
X92222497Y-81291025D01*
X92026442Y-81252028D01*
X92026440Y-81252028D01*
X92020775Y-81250901D01*
X92015000Y-81250825D01*
X92014996Y-81250825D01*
X91908976Y-81249437D01*
X91809346Y-81248133D01*
X91803649Y-81249112D01*
X91803648Y-81249112D01*
X91606650Y-81282962D01*
X91606649Y-81282962D01*
X91600953Y-81283941D01*
X91525110Y-81311921D01*
X91454278Y-81316733D01*
X91392087Y-81282486D01*
X91358285Y-81220053D01*
X91355500Y-81193709D01*
X91355500Y-80772911D01*
X91375502Y-80704790D01*
X91429158Y-80658297D01*
X91486447Y-80647008D01*
X91660470Y-80653846D01*
X91666179Y-80653018D01*
X91666183Y-80653018D01*
X91864015Y-80624333D01*
X91864019Y-80624332D01*
X91869730Y-80623504D01*
X91938971Y-80600000D01*
X92064483Y-80557395D01*
X92064488Y-80557393D01*
X92069955Y-80555537D01*
X92074998Y-80552713D01*
X92249395Y-80455046D01*
X92249399Y-80455043D01*
X92254442Y-80452219D01*
X92417012Y-80317012D01*
X92552219Y-80154442D01*
X92649516Y-79980706D01*
X92700253Y-79931044D01*
X92769784Y-79916697D01*
X92792061Y-79920565D01*
X92955714Y-79964416D01*
X92961466Y-79964869D01*
X92961468Y-79964869D01*
X93032887Y-79970490D01*
X93099229Y-79995776D01*
X93137427Y-80043351D01*
X93199369Y-80177714D01*
X93321405Y-80350391D01*
X93472865Y-80497937D01*
X93477661Y-80501142D01*
X93477664Y-80501144D01*
X93559069Y-80555537D01*
X93648677Y-80615411D01*
X93653985Y-80617692D01*
X93653986Y-80617692D01*
X93837650Y-80696600D01*
X93837653Y-80696601D01*
X93842953Y-80698878D01*
X93848582Y-80700152D01*
X93848583Y-80700152D01*
X94043550Y-80744269D01*
X94043553Y-80744269D01*
X94049186Y-80745544D01*
X94054957Y-80745771D01*
X94054959Y-80745771D01*
X94116989Y-80748208D01*
X94260470Y-80753846D01*
X94266179Y-80753018D01*
X94266183Y-80753018D01*
X94464015Y-80724333D01*
X94464019Y-80724332D01*
X94469730Y-80723504D01*
X94548987Y-80696600D01*
X94664483Y-80657395D01*
X94664488Y-80657393D01*
X94669955Y-80655537D01*
X94688617Y-80645086D01*
X94849395Y-80555046D01*
X94849399Y-80555043D01*
X94854442Y-80552219D01*
X95017012Y-80417012D01*
X95152219Y-80254442D01*
X95155043Y-80249399D01*
X95155046Y-80249395D01*
X95252713Y-80074998D01*
X95252714Y-80074996D01*
X95255537Y-80069955D01*
X95257393Y-80064488D01*
X95257395Y-80064483D01*
X95321647Y-79875200D01*
X95323504Y-79869730D01*
X95327557Y-79841783D01*
X95353314Y-79664140D01*
X95353314Y-79664138D01*
X95353846Y-79660470D01*
X95355429Y-79600000D01*
X95336081Y-79389440D01*
X95309380Y-79294765D01*
X95280254Y-79191490D01*
X95280253Y-79191488D01*
X95278686Y-79185931D01*
X95278157Y-79184858D01*
X95270227Y-79136828D01*
X95270308Y-79134763D01*
X95270500Y-79132323D01*
X95270500Y-79085189D01*
X95290502Y-79017068D01*
X95307405Y-78996094D01*
X95400644Y-78902855D01*
X95462956Y-78868829D01*
X95479853Y-78866339D01*
X95488127Y-78865688D01*
X95498534Y-78864869D01*
X95498538Y-78864868D01*
X95504286Y-78864416D01*
X95677940Y-78817885D01*
X95677941Y-78817885D01*
X95684083Y-78816239D01*
X95684384Y-78817362D01*
X95748616Y-78812153D01*
X95811250Y-78845583D01*
G37*
%TD.AperFunction*%
%TA.AperFunction,Conductor*%
G36*
X67848445Y-83793865D02*
G01*
X67905281Y-83836412D01*
X67917273Y-83855898D01*
X67922419Y-83866266D01*
X67922423Y-83866273D01*
X67925454Y-83872378D01*
X67929727Y-83877693D01*
X67929728Y-83877694D01*
X67989248Y-83951722D01*
X68016344Y-84017345D01*
X68012758Y-84063284D01*
X68005619Y-84089928D01*
X68005166Y-84095684D01*
X68005166Y-84095686D01*
X68000484Y-84155177D01*
X67999500Y-84167677D01*
X67999501Y-84354204D01*
X67999501Y-84444749D01*
X67979499Y-84512869D01*
X67925844Y-84559362D01*
X67855570Y-84569467D01*
X67816300Y-84557017D01*
X67811199Y-84554418D01*
X67790884Y-84544067D01*
X67697933Y-84519161D01*
X67615649Y-84497113D01*
X67615645Y-84497112D01*
X67610072Y-84495619D01*
X67602743Y-84495042D01*
X67534780Y-84489693D01*
X67534771Y-84489693D01*
X67532323Y-84489500D01*
X67352834Y-84489500D01*
X67284713Y-84469498D01*
X67238220Y-84415842D01*
X67228116Y-84345568D01*
X67257610Y-84280988D01*
X67263739Y-84274405D01*
X67715318Y-83822826D01*
X67777630Y-83788800D01*
X67848445Y-83793865D01*
G37*
%TD.AperFunction*%
%TA.AperFunction,Conductor*%
G36*
X72647418Y-81590025D02*
G01*
X72704254Y-81632572D01*
X72717809Y-81655325D01*
X72774231Y-81777714D01*
X72896267Y-81950391D01*
X72900401Y-81954418D01*
X72976777Y-82028820D01*
X73047727Y-82097937D01*
X73052523Y-82101142D01*
X73052526Y-82101144D01*
X73195798Y-82196875D01*
X73223539Y-82215411D01*
X73228847Y-82217692D01*
X73228848Y-82217692D01*
X73412512Y-82296600D01*
X73412515Y-82296601D01*
X73417815Y-82298878D01*
X73423444Y-82300152D01*
X73423445Y-82300152D01*
X73618412Y-82344269D01*
X73618415Y-82344269D01*
X73624048Y-82345544D01*
X73629819Y-82345771D01*
X73629821Y-82345771D01*
X73691851Y-82348208D01*
X73835332Y-82353846D01*
X73841041Y-82353018D01*
X73841045Y-82353018D01*
X74038877Y-82324333D01*
X74038881Y-82324332D01*
X74044592Y-82323504D01*
X74170545Y-82280749D01*
X74239345Y-82257395D01*
X74239350Y-82257393D01*
X74244817Y-82255537D01*
X74304948Y-82221862D01*
X74424257Y-82155046D01*
X74424261Y-82155043D01*
X74429304Y-82152219D01*
X74591874Y-82017012D01*
X74727081Y-81854442D01*
X74802066Y-81720547D01*
X74852800Y-81670888D01*
X74922332Y-81656541D01*
X74988583Y-81682062D01*
X75030518Y-81739350D01*
X75034825Y-81810216D01*
X75032331Y-81819479D01*
X75029605Y-81828259D01*
X75019820Y-81859773D01*
X74994967Y-82069754D01*
X75008796Y-82280749D01*
X75010217Y-82286345D01*
X75010218Y-82286350D01*
X75060845Y-82485690D01*
X75058870Y-82486192D01*
X75062255Y-82548020D01*
X75027193Y-82609755D01*
X75020775Y-82615146D01*
X75020856Y-82615238D01*
X74861881Y-82754655D01*
X74730976Y-82920708D01*
X74728287Y-82925819D01*
X74728285Y-82925822D01*
X74697254Y-82984803D01*
X74632523Y-83107836D01*
X74607064Y-83189828D01*
X74606470Y-83191742D01*
X74567167Y-83250868D01*
X74511978Y-83276001D01*
X74512306Y-83277315D01*
X74338275Y-83320705D01*
X74256023Y-83361535D01*
X74186114Y-83373908D01*
X74143978Y-83361536D01*
X74061725Y-83320705D01*
X73887694Y-83277315D01*
X73866922Y-83275899D01*
X73848551Y-83274646D01*
X73848540Y-83274646D01*
X73846404Y-83274500D01*
X73553596Y-83274500D01*
X73551460Y-83274646D01*
X73551449Y-83274646D01*
X73533078Y-83275899D01*
X73512306Y-83277315D01*
X73506917Y-83278659D01*
X73506908Y-83278660D01*
X73480483Y-83285249D01*
X73419517Y-83285249D01*
X73393092Y-83278660D01*
X73393083Y-83278659D01*
X73387694Y-83277315D01*
X73366922Y-83275899D01*
X73348551Y-83274646D01*
X73348540Y-83274646D01*
X73346404Y-83274500D01*
X73053900Y-83274500D01*
X72985779Y-83254498D01*
X72939286Y-83200842D01*
X72929204Y-83130420D01*
X72953314Y-82964143D01*
X72953315Y-82964133D01*
X72953846Y-82960470D01*
X72955429Y-82900000D01*
X72936081Y-82689440D01*
X72878686Y-82485931D01*
X72809567Y-82345771D01*
X72787719Y-82301469D01*
X72785165Y-82296290D01*
X72658651Y-82126867D01*
X72541844Y-82018892D01*
X72507622Y-81987257D01*
X72507620Y-81987255D01*
X72503381Y-81983337D01*
X72498498Y-81980256D01*
X72498494Y-81980253D01*
X72407348Y-81922744D01*
X72360409Y-81869477D01*
X72349720Y-81799290D01*
X72378675Y-81734466D01*
X72394014Y-81719308D01*
X72512574Y-81620703D01*
X72517012Y-81617012D01*
X72517291Y-81617348D01*
X72576603Y-81584960D01*
X72647418Y-81590025D01*
G37*
%TD.AperFunction*%
%TA.AperFunction,Conductor*%
G36*
X65959012Y-82571463D02*
G01*
X65998207Y-82634075D01*
X66039150Y-82786873D01*
X66043761Y-82804083D01*
X66074440Y-82864294D01*
X66087543Y-82934068D01*
X66060843Y-82999853D01*
X66051267Y-83010589D01*
X65924884Y-83136972D01*
X65862572Y-83170998D01*
X65791757Y-83165933D01*
X65734921Y-83123386D01*
X65710110Y-83056866D01*
X65715956Y-83008940D01*
X65733633Y-82954539D01*
X65733634Y-82954534D01*
X65735674Y-82948256D01*
X65737122Y-82934477D01*
X65740726Y-82915030D01*
X65744313Y-82901645D01*
X65747859Y-82833980D01*
X65748376Y-82827405D01*
X65750156Y-82810466D01*
X65750156Y-82810463D01*
X65750500Y-82807192D01*
X65750500Y-82786873D01*
X65750673Y-82780279D01*
X65753874Y-82719204D01*
X65753874Y-82719200D01*
X65754219Y-82712612D01*
X65752051Y-82698923D01*
X65750500Y-82679213D01*
X65750500Y-82666687D01*
X65770502Y-82598566D01*
X65824158Y-82552073D01*
X65894432Y-82541969D01*
X65959012Y-82571463D01*
G37*
%TD.AperFunction*%
%TA.AperFunction,Conductor*%
G36*
X79210421Y-78303448D02*
G01*
X79266022Y-78327336D01*
X79266025Y-78327337D01*
X79271325Y-78329614D01*
X79477558Y-78376280D01*
X79483331Y-78376507D01*
X79483332Y-78376507D01*
X79534379Y-78378513D01*
X79592430Y-78395296D01*
X79604352Y-78402179D01*
X79614059Y-78405333D01*
X79617539Y-78406464D01*
X79635796Y-78414027D01*
X79642265Y-78417323D01*
X79642269Y-78417324D01*
X79648148Y-78420320D01*
X79655586Y-78422313D01*
X79657123Y-78422725D01*
X79658460Y-78423540D01*
X79660693Y-78424397D01*
X79660536Y-78424805D01*
X79717748Y-78459673D01*
X79748772Y-78523533D01*
X79750130Y-78534555D01*
X79750688Y-78541645D01*
X79799680Y-78724488D01*
X79847002Y-78817362D01*
X79866717Y-78856055D01*
X79879821Y-78925832D01*
X79853399Y-78991264D01*
X79830976Y-79019708D01*
X79828287Y-79024819D01*
X79828285Y-79024822D01*
X79823983Y-79032999D01*
X79732523Y-79206836D01*
X79680848Y-79373256D01*
X79671967Y-79401860D01*
X79669820Y-79408773D01*
X79644967Y-79618754D01*
X79658796Y-79829749D01*
X79660217Y-79835345D01*
X79660218Y-79835350D01*
X79673404Y-79887267D01*
X79670786Y-79958215D01*
X79630226Y-80016485D01*
X79564601Y-80043577D01*
X79526703Y-80041862D01*
X79397380Y-80016138D01*
X79326442Y-80002028D01*
X79326440Y-80002028D01*
X79320775Y-80000901D01*
X79315000Y-80000825D01*
X79314996Y-80000825D01*
X79224850Y-79999645D01*
X79156997Y-79978753D01*
X79111211Y-79924493D01*
X79100500Y-79873656D01*
X79100500Y-79703596D01*
X79099979Y-79695944D01*
X79098063Y-79667855D01*
X79097685Y-79662306D01*
X79096341Y-79656917D01*
X79096340Y-79656908D01*
X79089751Y-79630483D01*
X79089751Y-79569517D01*
X79096340Y-79543092D01*
X79096341Y-79543083D01*
X79097685Y-79537694D01*
X79100500Y-79496404D01*
X79100500Y-79203596D01*
X79097685Y-79162306D01*
X79096341Y-79156917D01*
X79096340Y-79156908D01*
X79089751Y-79130483D01*
X79089751Y-79069517D01*
X79096340Y-79043092D01*
X79096341Y-79043083D01*
X79097685Y-79037694D01*
X79100500Y-78996404D01*
X79100500Y-78703596D01*
X79097685Y-78662306D01*
X79054295Y-78488275D01*
X79051262Y-78482166D01*
X79051261Y-78482162D01*
X79047826Y-78475243D01*
X79035451Y-78405333D01*
X79062837Y-78339831D01*
X79121289Y-78299533D01*
X79192248Y-78297234D01*
X79210421Y-78303448D01*
G37*
%TD.AperFunction*%
%TA.AperFunction,Conductor*%
G36*
X97560307Y-69201493D02*
G01*
X97589455Y-69205175D01*
X97596462Y-69204488D01*
X97596464Y-69204488D01*
X97603795Y-69203769D01*
X97616822Y-69202492D01*
X97634606Y-69202011D01*
X98021525Y-69218904D01*
X98032473Y-69219862D01*
X98445346Y-69274217D01*
X98456154Y-69276123D01*
X98750188Y-69341309D01*
X98862712Y-69366255D01*
X98873329Y-69369100D01*
X99270484Y-69494323D01*
X99280798Y-69498076D01*
X99665551Y-69657446D01*
X99675486Y-69662079D01*
X100044878Y-69854373D01*
X100054387Y-69859863D01*
X100405593Y-70083606D01*
X100414597Y-70089910D01*
X100715374Y-70320703D01*
X100744979Y-70343420D01*
X100753396Y-70350484D01*
X101047991Y-70620429D01*
X101060414Y-70631813D01*
X101068183Y-70639582D01*
X101268489Y-70858178D01*
X101349514Y-70946601D01*
X101356580Y-70955021D01*
X101610090Y-71285403D01*
X101616394Y-71294407D01*
X101840137Y-71645613D01*
X101845627Y-71655122D01*
X102037921Y-72024514D01*
X102042554Y-72034449D01*
X102199232Y-72412702D01*
X102201921Y-72419194D01*
X102205677Y-72429516D01*
X102324682Y-72806948D01*
X102330900Y-72826670D01*
X102333745Y-72837287D01*
X102422229Y-73236411D01*
X102423875Y-73243837D01*
X102425783Y-73254654D01*
X102475164Y-73629741D01*
X102480138Y-73667526D01*
X102481096Y-73678475D01*
X102496034Y-74020599D01*
X102497491Y-74053978D01*
X102496617Y-74075269D01*
X102494825Y-74089455D01*
X102495512Y-74096462D01*
X102495512Y-74096465D01*
X102498899Y-74131005D01*
X102499500Y-74143300D01*
X102499500Y-79418500D01*
X102479498Y-79486621D01*
X102425842Y-79533114D01*
X102373500Y-79544500D01*
X100012476Y-79544500D01*
X100010944Y-79544576D01*
X100010930Y-79544576D01*
X99939580Y-79548100D01*
X99939568Y-79548101D01*
X99938027Y-79548177D01*
X99913316Y-79550624D01*
X99839599Y-79561618D01*
X99838083Y-79561921D01*
X99838067Y-79561924D01*
X99733609Y-79582816D01*
X99601210Y-79609296D01*
X99530490Y-79603042D01*
X99474377Y-79559547D01*
X99450500Y-79485743D01*
X99450500Y-78217184D01*
X99439766Y-78096913D01*
X99383741Y-77901530D01*
X99300801Y-77742881D01*
X99292529Y-77727058D01*
X99292528Y-77727057D01*
X99289573Y-77721404D01*
X99264254Y-77690359D01*
X99165138Y-77568831D01*
X99161109Y-77563891D01*
X99106027Y-77518967D01*
X99008540Y-77439459D01*
X99008539Y-77439458D01*
X99003596Y-77435427D01*
X98823470Y-77341259D01*
X98628087Y-77285234D01*
X98596455Y-77282411D01*
X98510609Y-77274749D01*
X98510603Y-77274749D01*
X98507816Y-77274500D01*
X97956928Y-77274500D01*
X97888807Y-77254498D01*
X97863292Y-77232811D01*
X97862106Y-77231494D01*
X97858651Y-77226867D01*
X97767196Y-77142327D01*
X97707622Y-77087257D01*
X97707620Y-77087255D01*
X97703381Y-77083337D01*
X97661169Y-77056703D01*
X97529434Y-76973584D01*
X97529433Y-76973584D01*
X97524554Y-76970505D01*
X97328160Y-76892152D01*
X97322503Y-76891027D01*
X97322497Y-76891025D01*
X97126442Y-76852028D01*
X97126440Y-76852028D01*
X97120775Y-76850901D01*
X97115000Y-76850825D01*
X97114996Y-76850825D01*
X97008976Y-76849437D01*
X96909346Y-76848133D01*
X96903649Y-76849112D01*
X96903648Y-76849112D01*
X96706650Y-76882962D01*
X96706649Y-76882962D01*
X96700953Y-76883941D01*
X96502575Y-76957127D01*
X96497614Y-76960079D01*
X96497613Y-76960079D01*
X96332429Y-77058353D01*
X96320856Y-77065238D01*
X96274855Y-77105580D01*
X96266404Y-77112991D01*
X96202000Y-77142868D01*
X96131667Y-77133182D01*
X96085407Y-77097554D01*
X95998743Y-76990534D01*
X95994592Y-76985408D01*
X95979991Y-76973584D01*
X95855064Y-76872419D01*
X95855061Y-76872417D01*
X95849935Y-76868266D01*
X95684083Y-76783761D01*
X95677708Y-76782053D01*
X95677706Y-76782052D01*
X95613543Y-76764860D01*
X95504286Y-76735584D01*
X95498535Y-76735131D01*
X95498533Y-76735131D01*
X95429438Y-76729693D01*
X95429429Y-76729693D01*
X95426981Y-76729500D01*
X95230080Y-76729500D01*
X95033020Y-76729501D01*
X94997555Y-76732292D01*
X94961465Y-76735131D01*
X94961460Y-76735132D01*
X94955714Y-76735584D01*
X94775917Y-76783761D01*
X94770037Y-76786757D01*
X94765155Y-76788631D01*
X94694390Y-76794370D01*
X94674845Y-76788631D01*
X94669963Y-76786757D01*
X94664083Y-76783761D01*
X94484286Y-76735584D01*
X94478535Y-76735131D01*
X94478533Y-76735131D01*
X94409438Y-76729693D01*
X94409429Y-76729693D01*
X94406981Y-76729500D01*
X94210080Y-76729500D01*
X94013020Y-76729501D01*
X93977555Y-76732292D01*
X93941465Y-76735131D01*
X93941460Y-76735132D01*
X93935714Y-76735584D01*
X93892688Y-76747113D01*
X93762286Y-76782054D01*
X93762282Y-76782055D01*
X93755917Y-76783761D01*
X93750041Y-76786755D01*
X93743870Y-76789124D01*
X93743131Y-76787198D01*
X93682910Y-76798499D01*
X93661086Y-76793315D01*
X93660884Y-76794067D01*
X93485649Y-76747113D01*
X93485645Y-76747112D01*
X93480072Y-76745619D01*
X93472743Y-76745042D01*
X93404780Y-76739693D01*
X93404771Y-76739693D01*
X93402323Y-76739500D01*
X93200082Y-76739500D01*
X92997678Y-76739501D01*
X92949922Y-76743259D01*
X92925682Y-76745166D01*
X92925680Y-76745166D01*
X92919928Y-76745619D01*
X92805019Y-76776408D01*
X92757564Y-76789124D01*
X92739116Y-76794067D01*
X92572327Y-76879050D01*
X92567198Y-76883203D01*
X92567197Y-76883204D01*
X92434656Y-76990534D01*
X92426853Y-76996853D01*
X92422702Y-77001979D01*
X92316456Y-77133182D01*
X92309050Y-77142327D01*
X92224067Y-77309116D01*
X92222359Y-77315489D01*
X92222359Y-77315490D01*
X92198468Y-77404655D01*
X92175619Y-77489928D01*
X92175166Y-77495684D01*
X92171224Y-77545776D01*
X92169500Y-77567677D01*
X92169501Y-77692540D01*
X92169501Y-77703500D01*
X92149499Y-77771621D01*
X92095844Y-77818114D01*
X92043501Y-77829501D01*
X92013020Y-77829501D01*
X91977555Y-77832292D01*
X91941465Y-77835131D01*
X91941460Y-77835132D01*
X91935714Y-77835584D01*
X91911072Y-77842187D01*
X91762294Y-77882052D01*
X91762292Y-77882053D01*
X91755917Y-77883761D01*
X91590065Y-77968266D01*
X91584939Y-77972417D01*
X91584936Y-77972419D01*
X91547364Y-78002845D01*
X91481837Y-78030171D01*
X91411938Y-78017732D01*
X91359861Y-77969477D01*
X91342946Y-77919763D01*
X91339032Y-77886760D01*
X91338137Y-77879210D01*
X91322440Y-77791483D01*
X91315500Y-77762632D01*
X91289585Y-77677368D01*
X91285599Y-77666583D01*
X91256850Y-77588814D01*
X91256842Y-77588793D01*
X91256514Y-77587906D01*
X91256175Y-77587066D01*
X91256163Y-77587035D01*
X91240163Y-77547393D01*
X91239835Y-77546580D01*
X91238994Y-77544660D01*
X91234247Y-77533831D01*
X91233875Y-77532982D01*
X91214774Y-77492681D01*
X91213369Y-77489928D01*
X90239194Y-75582169D01*
X90169284Y-75445261D01*
X90155500Y-75387960D01*
X90155500Y-71206467D01*
X90153559Y-71152342D01*
X90152266Y-71134340D01*
X90146457Y-71080526D01*
X90129937Y-70966083D01*
X90106844Y-70860358D01*
X90096662Y-70825825D01*
X90058702Y-70724485D01*
X90010486Y-70619376D01*
X89986170Y-70571019D01*
X89977490Y-70555196D01*
X89949759Y-70508679D01*
X89476054Y-69775200D01*
X89230417Y-69394858D01*
X89210262Y-69326782D01*
X89230112Y-69258617D01*
X89283663Y-69212004D01*
X89336262Y-69200500D01*
X97544517Y-69200500D01*
X97560307Y-69201493D01*
G37*
%TD.AperFunction*%
%TA.AperFunction,Conductor*%
G36*
X69303163Y-69220502D02*
G01*
X69349656Y-69274158D01*
X69360169Y-69341309D01*
X69345646Y-69464017D01*
X69344967Y-69469754D01*
X69358796Y-69680749D01*
X69360217Y-69686345D01*
X69360218Y-69686350D01*
X69382784Y-69775200D01*
X69410845Y-69885690D01*
X69499369Y-70077714D01*
X69621405Y-70250391D01*
X69625539Y-70254418D01*
X69720336Y-70346765D01*
X69772865Y-70397937D01*
X69777661Y-70401142D01*
X69777669Y-70401148D01*
X69868501Y-70461839D01*
X69914029Y-70516315D01*
X69924500Y-70566604D01*
X69924500Y-71461047D01*
X69922949Y-71480757D01*
X69920781Y-71494446D01*
X69921126Y-71501034D01*
X69921126Y-71501038D01*
X69924327Y-71562114D01*
X69924500Y-71568708D01*
X69924500Y-71589026D01*
X69924843Y-71592293D01*
X69924844Y-71592304D01*
X69926624Y-71609234D01*
X69927141Y-71615800D01*
X69928616Y-71643963D01*
X69929765Y-71665876D01*
X69930687Y-71683480D01*
X69934274Y-71696865D01*
X69937878Y-71716313D01*
X69938393Y-71721209D01*
X69939326Y-71730090D01*
X69941366Y-71736367D01*
X69941366Y-71736369D01*
X69960265Y-71794535D01*
X69962138Y-71800859D01*
X69977970Y-71859943D01*
X69977972Y-71859949D01*
X69979680Y-71866322D01*
X69982676Y-71872201D01*
X69982677Y-71872205D01*
X69985973Y-71878674D01*
X69993536Y-71896931D01*
X69997821Y-71910118D01*
X70001121Y-71915833D01*
X70001121Y-71915834D01*
X70031703Y-71968805D01*
X70034849Y-71974600D01*
X70060056Y-72024070D01*
X70065617Y-72034983D01*
X70071424Y-72042154D01*
X70072011Y-72043562D01*
X70073367Y-72045650D01*
X70072985Y-72045898D01*
X70098746Y-72107683D01*
X70099500Y-72121444D01*
X70099500Y-72797030D01*
X70097949Y-72816740D01*
X70095781Y-72830429D01*
X70096126Y-72837017D01*
X70096126Y-72837021D01*
X70099327Y-72898097D01*
X70099500Y-72904691D01*
X70099500Y-72925009D01*
X70099843Y-72928276D01*
X70099844Y-72928287D01*
X70101624Y-72945217D01*
X70102141Y-72951783D01*
X70105687Y-73019463D01*
X70108364Y-73029453D01*
X70109274Y-73032848D01*
X70112878Y-73052296D01*
X70114326Y-73066073D01*
X70116366Y-73072350D01*
X70116366Y-73072352D01*
X70135265Y-73130518D01*
X70137138Y-73136842D01*
X70152970Y-73195926D01*
X70152972Y-73195932D01*
X70154680Y-73202305D01*
X70157676Y-73208184D01*
X70157677Y-73208188D01*
X70160973Y-73214657D01*
X70168536Y-73232914D01*
X70172821Y-73246101D01*
X70176121Y-73251816D01*
X70176121Y-73251817D01*
X70206703Y-73304788D01*
X70209849Y-73310583D01*
X70227878Y-73345965D01*
X70240617Y-73370966D01*
X70244771Y-73376095D01*
X70244771Y-73376096D01*
X70249339Y-73381737D01*
X70260534Y-73398026D01*
X70267467Y-73410033D01*
X70271888Y-73414943D01*
X70312815Y-73460397D01*
X70317099Y-73465413D01*
X70329881Y-73481197D01*
X70344230Y-73495546D01*
X70348771Y-73500330D01*
X70375482Y-73529995D01*
X70394129Y-73550705D01*
X70399467Y-73554583D01*
X70404377Y-73559004D01*
X70403410Y-73560078D01*
X70442154Y-73610314D01*
X70448235Y-73681049D01*
X70415109Y-73743844D01*
X70357354Y-73777744D01*
X70265490Y-73802359D01*
X70259116Y-73804067D01*
X70092327Y-73889050D01*
X69946853Y-74006853D01*
X69942702Y-74011979D01*
X69833824Y-74146432D01*
X69829050Y-74152327D01*
X69744067Y-74319116D01*
X69742359Y-74325489D01*
X69742359Y-74325490D01*
X69702458Y-74474405D01*
X69695619Y-74499928D01*
X69695166Y-74505684D01*
X69692889Y-74534622D01*
X69689500Y-74577677D01*
X69689501Y-74982322D01*
X69695619Y-75060072D01*
X69720936Y-75154557D01*
X69719246Y-75225534D01*
X69679452Y-75284329D01*
X69642840Y-75305380D01*
X69595212Y-75322951D01*
X69502575Y-75357127D01*
X69320856Y-75465238D01*
X69161881Y-75604655D01*
X69030976Y-75770708D01*
X69028287Y-75775819D01*
X69028285Y-75775822D01*
X68978400Y-75870638D01*
X68932523Y-75957836D01*
X68869820Y-76159773D01*
X68844967Y-76369754D01*
X68858796Y-76580749D01*
X68860217Y-76586345D01*
X68860218Y-76586350D01*
X68909423Y-76780091D01*
X68909937Y-76782115D01*
X68910845Y-76785690D01*
X68910143Y-76785868D01*
X68913786Y-76852329D01*
X68878728Y-76914066D01*
X68815858Y-76947049D01*
X68791128Y-76949500D01*
X68380787Y-76949500D01*
X68361076Y-76947949D01*
X68353904Y-76946813D01*
X68347388Y-76945781D01*
X68340800Y-76946126D01*
X68340796Y-76946126D01*
X68279721Y-76949327D01*
X68273127Y-76949500D01*
X68252808Y-76949500D01*
X68249537Y-76949844D01*
X68249534Y-76949844D01*
X68232595Y-76951624D01*
X68226020Y-76952141D01*
X68202075Y-76953396D01*
X68158355Y-76955687D01*
X68144964Y-76959275D01*
X68125523Y-76962878D01*
X68124319Y-76963004D01*
X68118315Y-76963635D01*
X68118311Y-76963636D01*
X68111744Y-76964326D01*
X68092728Y-76970505D01*
X68047298Y-76985266D01*
X68040972Y-76987140D01*
X67981885Y-77002972D01*
X67981882Y-77002973D01*
X67975512Y-77004680D01*
X67969633Y-77007676D01*
X67969629Y-77007677D01*
X67963160Y-77010973D01*
X67944903Y-77018536D01*
X67931716Y-77022821D01*
X67926001Y-77026121D01*
X67926000Y-77026121D01*
X67873029Y-77056703D01*
X67867234Y-77059849D01*
X67821139Y-77083337D01*
X67806851Y-77090617D01*
X67801718Y-77094774D01*
X67796083Y-77099337D01*
X67779786Y-77110538D01*
X67767784Y-77117467D01*
X67762879Y-77121883D01*
X67762874Y-77121887D01*
X67717421Y-77162812D01*
X67712411Y-77167092D01*
X67699181Y-77177806D01*
X67696620Y-77179880D01*
X67682261Y-77194239D01*
X67677477Y-77198780D01*
X67627112Y-77244129D01*
X67623234Y-77249467D01*
X67623231Y-77249470D01*
X67618967Y-77255339D01*
X67606128Y-77270372D01*
X67370376Y-77506125D01*
X67355339Y-77518967D01*
X67349476Y-77523226D01*
X67349469Y-77523233D01*
X67344129Y-77527112D01*
X67339283Y-77532494D01*
X67298772Y-77577486D01*
X67294231Y-77582270D01*
X67279881Y-77596620D01*
X67273842Y-77604078D01*
X67267099Y-77612404D01*
X67262815Y-77617420D01*
X67218548Y-77666583D01*
X67217467Y-77667784D01*
X67216133Y-77666583D01*
X67166876Y-77704572D01*
X67096140Y-77710654D01*
X67033346Y-77677527D01*
X67008146Y-77642890D01*
X66987719Y-77601469D01*
X66985165Y-77596290D01*
X66858651Y-77426867D01*
X66703381Y-77283337D01*
X66543118Y-77182218D01*
X66529434Y-77173584D01*
X66529433Y-77173584D01*
X66524554Y-77170505D01*
X66328160Y-77092152D01*
X66322503Y-77091027D01*
X66322497Y-77091025D01*
X66126442Y-77052028D01*
X66126440Y-77052028D01*
X66120775Y-77050901D01*
X66115000Y-77050825D01*
X66114996Y-77050825D01*
X66008976Y-77049437D01*
X65909346Y-77048133D01*
X65903649Y-77049112D01*
X65903648Y-77049112D01*
X65706650Y-77082962D01*
X65706649Y-77082962D01*
X65700953Y-77083941D01*
X65502575Y-77157127D01*
X65497614Y-77160079D01*
X65497613Y-77160079D01*
X65467817Y-77177806D01*
X65320856Y-77265238D01*
X65161881Y-77404655D01*
X65030976Y-77570708D01*
X65028287Y-77575819D01*
X65028285Y-77575822D01*
X64992999Y-77642890D01*
X64932523Y-77757836D01*
X64889662Y-77895873D01*
X64889392Y-77896742D01*
X64850089Y-77955867D01*
X64785060Y-77984358D01*
X64714950Y-77973168D01*
X64680041Y-77948551D01*
X64573491Y-77842187D01*
X64568311Y-77837016D01*
X64556120Y-77829501D01*
X64494442Y-77791483D01*
X64419334Y-77745186D01*
X64412385Y-77742881D01*
X64259759Y-77692256D01*
X64259757Y-77692255D01*
X64253228Y-77690090D01*
X64149866Y-77679500D01*
X62350134Y-77679500D01*
X62346888Y-77679837D01*
X62346884Y-77679837D01*
X62252339Y-77689647D01*
X62252335Y-77689648D01*
X62245481Y-77690359D01*
X62238945Y-77692540D01*
X62238943Y-77692540D01*
X62206092Y-77703500D01*
X62079471Y-77745744D01*
X61930655Y-77837834D01*
X61925482Y-77843016D01*
X61915673Y-77852842D01*
X61853390Y-77886921D01*
X61782570Y-77881918D01*
X61725697Y-77839420D01*
X61700829Y-77772922D01*
X61700500Y-77763824D01*
X61700500Y-74161599D01*
X61701726Y-74144063D01*
X61704404Y-74125010D01*
X61704404Y-74125007D01*
X61704955Y-74121088D01*
X61705249Y-74100000D01*
X61704809Y-74096081D01*
X61704809Y-74096072D01*
X61702924Y-74079266D01*
X61702259Y-74059728D01*
X61718904Y-73678476D01*
X61719862Y-73667526D01*
X61724836Y-73629741D01*
X61774217Y-73254654D01*
X61776125Y-73243837D01*
X61777772Y-73236411D01*
X61866255Y-72837287D01*
X61869100Y-72826670D01*
X61875318Y-72806948D01*
X61994323Y-72429516D01*
X61998079Y-72419194D01*
X62000768Y-72412702D01*
X62157446Y-72034449D01*
X62162079Y-72024514D01*
X62354373Y-71655122D01*
X62359863Y-71645613D01*
X62583606Y-71294407D01*
X62589910Y-71285403D01*
X62843420Y-70955021D01*
X62850486Y-70946601D01*
X62931511Y-70858178D01*
X63131817Y-70639582D01*
X63139586Y-70631813D01*
X63152010Y-70620429D01*
X63446604Y-70350484D01*
X63455021Y-70343420D01*
X63484627Y-70320703D01*
X63785403Y-70089910D01*
X63794407Y-70083606D01*
X64145613Y-69859863D01*
X64155122Y-69854373D01*
X64524514Y-69662079D01*
X64534449Y-69657446D01*
X64919202Y-69498076D01*
X64929516Y-69494323D01*
X65326671Y-69369100D01*
X65337288Y-69366255D01*
X65449812Y-69341309D01*
X65743846Y-69276123D01*
X65754654Y-69274217D01*
X66167527Y-69219862D01*
X66178475Y-69218904D01*
X66553983Y-69202509D01*
X66575269Y-69203383D01*
X66589455Y-69205175D01*
X66596462Y-69204488D01*
X66596465Y-69204488D01*
X66631005Y-69201101D01*
X66643300Y-69200500D01*
X69235042Y-69200500D01*
X69303163Y-69220502D01*
G37*
%TD.AperFunction*%
%TA.AperFunction,Conductor*%
G36*
X85636621Y-69220502D02*
G01*
X85683114Y-69274158D01*
X85694500Y-69326500D01*
X85694500Y-74713179D01*
X85674498Y-74781300D01*
X85620842Y-74827793D01*
X85550568Y-74837897D01*
X85485988Y-74808403D01*
X85470580Y-74792474D01*
X85397298Y-74701979D01*
X85393147Y-74696853D01*
X85247673Y-74579050D01*
X85080884Y-74494067D01*
X85074510Y-74492359D01*
X84905649Y-74447113D01*
X84905645Y-74447112D01*
X84900072Y-74445619D01*
X84892743Y-74445042D01*
X84824780Y-74439693D01*
X84824771Y-74439693D01*
X84822323Y-74439500D01*
X84620082Y-74439500D01*
X84417678Y-74439501D01*
X84369922Y-74443259D01*
X84345682Y-74445166D01*
X84345680Y-74445166D01*
X84339928Y-74445619D01*
X84226189Y-74476095D01*
X84155214Y-74474405D01*
X84096418Y-74434611D01*
X84068108Y-74365917D01*
X84064394Y-74325490D01*
X84061081Y-74289440D01*
X84003686Y-74085931D01*
X84001132Y-74080753D01*
X84001129Y-74080744D01*
X83938494Y-73953734D01*
X83925500Y-73898006D01*
X83925500Y-73141185D01*
X83925549Y-73137667D01*
X83927782Y-73057730D01*
X83927782Y-73057727D01*
X83927960Y-73051347D01*
X83917484Y-72991933D01*
X83916215Y-72982787D01*
X83910765Y-72929133D01*
X83910765Y-72929132D01*
X83910120Y-72922784D01*
X83901513Y-72895320D01*
X83897664Y-72879529D01*
X83893773Y-72857460D01*
X83893772Y-72857455D01*
X83892665Y-72851179D01*
X83870454Y-72795080D01*
X83867373Y-72786378D01*
X83856266Y-72750935D01*
X83850500Y-72713256D01*
X83850500Y-72495076D01*
X83840302Y-72380813D01*
X83809827Y-72274534D01*
X83788835Y-72201324D01*
X83788834Y-72201322D01*
X83787077Y-72195194D01*
X83722829Y-72072299D01*
X83700569Y-72029720D01*
X83700568Y-72029718D01*
X83697615Y-72024070D01*
X83683599Y-72006884D01*
X83579600Y-71879369D01*
X83575571Y-71874429D01*
X83557809Y-71859943D01*
X83430873Y-71756416D01*
X83430870Y-71756414D01*
X83425930Y-71752385D01*
X83395295Y-71736369D01*
X83330484Y-71702487D01*
X83254806Y-71662923D01*
X83248678Y-71661166D01*
X83248676Y-71661165D01*
X83143902Y-71631122D01*
X83069187Y-71609698D01*
X83036904Y-71606817D01*
X82957717Y-71599749D01*
X82957711Y-71599749D01*
X82954924Y-71599500D01*
X82445076Y-71599500D01*
X82442289Y-71599749D01*
X82442283Y-71599749D01*
X82363096Y-71606817D01*
X82330813Y-71609698D01*
X82145194Y-71662923D01*
X82093684Y-71689852D01*
X82060165Y-71707375D01*
X81990529Y-71721209D01*
X81955100Y-71712743D01*
X81783524Y-71644292D01*
X81778160Y-71642152D01*
X81772503Y-71641027D01*
X81772497Y-71641025D01*
X81576442Y-71602028D01*
X81576440Y-71602028D01*
X81570775Y-71600901D01*
X81565000Y-71600825D01*
X81564996Y-71600825D01*
X81458976Y-71599437D01*
X81359346Y-71598133D01*
X81353649Y-71599112D01*
X81353648Y-71599112D01*
X81156650Y-71632962D01*
X81156649Y-71632962D01*
X81150953Y-71633941D01*
X80952575Y-71707127D01*
X80947614Y-71710079D01*
X80947613Y-71710079D01*
X80893253Y-71742420D01*
X80770856Y-71815238D01*
X80611881Y-71954655D01*
X80480976Y-72120708D01*
X80478287Y-72125819D01*
X80478285Y-72125822D01*
X80432893Y-72212099D01*
X80382523Y-72307836D01*
X80346369Y-72424272D01*
X80324384Y-72495076D01*
X80319820Y-72509773D01*
X80319141Y-72515510D01*
X80300293Y-72674758D01*
X80299500Y-72681455D01*
X80299500Y-73029453D01*
X80294619Y-73064183D01*
X80285234Y-73096913D01*
X80284745Y-73103273D01*
X80283026Y-73125610D01*
X80280735Y-73141705D01*
X80274849Y-73169880D01*
X80274500Y-73176539D01*
X80274500Y-73231565D01*
X80274129Y-73241232D01*
X80273315Y-73251817D01*
X80269640Y-73299571D01*
X80270440Y-73305903D01*
X80273506Y-73330173D01*
X80274500Y-73345965D01*
X80274500Y-73899411D01*
X80260008Y-73958078D01*
X80207523Y-74057836D01*
X80144820Y-74259773D01*
X80119967Y-74469754D01*
X80133796Y-74680749D01*
X80135217Y-74686345D01*
X80135218Y-74686350D01*
X80142032Y-74713179D01*
X80159693Y-74782714D01*
X80162883Y-74795276D01*
X80161879Y-74861021D01*
X80155831Y-74882116D01*
X80151056Y-74898767D01*
X80113053Y-74958735D01*
X80048660Y-74988638D01*
X80005356Y-74987616D01*
X79826442Y-74952028D01*
X79826440Y-74952028D01*
X79820775Y-74950901D01*
X79815000Y-74950825D01*
X79814996Y-74950825D01*
X79708976Y-74949437D01*
X79609346Y-74948133D01*
X79603649Y-74949112D01*
X79603648Y-74949112D01*
X79406650Y-74982962D01*
X79406649Y-74982962D01*
X79400953Y-74983941D01*
X79202575Y-75057127D01*
X79197614Y-75060079D01*
X79197613Y-75060079D01*
X79180089Y-75070505D01*
X79020856Y-75165238D01*
X78861881Y-75304655D01*
X78730976Y-75470708D01*
X78728287Y-75475819D01*
X78728285Y-75475822D01*
X78672333Y-75582169D01*
X78622913Y-75633141D01*
X78560825Y-75649501D01*
X78467678Y-75649501D01*
X78419922Y-75653259D01*
X78395682Y-75655166D01*
X78395680Y-75655166D01*
X78389928Y-75655619D01*
X78214032Y-75702750D01*
X78214030Y-75702750D01*
X78209116Y-75704067D01*
X78208875Y-75703168D01*
X78143825Y-75708442D01*
X78081192Y-75675011D01*
X78056431Y-75640802D01*
X77987719Y-75501469D01*
X77985165Y-75496290D01*
X77858651Y-75326867D01*
X77758286Y-75234090D01*
X77707622Y-75187257D01*
X77707620Y-75187255D01*
X77703381Y-75183337D01*
X77524554Y-75070505D01*
X77328160Y-74992152D01*
X77322503Y-74991027D01*
X77322497Y-74991025D01*
X77126442Y-74952028D01*
X77126440Y-74952028D01*
X77120775Y-74950901D01*
X77115000Y-74950825D01*
X77114996Y-74950825D01*
X77022164Y-74949610D01*
X76909346Y-74948133D01*
X76906958Y-74948543D01*
X76838543Y-74934168D01*
X76787986Y-74884324D01*
X76772641Y-74811953D01*
X76775251Y-74782714D01*
X76775500Y-74779924D01*
X76775500Y-74120076D01*
X76774061Y-74103947D01*
X76765835Y-74011786D01*
X76765302Y-74005813D01*
X76730962Y-73886054D01*
X76713835Y-73826324D01*
X76713834Y-73826322D01*
X76712077Y-73820194D01*
X76622615Y-73649070D01*
X76606851Y-73629741D01*
X76553857Y-73564763D01*
X76526303Y-73499332D01*
X76525500Y-73485128D01*
X76525500Y-72405787D01*
X76527051Y-72386076D01*
X76528187Y-72378904D01*
X76529219Y-72372388D01*
X76528351Y-72355813D01*
X76525673Y-72304727D01*
X76525500Y-72298133D01*
X76525500Y-72277808D01*
X76523991Y-72263451D01*
X76523375Y-72257585D01*
X76522858Y-72251011D01*
X76519658Y-72189955D01*
X76519658Y-72189954D01*
X76519312Y-72183354D01*
X76515726Y-72169971D01*
X76512123Y-72150533D01*
X76511364Y-72143312D01*
X76510674Y-72136744D01*
X76489729Y-72072281D01*
X76487860Y-72065973D01*
X76482481Y-72045898D01*
X76470320Y-72000512D01*
X76464027Y-71988160D01*
X76456464Y-71969903D01*
X76456023Y-71968547D01*
X76452179Y-71956716D01*
X76421652Y-71903841D01*
X76418297Y-71898029D01*
X76415151Y-71892234D01*
X76387381Y-71837734D01*
X76387379Y-71837731D01*
X76384383Y-71831851D01*
X76375661Y-71821080D01*
X76364466Y-71804791D01*
X76357533Y-71792784D01*
X76324787Y-71756416D01*
X76312185Y-71742420D01*
X76307901Y-71737404D01*
X76297195Y-71724184D01*
X76295119Y-71721620D01*
X76280770Y-71707271D01*
X76276229Y-71702487D01*
X76235286Y-71657015D01*
X76235284Y-71657014D01*
X76230871Y-71652112D01*
X76219649Y-71643959D01*
X76204621Y-71631122D01*
X75136418Y-70562919D01*
X75102392Y-70500607D01*
X75107457Y-70429792D01*
X75144944Y-70376950D01*
X75212574Y-70320703D01*
X75217012Y-70317012D01*
X75352219Y-70154442D01*
X75355043Y-70149399D01*
X75355046Y-70149395D01*
X75452713Y-69974998D01*
X75452714Y-69974996D01*
X75455537Y-69969955D01*
X75457393Y-69964488D01*
X75457395Y-69964483D01*
X75521647Y-69775200D01*
X75523504Y-69769730D01*
X75539481Y-69659545D01*
X75553314Y-69564140D01*
X75553314Y-69564138D01*
X75553846Y-69560470D01*
X75555429Y-69500000D01*
X75543249Y-69367446D01*
X75540546Y-69338029D01*
X75554231Y-69268364D01*
X75603407Y-69217157D01*
X75666017Y-69200500D01*
X85568500Y-69200500D01*
X85636621Y-69220502D01*
G37*
%TD.AperFunction*%
%TA.AperFunction,Conductor*%
G36*
X74198557Y-72173439D02*
G01*
X74210331Y-72183830D01*
X74687595Y-72661094D01*
X74721621Y-72723406D01*
X74724500Y-72750189D01*
X74724500Y-73485128D01*
X74704498Y-73553249D01*
X74696143Y-73564763D01*
X74643149Y-73629741D01*
X74627385Y-73649070D01*
X74537923Y-73820194D01*
X74536166Y-73826322D01*
X74536165Y-73826324D01*
X74519038Y-73886054D01*
X74484698Y-74005813D01*
X74484165Y-74011786D01*
X74475940Y-74103947D01*
X74474500Y-74120076D01*
X74474500Y-74779924D01*
X74474749Y-74782709D01*
X74474749Y-74782719D01*
X74477406Y-74812487D01*
X74463539Y-74882116D01*
X74414228Y-74933194D01*
X74347722Y-74949590D01*
X74346404Y-74949500D01*
X74053596Y-74949500D01*
X74051460Y-74949646D01*
X74051449Y-74949646D01*
X74034161Y-74950825D01*
X74012306Y-74952315D01*
X74006917Y-74953659D01*
X74006908Y-74953660D01*
X73980483Y-74960249D01*
X73919517Y-74960249D01*
X73893092Y-74953660D01*
X73893083Y-74953659D01*
X73887694Y-74952315D01*
X73865839Y-74950825D01*
X73848551Y-74949646D01*
X73848540Y-74949646D01*
X73846404Y-74949500D01*
X73553596Y-74949500D01*
X73551462Y-74949646D01*
X73550272Y-74949686D01*
X73481510Y-74932013D01*
X73433219Y-74879970D01*
X73420485Y-74812558D01*
X73420492Y-74812487D01*
X73425500Y-74756370D01*
X73425500Y-74143630D01*
X73424921Y-74137135D01*
X73415567Y-74032336D01*
X73415034Y-74026363D01*
X73378631Y-73899411D01*
X73362167Y-73841992D01*
X73362166Y-73841990D01*
X73360409Y-73835862D01*
X73268594Y-73660237D01*
X73264095Y-73654720D01*
X73243722Y-73629741D01*
X73216168Y-73564309D01*
X73229704Y-73491729D01*
X73259117Y-73435468D01*
X73262077Y-73429806D01*
X73315302Y-73244187D01*
X73321340Y-73176539D01*
X73325251Y-73132717D01*
X73325251Y-73132711D01*
X73325500Y-73129924D01*
X73325500Y-72470076D01*
X73320379Y-72412701D01*
X73334246Y-72343072D01*
X73383556Y-72291993D01*
X73445880Y-72275500D01*
X73662264Y-72275500D01*
X73665050Y-72275251D01*
X73665058Y-72275251D01*
X73772806Y-72265635D01*
X73772809Y-72265634D01*
X73778775Y-72265102D01*
X73784530Y-72263452D01*
X73784534Y-72263451D01*
X73961921Y-72212585D01*
X73961922Y-72212585D01*
X73968055Y-72210826D01*
X73973707Y-72207871D01*
X73973710Y-72207870D01*
X74062861Y-72161263D01*
X74132497Y-72147429D01*
X74198557Y-72173439D01*
G37*
%TD.AperFunction*%
%TD*%
%TA.AperFunction,Conductor*%
%TO.N,+3.3V*%
G36*
X76242121Y-92420002D02*
G01*
X76288614Y-92473658D01*
X76300000Y-92526000D01*
X76300000Y-93247810D01*
X76279998Y-93315931D01*
X76263095Y-93336905D01*
X73336905Y-96263095D01*
X73274593Y-96297121D01*
X73247810Y-96300000D01*
X72026000Y-96300000D01*
X71957879Y-96279998D01*
X71911386Y-96226342D01*
X71900000Y-96174000D01*
X71900000Y-92526000D01*
X71920002Y-92457879D01*
X71973658Y-92411386D01*
X72026000Y-92400000D01*
X76174000Y-92400000D01*
X76242121Y-92420002D01*
G37*
%TD.AperFunction*%
%TD*%
%TA.AperFunction,Conductor*%
%TO.N,+5V*%
G36*
X84542121Y-94220002D02*
G01*
X84588614Y-94273658D01*
X84600000Y-94326000D01*
X84600000Y-96074000D01*
X84579998Y-96142121D01*
X84526342Y-96188614D01*
X84474000Y-96200000D01*
X82124777Y-96200000D01*
X82077069Y-96190619D01*
X81643927Y-96013425D01*
X79900000Y-95300000D01*
X79126000Y-95300000D01*
X79057879Y-95279998D01*
X79011386Y-95226342D01*
X79000000Y-95174000D01*
X79000000Y-94326000D01*
X79020002Y-94257879D01*
X79073658Y-94211386D01*
X79126000Y-94200000D01*
X84474000Y-94200000D01*
X84542121Y-94220002D01*
G37*
%TD.AperFunction*%
%TD*%
%TA.AperFunction,Conductor*%
%TO.N,+24V*%
G36*
X87574310Y-68660896D02*
G01*
X87678126Y-68670624D01*
X87709770Y-68677786D01*
X87799945Y-68710876D01*
X87828716Y-68725885D01*
X87907444Y-68780905D01*
X87931428Y-68802764D01*
X87998802Y-68882337D01*
X88008486Y-68895398D01*
X89315109Y-70918557D01*
X89323789Y-70934380D01*
X89372005Y-71039489D01*
X89382187Y-71074022D01*
X89398707Y-71188465D01*
X89400000Y-71206467D01*
X89400000Y-75600000D01*
X89454696Y-75707112D01*
X89454697Y-75707116D01*
X90000000Y-76775000D01*
X90541922Y-77836265D01*
X90547882Y-77849863D01*
X90580953Y-77939325D01*
X90587893Y-77968176D01*
X90599123Y-78062878D01*
X90600000Y-78077715D01*
X90600000Y-94400000D01*
X90715889Y-94539066D01*
X90715889Y-94539067D01*
X90998539Y-94878247D01*
X91975647Y-96050777D01*
X91984548Y-96062853D01*
X92036948Y-96143605D01*
X92050150Y-96170491D01*
X92079502Y-96254180D01*
X92085986Y-96283423D01*
X92095504Y-96379213D01*
X92096096Y-96394203D01*
X91905033Y-105899630D01*
X91903246Y-105918391D01*
X91882851Y-106037342D01*
X91871046Y-106073023D01*
X91820795Y-106172145D01*
X91798993Y-106202756D01*
X91758796Y-106244328D01*
X91715096Y-106289522D01*
X91701027Y-106302045D01*
X87378532Y-109605084D01*
X87364151Y-109614589D01*
X87268023Y-109669065D01*
X87236064Y-109681780D01*
X87137254Y-109706143D01*
X87103047Y-109709742D01*
X87031717Y-109707452D01*
X87001327Y-109706476D01*
X86967422Y-109700690D01*
X86870379Y-109670039D01*
X86839301Y-109655300D01*
X86754159Y-109599545D01*
X86728227Y-109576952D01*
X86688134Y-109530981D01*
X86661335Y-109500253D01*
X86642478Y-109471488D01*
X86598821Y-109379554D01*
X86588446Y-109346764D01*
X86569805Y-109237854D01*
X86568066Y-109220703D01*
X86460383Y-105918391D01*
X86458322Y-105855205D01*
X86459156Y-105836060D01*
X86473809Y-105714203D01*
X86484076Y-105677385D01*
X86530587Y-105574398D01*
X86551420Y-105542353D01*
X86633153Y-105450789D01*
X86646968Y-105437502D01*
X87669817Y-104593651D01*
X88450000Y-103950000D01*
X88450000Y-96850000D01*
X88038601Y-96254180D01*
X87698673Y-95761872D01*
X87093968Y-94886091D01*
X87084380Y-94869681D01*
X87031050Y-94760184D01*
X87019764Y-94723976D01*
X87001435Y-94603578D01*
X87000000Y-94584615D01*
X87000000Y-91851417D01*
X87001078Y-91834971D01*
X87004604Y-91808188D01*
X87005682Y-91800000D01*
X87001078Y-91765029D01*
X87000000Y-91748583D01*
X87000000Y-87966429D01*
X87009591Y-87918211D01*
X87031884Y-87864391D01*
X87035044Y-87856762D01*
X87055682Y-87700000D01*
X87035044Y-87543238D01*
X87009591Y-87481789D01*
X87000000Y-87433571D01*
X87000000Y-85251417D01*
X87001078Y-85234971D01*
X87004604Y-85208188D01*
X87005682Y-85200000D01*
X87001078Y-85165029D01*
X87000000Y-85148583D01*
X87000000Y-78950000D01*
X86641593Y-78070273D01*
X86489254Y-77696349D01*
X86485209Y-77684861D01*
X86462820Y-77609879D01*
X86458144Y-77586003D01*
X86450589Y-77508126D01*
X86450000Y-77495960D01*
X86450000Y-69192151D01*
X86451482Y-69172885D01*
X86470400Y-69050619D01*
X86482045Y-69013888D01*
X86532671Y-68911841D01*
X86554872Y-68880347D01*
X86633973Y-68798370D01*
X86664655Y-68775058D01*
X86764834Y-68720820D01*
X86801125Y-68707872D01*
X86818634Y-68704519D01*
X86922636Y-68684603D01*
X86941831Y-68682434D01*
X87036191Y-68679064D01*
X87558065Y-68660427D01*
X87574310Y-68660896D01*
G37*
%TD.AperFunction*%
%TD*%
%TA.AperFunction,Conductor*%
%TO.N,A-_OUT*%
G36*
X103142121Y-90420002D02*
G01*
X103188614Y-90473658D01*
X103200000Y-90526000D01*
X103200000Y-91974000D01*
X103179998Y-92042121D01*
X103126342Y-92088614D01*
X103074000Y-92100000D01*
X97526000Y-92100000D01*
X97457879Y-92079998D01*
X97411386Y-92026342D01*
X97400000Y-91974000D01*
X97400000Y-91526000D01*
X97420002Y-91457879D01*
X97473658Y-91411386D01*
X97526000Y-91400000D01*
X99800000Y-91400000D01*
X99800000Y-90526000D01*
X99820002Y-90457879D01*
X99873658Y-90411386D01*
X99926000Y-90400000D01*
X103074000Y-90400000D01*
X103142121Y-90420002D01*
G37*
%TD.AperFunction*%
%TD*%
%TA.AperFunction,Conductor*%
%TO.N,A+_OUT*%
G36*
X103142121Y-93920002D02*
G01*
X103188614Y-93973658D01*
X103200000Y-94026000D01*
X103200000Y-95774000D01*
X103179998Y-95842121D01*
X103126342Y-95888614D01*
X103074000Y-95900000D01*
X99826000Y-95900000D01*
X99757879Y-95879998D01*
X99711386Y-95826342D01*
X99700000Y-95774000D01*
X99700000Y-94600000D01*
X97526000Y-94600000D01*
X97457879Y-94579998D01*
X97411386Y-94526342D01*
X97400000Y-94474000D01*
X97400000Y-94026000D01*
X97420002Y-93957879D01*
X97473658Y-93911386D01*
X97526000Y-93900000D01*
X103074000Y-93900000D01*
X103142121Y-93920002D01*
G37*
%TD.AperFunction*%
%TD*%
%TA.AperFunction,Conductor*%
%TO.N,+24V*%
G36*
X99312709Y-84720002D02*
G01*
X99359202Y-84773658D01*
X99370588Y-84826000D01*
X99370588Y-85095503D01*
X99370268Y-85104480D01*
X99292511Y-86193088D01*
X99270716Y-86498215D01*
X99270415Y-86501734D01*
X99204053Y-87165348D01*
X99181934Y-87386538D01*
X99155253Y-87452330D01*
X99097237Y-87493253D01*
X99056559Y-87500000D01*
X89370588Y-87500000D01*
X89370588Y-86200000D01*
X96670588Y-86200000D01*
X97570588Y-85100000D01*
X97570588Y-84826000D01*
X97590590Y-84757879D01*
X97644246Y-84711386D01*
X97696588Y-84700000D01*
X99244588Y-84700000D01*
X99312709Y-84720002D01*
G37*
%TD.AperFunction*%
%TD*%
%TA.AperFunction,Conductor*%
%TO.N,B-_OUT*%
G36*
X103142121Y-80320002D02*
G01*
X103188614Y-80373658D01*
X103200000Y-80426000D01*
X103200000Y-81874000D01*
X103179998Y-81942121D01*
X103126342Y-81988614D01*
X103074000Y-82000000D01*
X99926000Y-82000000D01*
X99857879Y-81979998D01*
X99811386Y-81926342D01*
X99800000Y-81874000D01*
X99800000Y-81400000D01*
X97626000Y-81400000D01*
X97557879Y-81379998D01*
X97511386Y-81326342D01*
X97500000Y-81274000D01*
X97500000Y-80903295D01*
X97520002Y-80835174D01*
X97573658Y-80788681D01*
X97601287Y-80779743D01*
X99987765Y-80302447D01*
X100012476Y-80300000D01*
X103074000Y-80300000D01*
X103142121Y-80320002D01*
G37*
%TD.AperFunction*%
%TD*%
%TA.AperFunction,Conductor*%
%TO.N,B+_OUT*%
G36*
X102179097Y-83691488D02*
G01*
X102994502Y-83787569D01*
X103059814Y-83815405D01*
X103099708Y-83874133D01*
X103105583Y-83906081D01*
X103193020Y-85567378D01*
X103176626Y-85636455D01*
X103125488Y-85685704D01*
X103067194Y-85700000D01*
X99901074Y-85700000D01*
X99832953Y-85679998D01*
X99786460Y-85626342D01*
X99778074Y-85601333D01*
X99641000Y-84984500D01*
X99638000Y-84957167D01*
X99638000Y-84631856D01*
X99624011Y-84561528D01*
X99570723Y-84481777D01*
X99560407Y-84474884D01*
X99551630Y-84466107D01*
X99553301Y-84464436D01*
X99518563Y-84422869D01*
X99511092Y-84399913D01*
X99403930Y-83917684D01*
X99403930Y-83917683D01*
X99400000Y-83900000D01*
X98403024Y-83900000D01*
X98334903Y-83879998D01*
X98288410Y-83826342D01*
X98278306Y-83756068D01*
X98307800Y-83691488D01*
X98368534Y-83652813D01*
X99363931Y-83369519D01*
X99413164Y-83365572D01*
X102179097Y-83691488D01*
G37*
%TD.AperFunction*%
%TD*%
%TA.AperFunction,Conductor*%
%TO.N,+24V*%
G36*
X99242121Y-95320002D02*
G01*
X99288614Y-95373658D01*
X99300000Y-95426000D01*
X99300000Y-95695503D01*
X99299680Y-95704480D01*
X99221628Y-96797216D01*
X99200128Y-97098215D01*
X99199827Y-97101734D01*
X99133465Y-97765348D01*
X99111346Y-97986538D01*
X99084665Y-98052330D01*
X99026649Y-98093253D01*
X98985971Y-98100000D01*
X92000000Y-98100000D01*
X92000000Y-96800000D01*
X92748583Y-96800000D01*
X92765029Y-96801078D01*
X92800000Y-96805682D01*
X92808188Y-96804604D01*
X92834971Y-96801078D01*
X92851417Y-96800000D01*
X96600000Y-96800000D01*
X97500000Y-95700000D01*
X97500000Y-95426000D01*
X97520002Y-95357879D01*
X97573658Y-95311386D01*
X97626000Y-95300000D01*
X99174000Y-95300000D01*
X99242121Y-95320002D01*
G37*
%TD.AperFunction*%
%TD*%
%TA.AperFunction,Conductor*%
%TO.N,+5V*%
G36*
X71361383Y-96620002D02*
G01*
X71407876Y-96673658D01*
X71417548Y-96705286D01*
X71498833Y-97192999D01*
X71500373Y-97207091D01*
X71599826Y-99096694D01*
X71600000Y-99103316D01*
X71600000Y-99774000D01*
X71579998Y-99842121D01*
X71526342Y-99888614D01*
X71474000Y-99900000D01*
X69126000Y-99900000D01*
X69057879Y-99879998D01*
X69011386Y-99826342D01*
X69000000Y-99774000D01*
X69000000Y-99223396D01*
X69008398Y-99178165D01*
X69038462Y-99100000D01*
X69968935Y-96680769D01*
X70012058Y-96624369D01*
X70078827Y-96600236D01*
X70086537Y-96600000D01*
X71293262Y-96600000D01*
X71361383Y-96620002D01*
G37*
%TD.AperFunction*%
%TD*%
M02*
