%TF.GenerationSoftware,KiCad,Pcbnew,(6.0.6)*%
%TF.CreationDate,2023-03-01T01:58:38-05:00*%
%TF.ProjectId,Driver-Board,44726976-6572-42d4-926f-6172642e6b69,rev?*%
%TF.SameCoordinates,Original*%
%TF.FileFunction,Copper,L3,Inr*%
%TF.FilePolarity,Positive*%
%FSLAX46Y46*%
G04 Gerber Fmt 4.6, Leading zero omitted, Abs format (unit mm)*
G04 Created by KiCad (PCBNEW (6.0.6)) date 2023-03-01 01:58:38*
%MOMM*%
%LPD*%
G01*
G04 APERTURE LIST*
G04 Aperture macros list*
%AMRoundRect*
0 Rectangle with rounded corners*
0 $1 Rounding radius*
0 $2 $3 $4 $5 $6 $7 $8 $9 X,Y pos of 4 corners*
0 Add a 4 corners polygon primitive as box body*
4,1,4,$2,$3,$4,$5,$6,$7,$8,$9,$2,$3,0*
0 Add four circle primitives for the rounded corners*
1,1,$1+$1,$2,$3*
1,1,$1+$1,$4,$5*
1,1,$1+$1,$6,$7*
1,1,$1+$1,$8,$9*
0 Add four rect primitives between the rounded corners*
20,1,$1+$1,$2,$3,$4,$5,0*
20,1,$1+$1,$4,$5,$6,$7,0*
20,1,$1+$1,$6,$7,$8,$9,0*
20,1,$1+$1,$8,$9,$2,$3,0*%
G04 Aperture macros list end*
%TA.AperFunction,ComponentPad*%
%ADD10RoundRect,0.200000X0.200000X0.450000X-0.200000X0.450000X-0.200000X-0.450000X0.200000X-0.450000X0*%
%TD*%
%TA.AperFunction,ComponentPad*%
%ADD11O,0.800000X1.300000*%
%TD*%
%TA.AperFunction,ComponentPad*%
%ADD12C,0.800000*%
%TD*%
%TA.AperFunction,ComponentPad*%
%ADD13C,6.400000*%
%TD*%
%TA.AperFunction,ComponentPad*%
%ADD14RoundRect,0.200000X-0.200000X-0.450000X0.200000X-0.450000X0.200000X0.450000X-0.200000X0.450000X0*%
%TD*%
%TA.AperFunction,ComponentPad*%
%ADD15R,1.700000X1.700000*%
%TD*%
%TA.AperFunction,ComponentPad*%
%ADD16O,1.700000X1.700000*%
%TD*%
%TA.AperFunction,ViaPad*%
%ADD17C,0.800000*%
%TD*%
G04 APERTURE END LIST*
D10*
%TO.N,CAN-*%
%TO.C,J3*%
X82700000Y-73000000D03*
D11*
%TO.N,CAN+*%
X81450000Y-73000000D03*
%TD*%
D12*
%TO.N,GND*%
%TO.C,H2*%
X100000000Y-105100000D03*
X99297056Y-103402944D03*
X97600000Y-107500000D03*
X95902944Y-106797056D03*
D13*
X97600000Y-105100000D03*
D12*
X95200000Y-105100000D03*
X95902944Y-103402944D03*
X99297056Y-106797056D03*
X97600000Y-102700000D03*
%TD*%
D11*
%TO.N,CAN-*%
%TO.C,J2*%
X82725000Y-106200000D03*
D14*
%TO.N,CAN+*%
X81475000Y-106200000D03*
%TD*%
D12*
%TO.N,GND*%
%TO.C,H1*%
X68900000Y-105100000D03*
X64802944Y-103402944D03*
X64100000Y-105100000D03*
X66500000Y-107500000D03*
X64802944Y-106797056D03*
X68197056Y-103402944D03*
X66500000Y-102700000D03*
X68197056Y-106797056D03*
D13*
X66500000Y-105100000D03*
%TD*%
D12*
%TO.N,GND*%
%TO.C,H4*%
X95902944Y-75797056D03*
X99297056Y-72402944D03*
X97600000Y-76500000D03*
X97600000Y-71700000D03*
X100000000Y-74100000D03*
X95200000Y-74100000D03*
D13*
X97600000Y-74100000D03*
D12*
X99297056Y-75797056D03*
X95902944Y-72402944D03*
%TD*%
D15*
%TO.N,+3.3V*%
%TO.C,J1*%
X63250000Y-79280000D03*
D16*
%TO.N,Net-(J1-Pad2)*%
X63250000Y-81820000D03*
%TO.N,Net-(J1-Pad3)*%
X63250000Y-84360000D03*
%TO.N,GND*%
X63250000Y-86900000D03*
%TD*%
D12*
%TO.N,GND*%
%TO.C,H3*%
X64902944Y-75797056D03*
X68297056Y-72402944D03*
X69000000Y-74100000D03*
X64902944Y-72402944D03*
D13*
X66600000Y-74100000D03*
D12*
X64200000Y-74100000D03*
X68297056Y-75797056D03*
X66600000Y-71700000D03*
X66600000Y-76500000D03*
%TD*%
D17*
%TO.N,GND*%
X100800000Y-102400000D03*
X101600000Y-102400000D03*
X102300000Y-79400000D03*
X102300000Y-77800000D03*
X102300000Y-78600000D03*
X102400000Y-102400000D03*
%TO.N,+3.3V*%
X83700000Y-79649000D03*
%TO.N,Net-(R16-Pad1)*%
X97000000Y-79800000D03*
X97000000Y-78900000D03*
X97000000Y-78000000D03*
%TO.N,Net-(R15-Pad1)*%
X100406261Y-97207182D03*
X101300000Y-97200000D03*
X102200000Y-97200000D03*
%TO.N,Net-(R16-Pad1)*%
X100300000Y-82800000D03*
X101100000Y-82800000D03*
X101900000Y-82800000D03*
X102700000Y-82800000D03*
%TO.N,Net-(R15-Pad1)*%
X102700000Y-93000000D03*
X101900000Y-93000000D03*
X101100000Y-93000000D03*
X100300000Y-93000000D03*
%TO.N,B-_OUT*%
X101100000Y-81500000D03*
X101100000Y-80700000D03*
X101900000Y-81500000D03*
X102700000Y-80700000D03*
X101900000Y-80700000D03*
X102700000Y-81500000D03*
X100300000Y-81500000D03*
X100300000Y-80700000D03*
%TO.N,GND*%
X76600000Y-69000000D03*
X76600000Y-71400000D03*
X67300000Y-87200000D03*
X77500000Y-108500000D03*
X74800000Y-72800000D03*
X67200000Y-84400000D03*
X78100000Y-74400000D03*
X76000000Y-87300000D03*
X77489270Y-97532190D03*
X70000000Y-71500000D03*
X93800000Y-103500000D03*
X66999503Y-78200000D03*
X77100000Y-94800000D03*
X76200000Y-101200000D03*
X68000000Y-90500000D03*
X78700000Y-75000000D03*
X76700000Y-108500000D03*
X69800000Y-94400000D03*
X76600000Y-70600000D03*
X96600000Y-94300000D03*
X77400000Y-69000000D03*
X76600000Y-69800000D03*
X76000000Y-95100000D03*
X95200000Y-92900000D03*
X87400000Y-101700000D03*
X72400000Y-103100000D03*
X71458782Y-86724500D03*
X74000000Y-97600000D03*
X79186554Y-78127286D03*
X76700000Y-107700000D03*
X77500000Y-107700000D03*
X69200000Y-91700000D03*
X69400000Y-102000000D03*
X86400000Y-91800000D03*
X86400000Y-85200000D03*
X76700000Y-109300000D03*
X62550000Y-89600000D03*
X74228200Y-82300000D03*
X85600000Y-74700000D03*
X76700000Y-110100000D03*
X69800000Y-93000000D03*
X71100000Y-102100000D03*
X77500000Y-109300000D03*
X95200000Y-79600000D03*
X96700000Y-83700000D03*
X95200000Y-94300000D03*
X66000000Y-83100000D03*
X95300000Y-83700000D03*
X96600000Y-92900000D03*
X62600000Y-99500000D03*
X77400000Y-69800000D03*
X77400000Y-71400000D03*
X77400000Y-70600000D03*
X95900000Y-93600000D03*
X67912299Y-83412299D03*
X96700000Y-82300000D03*
X70950500Y-78000000D03*
X81400000Y-84350500D03*
X92700000Y-99000000D03*
X91400000Y-77800000D03*
X96000000Y-83000000D03*
X95300000Y-82300000D03*
X81400000Y-101500000D03*
X72500000Y-90700000D03*
X77500000Y-110100000D03*
%TO.N,+3.3V*%
X86450000Y-87700000D03*
X70000000Y-76400000D03*
X73900000Y-94100000D03*
X74700000Y-94100000D03*
X70500000Y-69500000D03*
X70600000Y-83300000D03*
X66000000Y-78200000D03*
X73900000Y-94900000D03*
X86350000Y-89000000D03*
X73800000Y-88500000D03*
X79700000Y-76100000D03*
X75000000Y-87300000D03*
%TO.N,I2C1_SDA*%
X71800000Y-82900000D03*
X74200000Y-90300000D03*
%TO.N,B_CURRENT*%
X94200000Y-79600000D03*
X92000000Y-84900000D03*
%TO.N,B_CURRENT_PWM*%
X75700000Y-83550000D03*
X91600000Y-79500000D03*
%TO.N,A_CURRENT*%
X93800000Y-99000000D03*
X92800000Y-96200000D03*
%TO.N,A_CURRENT_PWM*%
X92600000Y-103500000D03*
X77000000Y-84700000D03*
%TO.N,+5V*%
X72800000Y-100900000D03*
X81300000Y-94600000D03*
X84000000Y-84350500D03*
X84100000Y-95700000D03*
X82500000Y-95700000D03*
X69400000Y-96900000D03*
X80500000Y-94600000D03*
X84100000Y-94700000D03*
X72800000Y-99500000D03*
X81300000Y-95400000D03*
X82500000Y-94700000D03*
X68500000Y-99500000D03*
%TO.N,I2C1_SCL*%
X75800000Y-90300000D03*
X71700000Y-80800000D03*
%TO.N,SWDIO*%
X71200000Y-79200000D03*
X67773910Y-80614425D03*
%TO.N,CAN_TX*%
X73774862Y-81200000D03*
X80800000Y-79649000D03*
%TO.N,CAN_RX*%
X85400000Y-79100000D03*
X74277527Y-79566580D03*
%TO.N,CAN_SILENT*%
X74901731Y-78747418D03*
X79628372Y-77230736D03*
%TO.N,ENC_DIR*%
X74100000Y-77900000D03*
%TO.N,A-*%
X91900000Y-93000000D03*
X76150000Y-82100000D03*
%TO.N,A+*%
X79300000Y-83800000D03*
X91900000Y-94200000D03*
%TO.N,A+_OUT*%
X102600000Y-95400000D03*
X102600000Y-94600000D03*
X100200000Y-94600000D03*
X101800000Y-94600000D03*
X101000000Y-94600000D03*
X101800000Y-95400000D03*
X100200000Y-95400000D03*
X101000000Y-95400000D03*
%TO.N,A-_OUT*%
X102700000Y-91700000D03*
X102700000Y-90900000D03*
X101100000Y-90900000D03*
X101100000Y-91700000D03*
X100300000Y-90900000D03*
X101900000Y-90900000D03*
X100300000Y-91700000D03*
X101900000Y-91700000D03*
%TO.N,B-*%
X79200000Y-81150000D03*
X91900000Y-82400000D03*
%TO.N,B+*%
X91900000Y-83620023D03*
X79150000Y-82300000D03*
%TO.N,B+_OUT*%
X101800000Y-85300000D03*
X100200000Y-84500000D03*
X100200000Y-85300000D03*
X102600000Y-84500000D03*
X102600000Y-85300000D03*
X101800000Y-84500000D03*
X101000000Y-85300000D03*
X101000000Y-84500000D03*
%TO.N,LED*%
X74400000Y-69500000D03*
X77000000Y-76100000D03*
%TO.N,CAN-*%
X82925000Y-74500000D03*
X82625000Y-104993422D03*
%TO.N,CAN+*%
X81575000Y-104993422D03*
X81275000Y-74500000D03*
%TD*%
%TA.AperFunction,Conductor*%
%TO.N,GND*%
G36*
X69303163Y-69220502D02*
G01*
X69349656Y-69274158D01*
X69360169Y-69341309D01*
X69345646Y-69464017D01*
X69344967Y-69469754D01*
X69358796Y-69680749D01*
X69360217Y-69686345D01*
X69360218Y-69686350D01*
X69382784Y-69775200D01*
X69410845Y-69885690D01*
X69499369Y-70077714D01*
X69621405Y-70250391D01*
X69625539Y-70254418D01*
X69720336Y-70346765D01*
X69772865Y-70397937D01*
X69777661Y-70401142D01*
X69777664Y-70401144D01*
X69913561Y-70491947D01*
X69948677Y-70515411D01*
X69953985Y-70517692D01*
X69953986Y-70517692D01*
X70137650Y-70596600D01*
X70137653Y-70596601D01*
X70142953Y-70598878D01*
X70148582Y-70600152D01*
X70148583Y-70600152D01*
X70343550Y-70644269D01*
X70343553Y-70644269D01*
X70349186Y-70645544D01*
X70354957Y-70645771D01*
X70354959Y-70645771D01*
X70416989Y-70648208D01*
X70560470Y-70653846D01*
X70566179Y-70653018D01*
X70566183Y-70653018D01*
X70764015Y-70624333D01*
X70764019Y-70624332D01*
X70769730Y-70623504D01*
X70848987Y-70596600D01*
X70964483Y-70557395D01*
X70964488Y-70557393D01*
X70969955Y-70555537D01*
X70974998Y-70552713D01*
X71149395Y-70455046D01*
X71149399Y-70455043D01*
X71154442Y-70452219D01*
X71317012Y-70317012D01*
X71452219Y-70154442D01*
X71455043Y-70149399D01*
X71455046Y-70149395D01*
X71552713Y-69974998D01*
X71552714Y-69974996D01*
X71555537Y-69969955D01*
X71557393Y-69964488D01*
X71557395Y-69964483D01*
X71621647Y-69775200D01*
X71623504Y-69769730D01*
X71639481Y-69659545D01*
X71653314Y-69564140D01*
X71653314Y-69564138D01*
X71653846Y-69560470D01*
X71655429Y-69500000D01*
X71643249Y-69367446D01*
X71640546Y-69338029D01*
X71654231Y-69268364D01*
X71703407Y-69217157D01*
X71766017Y-69200500D01*
X73135042Y-69200500D01*
X73203163Y-69220502D01*
X73249656Y-69274158D01*
X73260169Y-69341309D01*
X73245646Y-69464017D01*
X73244967Y-69469754D01*
X73258796Y-69680749D01*
X73260217Y-69686345D01*
X73260218Y-69686350D01*
X73282784Y-69775200D01*
X73310845Y-69885690D01*
X73399369Y-70077714D01*
X73521405Y-70250391D01*
X73525539Y-70254418D01*
X73620336Y-70346765D01*
X73672865Y-70397937D01*
X73677661Y-70401142D01*
X73677664Y-70401144D01*
X73813561Y-70491947D01*
X73848677Y-70515411D01*
X73853985Y-70517692D01*
X73853986Y-70517692D01*
X74037650Y-70596600D01*
X74037653Y-70596601D01*
X74042953Y-70598878D01*
X74048582Y-70600152D01*
X74048583Y-70600152D01*
X74243550Y-70644269D01*
X74243553Y-70644269D01*
X74249186Y-70645544D01*
X74254957Y-70645771D01*
X74254959Y-70645771D01*
X74316989Y-70648208D01*
X74460470Y-70653846D01*
X74466179Y-70653018D01*
X74466183Y-70653018D01*
X74664015Y-70624333D01*
X74664019Y-70624332D01*
X74669730Y-70623504D01*
X74748987Y-70596600D01*
X74864483Y-70557395D01*
X74864488Y-70557393D01*
X74869955Y-70555537D01*
X74874998Y-70552713D01*
X75049395Y-70455046D01*
X75049399Y-70455043D01*
X75054442Y-70452219D01*
X75217012Y-70317012D01*
X75352219Y-70154442D01*
X75355043Y-70149399D01*
X75355046Y-70149395D01*
X75452713Y-69974998D01*
X75452714Y-69974996D01*
X75455537Y-69969955D01*
X75457393Y-69964488D01*
X75457395Y-69964483D01*
X75521647Y-69775200D01*
X75523504Y-69769730D01*
X75539481Y-69659545D01*
X75553314Y-69564140D01*
X75553314Y-69564138D01*
X75553846Y-69560470D01*
X75555429Y-69500000D01*
X75543249Y-69367446D01*
X75540546Y-69338029D01*
X75554231Y-69268364D01*
X75603407Y-69217157D01*
X75666017Y-69200500D01*
X97544517Y-69200500D01*
X97560307Y-69201493D01*
X97589455Y-69205175D01*
X97596462Y-69204488D01*
X97596464Y-69204488D01*
X97603795Y-69203769D01*
X97616822Y-69202492D01*
X97634606Y-69202011D01*
X98021525Y-69218904D01*
X98032473Y-69219862D01*
X98445346Y-69274217D01*
X98456154Y-69276123D01*
X98750188Y-69341309D01*
X98862712Y-69366255D01*
X98873329Y-69369100D01*
X99270484Y-69494323D01*
X99280798Y-69498076D01*
X99665551Y-69657446D01*
X99675486Y-69662079D01*
X100044878Y-69854373D01*
X100054387Y-69859863D01*
X100405593Y-70083606D01*
X100414597Y-70089910D01*
X100715374Y-70320703D01*
X100744979Y-70343420D01*
X100753396Y-70350484D01*
X101049320Y-70621647D01*
X101060414Y-70631813D01*
X101068183Y-70639582D01*
X101081254Y-70653846D01*
X101349514Y-70946601D01*
X101356580Y-70955021D01*
X101610090Y-71285403D01*
X101616394Y-71294407D01*
X101840137Y-71645613D01*
X101845627Y-71655122D01*
X102037921Y-72024514D01*
X102042554Y-72034449D01*
X102186023Y-72380813D01*
X102201921Y-72419194D01*
X102205677Y-72429516D01*
X102330900Y-72826670D01*
X102333745Y-72837288D01*
X102423875Y-73243837D01*
X102425783Y-73254654D01*
X102478950Y-73658502D01*
X102480138Y-73667526D01*
X102481096Y-73678475D01*
X102483732Y-73738840D01*
X102497491Y-74053978D01*
X102496617Y-74075269D01*
X102494825Y-74089455D01*
X102495512Y-74096462D01*
X102495512Y-74096465D01*
X102498899Y-74131005D01*
X102499500Y-74143300D01*
X102499500Y-79461400D01*
X102479498Y-79529521D01*
X102425842Y-79576014D01*
X102406389Y-79583007D01*
X102400953Y-79583941D01*
X102395528Y-79585942D01*
X102395522Y-79585944D01*
X102345860Y-79604265D01*
X102275026Y-79609077D01*
X102255562Y-79603084D01*
X102247831Y-79600000D01*
X102228160Y-79592152D01*
X102222503Y-79591027D01*
X102222497Y-79591025D01*
X102026442Y-79552028D01*
X102026440Y-79552028D01*
X102020775Y-79550901D01*
X102015000Y-79550825D01*
X102014996Y-79550825D01*
X101908976Y-79549437D01*
X101809346Y-79548133D01*
X101803649Y-79549112D01*
X101803648Y-79549112D01*
X101606650Y-79582962D01*
X101606649Y-79582962D01*
X101600953Y-79583941D01*
X101595527Y-79585943D01*
X101595526Y-79585943D01*
X101545860Y-79604265D01*
X101475026Y-79609077D01*
X101455562Y-79603084D01*
X101447831Y-79600000D01*
X101428160Y-79592152D01*
X101422503Y-79591027D01*
X101422497Y-79591025D01*
X101226442Y-79552028D01*
X101226440Y-79552028D01*
X101220775Y-79550901D01*
X101215000Y-79550825D01*
X101214996Y-79550825D01*
X101108976Y-79549437D01*
X101009346Y-79548133D01*
X101003649Y-79549112D01*
X101003648Y-79549112D01*
X100806650Y-79582962D01*
X100806649Y-79582962D01*
X100800953Y-79583941D01*
X100795527Y-79585943D01*
X100795526Y-79585943D01*
X100745860Y-79604265D01*
X100675026Y-79609077D01*
X100655562Y-79603084D01*
X100647831Y-79600000D01*
X100628160Y-79592152D01*
X100622503Y-79591027D01*
X100622497Y-79591025D01*
X100426442Y-79552028D01*
X100426440Y-79552028D01*
X100420775Y-79550901D01*
X100415000Y-79550825D01*
X100414996Y-79550825D01*
X100308976Y-79549437D01*
X100209346Y-79548133D01*
X100203649Y-79549112D01*
X100203648Y-79549112D01*
X100006650Y-79582962D01*
X100006649Y-79582962D01*
X100000953Y-79583941D01*
X99802575Y-79657127D01*
X99797614Y-79660079D01*
X99797613Y-79660079D01*
X99639003Y-79754442D01*
X99620856Y-79765238D01*
X99461881Y-79904655D01*
X99330976Y-80070708D01*
X99328287Y-80075819D01*
X99328285Y-80075822D01*
X99236964Y-80249395D01*
X99232523Y-80257836D01*
X99169820Y-80459773D01*
X99144967Y-80669754D01*
X99158796Y-80880749D01*
X99160219Y-80886350D01*
X99160219Y-80886353D01*
X99207959Y-81074329D01*
X99206169Y-81142708D01*
X99191195Y-81190933D01*
X99169820Y-81259773D01*
X99144967Y-81469754D01*
X99158796Y-81680749D01*
X99160217Y-81686345D01*
X99160218Y-81686350D01*
X99195414Y-81824930D01*
X99210845Y-81885690D01*
X99299369Y-82077714D01*
X99302702Y-82082430D01*
X99305591Y-82087434D01*
X99303862Y-82088432D01*
X99323953Y-82147151D01*
X99309583Y-82211369D01*
X99304063Y-82221862D01*
X99238871Y-82345771D01*
X99232523Y-82357836D01*
X99192618Y-82486350D01*
X99171899Y-82553079D01*
X99169820Y-82559773D01*
X99144967Y-82769754D01*
X99152352Y-82882430D01*
X99157823Y-82965896D01*
X99158796Y-82980749D01*
X99160217Y-82986345D01*
X99160218Y-82986350D01*
X99198208Y-83135931D01*
X99210845Y-83185690D01*
X99213262Y-83190933D01*
X99287848Y-83352724D01*
X99299369Y-83377714D01*
X99368111Y-83474982D01*
X99400459Y-83520753D01*
X99423440Y-83587927D01*
X99406456Y-83656862D01*
X99380643Y-83688201D01*
X99361881Y-83704655D01*
X99230976Y-83870708D01*
X99228287Y-83875819D01*
X99228285Y-83875822D01*
X99138487Y-84046500D01*
X99132523Y-84057836D01*
X99069820Y-84259773D01*
X99044967Y-84469754D01*
X99058796Y-84680749D01*
X99060219Y-84686350D01*
X99060219Y-84686353D01*
X99107959Y-84874329D01*
X99106169Y-84942708D01*
X99097779Y-84969730D01*
X99069820Y-85059773D01*
X99044967Y-85269754D01*
X99058796Y-85480749D01*
X99060217Y-85486345D01*
X99060218Y-85486350D01*
X99088558Y-85597937D01*
X99110845Y-85685690D01*
X99113262Y-85690933D01*
X99125285Y-85717012D01*
X99199369Y-85877714D01*
X99321405Y-86050391D01*
X99325539Y-86054418D01*
X99466927Y-86192152D01*
X99472865Y-86197937D01*
X99477661Y-86201142D01*
X99477664Y-86201144D01*
X99620936Y-86296875D01*
X99648677Y-86315411D01*
X99653985Y-86317692D01*
X99653986Y-86317692D01*
X99837650Y-86396600D01*
X99837653Y-86396601D01*
X99842953Y-86398878D01*
X99848582Y-86400152D01*
X99848583Y-86400152D01*
X100043550Y-86444269D01*
X100043553Y-86444269D01*
X100049186Y-86445544D01*
X100054957Y-86445771D01*
X100054959Y-86445771D01*
X100116989Y-86448208D01*
X100260470Y-86453846D01*
X100266179Y-86453018D01*
X100266183Y-86453018D01*
X100464015Y-86424333D01*
X100464019Y-86424332D01*
X100469730Y-86423504D01*
X100538521Y-86400153D01*
X100552717Y-86395334D01*
X100623652Y-86392378D01*
X100632152Y-86394813D01*
X100637645Y-86396598D01*
X100642953Y-86398878D01*
X100743577Y-86421647D01*
X100843550Y-86444269D01*
X100843553Y-86444269D01*
X100849186Y-86445544D01*
X100854957Y-86445771D01*
X100854959Y-86445771D01*
X100916989Y-86448208D01*
X101060470Y-86453846D01*
X101066179Y-86453018D01*
X101066183Y-86453018D01*
X101264015Y-86424333D01*
X101264019Y-86424332D01*
X101269730Y-86423504D01*
X101338521Y-86400153D01*
X101352717Y-86395334D01*
X101423652Y-86392378D01*
X101432152Y-86394813D01*
X101437645Y-86396598D01*
X101442953Y-86398878D01*
X101543577Y-86421647D01*
X101643550Y-86444269D01*
X101643553Y-86444269D01*
X101649186Y-86445544D01*
X101654957Y-86445771D01*
X101654959Y-86445771D01*
X101716989Y-86448208D01*
X101860470Y-86453846D01*
X101866179Y-86453018D01*
X101866183Y-86453018D01*
X102064015Y-86424333D01*
X102064019Y-86424332D01*
X102069730Y-86423504D01*
X102138521Y-86400153D01*
X102152717Y-86395334D01*
X102223652Y-86392378D01*
X102232152Y-86394813D01*
X102237645Y-86396598D01*
X102242953Y-86398878D01*
X102401309Y-86434710D01*
X102463334Y-86469253D01*
X102496839Y-86531846D01*
X102499500Y-86557603D01*
X102499500Y-89661400D01*
X102479498Y-89729521D01*
X102425842Y-89776014D01*
X102406389Y-89783007D01*
X102400953Y-89783941D01*
X102395528Y-89785942D01*
X102395522Y-89785944D01*
X102345860Y-89804265D01*
X102275026Y-89809077D01*
X102255562Y-89803084D01*
X102249421Y-89800634D01*
X102228160Y-89792152D01*
X102222503Y-89791027D01*
X102222497Y-89791025D01*
X102026442Y-89752028D01*
X102026440Y-89752028D01*
X102020775Y-89750901D01*
X102015000Y-89750825D01*
X102014996Y-89750825D01*
X101908976Y-89749437D01*
X101809346Y-89748133D01*
X101803649Y-89749112D01*
X101803648Y-89749112D01*
X101606650Y-89782962D01*
X101606649Y-89782962D01*
X101600953Y-89783941D01*
X101595527Y-89785943D01*
X101595526Y-89785943D01*
X101545860Y-89804265D01*
X101475026Y-89809077D01*
X101455562Y-89803084D01*
X101449421Y-89800634D01*
X101428160Y-89792152D01*
X101422503Y-89791027D01*
X101422497Y-89791025D01*
X101226442Y-89752028D01*
X101226440Y-89752028D01*
X101220775Y-89750901D01*
X101215000Y-89750825D01*
X101214996Y-89750825D01*
X101108976Y-89749437D01*
X101009346Y-89748133D01*
X101003649Y-89749112D01*
X101003648Y-89749112D01*
X100806650Y-89782962D01*
X100806649Y-89782962D01*
X100800953Y-89783941D01*
X100795527Y-89785943D01*
X100795526Y-89785943D01*
X100745860Y-89804265D01*
X100675026Y-89809077D01*
X100655562Y-89803084D01*
X100649421Y-89800634D01*
X100628160Y-89792152D01*
X100622503Y-89791027D01*
X100622497Y-89791025D01*
X100426442Y-89752028D01*
X100426440Y-89752028D01*
X100420775Y-89750901D01*
X100415000Y-89750825D01*
X100414996Y-89750825D01*
X100308976Y-89749437D01*
X100209346Y-89748133D01*
X100203649Y-89749112D01*
X100203648Y-89749112D01*
X100006650Y-89782962D01*
X100006649Y-89782962D01*
X100000953Y-89783941D01*
X99802575Y-89857127D01*
X99797614Y-89860079D01*
X99797613Y-89860079D01*
X99754160Y-89885931D01*
X99620856Y-89965238D01*
X99461881Y-90104655D01*
X99330976Y-90270708D01*
X99328287Y-90275819D01*
X99328285Y-90275822D01*
X99313616Y-90303704D01*
X99232523Y-90457836D01*
X99169820Y-90659773D01*
X99144967Y-90869754D01*
X99158796Y-91080749D01*
X99160219Y-91086350D01*
X99160219Y-91086353D01*
X99207959Y-91274329D01*
X99206169Y-91342708D01*
X99181658Y-91421647D01*
X99169820Y-91459773D01*
X99144967Y-91669754D01*
X99158796Y-91880749D01*
X99160217Y-91886345D01*
X99160218Y-91886350D01*
X99205651Y-92065238D01*
X99210845Y-92085690D01*
X99299369Y-92277714D01*
X99302702Y-92282430D01*
X99305591Y-92287434D01*
X99303862Y-92288432D01*
X99323953Y-92347151D01*
X99309583Y-92411369D01*
X99232523Y-92557836D01*
X99169820Y-92759773D01*
X99144967Y-92969754D01*
X99158796Y-93180749D01*
X99160217Y-93186345D01*
X99160218Y-93186350D01*
X99187946Y-93295525D01*
X99210845Y-93385690D01*
X99213262Y-93390933D01*
X99283924Y-93544212D01*
X99299369Y-93577714D01*
X99302702Y-93582430D01*
X99359186Y-93662354D01*
X99382167Y-93729529D01*
X99365182Y-93798464D01*
X99355239Y-93813079D01*
X99234556Y-93966165D01*
X99234549Y-93966175D01*
X99230976Y-93970708D01*
X99228287Y-93975819D01*
X99228285Y-93975822D01*
X99181883Y-94064019D01*
X99132523Y-94157836D01*
X99069820Y-94359773D01*
X99044967Y-94569754D01*
X99058796Y-94780749D01*
X99060219Y-94786350D01*
X99060219Y-94786353D01*
X99107959Y-94974329D01*
X99106169Y-95042708D01*
X99072012Y-95152713D01*
X99069820Y-95159773D01*
X99044967Y-95369754D01*
X99058796Y-95580749D01*
X99060217Y-95586345D01*
X99060218Y-95586350D01*
X99103498Y-95756763D01*
X99110845Y-95785690D01*
X99113262Y-95790933D01*
X99193743Y-95965510D01*
X99199369Y-95977714D01*
X99321405Y-96150391D01*
X99325539Y-96154418D01*
X99466424Y-96291662D01*
X99472865Y-96297937D01*
X99480748Y-96303204D01*
X99481877Y-96304555D01*
X99482156Y-96304781D01*
X99482112Y-96304836D01*
X99526275Y-96357678D01*
X99535124Y-96428121D01*
X99509696Y-96485974D01*
X99441333Y-96572694D01*
X99437237Y-96577890D01*
X99434548Y-96583001D01*
X99434546Y-96583004D01*
X99397059Y-96654256D01*
X99338784Y-96765018D01*
X99276081Y-96966955D01*
X99251228Y-97176936D01*
X99265057Y-97387931D01*
X99317106Y-97592872D01*
X99319523Y-97598115D01*
X99345479Y-97654418D01*
X99405630Y-97784896D01*
X99527666Y-97957573D01*
X99679126Y-98105119D01*
X99683922Y-98108324D01*
X99683925Y-98108326D01*
X99822397Y-98200850D01*
X99854938Y-98222593D01*
X99860246Y-98224874D01*
X99860247Y-98224874D01*
X100043911Y-98303782D01*
X100043914Y-98303783D01*
X100049214Y-98306060D01*
X100054843Y-98307334D01*
X100054844Y-98307334D01*
X100249811Y-98351451D01*
X100249814Y-98351451D01*
X100255447Y-98352726D01*
X100261218Y-98352953D01*
X100261220Y-98352953D01*
X100323250Y-98355390D01*
X100466731Y-98361028D01*
X100472440Y-98360200D01*
X100472444Y-98360200D01*
X100611210Y-98340079D01*
X100675991Y-98330686D01*
X100681452Y-98328832D01*
X100681457Y-98328831D01*
X100776413Y-98296597D01*
X100820681Y-98281570D01*
X100891615Y-98278614D01*
X100910921Y-98285116D01*
X100937642Y-98296597D01*
X100937650Y-98296599D01*
X100942953Y-98298878D01*
X101007122Y-98313398D01*
X101143550Y-98344269D01*
X101143553Y-98344269D01*
X101149186Y-98345544D01*
X101154957Y-98345771D01*
X101154959Y-98345771D01*
X101215075Y-98348133D01*
X101360470Y-98353846D01*
X101366179Y-98353018D01*
X101366183Y-98353018D01*
X101564015Y-98324333D01*
X101564019Y-98324332D01*
X101569730Y-98323504D01*
X101708580Y-98276371D01*
X101779514Y-98273415D01*
X101798817Y-98279916D01*
X101842953Y-98298878D01*
X101907122Y-98313398D01*
X102043550Y-98344269D01*
X102043553Y-98344269D01*
X102049186Y-98345544D01*
X102054957Y-98345771D01*
X102054959Y-98345771D01*
X102115075Y-98348133D01*
X102260470Y-98353846D01*
X102305731Y-98347283D01*
X102355420Y-98340079D01*
X102425706Y-98350099D01*
X102479417Y-98396528D01*
X102499500Y-98464775D01*
X102499500Y-105044517D01*
X102498507Y-105060307D01*
X102494825Y-105089455D01*
X102495512Y-105096462D01*
X102495512Y-105096464D01*
X102497508Y-105116817D01*
X102497989Y-105134606D01*
X102481096Y-105521524D01*
X102480138Y-105532473D01*
X102431851Y-105899257D01*
X102425784Y-105945338D01*
X102423875Y-105956163D01*
X102333745Y-106362712D01*
X102330900Y-106373329D01*
X102226349Y-106704924D01*
X102205680Y-106770477D01*
X102201924Y-106780798D01*
X102076405Y-107083829D01*
X102042558Y-107165542D01*
X102037921Y-107175486D01*
X101845627Y-107544878D01*
X101840137Y-107554387D01*
X101616394Y-107905593D01*
X101610090Y-107914597D01*
X101356580Y-108244979D01*
X101349514Y-108253399D01*
X101068187Y-108560414D01*
X101060414Y-108568187D01*
X100753399Y-108849514D01*
X100744979Y-108856580D01*
X100414597Y-109110090D01*
X100405593Y-109116394D01*
X100054387Y-109340137D01*
X100044878Y-109345627D01*
X99675486Y-109537921D01*
X99665551Y-109542554D01*
X99280798Y-109701924D01*
X99270484Y-109705677D01*
X98986613Y-109795182D01*
X98873330Y-109830900D01*
X98862713Y-109833745D01*
X98456154Y-109923877D01*
X98445346Y-109925783D01*
X98032474Y-109980138D01*
X98021525Y-109981096D01*
X97646017Y-109997491D01*
X97624731Y-109996617D01*
X97617535Y-109995708D01*
X97610545Y-109994825D01*
X97603538Y-109995512D01*
X97603535Y-109995512D01*
X97568995Y-109998899D01*
X97556700Y-109999500D01*
X66655483Y-109999500D01*
X66639692Y-109998507D01*
X66638671Y-109998378D01*
X66610545Y-109994825D01*
X66603538Y-109995512D01*
X66603536Y-109995512D01*
X66596205Y-109996231D01*
X66583178Y-109997508D01*
X66565394Y-109997989D01*
X66178475Y-109981096D01*
X66167526Y-109980138D01*
X65754654Y-109925783D01*
X65743846Y-109923877D01*
X65337287Y-109833745D01*
X65326670Y-109830900D01*
X65213387Y-109795182D01*
X64929516Y-109705677D01*
X64919202Y-109701924D01*
X64534449Y-109542554D01*
X64524514Y-109537921D01*
X64155122Y-109345627D01*
X64145613Y-109340137D01*
X63794407Y-109116394D01*
X63785403Y-109110090D01*
X63455021Y-108856580D01*
X63446601Y-108849514D01*
X63139586Y-108568187D01*
X63131813Y-108560414D01*
X62850486Y-108253399D01*
X62843420Y-108244979D01*
X62589910Y-107914597D01*
X62583606Y-107905593D01*
X62359863Y-107554387D01*
X62354373Y-107544878D01*
X62162079Y-107175486D01*
X62157442Y-107165542D01*
X62123596Y-107083829D01*
X61998076Y-106780798D01*
X61994320Y-106770477D01*
X61973652Y-106704924D01*
X80324500Y-106704924D01*
X80334698Y-106819187D01*
X80336351Y-106824951D01*
X80383076Y-106987901D01*
X80387923Y-107004806D01*
X80477385Y-107175930D01*
X80481414Y-107180870D01*
X80481416Y-107180873D01*
X80595400Y-107320631D01*
X80599429Y-107325571D01*
X80604369Y-107329600D01*
X80739736Y-107440002D01*
X80749070Y-107447615D01*
X80920194Y-107537077D01*
X80926322Y-107538834D01*
X80926324Y-107538835D01*
X80996562Y-107558975D01*
X81105813Y-107590302D01*
X81138096Y-107593183D01*
X81217283Y-107600251D01*
X81217289Y-107600251D01*
X81220076Y-107600500D01*
X81729924Y-107600500D01*
X81732711Y-107600251D01*
X81732717Y-107600251D01*
X81811904Y-107593183D01*
X81844187Y-107590302D01*
X82029806Y-107537077D01*
X82093662Y-107503694D01*
X82114835Y-107492625D01*
X82184471Y-107478791D01*
X82219900Y-107487257D01*
X82349183Y-107538835D01*
X82396840Y-107557848D01*
X82402497Y-107558973D01*
X82402503Y-107558975D01*
X82598558Y-107597972D01*
X82598560Y-107597972D01*
X82604225Y-107599099D01*
X82610000Y-107599175D01*
X82610004Y-107599175D01*
X82716024Y-107600563D01*
X82815654Y-107601867D01*
X82831321Y-107599175D01*
X83018350Y-107567038D01*
X83018351Y-107567038D01*
X83024047Y-107566059D01*
X83222425Y-107492873D01*
X83231865Y-107487257D01*
X83399179Y-107387716D01*
X83399180Y-107387715D01*
X83404144Y-107384762D01*
X83563119Y-107245345D01*
X83694024Y-107079292D01*
X83730242Y-107010454D01*
X83789785Y-106897280D01*
X83792477Y-106892164D01*
X83849749Y-106707717D01*
X83853467Y-106695744D01*
X83853467Y-106695743D01*
X83855180Y-106690227D01*
X83856887Y-106675801D01*
X83875064Y-106522232D01*
X83875064Y-106522225D01*
X83875500Y-106518545D01*
X83875500Y-105896359D01*
X83861081Y-105739440D01*
X83849360Y-105697878D01*
X83805255Y-105541495D01*
X83803686Y-105535931D01*
X83739241Y-105405249D01*
X83727051Y-105335308D01*
X83732932Y-105309026D01*
X83748504Y-105263152D01*
X83762243Y-105168403D01*
X83778314Y-105057562D01*
X83778314Y-105057560D01*
X83778846Y-105053892D01*
X83780429Y-104993422D01*
X83761081Y-104782862D01*
X83703686Y-104579353D01*
X83692858Y-104557395D01*
X83612719Y-104394891D01*
X83610165Y-104389712D01*
X83483651Y-104220289D01*
X83328381Y-104076759D01*
X83149554Y-103963927D01*
X82953160Y-103885574D01*
X82947503Y-103884449D01*
X82947497Y-103884447D01*
X82751442Y-103845450D01*
X82751440Y-103845450D01*
X82745775Y-103844323D01*
X82740000Y-103844247D01*
X82739996Y-103844247D01*
X82633976Y-103842859D01*
X82534346Y-103841555D01*
X82528649Y-103842534D01*
X82528648Y-103842534D01*
X82331650Y-103876384D01*
X82331649Y-103876384D01*
X82325953Y-103877363D01*
X82140971Y-103945607D01*
X82070139Y-103950419D01*
X82050674Y-103944426D01*
X81903160Y-103885574D01*
X81897503Y-103884449D01*
X81897497Y-103884447D01*
X81701442Y-103845450D01*
X81701440Y-103845450D01*
X81695775Y-103844323D01*
X81690000Y-103844247D01*
X81689996Y-103844247D01*
X81583976Y-103842859D01*
X81484346Y-103841555D01*
X81478649Y-103842534D01*
X81478648Y-103842534D01*
X81281650Y-103876384D01*
X81281649Y-103876384D01*
X81275953Y-103877363D01*
X81077575Y-103950549D01*
X81072614Y-103953501D01*
X81072613Y-103953501D01*
X81055089Y-103963927D01*
X80895856Y-104058660D01*
X80736881Y-104198077D01*
X80605976Y-104364130D01*
X80603287Y-104369241D01*
X80603285Y-104369244D01*
X80590308Y-104393910D01*
X80507523Y-104551258D01*
X80444820Y-104753195D01*
X80419967Y-104963176D01*
X80433796Y-105174171D01*
X80435218Y-105179770D01*
X80444718Y-105217175D01*
X80442100Y-105288124D01*
X80434256Y-105306567D01*
X80419231Y-105335308D01*
X80387923Y-105395194D01*
X80334698Y-105580813D01*
X80324500Y-105695076D01*
X80324500Y-106704924D01*
X61973652Y-106704924D01*
X61869100Y-106373329D01*
X61866255Y-106362712D01*
X61776125Y-105956163D01*
X61774216Y-105945338D01*
X61768150Y-105899257D01*
X61719862Y-105532473D01*
X61718904Y-105521524D01*
X61711784Y-105358442D01*
X61702763Y-105151841D01*
X61703870Y-105128805D01*
X61703912Y-105128507D01*
X61704955Y-105121088D01*
X61705249Y-105100000D01*
X61701285Y-105064659D01*
X61700500Y-105050615D01*
X61700500Y-103469754D01*
X91444967Y-103469754D01*
X91458796Y-103680749D01*
X91460217Y-103686345D01*
X91460218Y-103686350D01*
X91482784Y-103775200D01*
X91510845Y-103885690D01*
X91599369Y-104077714D01*
X91721405Y-104250391D01*
X91872865Y-104397937D01*
X91877661Y-104401142D01*
X91877664Y-104401144D01*
X92020936Y-104496875D01*
X92048677Y-104515411D01*
X92053985Y-104517692D01*
X92053986Y-104517692D01*
X92237650Y-104596600D01*
X92237653Y-104596601D01*
X92242953Y-104598878D01*
X92248582Y-104600152D01*
X92248583Y-104600152D01*
X92443550Y-104644269D01*
X92443553Y-104644269D01*
X92449186Y-104645544D01*
X92454957Y-104645771D01*
X92454959Y-104645771D01*
X92516989Y-104648208D01*
X92660470Y-104653846D01*
X92666179Y-104653018D01*
X92666183Y-104653018D01*
X92864015Y-104624333D01*
X92864019Y-104624332D01*
X92869730Y-104623504D01*
X92948987Y-104596600D01*
X93064483Y-104557395D01*
X93064488Y-104557393D01*
X93069955Y-104555537D01*
X93086731Y-104546142D01*
X93249395Y-104455046D01*
X93249399Y-104455043D01*
X93254442Y-104452219D01*
X93417012Y-104317012D01*
X93552219Y-104154442D01*
X93555043Y-104149399D01*
X93555046Y-104149395D01*
X93652713Y-103974998D01*
X93652714Y-103974996D01*
X93655537Y-103969955D01*
X93657393Y-103964488D01*
X93657395Y-103964483D01*
X93721647Y-103775200D01*
X93723504Y-103769730D01*
X93753846Y-103560470D01*
X93755429Y-103500000D01*
X93736081Y-103289440D01*
X93678686Y-103085931D01*
X93667553Y-103063354D01*
X93587719Y-102901469D01*
X93585165Y-102896290D01*
X93458651Y-102726867D01*
X93303381Y-102583337D01*
X93124554Y-102470505D01*
X92928160Y-102392152D01*
X92922503Y-102391027D01*
X92922497Y-102391025D01*
X92726442Y-102352028D01*
X92726440Y-102352028D01*
X92720775Y-102350901D01*
X92715000Y-102350825D01*
X92714996Y-102350825D01*
X92608976Y-102349437D01*
X92509346Y-102348133D01*
X92503649Y-102349112D01*
X92503648Y-102349112D01*
X92306650Y-102382962D01*
X92306649Y-102382962D01*
X92300953Y-102383941D01*
X92102575Y-102457127D01*
X92097614Y-102460079D01*
X92097613Y-102460079D01*
X92080089Y-102470505D01*
X91920856Y-102565238D01*
X91761881Y-102704655D01*
X91630976Y-102870708D01*
X91628287Y-102875819D01*
X91628285Y-102875822D01*
X91614792Y-102901469D01*
X91532523Y-103057836D01*
X91469820Y-103259773D01*
X91444967Y-103469754D01*
X61700500Y-103469754D01*
X61700500Y-100869754D01*
X71644967Y-100869754D01*
X71658796Y-101080749D01*
X71660217Y-101086345D01*
X71660218Y-101086350D01*
X71682784Y-101175200D01*
X71710845Y-101285690D01*
X71799369Y-101477714D01*
X71921405Y-101650391D01*
X72072865Y-101797937D01*
X72077661Y-101801142D01*
X72077664Y-101801144D01*
X72220936Y-101896875D01*
X72248677Y-101915411D01*
X72253985Y-101917692D01*
X72253986Y-101917692D01*
X72437650Y-101996600D01*
X72437653Y-101996601D01*
X72442953Y-101998878D01*
X72448582Y-102000152D01*
X72448583Y-102000152D01*
X72643550Y-102044269D01*
X72643553Y-102044269D01*
X72649186Y-102045544D01*
X72654957Y-102045771D01*
X72654959Y-102045771D01*
X72716989Y-102048208D01*
X72860470Y-102053846D01*
X72866179Y-102053018D01*
X72866183Y-102053018D01*
X73064015Y-102024333D01*
X73064019Y-102024332D01*
X73069730Y-102023504D01*
X73148987Y-101996600D01*
X73264483Y-101957395D01*
X73264488Y-101957393D01*
X73269955Y-101955537D01*
X73274998Y-101952713D01*
X73449395Y-101855046D01*
X73449399Y-101855043D01*
X73454442Y-101852219D01*
X73617012Y-101717012D01*
X73752219Y-101554442D01*
X73755043Y-101549399D01*
X73755046Y-101549395D01*
X73852713Y-101374998D01*
X73852714Y-101374996D01*
X73855537Y-101369955D01*
X73857393Y-101364488D01*
X73857395Y-101364483D01*
X73921647Y-101175200D01*
X73923504Y-101169730D01*
X73953846Y-100960470D01*
X73955429Y-100900000D01*
X73936081Y-100689440D01*
X73878686Y-100485931D01*
X73867553Y-100463354D01*
X73787719Y-100301469D01*
X73785165Y-100296290D01*
X73769901Y-100275849D01*
X73745170Y-100209299D01*
X73760926Y-100138895D01*
X73852713Y-99974998D01*
X73852714Y-99974996D01*
X73855537Y-99969955D01*
X73857393Y-99964488D01*
X73857395Y-99964483D01*
X73921647Y-99775200D01*
X73923504Y-99769730D01*
X73925725Y-99754418D01*
X73953314Y-99564140D01*
X73953314Y-99564138D01*
X73953846Y-99560470D01*
X73955429Y-99500000D01*
X73936081Y-99289440D01*
X73928911Y-99264015D01*
X73880255Y-99091496D01*
X73878686Y-99085931D01*
X73867553Y-99063354D01*
X73821394Y-98969754D01*
X92644967Y-98969754D01*
X92658796Y-99180749D01*
X92660217Y-99186345D01*
X92660218Y-99186350D01*
X92682784Y-99275200D01*
X92710845Y-99385690D01*
X92799369Y-99577714D01*
X92921405Y-99750391D01*
X93072865Y-99897937D01*
X93077661Y-99901142D01*
X93077664Y-99901144D01*
X93172458Y-99964483D01*
X93248677Y-100015411D01*
X93253985Y-100017692D01*
X93253986Y-100017692D01*
X93437650Y-100096600D01*
X93437653Y-100096601D01*
X93442953Y-100098878D01*
X93448582Y-100100152D01*
X93448583Y-100100152D01*
X93643550Y-100144269D01*
X93643553Y-100144269D01*
X93649186Y-100145544D01*
X93654957Y-100145771D01*
X93654959Y-100145771D01*
X93716989Y-100148208D01*
X93860470Y-100153846D01*
X93866179Y-100153018D01*
X93866183Y-100153018D01*
X94064015Y-100124333D01*
X94064019Y-100124332D01*
X94069730Y-100123504D01*
X94190731Y-100082430D01*
X94264483Y-100057395D01*
X94264488Y-100057393D01*
X94269955Y-100055537D01*
X94274998Y-100052713D01*
X94449395Y-99955046D01*
X94449399Y-99955043D01*
X94454442Y-99952219D01*
X94617012Y-99817012D01*
X94752219Y-99654442D01*
X94755043Y-99649399D01*
X94755046Y-99649395D01*
X94852713Y-99474998D01*
X94852714Y-99474996D01*
X94855537Y-99469955D01*
X94857393Y-99464488D01*
X94857395Y-99464483D01*
X94921647Y-99275200D01*
X94923504Y-99269730D01*
X94953846Y-99060470D01*
X94955429Y-99000000D01*
X94936081Y-98789440D01*
X94878686Y-98585931D01*
X94875888Y-98580256D01*
X94787719Y-98401469D01*
X94785165Y-98396290D01*
X94658651Y-98226867D01*
X94526945Y-98105119D01*
X94507622Y-98087257D01*
X94507620Y-98087255D01*
X94503381Y-98083337D01*
X94405609Y-98021647D01*
X94329434Y-97973584D01*
X94329433Y-97973584D01*
X94324554Y-97970505D01*
X94128160Y-97892152D01*
X94122503Y-97891027D01*
X94122497Y-97891025D01*
X93926442Y-97852028D01*
X93926440Y-97852028D01*
X93920775Y-97850901D01*
X93915000Y-97850825D01*
X93914996Y-97850825D01*
X93808976Y-97849437D01*
X93709346Y-97848133D01*
X93703649Y-97849112D01*
X93703648Y-97849112D01*
X93506650Y-97882962D01*
X93506649Y-97882962D01*
X93500953Y-97883941D01*
X93302575Y-97957127D01*
X93297614Y-97960079D01*
X93297613Y-97960079D01*
X93232398Y-97998878D01*
X93120856Y-98065238D01*
X92961881Y-98204655D01*
X92830976Y-98370708D01*
X92828287Y-98375819D01*
X92828285Y-98375822D01*
X92817391Y-98396528D01*
X92732523Y-98557836D01*
X92669820Y-98759773D01*
X92644967Y-98969754D01*
X73821394Y-98969754D01*
X73787719Y-98901469D01*
X73785165Y-98896290D01*
X73658651Y-98726867D01*
X73558286Y-98634090D01*
X73507622Y-98587257D01*
X73507620Y-98587255D01*
X73503381Y-98583337D01*
X73324554Y-98470505D01*
X73128160Y-98392152D01*
X73122503Y-98391027D01*
X73122497Y-98391025D01*
X72926442Y-98352028D01*
X72926440Y-98352028D01*
X72920775Y-98350901D01*
X72915000Y-98350825D01*
X72914996Y-98350825D01*
X72808976Y-98349437D01*
X72709346Y-98348133D01*
X72703649Y-98349112D01*
X72703648Y-98349112D01*
X72506650Y-98382962D01*
X72506649Y-98382962D01*
X72500953Y-98383941D01*
X72302575Y-98457127D01*
X72297614Y-98460079D01*
X72297613Y-98460079D01*
X72133298Y-98557836D01*
X72120856Y-98565238D01*
X71961881Y-98704655D01*
X71830976Y-98870708D01*
X71828287Y-98875819D01*
X71828285Y-98875822D01*
X71814792Y-98901469D01*
X71732523Y-99057836D01*
X71669820Y-99259773D01*
X71644967Y-99469754D01*
X71658796Y-99680749D01*
X71660217Y-99686345D01*
X71660218Y-99686350D01*
X71693403Y-99817012D01*
X71710845Y-99885690D01*
X71799369Y-100077714D01*
X71802702Y-100082430D01*
X71832202Y-100124172D01*
X71855183Y-100191347D01*
X71834978Y-100265515D01*
X71834548Y-100266176D01*
X71830976Y-100270708D01*
X71828291Y-100275812D01*
X71828288Y-100275816D01*
X71808949Y-100312574D01*
X71732523Y-100457836D01*
X71669820Y-100659773D01*
X71644967Y-100869754D01*
X61700500Y-100869754D01*
X61700500Y-99469754D01*
X67344967Y-99469754D01*
X67358796Y-99680749D01*
X67360217Y-99686345D01*
X67360218Y-99686350D01*
X67393403Y-99817012D01*
X67410845Y-99885690D01*
X67499369Y-100077714D01*
X67621405Y-100250391D01*
X67772865Y-100397937D01*
X67777661Y-100401142D01*
X67777664Y-100401144D01*
X67862510Y-100457836D01*
X67948677Y-100515411D01*
X67953985Y-100517692D01*
X67953986Y-100517692D01*
X68137650Y-100596600D01*
X68137653Y-100596601D01*
X68142953Y-100598878D01*
X68148582Y-100600152D01*
X68148583Y-100600152D01*
X68343550Y-100644269D01*
X68343553Y-100644269D01*
X68349186Y-100645544D01*
X68354957Y-100645771D01*
X68354959Y-100645771D01*
X68416989Y-100648208D01*
X68560470Y-100653846D01*
X68566179Y-100653018D01*
X68566183Y-100653018D01*
X68764015Y-100624333D01*
X68764019Y-100624332D01*
X68769730Y-100623504D01*
X68848987Y-100596600D01*
X68964483Y-100557395D01*
X68964488Y-100557393D01*
X68969955Y-100555537D01*
X68974998Y-100552713D01*
X69149395Y-100455046D01*
X69149399Y-100455043D01*
X69154442Y-100452219D01*
X69317012Y-100317012D01*
X69452219Y-100154442D01*
X69455043Y-100149399D01*
X69455046Y-100149395D01*
X69552713Y-99974998D01*
X69552714Y-99974996D01*
X69555537Y-99969955D01*
X69557393Y-99964488D01*
X69557395Y-99964483D01*
X69621647Y-99775200D01*
X69623504Y-99769730D01*
X69625725Y-99754418D01*
X69653314Y-99564140D01*
X69653314Y-99564138D01*
X69653846Y-99560470D01*
X69655429Y-99500000D01*
X69636081Y-99289440D01*
X69628911Y-99264015D01*
X69580255Y-99091496D01*
X69578686Y-99085931D01*
X69567553Y-99063354D01*
X69487719Y-98901469D01*
X69485165Y-98896290D01*
X69358651Y-98726867D01*
X69258286Y-98634090D01*
X69207622Y-98587257D01*
X69207620Y-98587255D01*
X69203381Y-98583337D01*
X69024554Y-98470505D01*
X68828160Y-98392152D01*
X68822503Y-98391027D01*
X68822497Y-98391025D01*
X68626442Y-98352028D01*
X68626440Y-98352028D01*
X68620775Y-98350901D01*
X68615000Y-98350825D01*
X68614996Y-98350825D01*
X68508976Y-98349437D01*
X68409346Y-98348133D01*
X68403649Y-98349112D01*
X68403648Y-98349112D01*
X68206650Y-98382962D01*
X68206649Y-98382962D01*
X68200953Y-98383941D01*
X68002575Y-98457127D01*
X67997614Y-98460079D01*
X67997613Y-98460079D01*
X67833298Y-98557836D01*
X67820856Y-98565238D01*
X67661881Y-98704655D01*
X67530976Y-98870708D01*
X67528287Y-98875819D01*
X67528285Y-98875822D01*
X67514792Y-98901469D01*
X67432523Y-99057836D01*
X67369820Y-99259773D01*
X67344967Y-99469754D01*
X61700500Y-99469754D01*
X61700500Y-96869754D01*
X68244967Y-96869754D01*
X68258796Y-97080749D01*
X68260217Y-97086345D01*
X68260218Y-97086350D01*
X68302470Y-97252713D01*
X68310845Y-97285690D01*
X68313262Y-97290933D01*
X68342161Y-97353619D01*
X68399369Y-97477714D01*
X68521405Y-97650391D01*
X68672865Y-97797937D01*
X68677661Y-97801142D01*
X68677664Y-97801144D01*
X68800114Y-97882962D01*
X68848677Y-97915411D01*
X68853985Y-97917692D01*
X68853986Y-97917692D01*
X69037650Y-97996600D01*
X69037653Y-97996601D01*
X69042953Y-97998878D01*
X69048582Y-98000152D01*
X69048583Y-98000152D01*
X69243550Y-98044269D01*
X69243553Y-98044269D01*
X69249186Y-98045544D01*
X69254957Y-98045771D01*
X69254959Y-98045771D01*
X69316989Y-98048208D01*
X69460470Y-98053846D01*
X69466179Y-98053018D01*
X69466183Y-98053018D01*
X69664015Y-98024333D01*
X69664019Y-98024332D01*
X69669730Y-98023504D01*
X69748987Y-97996600D01*
X69864483Y-97957395D01*
X69864488Y-97957393D01*
X69869955Y-97955537D01*
X69874998Y-97952713D01*
X70049395Y-97855046D01*
X70049399Y-97855043D01*
X70054442Y-97852219D01*
X70217012Y-97717012D01*
X70352219Y-97554442D01*
X70355043Y-97549399D01*
X70355046Y-97549395D01*
X70452713Y-97374998D01*
X70452714Y-97374996D01*
X70455537Y-97369955D01*
X70457393Y-97364488D01*
X70457395Y-97364483D01*
X70509087Y-97212201D01*
X70523504Y-97169730D01*
X70526580Y-97148521D01*
X70553314Y-96964140D01*
X70553314Y-96964138D01*
X70553846Y-96960470D01*
X70555429Y-96900000D01*
X70536081Y-96689440D01*
X70529043Y-96664483D01*
X70506821Y-96585690D01*
X70478686Y-96485931D01*
X70473395Y-96475200D01*
X70387719Y-96301469D01*
X70385165Y-96296290D01*
X70258651Y-96126867D01*
X70147730Y-96024333D01*
X70107622Y-95987257D01*
X70107620Y-95987255D01*
X70103381Y-95983337D01*
X70054845Y-95952713D01*
X69929434Y-95873584D01*
X69929433Y-95873584D01*
X69924554Y-95870505D01*
X69728160Y-95792152D01*
X69722503Y-95791027D01*
X69722497Y-95791025D01*
X69526442Y-95752028D01*
X69526440Y-95752028D01*
X69520775Y-95750901D01*
X69515000Y-95750825D01*
X69514996Y-95750825D01*
X69408976Y-95749437D01*
X69309346Y-95748133D01*
X69303649Y-95749112D01*
X69303648Y-95749112D01*
X69106650Y-95782962D01*
X69106649Y-95782962D01*
X69100953Y-95783941D01*
X68902575Y-95857127D01*
X68897614Y-95860079D01*
X68897613Y-95860079D01*
X68741909Y-95952713D01*
X68720856Y-95965238D01*
X68561881Y-96104655D01*
X68430976Y-96270708D01*
X68428287Y-96275819D01*
X68428285Y-96275822D01*
X68416650Y-96297937D01*
X68332523Y-96457836D01*
X68269820Y-96659773D01*
X68244967Y-96869754D01*
X61700500Y-96869754D01*
X61700500Y-94869754D01*
X72744967Y-94869754D01*
X72758796Y-95080749D01*
X72760217Y-95086345D01*
X72760218Y-95086350D01*
X72803724Y-95257653D01*
X72810845Y-95285690D01*
X72899369Y-95477714D01*
X73021405Y-95650391D01*
X73025539Y-95654418D01*
X73166927Y-95792152D01*
X73172865Y-95797937D01*
X73177661Y-95801142D01*
X73177664Y-95801144D01*
X73320936Y-95896875D01*
X73348677Y-95915411D01*
X73353985Y-95917692D01*
X73353986Y-95917692D01*
X73537650Y-95996600D01*
X73537653Y-95996601D01*
X73542953Y-95998878D01*
X73548582Y-96000152D01*
X73548583Y-96000152D01*
X73743550Y-96044269D01*
X73743553Y-96044269D01*
X73749186Y-96045544D01*
X73754957Y-96045771D01*
X73754959Y-96045771D01*
X73816989Y-96048208D01*
X73960470Y-96053846D01*
X73966179Y-96053018D01*
X73966183Y-96053018D01*
X74164015Y-96024333D01*
X74164019Y-96024332D01*
X74169730Y-96023504D01*
X74290731Y-95982430D01*
X74364483Y-95957395D01*
X74364488Y-95957393D01*
X74369955Y-95955537D01*
X74374998Y-95952713D01*
X74549395Y-95855046D01*
X74549399Y-95855043D01*
X74554442Y-95852219D01*
X74717012Y-95717012D01*
X74852219Y-95554442D01*
X74855043Y-95549399D01*
X74855046Y-95549395D01*
X74952713Y-95374998D01*
X74952714Y-95374996D01*
X74955537Y-95369955D01*
X74957393Y-95364488D01*
X74957395Y-95364483D01*
X74989903Y-95268715D01*
X75030740Y-95210639D01*
X75068715Y-95189903D01*
X75164483Y-95157395D01*
X75164488Y-95157393D01*
X75169955Y-95155537D01*
X75174998Y-95152713D01*
X75349395Y-95055046D01*
X75349399Y-95055043D01*
X75354442Y-95052219D01*
X75517012Y-94917012D01*
X75652219Y-94754442D01*
X75655043Y-94749399D01*
X75655046Y-94749395D01*
X75752713Y-94574998D01*
X75752714Y-94574996D01*
X75755537Y-94569955D01*
X75757393Y-94564488D01*
X75757395Y-94564483D01*
X75817862Y-94386350D01*
X75823504Y-94369730D01*
X75835594Y-94286353D01*
X75853314Y-94164140D01*
X75853314Y-94164138D01*
X75853846Y-94160470D01*
X75855429Y-94100000D01*
X75836081Y-93889440D01*
X75778686Y-93685931D01*
X75772598Y-93673584D01*
X75687719Y-93501469D01*
X75685165Y-93496290D01*
X75558651Y-93326867D01*
X75529586Y-93300000D01*
X78400000Y-93300000D01*
X79993971Y-93300000D01*
X80062092Y-93320002D01*
X80108585Y-93373658D01*
X80118689Y-93443932D01*
X80089195Y-93508512D01*
X80037582Y-93544212D01*
X80019451Y-93550901D01*
X80002575Y-93557127D01*
X79997614Y-93560079D01*
X79997613Y-93560079D01*
X79829528Y-93660079D01*
X79820856Y-93665238D01*
X79661881Y-93804655D01*
X79530976Y-93970708D01*
X79528287Y-93975819D01*
X79528285Y-93975822D01*
X79481883Y-94064019D01*
X79432523Y-94157836D01*
X79369820Y-94359773D01*
X79344967Y-94569754D01*
X79358796Y-94780749D01*
X79360217Y-94786345D01*
X79360218Y-94786350D01*
X79405340Y-94964015D01*
X79410845Y-94985690D01*
X79413262Y-94990933D01*
X79495792Y-95169955D01*
X79499369Y-95177714D01*
X79621405Y-95350391D01*
X79695890Y-95422951D01*
X79764143Y-95489440D01*
X79772865Y-95497937D01*
X79777661Y-95501142D01*
X79777664Y-95501144D01*
X79864084Y-95558888D01*
X79948677Y-95615411D01*
X80137323Y-95696459D01*
X80192016Y-95741727D01*
X80206865Y-95774869D01*
X80207495Y-95774646D01*
X80209423Y-95780090D01*
X80210845Y-95785690D01*
X80242857Y-95855129D01*
X80293618Y-95965238D01*
X80299369Y-95977714D01*
X80421405Y-96150391D01*
X80425539Y-96154418D01*
X80566424Y-96291662D01*
X80572865Y-96297937D01*
X80577661Y-96301142D01*
X80577664Y-96301144D01*
X80664084Y-96358888D01*
X80748677Y-96415411D01*
X80753985Y-96417692D01*
X80753986Y-96417692D01*
X80937650Y-96496600D01*
X80937653Y-96496601D01*
X80942953Y-96498878D01*
X80948582Y-96500152D01*
X80948583Y-96500152D01*
X81143550Y-96544269D01*
X81143553Y-96544269D01*
X81149186Y-96545544D01*
X81154957Y-96545771D01*
X81154959Y-96545771D01*
X81216989Y-96548208D01*
X81360470Y-96553846D01*
X81366179Y-96553018D01*
X81366183Y-96553018D01*
X81564015Y-96524333D01*
X81564019Y-96524332D01*
X81569730Y-96523504D01*
X81590593Y-96516422D01*
X81661525Y-96513464D01*
X81719017Y-96545480D01*
X81772865Y-96597937D01*
X81777661Y-96601142D01*
X81777664Y-96601144D01*
X81865409Y-96659773D01*
X81948677Y-96715411D01*
X81953985Y-96717692D01*
X81953986Y-96717692D01*
X82137650Y-96796600D01*
X82137653Y-96796601D01*
X82142953Y-96798878D01*
X82148582Y-96800152D01*
X82148583Y-96800152D01*
X82343550Y-96844269D01*
X82343553Y-96844269D01*
X82349186Y-96845544D01*
X82354957Y-96845771D01*
X82354959Y-96845771D01*
X82416989Y-96848208D01*
X82560470Y-96853846D01*
X82566179Y-96853018D01*
X82566183Y-96853018D01*
X82764015Y-96824333D01*
X82764019Y-96824332D01*
X82769730Y-96823504D01*
X82890731Y-96782430D01*
X82964483Y-96757395D01*
X82964488Y-96757393D01*
X82969955Y-96755537D01*
X82974998Y-96752713D01*
X83149395Y-96655046D01*
X83149399Y-96655043D01*
X83154442Y-96652219D01*
X83216177Y-96600875D01*
X83281341Y-96572694D01*
X83351397Y-96584218D01*
X83372511Y-96597592D01*
X83372865Y-96597937D01*
X83548677Y-96715411D01*
X83553985Y-96717692D01*
X83553986Y-96717692D01*
X83737650Y-96796600D01*
X83737653Y-96796601D01*
X83742953Y-96798878D01*
X83748582Y-96800152D01*
X83748583Y-96800152D01*
X83943550Y-96844269D01*
X83943553Y-96844269D01*
X83949186Y-96845544D01*
X83954957Y-96845771D01*
X83954959Y-96845771D01*
X84016989Y-96848208D01*
X84160470Y-96853846D01*
X84166179Y-96853018D01*
X84166183Y-96853018D01*
X84364015Y-96824333D01*
X84364019Y-96824332D01*
X84369730Y-96823504D01*
X84490731Y-96782430D01*
X84564483Y-96757395D01*
X84564488Y-96757393D01*
X84569955Y-96755537D01*
X84574998Y-96752713D01*
X84749395Y-96655046D01*
X84749399Y-96655043D01*
X84754442Y-96652219D01*
X84917012Y-96517012D01*
X85052219Y-96354442D01*
X85055043Y-96349399D01*
X85055046Y-96349395D01*
X85152713Y-96174998D01*
X85152714Y-96174996D01*
X85155537Y-96169955D01*
X85157393Y-96164488D01*
X85157395Y-96164483D01*
X85221647Y-95975200D01*
X85223504Y-95969730D01*
X85225972Y-95952713D01*
X85253314Y-95764140D01*
X85253314Y-95764138D01*
X85253846Y-95760470D01*
X85255429Y-95700000D01*
X85236081Y-95489440D01*
X85178686Y-95285931D01*
X85176132Y-95280753D01*
X85176129Y-95280744D01*
X85164741Y-95257653D01*
X85152550Y-95187711D01*
X85158433Y-95161423D01*
X85159801Y-95157395D01*
X85223504Y-94969730D01*
X85225725Y-94954418D01*
X85253314Y-94764140D01*
X85253314Y-94764138D01*
X85253846Y-94760470D01*
X85255429Y-94700000D01*
X85236081Y-94489440D01*
X85228911Y-94464015D01*
X85203801Y-94374982D01*
X85178686Y-94285931D01*
X85136310Y-94200000D01*
X85121394Y-94169754D01*
X90744967Y-94169754D01*
X90758796Y-94380749D01*
X90760217Y-94386345D01*
X90760218Y-94386350D01*
X90808262Y-94575520D01*
X90810845Y-94585690D01*
X90899369Y-94777714D01*
X91021405Y-94950391D01*
X91074976Y-95002578D01*
X91166927Y-95092152D01*
X91172865Y-95097937D01*
X91177661Y-95101142D01*
X91177664Y-95101144D01*
X91307221Y-95187711D01*
X91348677Y-95215411D01*
X91353985Y-95217692D01*
X91353986Y-95217692D01*
X91537650Y-95296600D01*
X91537653Y-95296601D01*
X91542953Y-95298878D01*
X91548582Y-95300152D01*
X91548583Y-95300152D01*
X91743550Y-95344269D01*
X91743553Y-95344269D01*
X91749186Y-95345544D01*
X91754958Y-95345771D01*
X91760687Y-95346525D01*
X91760487Y-95348041D01*
X91820872Y-95368376D01*
X91865225Y-95423814D01*
X91872564Y-95494430D01*
X91847595Y-95549627D01*
X91830976Y-95570708D01*
X91828287Y-95575819D01*
X91828285Y-95575822D01*
X91791533Y-95645676D01*
X91732523Y-95757836D01*
X91669820Y-95959773D01*
X91644967Y-96169754D01*
X91658796Y-96380749D01*
X91660217Y-96386345D01*
X91660218Y-96386350D01*
X91707544Y-96572694D01*
X91710845Y-96585690D01*
X91799369Y-96777714D01*
X91921405Y-96950391D01*
X91944298Y-96972692D01*
X92060971Y-97086350D01*
X92072865Y-97097937D01*
X92077661Y-97101142D01*
X92077664Y-97101144D01*
X92182512Y-97171201D01*
X92248677Y-97215411D01*
X92253985Y-97217692D01*
X92253986Y-97217692D01*
X92437650Y-97296600D01*
X92437653Y-97296601D01*
X92442953Y-97298878D01*
X92448582Y-97300152D01*
X92448583Y-97300152D01*
X92643550Y-97344269D01*
X92643553Y-97344269D01*
X92649186Y-97345544D01*
X92654957Y-97345771D01*
X92654959Y-97345771D01*
X92716989Y-97348208D01*
X92860470Y-97353846D01*
X92866179Y-97353018D01*
X92866183Y-97353018D01*
X93064015Y-97324333D01*
X93064019Y-97324332D01*
X93069730Y-97323504D01*
X93148987Y-97296600D01*
X93264483Y-97257395D01*
X93264488Y-97257393D01*
X93269955Y-97255537D01*
X93274998Y-97252713D01*
X93449395Y-97155046D01*
X93449399Y-97155043D01*
X93454442Y-97152219D01*
X93617012Y-97017012D01*
X93752219Y-96854442D01*
X93755043Y-96849399D01*
X93755046Y-96849395D01*
X93852713Y-96674998D01*
X93852714Y-96674996D01*
X93855537Y-96669955D01*
X93857393Y-96664488D01*
X93857395Y-96664483D01*
X93917990Y-96485974D01*
X93923504Y-96469730D01*
X93924429Y-96463354D01*
X93953314Y-96264140D01*
X93953314Y-96264138D01*
X93953846Y-96260470D01*
X93955429Y-96200000D01*
X93936081Y-95989440D01*
X93929256Y-95965238D01*
X93915203Y-95915411D01*
X93878686Y-95785931D01*
X93867553Y-95763354D01*
X93787719Y-95601469D01*
X93785165Y-95596290D01*
X93658651Y-95426867D01*
X93558286Y-95334090D01*
X93507622Y-95287257D01*
X93507620Y-95287255D01*
X93503381Y-95283337D01*
X93462675Y-95257653D01*
X93329434Y-95173584D01*
X93329433Y-95173584D01*
X93324554Y-95170505D01*
X93128160Y-95092152D01*
X92928710Y-95052479D01*
X92865801Y-95019573D01*
X92830669Y-94957878D01*
X92834469Y-94886983D01*
X92849144Y-94858139D01*
X92852219Y-94854442D01*
X92955537Y-94669955D01*
X92957393Y-94664488D01*
X92957395Y-94664483D01*
X93021647Y-94475200D01*
X93023504Y-94469730D01*
X93038833Y-94364015D01*
X93053314Y-94264140D01*
X93053314Y-94264138D01*
X93053846Y-94260470D01*
X93055429Y-94200000D01*
X93036081Y-93989440D01*
X93032241Y-93975822D01*
X92997955Y-93854256D01*
X92978686Y-93785931D01*
X92976132Y-93780753D01*
X92976129Y-93780744D01*
X92914308Y-93655384D01*
X92902118Y-93585442D01*
X92917380Y-93538090D01*
X92952712Y-93475001D01*
X92952716Y-93474993D01*
X92955537Y-93469955D01*
X92957393Y-93464488D01*
X92957395Y-93464483D01*
X93021647Y-93275200D01*
X93023504Y-93269730D01*
X93035463Y-93187257D01*
X93053314Y-93064140D01*
X93053314Y-93064138D01*
X93053846Y-93060470D01*
X93055429Y-93000000D01*
X93036081Y-92789440D01*
X92978686Y-92585931D01*
X92967553Y-92563354D01*
X92887719Y-92401469D01*
X92885165Y-92396290D01*
X92758651Y-92226867D01*
X92658286Y-92134090D01*
X92607622Y-92087257D01*
X92607620Y-92087255D01*
X92603381Y-92083337D01*
X92424554Y-91970505D01*
X92228160Y-91892152D01*
X92222503Y-91891027D01*
X92222497Y-91891025D01*
X92026442Y-91852028D01*
X92026440Y-91852028D01*
X92020775Y-91850901D01*
X92015000Y-91850825D01*
X92014996Y-91850825D01*
X91908976Y-91849437D01*
X91809346Y-91848133D01*
X91803649Y-91849112D01*
X91803648Y-91849112D01*
X91606650Y-91882962D01*
X91606649Y-91882962D01*
X91600953Y-91883941D01*
X91402575Y-91957127D01*
X91397614Y-91960079D01*
X91397613Y-91960079D01*
X91380089Y-91970505D01*
X91220856Y-92065238D01*
X91061881Y-92204655D01*
X90930976Y-92370708D01*
X90928287Y-92375819D01*
X90928285Y-92375822D01*
X90878400Y-92470638D01*
X90832523Y-92557836D01*
X90769820Y-92759773D01*
X90744967Y-92969754D01*
X90758796Y-93180749D01*
X90760217Y-93186345D01*
X90760218Y-93186350D01*
X90787946Y-93295525D01*
X90810845Y-93385690D01*
X90886395Y-93549572D01*
X90896750Y-93619807D01*
X90883477Y-93660989D01*
X90832523Y-93757836D01*
X90769820Y-93959773D01*
X90744967Y-94169754D01*
X85121394Y-94169754D01*
X85087719Y-94101469D01*
X85085165Y-94096290D01*
X84958651Y-93926867D01*
X84826443Y-93804655D01*
X84807622Y-93787257D01*
X84807620Y-93787255D01*
X84803381Y-93783337D01*
X84624554Y-93670505D01*
X84428160Y-93592152D01*
X84422503Y-93591027D01*
X84422497Y-93591025D01*
X84226443Y-93552028D01*
X84226438Y-93552028D01*
X84220775Y-93550901D01*
X84218542Y-93550872D01*
X84153950Y-93524297D01*
X84113320Y-93466076D01*
X84110617Y-93395131D01*
X84146698Y-93333987D01*
X84210109Y-93302056D01*
X84232777Y-93300000D01*
X85800000Y-93300000D01*
X85800000Y-90207250D01*
X85820002Y-90139129D01*
X85873658Y-90092636D01*
X85943932Y-90082532D01*
X85975737Y-90091482D01*
X85987642Y-90096597D01*
X85987649Y-90096599D01*
X85992953Y-90098878D01*
X86093577Y-90121647D01*
X86193550Y-90144269D01*
X86193553Y-90144269D01*
X86199186Y-90145544D01*
X86204957Y-90145771D01*
X86204959Y-90145771D01*
X86266989Y-90148208D01*
X86410470Y-90153846D01*
X86416179Y-90153018D01*
X86416183Y-90153018D01*
X86614015Y-90124333D01*
X86614019Y-90124332D01*
X86619730Y-90123504D01*
X86736471Y-90083876D01*
X86814483Y-90057395D01*
X86814488Y-90057393D01*
X86819955Y-90055537D01*
X86890591Y-90015979D01*
X86999395Y-89955046D01*
X86999399Y-89955043D01*
X87004442Y-89952219D01*
X87167012Y-89817012D01*
X87302219Y-89654442D01*
X87305043Y-89649399D01*
X87305046Y-89649395D01*
X87402713Y-89474998D01*
X87402714Y-89474996D01*
X87405537Y-89469955D01*
X87407393Y-89464488D01*
X87407395Y-89464483D01*
X87471647Y-89275200D01*
X87473504Y-89269730D01*
X87474904Y-89260079D01*
X87503314Y-89064140D01*
X87503314Y-89064138D01*
X87503846Y-89060470D01*
X87505429Y-89000000D01*
X87486081Y-88789440D01*
X87478911Y-88764015D01*
X87430255Y-88591496D01*
X87428686Y-88585931D01*
X87416212Y-88560635D01*
X87383360Y-88494020D01*
X87371170Y-88424078D01*
X87396573Y-88364558D01*
X87395250Y-88363649D01*
X87398524Y-88358885D01*
X87402219Y-88354442D01*
X87505537Y-88169955D01*
X87507393Y-88164488D01*
X87507395Y-88164483D01*
X87571647Y-87975200D01*
X87573504Y-87969730D01*
X87587121Y-87875822D01*
X87603314Y-87764140D01*
X87603314Y-87764138D01*
X87603846Y-87760470D01*
X87605429Y-87700000D01*
X87586081Y-87489440D01*
X87577801Y-87460079D01*
X87549708Y-87360470D01*
X87528686Y-87285931D01*
X87520709Y-87269754D01*
X87437719Y-87101469D01*
X87435165Y-87096290D01*
X87308651Y-86926867D01*
X87153381Y-86783337D01*
X87148498Y-86780256D01*
X86979434Y-86673584D01*
X86979433Y-86673584D01*
X86974554Y-86670505D01*
X86778160Y-86592152D01*
X86772503Y-86591027D01*
X86772497Y-86591025D01*
X86576442Y-86552028D01*
X86576440Y-86552028D01*
X86570775Y-86550901D01*
X86565000Y-86550825D01*
X86564996Y-86550825D01*
X86458976Y-86549437D01*
X86359346Y-86548133D01*
X86353649Y-86549112D01*
X86353648Y-86549112D01*
X86156650Y-86582962D01*
X86156649Y-86582962D01*
X86150953Y-86583941D01*
X86122896Y-86594292D01*
X85969611Y-86650842D01*
X85898778Y-86655654D01*
X85836587Y-86621407D01*
X85802785Y-86558974D01*
X85800000Y-86532630D01*
X85800000Y-85900000D01*
X78400000Y-85900000D01*
X78400000Y-93300000D01*
X75529586Y-93300000D01*
X75403381Y-93183337D01*
X75224554Y-93070505D01*
X75028160Y-92992152D01*
X75022503Y-92991027D01*
X75022497Y-92991025D01*
X74826442Y-92952028D01*
X74826440Y-92952028D01*
X74820775Y-92950901D01*
X74815000Y-92950825D01*
X74814996Y-92950825D01*
X74708976Y-92949437D01*
X74609346Y-92948133D01*
X74603649Y-92949112D01*
X74603648Y-92949112D01*
X74406650Y-92982962D01*
X74406649Y-92982962D01*
X74400953Y-92983941D01*
X74395527Y-92985943D01*
X74395526Y-92985943D01*
X74345860Y-93004265D01*
X74275026Y-93009077D01*
X74255562Y-93003084D01*
X74247831Y-93000000D01*
X74228160Y-92992152D01*
X74222503Y-92991027D01*
X74222497Y-92991025D01*
X74026442Y-92952028D01*
X74026440Y-92952028D01*
X74020775Y-92950901D01*
X74015000Y-92950825D01*
X74014996Y-92950825D01*
X73908976Y-92949437D01*
X73809346Y-92948133D01*
X73803649Y-92949112D01*
X73803648Y-92949112D01*
X73606650Y-92982962D01*
X73606649Y-92982962D01*
X73600953Y-92983941D01*
X73402575Y-93057127D01*
X73397614Y-93060079D01*
X73397613Y-93060079D01*
X73380089Y-93070505D01*
X73220856Y-93165238D01*
X73061881Y-93304655D01*
X72930976Y-93470708D01*
X72928287Y-93475819D01*
X72928285Y-93475822D01*
X72890891Y-93546896D01*
X72832523Y-93657836D01*
X72769820Y-93859773D01*
X72744967Y-94069754D01*
X72758796Y-94280749D01*
X72760219Y-94286350D01*
X72760219Y-94286353D01*
X72807959Y-94474329D01*
X72806169Y-94542708D01*
X72792823Y-94585690D01*
X72769820Y-94659773D01*
X72744967Y-94869754D01*
X61700500Y-94869754D01*
X61700500Y-88469754D01*
X72644967Y-88469754D01*
X72658796Y-88680749D01*
X72660217Y-88686345D01*
X72660218Y-88686350D01*
X72682784Y-88775200D01*
X72710845Y-88885690D01*
X72799369Y-89077714D01*
X72921405Y-89250391D01*
X72939857Y-89268366D01*
X73039299Y-89365238D01*
X73072865Y-89397937D01*
X73077661Y-89401142D01*
X73077664Y-89401144D01*
X73203936Y-89485516D01*
X73249464Y-89539993D01*
X73258312Y-89610436D01*
X73236337Y-89660441D01*
X73237699Y-89661326D01*
X73234552Y-89666172D01*
X73230976Y-89670708D01*
X73228287Y-89675819D01*
X73228285Y-89675822D01*
X73188824Y-89750825D01*
X73132523Y-89857836D01*
X73069820Y-90059773D01*
X73044967Y-90269754D01*
X73058796Y-90480749D01*
X73060217Y-90486345D01*
X73060218Y-90486350D01*
X73082784Y-90575200D01*
X73110845Y-90685690D01*
X73199369Y-90877714D01*
X73321405Y-91050391D01*
X73472865Y-91197937D01*
X73477661Y-91201142D01*
X73477664Y-91201144D01*
X73604196Y-91285690D01*
X73648677Y-91315411D01*
X73653985Y-91317692D01*
X73653986Y-91317692D01*
X73837650Y-91396600D01*
X73837653Y-91396601D01*
X73842953Y-91398878D01*
X73848582Y-91400152D01*
X73848583Y-91400152D01*
X74043550Y-91444269D01*
X74043553Y-91444269D01*
X74049186Y-91445544D01*
X74054957Y-91445771D01*
X74054959Y-91445771D01*
X74116989Y-91448208D01*
X74260470Y-91453846D01*
X74266179Y-91453018D01*
X74266183Y-91453018D01*
X74464015Y-91424333D01*
X74464019Y-91424332D01*
X74469730Y-91423504D01*
X74548987Y-91396600D01*
X74664483Y-91357395D01*
X74664488Y-91357393D01*
X74669955Y-91355537D01*
X74692863Y-91342708D01*
X74849395Y-91255046D01*
X74849399Y-91255043D01*
X74854442Y-91252219D01*
X74916177Y-91200875D01*
X74981341Y-91172694D01*
X75051397Y-91184218D01*
X75072511Y-91197592D01*
X75072865Y-91197937D01*
X75248677Y-91315411D01*
X75253985Y-91317692D01*
X75253986Y-91317692D01*
X75437650Y-91396600D01*
X75437653Y-91396601D01*
X75442953Y-91398878D01*
X75448582Y-91400152D01*
X75448583Y-91400152D01*
X75643550Y-91444269D01*
X75643553Y-91444269D01*
X75649186Y-91445544D01*
X75654957Y-91445771D01*
X75654959Y-91445771D01*
X75716989Y-91448208D01*
X75860470Y-91453846D01*
X75866179Y-91453018D01*
X75866183Y-91453018D01*
X76064015Y-91424333D01*
X76064019Y-91424332D01*
X76069730Y-91423504D01*
X76148987Y-91396600D01*
X76264483Y-91357395D01*
X76264488Y-91357393D01*
X76269955Y-91355537D01*
X76292863Y-91342708D01*
X76449395Y-91255046D01*
X76449399Y-91255043D01*
X76454442Y-91252219D01*
X76617012Y-91117012D01*
X76752219Y-90954442D01*
X76755043Y-90949399D01*
X76755046Y-90949395D01*
X76852713Y-90774998D01*
X76852714Y-90774996D01*
X76855537Y-90769955D01*
X76857393Y-90764488D01*
X76857395Y-90764483D01*
X76921647Y-90575200D01*
X76923504Y-90569730D01*
X76953846Y-90360470D01*
X76955429Y-90300000D01*
X76936081Y-90089440D01*
X76927044Y-90057395D01*
X76902127Y-89969048D01*
X76878686Y-89885931D01*
X76867553Y-89863354D01*
X76787719Y-89701469D01*
X76785165Y-89696290D01*
X76658651Y-89526867D01*
X76503381Y-89383337D01*
X76470014Y-89362284D01*
X76329434Y-89273584D01*
X76329433Y-89273584D01*
X76324554Y-89270505D01*
X76128160Y-89192152D01*
X76122503Y-89191027D01*
X76122497Y-89191025D01*
X75926442Y-89152028D01*
X75926440Y-89152028D01*
X75920775Y-89150901D01*
X75915000Y-89150825D01*
X75914996Y-89150825D01*
X75808976Y-89149437D01*
X75709346Y-89148133D01*
X75703649Y-89149112D01*
X75703648Y-89149112D01*
X75506650Y-89182962D01*
X75506649Y-89182962D01*
X75500953Y-89183941D01*
X75302575Y-89257127D01*
X75297614Y-89260079D01*
X75297613Y-89260079D01*
X75280089Y-89270505D01*
X75120856Y-89365238D01*
X75084506Y-89397116D01*
X75020102Y-89426993D01*
X74949769Y-89417307D01*
X74915902Y-89394910D01*
X74907628Y-89387262D01*
X74907622Y-89387258D01*
X74903381Y-89383337D01*
X74898503Y-89380259D01*
X74898491Y-89380250D01*
X74798091Y-89316902D01*
X74751153Y-89263635D01*
X74740465Y-89193448D01*
X74755393Y-89148775D01*
X74852713Y-88974998D01*
X74852714Y-88974996D01*
X74855537Y-88969955D01*
X74857393Y-88964488D01*
X74857395Y-88964483D01*
X74921647Y-88775200D01*
X74923504Y-88769730D01*
X74953846Y-88560470D01*
X74954985Y-88560635D01*
X74980716Y-88499132D01*
X75039178Y-88458849D01*
X75060696Y-88455401D01*
X75060470Y-88453846D01*
X75264015Y-88424333D01*
X75264019Y-88424332D01*
X75269730Y-88423504D01*
X75326676Y-88404173D01*
X75464483Y-88357395D01*
X75464488Y-88357393D01*
X75469955Y-88355537D01*
X75480919Y-88349397D01*
X75649395Y-88255046D01*
X75649399Y-88255043D01*
X75654442Y-88252219D01*
X75817012Y-88117012D01*
X75952219Y-87954442D01*
X75955043Y-87949399D01*
X75955046Y-87949395D01*
X76052713Y-87774998D01*
X76052714Y-87774996D01*
X76055537Y-87769955D01*
X76057393Y-87764488D01*
X76057395Y-87764483D01*
X76121647Y-87575200D01*
X76123504Y-87569730D01*
X76153846Y-87360470D01*
X76155429Y-87300000D01*
X76136081Y-87089440D01*
X76078686Y-86885931D01*
X76067553Y-86863354D01*
X75987719Y-86701469D01*
X75985165Y-86696290D01*
X75874531Y-86548133D01*
X75862104Y-86531491D01*
X75862103Y-86531490D01*
X75858651Y-86526867D01*
X75747730Y-86424333D01*
X75707622Y-86387257D01*
X75707620Y-86387255D01*
X75703381Y-86383337D01*
X75670014Y-86362284D01*
X75529434Y-86273584D01*
X75529433Y-86273584D01*
X75524554Y-86270505D01*
X75328160Y-86192152D01*
X75322503Y-86191027D01*
X75322497Y-86191025D01*
X75126442Y-86152028D01*
X75126440Y-86152028D01*
X75120775Y-86150901D01*
X75115000Y-86150825D01*
X75114996Y-86150825D01*
X75008976Y-86149437D01*
X74909346Y-86148133D01*
X74903649Y-86149112D01*
X74903648Y-86149112D01*
X74706650Y-86182962D01*
X74706649Y-86182962D01*
X74700953Y-86183941D01*
X74502575Y-86257127D01*
X74497614Y-86260079D01*
X74497613Y-86260079D01*
X74410004Y-86312201D01*
X74320856Y-86365238D01*
X74161881Y-86504655D01*
X74030976Y-86670708D01*
X74028287Y-86675819D01*
X74028285Y-86675822D01*
X74014792Y-86701469D01*
X73932523Y-86857836D01*
X73869820Y-87059773D01*
X73869141Y-87065510D01*
X73848829Y-87237120D01*
X73820958Y-87302418D01*
X73762210Y-87342281D01*
X73722056Y-87348299D01*
X73718210Y-87348249D01*
X73709346Y-87348133D01*
X73703649Y-87349112D01*
X73703648Y-87349112D01*
X73506650Y-87382962D01*
X73506649Y-87382962D01*
X73500953Y-87383941D01*
X73302575Y-87457127D01*
X73297614Y-87460079D01*
X73297613Y-87460079D01*
X73248262Y-87489440D01*
X73120856Y-87565238D01*
X72961881Y-87704655D01*
X72830976Y-87870708D01*
X72732523Y-88057836D01*
X72669820Y-88259773D01*
X72644967Y-88469754D01*
X61700500Y-88469754D01*
X61700500Y-85341376D01*
X61720502Y-85273255D01*
X61774158Y-85226762D01*
X61844432Y-85216658D01*
X61909012Y-85246152D01*
X61933932Y-85275540D01*
X61948577Y-85299438D01*
X61951164Y-85303659D01*
X61954376Y-85307419D01*
X61954379Y-85307424D01*
X62004332Y-85365911D01*
X62114776Y-85495224D01*
X62132948Y-85510744D01*
X62302576Y-85655621D01*
X62302581Y-85655624D01*
X62306341Y-85658836D01*
X62521141Y-85790466D01*
X62525711Y-85792359D01*
X62525715Y-85792361D01*
X62749316Y-85884979D01*
X62753889Y-85886873D01*
X62815528Y-85901671D01*
X62994039Y-85944528D01*
X62994045Y-85944529D01*
X62998852Y-85945683D01*
X63250000Y-85965449D01*
X63501148Y-85945683D01*
X63505955Y-85944529D01*
X63505961Y-85944528D01*
X63684472Y-85901671D01*
X63746111Y-85886873D01*
X63750684Y-85884979D01*
X63974285Y-85792361D01*
X63974289Y-85792359D01*
X63978859Y-85790466D01*
X64193659Y-85658836D01*
X64197419Y-85655624D01*
X64197424Y-85655621D01*
X64367052Y-85510744D01*
X64385224Y-85495224D01*
X64495668Y-85365911D01*
X64545621Y-85307424D01*
X64545624Y-85307419D01*
X64548836Y-85303659D01*
X64680466Y-85088859D01*
X64683826Y-85080749D01*
X64774979Y-84860684D01*
X64774980Y-84860682D01*
X64776873Y-84856111D01*
X64808237Y-84725469D01*
X64834528Y-84615961D01*
X64834529Y-84615955D01*
X64835683Y-84611148D01*
X64855449Y-84360000D01*
X64835683Y-84108852D01*
X64832668Y-84096290D01*
X64793045Y-83931249D01*
X64776873Y-83863889D01*
X64774979Y-83859316D01*
X64682361Y-83635715D01*
X64682359Y-83635711D01*
X64680466Y-83631141D01*
X64548836Y-83416341D01*
X64545624Y-83412581D01*
X64545621Y-83412576D01*
X64423640Y-83269754D01*
X69444967Y-83269754D01*
X69458796Y-83480749D01*
X69460217Y-83486345D01*
X69460218Y-83486350D01*
X69506445Y-83668366D01*
X69510845Y-83685690D01*
X69513262Y-83690933D01*
X69536879Y-83742162D01*
X69599369Y-83877714D01*
X69721405Y-84050391D01*
X69743601Y-84072013D01*
X69867276Y-84192492D01*
X69872865Y-84197937D01*
X69877661Y-84201142D01*
X69877664Y-84201144D01*
X69965409Y-84259773D01*
X70048677Y-84315411D01*
X70053985Y-84317692D01*
X70053986Y-84317692D01*
X70237650Y-84396600D01*
X70237653Y-84396601D01*
X70242953Y-84398878D01*
X70248582Y-84400152D01*
X70248583Y-84400152D01*
X70443550Y-84444269D01*
X70443553Y-84444269D01*
X70449186Y-84445544D01*
X70454957Y-84445771D01*
X70454959Y-84445771D01*
X70510087Y-84447937D01*
X70660470Y-84453846D01*
X70666179Y-84453018D01*
X70666183Y-84453018D01*
X70864015Y-84424333D01*
X70864019Y-84424332D01*
X70869730Y-84423504D01*
X70948987Y-84396600D01*
X71064483Y-84357395D01*
X71064488Y-84357393D01*
X71069955Y-84355537D01*
X71074998Y-84352713D01*
X71249395Y-84255046D01*
X71249399Y-84255043D01*
X71254442Y-84252219D01*
X71417012Y-84117012D01*
X71454437Y-84072013D01*
X71513374Y-84032429D01*
X71579119Y-84029689D01*
X71649186Y-84045544D01*
X71654957Y-84045771D01*
X71654959Y-84045771D01*
X71716989Y-84048208D01*
X71860470Y-84053846D01*
X71866179Y-84053018D01*
X71866183Y-84053018D01*
X72064015Y-84024333D01*
X72064019Y-84024332D01*
X72069730Y-84023504D01*
X72195683Y-83980749D01*
X72264483Y-83957395D01*
X72264488Y-83957393D01*
X72269955Y-83955537D01*
X72274998Y-83952713D01*
X72449395Y-83855046D01*
X72449399Y-83855043D01*
X72454442Y-83852219D01*
X72617012Y-83717012D01*
X72752219Y-83554442D01*
X72755043Y-83549399D01*
X72755046Y-83549395D01*
X72852713Y-83374998D01*
X72852714Y-83374996D01*
X72855537Y-83369955D01*
X72857393Y-83364488D01*
X72857395Y-83364483D01*
X72913693Y-83198633D01*
X72923504Y-83169730D01*
X72928471Y-83135478D01*
X72953314Y-82964140D01*
X72953314Y-82964138D01*
X72953846Y-82960470D01*
X72955429Y-82900000D01*
X72936081Y-82689440D01*
X72933446Y-82680095D01*
X72902383Y-82569955D01*
X72878686Y-82485931D01*
X72836310Y-82400000D01*
X72787719Y-82301469D01*
X72785165Y-82296290D01*
X72658651Y-82126867D01*
X72543803Y-82020703D01*
X72507622Y-81987257D01*
X72507620Y-81987255D01*
X72503381Y-81983337D01*
X72498498Y-81980256D01*
X72498494Y-81980253D01*
X72407348Y-81922744D01*
X72360409Y-81869477D01*
X72349720Y-81799290D01*
X72378675Y-81734466D01*
X72394014Y-81719308D01*
X72512574Y-81620703D01*
X72517012Y-81617012D01*
X72517291Y-81617348D01*
X72576603Y-81584960D01*
X72647418Y-81590025D01*
X72704254Y-81632572D01*
X72717809Y-81655325D01*
X72774231Y-81777714D01*
X72896267Y-81950391D01*
X72909574Y-81963354D01*
X73039005Y-82089440D01*
X73047727Y-82097937D01*
X73052523Y-82101142D01*
X73052526Y-82101144D01*
X73148857Y-82165510D01*
X73223539Y-82215411D01*
X73228847Y-82217692D01*
X73228848Y-82217692D01*
X73412512Y-82296600D01*
X73412515Y-82296601D01*
X73417815Y-82298878D01*
X73423444Y-82300152D01*
X73423445Y-82300152D01*
X73618412Y-82344269D01*
X73618415Y-82344269D01*
X73624048Y-82345544D01*
X73629819Y-82345771D01*
X73629821Y-82345771D01*
X73691851Y-82348208D01*
X73835332Y-82353846D01*
X73841041Y-82353018D01*
X73841045Y-82353018D01*
X74038877Y-82324333D01*
X74038881Y-82324332D01*
X74044592Y-82323504D01*
X74170545Y-82280749D01*
X74239345Y-82257395D01*
X74239350Y-82257393D01*
X74244817Y-82255537D01*
X74304948Y-82221862D01*
X74424257Y-82155046D01*
X74424261Y-82155043D01*
X74429304Y-82152219D01*
X74591874Y-82017012D01*
X74727081Y-81854442D01*
X74802066Y-81720547D01*
X74852800Y-81670888D01*
X74922332Y-81656541D01*
X74988583Y-81682062D01*
X75030518Y-81739350D01*
X75034825Y-81810216D01*
X75032331Y-81819479D01*
X75030639Y-81824930D01*
X75019820Y-81859773D01*
X74994967Y-82069754D01*
X75008796Y-82280749D01*
X75010217Y-82286345D01*
X75010218Y-82286350D01*
X75060845Y-82485690D01*
X75058870Y-82486192D01*
X75062255Y-82548020D01*
X75027193Y-82609755D01*
X75020775Y-82615146D01*
X75020856Y-82615238D01*
X74861881Y-82754655D01*
X74730976Y-82920708D01*
X74728287Y-82925819D01*
X74728285Y-82925822D01*
X74699387Y-82980749D01*
X74632523Y-83107836D01*
X74569820Y-83309773D01*
X74544967Y-83519754D01*
X74558796Y-83730749D01*
X74560217Y-83736345D01*
X74560218Y-83736350D01*
X74603898Y-83908336D01*
X74610845Y-83935690D01*
X74613262Y-83940933D01*
X74691329Y-84110273D01*
X74699369Y-84127714D01*
X74821405Y-84300391D01*
X74878014Y-84355537D01*
X74967626Y-84442833D01*
X74972865Y-84447937D01*
X74977661Y-84451142D01*
X74977664Y-84451144D01*
X75119142Y-84545676D01*
X75148677Y-84565411D01*
X75153985Y-84567692D01*
X75153986Y-84567692D01*
X75337650Y-84646600D01*
X75337653Y-84646601D01*
X75342953Y-84648878D01*
X75348582Y-84650152D01*
X75348583Y-84650152D01*
X75543550Y-84694269D01*
X75543553Y-84694269D01*
X75549186Y-84695544D01*
X75554957Y-84695771D01*
X75554959Y-84695771D01*
X75610087Y-84697937D01*
X75734063Y-84702808D01*
X75801345Y-84725469D01*
X75845695Y-84780909D01*
X75854845Y-84820470D01*
X75858796Y-84880749D01*
X75860217Y-84886345D01*
X75860218Y-84886350D01*
X75902862Y-85054256D01*
X75910845Y-85085690D01*
X75999369Y-85277714D01*
X76121405Y-85450391D01*
X76272865Y-85597937D01*
X76277661Y-85601142D01*
X76277664Y-85601144D01*
X76367874Y-85661420D01*
X76448677Y-85715411D01*
X76453985Y-85717692D01*
X76453986Y-85717692D01*
X76637650Y-85796600D01*
X76637653Y-85796601D01*
X76642953Y-85798878D01*
X76648582Y-85800152D01*
X76648583Y-85800152D01*
X76843550Y-85844269D01*
X76843553Y-85844269D01*
X76849186Y-85845544D01*
X76854957Y-85845771D01*
X76854959Y-85845771D01*
X76916989Y-85848208D01*
X77060470Y-85853846D01*
X77066179Y-85853018D01*
X77066183Y-85853018D01*
X77264015Y-85824333D01*
X77264019Y-85824332D01*
X77269730Y-85823504D01*
X77348987Y-85796600D01*
X77464483Y-85757395D01*
X77464488Y-85757393D01*
X77469955Y-85755537D01*
X77474998Y-85752713D01*
X77649395Y-85655046D01*
X77649399Y-85655043D01*
X77654442Y-85652219D01*
X77817012Y-85517012D01*
X77952219Y-85354442D01*
X77955043Y-85349399D01*
X77955046Y-85349395D01*
X78052713Y-85174998D01*
X78052714Y-85174996D01*
X78055537Y-85169955D01*
X78057393Y-85164488D01*
X78057395Y-85164483D01*
X78121647Y-84975200D01*
X78123504Y-84969730D01*
X78125385Y-84956763D01*
X78153314Y-84764140D01*
X78153314Y-84764138D01*
X78153846Y-84760470D01*
X78155429Y-84700000D01*
X78142905Y-84563705D01*
X78156589Y-84494040D01*
X78205766Y-84442833D01*
X78274820Y-84426341D01*
X78341829Y-84449801D01*
X78371273Y-84479456D01*
X78421405Y-84550391D01*
X78439165Y-84567692D01*
X78564143Y-84689440D01*
X78572865Y-84697937D01*
X78577661Y-84701142D01*
X78577664Y-84701144D01*
X78697041Y-84780909D01*
X78748677Y-84815411D01*
X78753985Y-84817692D01*
X78753986Y-84817692D01*
X78937650Y-84896600D01*
X78937653Y-84896601D01*
X78942953Y-84898878D01*
X78948582Y-84900152D01*
X78948583Y-84900152D01*
X79143550Y-84944269D01*
X79143553Y-84944269D01*
X79149186Y-84945544D01*
X79154957Y-84945771D01*
X79154959Y-84945771D01*
X79216989Y-84948208D01*
X79360470Y-84953846D01*
X79366179Y-84953018D01*
X79366183Y-84953018D01*
X79564015Y-84924333D01*
X79564019Y-84924332D01*
X79569730Y-84923504D01*
X79695683Y-84880749D01*
X79764483Y-84857395D01*
X79764488Y-84857393D01*
X79769955Y-84855537D01*
X79774998Y-84852713D01*
X79949395Y-84755046D01*
X79949399Y-84755043D01*
X79954442Y-84752219D01*
X80117012Y-84617012D01*
X80252219Y-84454442D01*
X80255043Y-84449399D01*
X80255046Y-84449395D01*
X80327368Y-84320254D01*
X82844967Y-84320254D01*
X82858796Y-84531249D01*
X82860217Y-84536845D01*
X82860218Y-84536850D01*
X82908122Y-84725469D01*
X82910845Y-84736190D01*
X82999369Y-84928214D01*
X83121405Y-85100891D01*
X83272865Y-85248437D01*
X83277661Y-85251642D01*
X83277664Y-85251644D01*
X83361145Y-85307424D01*
X83448677Y-85365911D01*
X83453985Y-85368192D01*
X83453986Y-85368192D01*
X83637650Y-85447100D01*
X83637653Y-85447101D01*
X83642953Y-85449378D01*
X83648582Y-85450652D01*
X83648583Y-85450652D01*
X83843550Y-85494769D01*
X83843553Y-85494769D01*
X83849186Y-85496044D01*
X83854957Y-85496271D01*
X83854959Y-85496271D01*
X83910087Y-85498437D01*
X84060470Y-85504346D01*
X84066179Y-85503518D01*
X84066183Y-85503518D01*
X84264015Y-85474833D01*
X84264019Y-85474832D01*
X84269730Y-85474004D01*
X84353182Y-85445676D01*
X84464483Y-85407895D01*
X84464488Y-85407893D01*
X84469955Y-85406037D01*
X84474998Y-85403213D01*
X84649395Y-85305546D01*
X84649399Y-85305543D01*
X84654442Y-85302719D01*
X84817012Y-85167512D01*
X84952219Y-85004942D01*
X84955043Y-84999899D01*
X84955046Y-84999895D01*
X85052713Y-84825498D01*
X85052714Y-84825496D01*
X85055537Y-84820455D01*
X85057393Y-84814988D01*
X85057395Y-84814983D01*
X85121647Y-84625700D01*
X85123504Y-84620230D01*
X85125537Y-84606214D01*
X85153314Y-84414640D01*
X85153314Y-84414638D01*
X85153846Y-84410970D01*
X85155429Y-84350500D01*
X85136081Y-84139940D01*
X85078686Y-83936431D01*
X85075562Y-83930095D01*
X84987719Y-83751969D01*
X84985165Y-83746790D01*
X84871965Y-83595197D01*
X84867918Y-83589777D01*
X90744967Y-83589777D01*
X90758796Y-83800772D01*
X90760217Y-83806368D01*
X90760218Y-83806373D01*
X90798102Y-83955537D01*
X90810845Y-84005713D01*
X90813262Y-84010956D01*
X90840357Y-84069730D01*
X90899369Y-84197737D01*
X90902702Y-84202453D01*
X90952257Y-84272572D01*
X90975238Y-84339746D01*
X90960868Y-84403959D01*
X90935216Y-84452715D01*
X90935211Y-84452726D01*
X90932523Y-84457836D01*
X90869820Y-84659773D01*
X90844967Y-84869754D01*
X90858796Y-85080749D01*
X90860217Y-85086345D01*
X90860218Y-85086350D01*
X90901384Y-85248437D01*
X90910845Y-85285690D01*
X90913262Y-85290933D01*
X90940213Y-85349395D01*
X90999369Y-85477714D01*
X91121405Y-85650391D01*
X91184855Y-85712201D01*
X91231248Y-85757395D01*
X91272865Y-85797937D01*
X91277661Y-85801142D01*
X91277664Y-85801144D01*
X91420936Y-85896875D01*
X91448677Y-85915411D01*
X91453985Y-85917692D01*
X91453986Y-85917692D01*
X91637650Y-85996600D01*
X91637653Y-85996601D01*
X91642953Y-85998878D01*
X91648582Y-86000152D01*
X91648583Y-86000152D01*
X91843550Y-86044269D01*
X91843553Y-86044269D01*
X91849186Y-86045544D01*
X91854957Y-86045771D01*
X91854959Y-86045771D01*
X91916989Y-86048208D01*
X92060470Y-86053846D01*
X92066179Y-86053018D01*
X92066183Y-86053018D01*
X92264015Y-86024333D01*
X92264019Y-86024332D01*
X92269730Y-86023504D01*
X92348987Y-85996600D01*
X92464483Y-85957395D01*
X92464488Y-85957393D01*
X92469955Y-85955537D01*
X92536777Y-85918115D01*
X92649395Y-85855046D01*
X92649399Y-85855043D01*
X92654442Y-85852219D01*
X92817012Y-85717012D01*
X92952219Y-85554442D01*
X92955043Y-85549399D01*
X92955046Y-85549395D01*
X93052713Y-85374998D01*
X93052714Y-85374996D01*
X93055537Y-85369955D01*
X93057393Y-85364488D01*
X93057395Y-85364483D01*
X93121647Y-85175200D01*
X93123504Y-85169730D01*
X93133486Y-85100891D01*
X93153314Y-84964140D01*
X93153314Y-84964138D01*
X93153846Y-84960470D01*
X93155429Y-84900000D01*
X93136081Y-84689440D01*
X93132004Y-84674982D01*
X93114403Y-84612574D01*
X93078686Y-84485931D01*
X93070709Y-84469754D01*
X92987719Y-84301469D01*
X92985165Y-84296290D01*
X92981712Y-84291666D01*
X92981706Y-84291656D01*
X92951168Y-84250761D01*
X92926436Y-84184212D01*
X92942192Y-84113808D01*
X92955537Y-84089978D01*
X92957393Y-84084511D01*
X92957395Y-84084506D01*
X93009810Y-83930095D01*
X93023504Y-83889753D01*
X93026266Y-83870708D01*
X93053314Y-83684163D01*
X93053314Y-83684161D01*
X93053846Y-83680493D01*
X93055429Y-83620023D01*
X93036081Y-83409463D01*
X92978686Y-83205954D01*
X92975559Y-83199612D01*
X92938583Y-83124634D01*
X92909057Y-83064760D01*
X92896867Y-82994820D01*
X92912129Y-82947467D01*
X92952714Y-82874998D01*
X92952719Y-82874988D01*
X92955537Y-82869955D01*
X93023504Y-82669730D01*
X93031419Y-82615146D01*
X93053314Y-82464140D01*
X93053314Y-82464138D01*
X93053846Y-82460470D01*
X93055429Y-82400000D01*
X93036081Y-82189440D01*
X92978686Y-81985931D01*
X92974736Y-81977920D01*
X92887719Y-81801469D01*
X92885165Y-81796290D01*
X92758651Y-81626867D01*
X92653964Y-81530095D01*
X92607622Y-81487257D01*
X92607620Y-81487255D01*
X92603381Y-81483337D01*
X92570014Y-81462284D01*
X92429434Y-81373584D01*
X92429433Y-81373584D01*
X92424554Y-81370505D01*
X92228160Y-81292152D01*
X92222503Y-81291027D01*
X92222497Y-81291025D01*
X92026442Y-81252028D01*
X92026440Y-81252028D01*
X92020775Y-81250901D01*
X92015000Y-81250825D01*
X92014996Y-81250825D01*
X91908976Y-81249437D01*
X91809346Y-81248133D01*
X91803649Y-81249112D01*
X91803648Y-81249112D01*
X91606650Y-81282962D01*
X91606649Y-81282962D01*
X91600953Y-81283941D01*
X91402575Y-81357127D01*
X91397614Y-81360079D01*
X91397613Y-81360079D01*
X91239003Y-81454442D01*
X91220856Y-81465238D01*
X91061881Y-81604655D01*
X90930976Y-81770708D01*
X90928287Y-81775819D01*
X90928285Y-81775822D01*
X90882232Y-81863354D01*
X90832523Y-81957836D01*
X90769820Y-82159773D01*
X90744967Y-82369754D01*
X90758796Y-82580749D01*
X90760217Y-82586345D01*
X90760218Y-82586350D01*
X90808262Y-82775520D01*
X90810845Y-82785690D01*
X90891315Y-82960244D01*
X90901670Y-83030479D01*
X90888397Y-83071660D01*
X90832523Y-83177859D01*
X90769820Y-83379796D01*
X90744967Y-83589777D01*
X84867918Y-83589777D01*
X84862104Y-83581991D01*
X84862103Y-83581990D01*
X84858651Y-83577367D01*
X84748552Y-83475593D01*
X84707622Y-83437757D01*
X84707620Y-83437755D01*
X84703381Y-83433837D01*
X84524554Y-83321005D01*
X84328160Y-83242652D01*
X84322503Y-83241527D01*
X84322497Y-83241525D01*
X84126442Y-83202528D01*
X84126440Y-83202528D01*
X84120775Y-83201401D01*
X84115000Y-83201325D01*
X84114996Y-83201325D01*
X84008976Y-83199937D01*
X83909346Y-83198633D01*
X83903649Y-83199612D01*
X83903648Y-83199612D01*
X83706650Y-83233462D01*
X83706649Y-83233462D01*
X83700953Y-83234441D01*
X83502575Y-83307627D01*
X83497614Y-83310579D01*
X83497613Y-83310579D01*
X83340756Y-83403899D01*
X83320856Y-83415738D01*
X83161881Y-83555155D01*
X83030976Y-83721208D01*
X83028287Y-83726319D01*
X83028285Y-83726322D01*
X83002401Y-83775520D01*
X82932523Y-83908336D01*
X82869820Y-84110273D01*
X82844967Y-84320254D01*
X80327368Y-84320254D01*
X80352713Y-84274998D01*
X80352714Y-84274996D01*
X80355537Y-84269955D01*
X80357393Y-84264488D01*
X80357395Y-84264483D01*
X80408960Y-84112574D01*
X80423504Y-84069730D01*
X80424429Y-84063354D01*
X80453314Y-83864140D01*
X80453314Y-83864138D01*
X80453846Y-83860470D01*
X80455429Y-83800000D01*
X80436081Y-83589440D01*
X80378686Y-83385931D01*
X80373295Y-83374998D01*
X80287719Y-83201469D01*
X80285165Y-83196290D01*
X80158651Y-83026867D01*
X80158258Y-83026503D01*
X80128278Y-82964030D01*
X80137043Y-82893576D01*
X80142697Y-82882163D01*
X80152596Y-82864487D01*
X80205537Y-82769955D01*
X80207393Y-82764488D01*
X80207395Y-82764483D01*
X80267862Y-82586350D01*
X80273504Y-82569730D01*
X80275919Y-82553079D01*
X80303314Y-82364140D01*
X80303314Y-82364138D01*
X80303846Y-82360470D01*
X80305429Y-82300000D01*
X80286081Y-82089440D01*
X80228686Y-81885931D01*
X80226132Y-81880753D01*
X80226129Y-81880744D01*
X80200832Y-81829447D01*
X80188642Y-81759504D01*
X80203904Y-81712153D01*
X80252712Y-81625001D01*
X80252716Y-81624993D01*
X80255537Y-81619955D01*
X80257393Y-81614488D01*
X80257395Y-81614483D01*
X80319530Y-81431437D01*
X80323504Y-81419730D01*
X80328913Y-81382430D01*
X80353314Y-81214140D01*
X80353314Y-81214138D01*
X80353846Y-81210470D01*
X80355429Y-81150000D01*
X80336081Y-80939440D01*
X80328574Y-80912822D01*
X80329334Y-80841832D01*
X80368354Y-80782520D01*
X80433247Y-80753720D01*
X80477649Y-80755729D01*
X80571587Y-80776985D01*
X80643550Y-80793269D01*
X80643553Y-80793269D01*
X80649186Y-80794544D01*
X80654957Y-80794771D01*
X80654959Y-80794771D01*
X80716989Y-80797208D01*
X80860470Y-80802846D01*
X80866179Y-80802018D01*
X80866183Y-80802018D01*
X81064015Y-80773333D01*
X81064019Y-80773332D01*
X81069730Y-80772504D01*
X81160220Y-80741787D01*
X81264483Y-80706395D01*
X81264488Y-80706393D01*
X81269955Y-80704537D01*
X81280060Y-80698878D01*
X81449395Y-80604046D01*
X81449399Y-80604043D01*
X81454442Y-80601219D01*
X81617012Y-80466012D01*
X81752219Y-80303442D01*
X81755043Y-80298399D01*
X81755046Y-80298395D01*
X81852713Y-80123998D01*
X81852714Y-80123996D01*
X81855537Y-80118955D01*
X81857393Y-80113488D01*
X81857395Y-80113483D01*
X81904409Y-79974982D01*
X81923504Y-79918730D01*
X81927535Y-79890933D01*
X81953314Y-79713140D01*
X81953314Y-79713138D01*
X81953846Y-79709470D01*
X81955429Y-79649000D01*
X81952650Y-79618754D01*
X82544967Y-79618754D01*
X82558796Y-79829749D01*
X82560217Y-79835345D01*
X82560218Y-79835350D01*
X82602550Y-80002028D01*
X82610845Y-80034690D01*
X82613262Y-80039933D01*
X82694158Y-80215411D01*
X82699369Y-80226714D01*
X82821405Y-80399391D01*
X82873900Y-80450529D01*
X82943981Y-80518799D01*
X82972865Y-80546937D01*
X82977661Y-80550142D01*
X82977664Y-80550144D01*
X83073868Y-80614425D01*
X83148677Y-80664411D01*
X83153985Y-80666692D01*
X83153986Y-80666692D01*
X83337650Y-80745600D01*
X83337653Y-80745601D01*
X83342953Y-80747878D01*
X83348582Y-80749152D01*
X83348583Y-80749152D01*
X83543550Y-80793269D01*
X83543553Y-80793269D01*
X83549186Y-80794544D01*
X83554957Y-80794771D01*
X83554959Y-80794771D01*
X83616989Y-80797208D01*
X83760470Y-80802846D01*
X83766179Y-80802018D01*
X83766183Y-80802018D01*
X83964015Y-80773333D01*
X83964019Y-80773332D01*
X83969730Y-80772504D01*
X84060220Y-80741787D01*
X84164483Y-80706395D01*
X84164488Y-80706393D01*
X84169955Y-80704537D01*
X84180060Y-80698878D01*
X84349395Y-80604046D01*
X84349399Y-80604043D01*
X84354442Y-80601219D01*
X84517012Y-80466012D01*
X84652219Y-80303442D01*
X84719768Y-80182825D01*
X84770502Y-80133166D01*
X84840034Y-80118819D01*
X84879433Y-80128625D01*
X85042953Y-80198878D01*
X85048582Y-80200152D01*
X85048583Y-80200152D01*
X85243550Y-80244269D01*
X85243553Y-80244269D01*
X85249186Y-80245544D01*
X85254957Y-80245771D01*
X85254959Y-80245771D01*
X85316989Y-80248208D01*
X85460470Y-80253846D01*
X85466179Y-80253018D01*
X85466183Y-80253018D01*
X85664015Y-80224333D01*
X85664019Y-80224332D01*
X85669730Y-80223504D01*
X85726676Y-80204173D01*
X85864483Y-80157395D01*
X85864488Y-80157393D01*
X85869955Y-80155537D01*
X85874998Y-80152713D01*
X86049395Y-80055046D01*
X86049399Y-80055043D01*
X86054442Y-80052219D01*
X86217012Y-79917012D01*
X86352219Y-79754442D01*
X86355043Y-79749399D01*
X86355046Y-79749395D01*
X86452713Y-79574998D01*
X86452714Y-79574996D01*
X86455537Y-79569955D01*
X86457393Y-79564488D01*
X86457395Y-79564483D01*
X86489551Y-79469754D01*
X90444967Y-79469754D01*
X90458796Y-79680749D01*
X90460217Y-79686345D01*
X90460218Y-79686350D01*
X90503498Y-79856763D01*
X90510845Y-79885690D01*
X90513262Y-79890933D01*
X90562682Y-79998133D01*
X90599369Y-80077714D01*
X90721405Y-80250391D01*
X90755113Y-80283228D01*
X90860541Y-80385931D01*
X90872865Y-80397937D01*
X90877661Y-80401142D01*
X90877664Y-80401144D01*
X90959113Y-80455566D01*
X91048677Y-80515411D01*
X91053985Y-80517692D01*
X91053986Y-80517692D01*
X91237650Y-80596600D01*
X91237653Y-80596601D01*
X91242953Y-80598878D01*
X91248582Y-80600152D01*
X91248583Y-80600152D01*
X91443550Y-80644269D01*
X91443553Y-80644269D01*
X91449186Y-80645544D01*
X91454957Y-80645771D01*
X91454959Y-80645771D01*
X91516989Y-80648208D01*
X91660470Y-80653846D01*
X91666179Y-80653018D01*
X91666183Y-80653018D01*
X91864015Y-80624333D01*
X91864019Y-80624332D01*
X91869730Y-80623504D01*
X91938523Y-80600152D01*
X92064483Y-80557395D01*
X92064488Y-80557393D01*
X92069955Y-80555537D01*
X92074998Y-80552713D01*
X92249395Y-80455046D01*
X92249399Y-80455043D01*
X92254442Y-80452219D01*
X92417012Y-80317012D01*
X92552219Y-80154442D01*
X92555043Y-80149399D01*
X92555046Y-80149395D01*
X92652713Y-79974998D01*
X92652714Y-79974996D01*
X92655537Y-79969955D01*
X92657393Y-79964488D01*
X92657395Y-79964483D01*
X92719298Y-79782121D01*
X92723504Y-79769730D01*
X92726045Y-79752210D01*
X92752500Y-79569754D01*
X93044967Y-79569754D01*
X93049919Y-79645305D01*
X93056926Y-79752210D01*
X93058796Y-79780749D01*
X93060217Y-79786345D01*
X93060218Y-79786350D01*
X93109424Y-79980095D01*
X93110845Y-79985690D01*
X93113262Y-79990933D01*
X93155443Y-80082430D01*
X93199369Y-80177714D01*
X93321405Y-80350391D01*
X93472865Y-80497937D01*
X93477661Y-80501142D01*
X93477664Y-80501144D01*
X93559069Y-80555537D01*
X93648677Y-80615411D01*
X93653985Y-80617692D01*
X93653986Y-80617692D01*
X93837650Y-80696600D01*
X93837653Y-80696601D01*
X93842953Y-80698878D01*
X93848582Y-80700152D01*
X93848583Y-80700152D01*
X94043550Y-80744269D01*
X94043553Y-80744269D01*
X94049186Y-80745544D01*
X94054957Y-80745771D01*
X94054959Y-80745771D01*
X94116989Y-80748208D01*
X94260470Y-80753846D01*
X94266179Y-80753018D01*
X94266183Y-80753018D01*
X94464015Y-80724333D01*
X94464019Y-80724332D01*
X94469730Y-80723504D01*
X94530958Y-80702720D01*
X94664483Y-80657395D01*
X94664488Y-80657393D01*
X94669955Y-80655537D01*
X94682842Y-80648320D01*
X94849395Y-80555046D01*
X94849399Y-80555043D01*
X94854442Y-80552219D01*
X95017012Y-80417012D01*
X95152219Y-80254442D01*
X95155043Y-80249399D01*
X95155046Y-80249395D01*
X95252713Y-80074998D01*
X95252714Y-80074996D01*
X95255537Y-80069955D01*
X95257393Y-80064488D01*
X95257395Y-80064483D01*
X95312940Y-79900850D01*
X95323504Y-79869730D01*
X95325385Y-79856763D01*
X95338001Y-79769754D01*
X95844967Y-79769754D01*
X95858796Y-79980749D01*
X95860217Y-79986345D01*
X95860218Y-79986350D01*
X95892996Y-80115411D01*
X95910845Y-80185690D01*
X95913262Y-80190933D01*
X95984599Y-80345676D01*
X95999369Y-80377714D01*
X96121405Y-80550391D01*
X96126688Y-80555537D01*
X96233068Y-80659168D01*
X96272865Y-80697937D01*
X96277661Y-80701142D01*
X96277664Y-80701144D01*
X96401336Y-80783779D01*
X96448677Y-80815411D01*
X96453985Y-80817692D01*
X96453986Y-80817692D01*
X96637650Y-80896600D01*
X96637653Y-80896601D01*
X96642953Y-80898878D01*
X96648582Y-80900152D01*
X96648583Y-80900152D01*
X96843550Y-80944269D01*
X96843553Y-80944269D01*
X96849186Y-80945544D01*
X96854957Y-80945771D01*
X96854959Y-80945771D01*
X96915075Y-80948133D01*
X97060470Y-80953846D01*
X97066179Y-80953018D01*
X97066183Y-80953018D01*
X97264015Y-80924333D01*
X97264019Y-80924332D01*
X97269730Y-80923504D01*
X97395683Y-80880749D01*
X97464483Y-80857395D01*
X97464488Y-80857393D01*
X97469955Y-80855537D01*
X97494427Y-80841832D01*
X97649395Y-80755046D01*
X97649399Y-80755043D01*
X97654442Y-80752219D01*
X97817012Y-80617012D01*
X97952219Y-80454442D01*
X97955043Y-80449399D01*
X97955046Y-80449395D01*
X98052713Y-80274998D01*
X98052714Y-80274996D01*
X98055537Y-80269955D01*
X98057393Y-80264488D01*
X98057395Y-80264483D01*
X98121647Y-80075200D01*
X98123504Y-80069730D01*
X98126580Y-80048521D01*
X98153314Y-79864140D01*
X98153314Y-79864138D01*
X98153846Y-79860470D01*
X98155429Y-79800000D01*
X98136081Y-79589440D01*
X98133446Y-79580095D01*
X98110960Y-79500367D01*
X98078686Y-79385931D01*
X98079259Y-79385769D01*
X98073841Y-79318974D01*
X98077898Y-79304081D01*
X98080438Y-79296600D01*
X98123504Y-79169730D01*
X98124429Y-79163354D01*
X98153314Y-78964140D01*
X98153314Y-78964138D01*
X98153846Y-78960470D01*
X98155429Y-78900000D01*
X98136081Y-78689440D01*
X98129256Y-78665238D01*
X98101053Y-78565238D01*
X98078686Y-78485931D01*
X98079259Y-78485769D01*
X98073841Y-78418974D01*
X98077898Y-78404081D01*
X98081948Y-78392152D01*
X98123504Y-78269730D01*
X98125385Y-78256763D01*
X98153314Y-78064140D01*
X98153314Y-78064138D01*
X98153846Y-78060470D01*
X98155429Y-78000000D01*
X98136081Y-77789440D01*
X98131423Y-77772922D01*
X98109508Y-77695219D01*
X98078686Y-77585931D01*
X98068942Y-77566171D01*
X97987719Y-77401469D01*
X97985165Y-77396290D01*
X97858651Y-77226867D01*
X97740546Y-77117692D01*
X97707622Y-77087257D01*
X97707620Y-77087255D01*
X97703381Y-77083337D01*
X97658543Y-77055046D01*
X97529434Y-76973584D01*
X97529433Y-76973584D01*
X97524554Y-76970505D01*
X97328160Y-76892152D01*
X97322503Y-76891027D01*
X97322497Y-76891025D01*
X97126442Y-76852028D01*
X97126440Y-76852028D01*
X97120775Y-76850901D01*
X97115000Y-76850825D01*
X97114996Y-76850825D01*
X97008976Y-76849437D01*
X96909346Y-76848133D01*
X96903649Y-76849112D01*
X96903648Y-76849112D01*
X96706650Y-76882962D01*
X96706649Y-76882962D01*
X96700953Y-76883941D01*
X96502575Y-76957127D01*
X96497614Y-76960079D01*
X96497613Y-76960079D01*
X96339003Y-77054442D01*
X96320856Y-77065238D01*
X96161881Y-77204655D01*
X96030976Y-77370708D01*
X96028287Y-77375819D01*
X96028285Y-77375822D01*
X95935217Y-77552715D01*
X95932523Y-77557836D01*
X95869820Y-77759773D01*
X95844967Y-77969754D01*
X95858796Y-78180749D01*
X95860217Y-78186345D01*
X95860218Y-78186350D01*
X95889298Y-78300850D01*
X95910845Y-78385690D01*
X95916935Y-78398901D01*
X95927290Y-78469136D01*
X95922841Y-78489015D01*
X95871535Y-78654246D01*
X95871532Y-78654258D01*
X95869820Y-78659773D01*
X95844967Y-78869754D01*
X95858796Y-79080749D01*
X95860217Y-79086345D01*
X95860218Y-79086350D01*
X95897954Y-79234931D01*
X95910845Y-79285690D01*
X95916935Y-79298901D01*
X95927290Y-79369136D01*
X95922841Y-79389015D01*
X95871535Y-79554246D01*
X95871532Y-79554258D01*
X95869820Y-79559773D01*
X95844967Y-79769754D01*
X95338001Y-79769754D01*
X95353314Y-79664140D01*
X95353314Y-79664138D01*
X95353846Y-79660470D01*
X95355429Y-79600000D01*
X95336081Y-79389440D01*
X95332004Y-79374982D01*
X95298841Y-79257395D01*
X95278686Y-79185931D01*
X95273395Y-79175200D01*
X95187719Y-79001469D01*
X95185165Y-78996290D01*
X95075813Y-78849850D01*
X95062104Y-78831491D01*
X95062103Y-78831490D01*
X95058651Y-78826867D01*
X94926443Y-78704655D01*
X94907622Y-78687257D01*
X94907620Y-78687255D01*
X94903381Y-78683337D01*
X94724554Y-78570505D01*
X94528160Y-78492152D01*
X94522503Y-78491027D01*
X94522497Y-78491025D01*
X94326442Y-78452028D01*
X94326440Y-78452028D01*
X94320775Y-78450901D01*
X94315000Y-78450825D01*
X94314996Y-78450825D01*
X94208976Y-78449437D01*
X94109346Y-78448133D01*
X94103649Y-78449112D01*
X94103648Y-78449112D01*
X93906650Y-78482962D01*
X93906649Y-78482962D01*
X93900953Y-78483941D01*
X93702575Y-78557127D01*
X93697614Y-78560079D01*
X93697613Y-78560079D01*
X93533298Y-78657836D01*
X93520856Y-78665238D01*
X93361881Y-78804655D01*
X93230976Y-78970708D01*
X93228287Y-78975819D01*
X93228285Y-78975822D01*
X93205196Y-79019708D01*
X93132523Y-79157836D01*
X93069820Y-79359773D01*
X93044967Y-79569754D01*
X92752500Y-79569754D01*
X92753314Y-79564140D01*
X92753314Y-79564138D01*
X92753846Y-79560470D01*
X92755429Y-79500000D01*
X92736081Y-79289440D01*
X92733446Y-79280095D01*
X92714341Y-79212354D01*
X92678686Y-79085931D01*
X92667553Y-79063354D01*
X92587719Y-78901469D01*
X92585165Y-78896290D01*
X92458651Y-78726867D01*
X92340740Y-78617871D01*
X92307622Y-78587257D01*
X92307620Y-78587255D01*
X92303381Y-78583337D01*
X92268615Y-78561401D01*
X92129434Y-78473584D01*
X92129433Y-78473584D01*
X92124554Y-78470505D01*
X91928160Y-78392152D01*
X91922503Y-78391027D01*
X91922497Y-78391025D01*
X91726442Y-78352028D01*
X91726440Y-78352028D01*
X91720775Y-78350901D01*
X91715000Y-78350825D01*
X91714996Y-78350825D01*
X91608976Y-78349437D01*
X91509346Y-78348133D01*
X91503649Y-78349112D01*
X91503648Y-78349112D01*
X91306650Y-78382962D01*
X91306649Y-78382962D01*
X91300953Y-78383941D01*
X91102575Y-78457127D01*
X91097614Y-78460079D01*
X91097613Y-78460079D01*
X90929528Y-78560079D01*
X90920856Y-78565238D01*
X90761881Y-78704655D01*
X90630976Y-78870708D01*
X90628287Y-78875819D01*
X90628285Y-78875822D01*
X90583750Y-78960470D01*
X90532523Y-79057836D01*
X90469820Y-79259773D01*
X90444967Y-79469754D01*
X86489551Y-79469754D01*
X86512597Y-79401860D01*
X86523504Y-79369730D01*
X86525928Y-79353018D01*
X86553314Y-79164140D01*
X86553314Y-79164138D01*
X86553846Y-79160470D01*
X86555429Y-79100000D01*
X86536081Y-78889440D01*
X86532241Y-78875822D01*
X86497522Y-78752720D01*
X86478686Y-78685931D01*
X86475888Y-78680256D01*
X86387719Y-78501469D01*
X86385165Y-78496290D01*
X86301270Y-78383941D01*
X86262104Y-78331491D01*
X86262103Y-78331490D01*
X86258651Y-78326867D01*
X86103381Y-78183337D01*
X86070014Y-78162284D01*
X85929434Y-78073584D01*
X85929433Y-78073584D01*
X85924554Y-78070505D01*
X85728160Y-77992152D01*
X85722503Y-77991027D01*
X85722497Y-77991025D01*
X85526442Y-77952028D01*
X85526440Y-77952028D01*
X85520775Y-77950901D01*
X85515000Y-77950825D01*
X85514996Y-77950825D01*
X85408976Y-77949437D01*
X85309346Y-77948133D01*
X85303649Y-77949112D01*
X85303648Y-77949112D01*
X85106650Y-77982962D01*
X85106649Y-77982962D01*
X85100953Y-77983941D01*
X84902575Y-78057127D01*
X84897614Y-78060079D01*
X84897613Y-78060079D01*
X84729528Y-78160079D01*
X84720856Y-78165238D01*
X84561881Y-78304655D01*
X84430976Y-78470708D01*
X84383259Y-78561403D01*
X84333841Y-78612374D01*
X84264709Y-78628537D01*
X84225206Y-78617871D01*
X84224554Y-78619505D01*
X84033524Y-78543292D01*
X84028160Y-78541152D01*
X84022503Y-78540027D01*
X84022497Y-78540025D01*
X83826442Y-78501028D01*
X83826440Y-78501028D01*
X83820775Y-78499901D01*
X83815000Y-78499825D01*
X83814996Y-78499825D01*
X83708976Y-78498437D01*
X83609346Y-78497133D01*
X83603649Y-78498112D01*
X83603648Y-78498112D01*
X83406650Y-78531962D01*
X83406649Y-78531962D01*
X83400953Y-78532941D01*
X83202575Y-78606127D01*
X83197614Y-78609079D01*
X83197613Y-78609079D01*
X83036964Y-78704655D01*
X83020856Y-78714238D01*
X82861881Y-78853655D01*
X82730976Y-79019708D01*
X82728287Y-79024819D01*
X82728285Y-79024822D01*
X82701895Y-79074982D01*
X82632523Y-79206836D01*
X82582128Y-79369136D01*
X82571967Y-79401860D01*
X82569820Y-79408773D01*
X82544967Y-79618754D01*
X81952650Y-79618754D01*
X81936081Y-79438440D01*
X81925765Y-79401860D01*
X81913895Y-79359773D01*
X81878686Y-79234931D01*
X81872515Y-79222416D01*
X81787719Y-79050469D01*
X81785165Y-79045290D01*
X81669915Y-78890951D01*
X81662104Y-78880491D01*
X81662103Y-78880490D01*
X81658651Y-78875867D01*
X81515825Y-78743840D01*
X81507622Y-78736257D01*
X81507620Y-78736255D01*
X81503381Y-78732337D01*
X81470014Y-78711284D01*
X81329434Y-78622584D01*
X81329433Y-78622584D01*
X81324554Y-78619505D01*
X81128160Y-78541152D01*
X81122503Y-78540027D01*
X81122497Y-78540025D01*
X80926442Y-78501028D01*
X80926440Y-78501028D01*
X80920775Y-78499901D01*
X80915000Y-78499825D01*
X80914996Y-78499825D01*
X80808976Y-78498437D01*
X80709346Y-78497133D01*
X80703649Y-78498112D01*
X80703648Y-78498112D01*
X80506650Y-78531962D01*
X80506649Y-78531962D01*
X80500953Y-78532941D01*
X80302575Y-78606127D01*
X80297614Y-78609079D01*
X80297613Y-78609079D01*
X80136964Y-78704655D01*
X80120856Y-78714238D01*
X79961881Y-78853655D01*
X79830976Y-79019708D01*
X79828287Y-79024819D01*
X79828285Y-79024822D01*
X79801895Y-79074982D01*
X79732523Y-79206836D01*
X79682128Y-79369136D01*
X79671967Y-79401860D01*
X79669820Y-79408773D01*
X79644967Y-79618754D01*
X79658796Y-79829749D01*
X79660217Y-79835345D01*
X79660218Y-79835350D01*
X79673404Y-79887267D01*
X79670786Y-79958215D01*
X79630226Y-80016485D01*
X79564601Y-80043577D01*
X79526703Y-80041862D01*
X79370114Y-80010715D01*
X79326442Y-80002028D01*
X79326440Y-80002028D01*
X79320775Y-80000901D01*
X79315000Y-80000825D01*
X79314996Y-80000825D01*
X79208976Y-79999437D01*
X79109346Y-79998133D01*
X79103649Y-79999112D01*
X79103648Y-79999112D01*
X78906650Y-80032962D01*
X78906649Y-80032962D01*
X78900953Y-80033941D01*
X78702575Y-80107127D01*
X78697614Y-80110079D01*
X78697613Y-80110079D01*
X78536517Y-80205921D01*
X78520856Y-80215238D01*
X78361881Y-80354655D01*
X78230976Y-80520708D01*
X78228287Y-80525819D01*
X78228285Y-80525822D01*
X78193425Y-80592080D01*
X78132523Y-80707836D01*
X78069820Y-80909773D01*
X78044967Y-81119754D01*
X78058796Y-81330749D01*
X78060217Y-81336345D01*
X78060218Y-81336350D01*
X78102154Y-81501469D01*
X78110845Y-81535690D01*
X78113260Y-81540928D01*
X78150759Y-81622271D01*
X78161113Y-81692508D01*
X78147842Y-81733685D01*
X78082523Y-81857836D01*
X78019820Y-82059773D01*
X77994967Y-82269754D01*
X78008796Y-82480749D01*
X78010217Y-82486345D01*
X78010218Y-82486350D01*
X78041560Y-82609755D01*
X78060845Y-82685690D01*
X78063262Y-82690933D01*
X78114177Y-82801376D01*
X78149369Y-82877714D01*
X78271405Y-83050391D01*
X78275534Y-83054413D01*
X78275538Y-83054418D01*
X78285245Y-83063873D01*
X78320083Y-83125734D01*
X78315946Y-83196610D01*
X78308833Y-83212794D01*
X78232523Y-83357836D01*
X78169820Y-83559773D01*
X78144967Y-83769754D01*
X78155892Y-83936431D01*
X78155984Y-83937842D01*
X78140480Y-84007125D01*
X78089980Y-84057028D01*
X78020518Y-84071706D01*
X77954146Y-84046500D01*
X77929296Y-84021472D01*
X77862104Y-83931491D01*
X77862103Y-83931490D01*
X77858651Y-83926867D01*
X77717410Y-83796305D01*
X77707622Y-83787257D01*
X77707620Y-83787255D01*
X77703381Y-83783337D01*
X77638123Y-83742162D01*
X77529434Y-83673584D01*
X77529433Y-83673584D01*
X77524554Y-83670505D01*
X77328160Y-83592152D01*
X77322503Y-83591027D01*
X77322497Y-83591025D01*
X77126442Y-83552028D01*
X77126440Y-83552028D01*
X77120775Y-83550901D01*
X77115000Y-83550825D01*
X77114996Y-83550825D01*
X76968632Y-83548909D01*
X76900779Y-83528017D01*
X76854993Y-83473757D01*
X76844811Y-83434449D01*
X76843181Y-83416703D01*
X76836081Y-83339440D01*
X76786666Y-83164226D01*
X76787427Y-83093235D01*
X76827367Y-83033153D01*
X76962574Y-82920703D01*
X76967012Y-82917012D01*
X77102219Y-82754442D01*
X77105043Y-82749399D01*
X77105046Y-82749395D01*
X77202713Y-82574998D01*
X77202714Y-82574996D01*
X77205537Y-82569955D01*
X77207393Y-82564488D01*
X77207395Y-82564483D01*
X77264483Y-82396305D01*
X77273504Y-82369730D01*
X77274429Y-82363354D01*
X77303314Y-82164140D01*
X77303314Y-82164138D01*
X77303846Y-82160470D01*
X77305429Y-82100000D01*
X77286081Y-81889440D01*
X77283629Y-81880744D01*
X77254571Y-81777714D01*
X77228686Y-81685931D01*
X77225120Y-81678698D01*
X77137719Y-81501469D01*
X77135165Y-81496290D01*
X77008651Y-81326867D01*
X76886704Y-81214140D01*
X76857622Y-81187257D01*
X76857620Y-81187255D01*
X76853381Y-81183337D01*
X76698621Y-81085690D01*
X76679434Y-81073584D01*
X76679433Y-81073584D01*
X76674554Y-81070505D01*
X76478160Y-80992152D01*
X76472503Y-80991027D01*
X76472497Y-80991025D01*
X76276442Y-80952028D01*
X76276440Y-80952028D01*
X76270775Y-80950901D01*
X76265000Y-80950825D01*
X76264996Y-80950825D01*
X76158976Y-80949437D01*
X76059346Y-80948133D01*
X76053649Y-80949112D01*
X76053648Y-80949112D01*
X75856650Y-80982962D01*
X75856649Y-80982962D01*
X75850953Y-80983941D01*
X75652575Y-81057127D01*
X75647614Y-81060079D01*
X75647613Y-81060079D01*
X75502680Y-81146305D01*
X75470856Y-81165238D01*
X75311881Y-81304655D01*
X75180976Y-81470708D01*
X75178287Y-81475819D01*
X75178285Y-81475822D01*
X75128954Y-81569585D01*
X75079535Y-81620557D01*
X75010402Y-81636720D01*
X74943506Y-81612941D01*
X74900086Y-81556770D01*
X74893926Y-81486041D01*
X74895323Y-81480854D01*
X74895161Y-81480815D01*
X74896509Y-81475199D01*
X74898366Y-81469730D01*
X74900611Y-81454252D01*
X74928176Y-81264140D01*
X74928176Y-81264138D01*
X74928708Y-81260470D01*
X74930291Y-81200000D01*
X74910943Y-80989440D01*
X74906866Y-80974982D01*
X74872382Y-80852713D01*
X74853548Y-80785931D01*
X74850995Y-80780754D01*
X74850993Y-80780749D01*
X74820177Y-80718262D01*
X74807987Y-80648320D01*
X74835546Y-80582890D01*
X74871616Y-80552599D01*
X74926930Y-80521621D01*
X74931969Y-80518799D01*
X74936406Y-80515108D01*
X74936410Y-80515106D01*
X75085108Y-80391435D01*
X75094539Y-80383592D01*
X75229746Y-80221022D01*
X75232570Y-80215979D01*
X75232573Y-80215975D01*
X75330240Y-80041578D01*
X75330241Y-80041576D01*
X75333064Y-80036535D01*
X75334920Y-80031068D01*
X75334922Y-80031063D01*
X75399173Y-79841783D01*
X75401031Y-79836310D01*
X75401619Y-79832257D01*
X75436697Y-79771162D01*
X75462298Y-79752210D01*
X75551135Y-79702459D01*
X75551139Y-79702456D01*
X75556173Y-79699637D01*
X75560610Y-79695946D01*
X75560614Y-79695944D01*
X75714305Y-79568121D01*
X75718743Y-79564430D01*
X75853950Y-79401860D01*
X75856774Y-79396817D01*
X75856777Y-79396813D01*
X75954444Y-79222416D01*
X75954445Y-79222414D01*
X75957268Y-79217373D01*
X75959124Y-79211906D01*
X75959126Y-79211901D01*
X76023378Y-79022618D01*
X76025235Y-79017148D01*
X76027509Y-79001469D01*
X76055045Y-78811558D01*
X76055045Y-78811556D01*
X76055577Y-78807888D01*
X76057160Y-78747418D01*
X76037812Y-78536858D01*
X76026609Y-78497133D01*
X76008096Y-78431491D01*
X75980417Y-78333349D01*
X75977221Y-78326867D01*
X75889450Y-78148887D01*
X75886896Y-78143708D01*
X75767904Y-77984358D01*
X75763835Y-77978909D01*
X75763834Y-77978908D01*
X75760382Y-77974285D01*
X75605112Y-77830755D01*
X75513453Y-77772922D01*
X75431165Y-77721002D01*
X75431164Y-77721002D01*
X75426285Y-77717923D01*
X75294910Y-77665510D01*
X75278731Y-77659055D01*
X75222872Y-77615234D01*
X75204151Y-77576225D01*
X75180254Y-77491490D01*
X75180253Y-77491488D01*
X75178686Y-77485931D01*
X75085165Y-77296290D01*
X74958651Y-77126867D01*
X74803381Y-76983337D01*
X74770014Y-76962284D01*
X74629434Y-76873584D01*
X74629433Y-76873584D01*
X74624554Y-76870505D01*
X74428160Y-76792152D01*
X74422503Y-76791027D01*
X74422497Y-76791025D01*
X74226442Y-76752028D01*
X74226440Y-76752028D01*
X74220775Y-76750901D01*
X74215000Y-76750825D01*
X74214996Y-76750825D01*
X74108976Y-76749437D01*
X74009346Y-76748133D01*
X74003649Y-76749112D01*
X74003648Y-76749112D01*
X73806650Y-76782962D01*
X73806649Y-76782962D01*
X73800953Y-76783941D01*
X73602575Y-76857127D01*
X73597614Y-76860079D01*
X73597613Y-76860079D01*
X73429528Y-76960079D01*
X73420856Y-76965238D01*
X73261881Y-77104655D01*
X73130976Y-77270708D01*
X73128287Y-77275819D01*
X73128285Y-77275822D01*
X73080750Y-77366171D01*
X73032523Y-77457836D01*
X72969820Y-77659773D01*
X72944967Y-77869754D01*
X72958796Y-78080749D01*
X72960217Y-78086345D01*
X72960218Y-78086350D01*
X73005340Y-78264015D01*
X73010845Y-78285690D01*
X73013262Y-78290933D01*
X73095688Y-78469730D01*
X73099369Y-78477714D01*
X73221405Y-78650391D01*
X73281759Y-78709185D01*
X73317333Y-78743840D01*
X73352170Y-78805702D01*
X73348033Y-78876577D01*
X73328363Y-78912095D01*
X73308503Y-78937288D01*
X73210050Y-79124416D01*
X73147347Y-79326353D01*
X73122494Y-79536334D01*
X73136323Y-79747329D01*
X73137744Y-79752925D01*
X73137745Y-79752930D01*
X73179854Y-79918730D01*
X73188372Y-79952270D01*
X73190789Y-79957513D01*
X73234158Y-80051588D01*
X73244513Y-80121826D01*
X73215250Y-80186511D01*
X73184154Y-80212624D01*
X73100687Y-80262281D01*
X73100681Y-80262285D01*
X73095718Y-80265238D01*
X72956306Y-80387499D01*
X72891903Y-80417375D01*
X72821571Y-80407689D01*
X72767639Y-80361516D01*
X72760224Y-80348494D01*
X72687721Y-80201473D01*
X72685165Y-80196290D01*
X72568408Y-80039933D01*
X72562104Y-80031491D01*
X72562103Y-80031490D01*
X72558651Y-80026867D01*
X72441669Y-79918730D01*
X72407622Y-79887257D01*
X72407620Y-79887255D01*
X72403381Y-79883337D01*
X72398498Y-79880256D01*
X72398494Y-79880253D01*
X72305566Y-79821620D01*
X72258627Y-79768353D01*
X72247938Y-79698166D01*
X72255913Y-79670083D01*
X72255537Y-79669955D01*
X72258889Y-79660079D01*
X72323504Y-79469730D01*
X72327207Y-79444197D01*
X72353314Y-79264140D01*
X72353314Y-79264138D01*
X72353846Y-79260470D01*
X72355429Y-79200000D01*
X72336081Y-78989440D01*
X72332241Y-78975822D01*
X72311271Y-78901469D01*
X72278686Y-78785931D01*
X72267553Y-78763354D01*
X72187719Y-78601469D01*
X72185165Y-78596290D01*
X72077440Y-78452028D01*
X72062104Y-78431491D01*
X72062103Y-78431490D01*
X72058651Y-78426867D01*
X71926443Y-78304655D01*
X71907622Y-78287257D01*
X71907620Y-78287255D01*
X71903381Y-78283337D01*
X71749667Y-78186350D01*
X71729434Y-78173584D01*
X71729433Y-78173584D01*
X71724554Y-78170505D01*
X71528160Y-78092152D01*
X71522503Y-78091027D01*
X71522497Y-78091025D01*
X71326442Y-78052028D01*
X71326440Y-78052028D01*
X71320775Y-78050901D01*
X71315000Y-78050825D01*
X71314996Y-78050825D01*
X71208976Y-78049437D01*
X71109346Y-78048133D01*
X71103649Y-78049112D01*
X71103648Y-78049112D01*
X70906650Y-78082962D01*
X70906649Y-78082962D01*
X70900953Y-78083941D01*
X70702575Y-78157127D01*
X70697614Y-78160079D01*
X70697613Y-78160079D01*
X70680089Y-78170505D01*
X70520856Y-78265238D01*
X70361881Y-78404655D01*
X70230976Y-78570708D01*
X70228287Y-78575819D01*
X70228285Y-78575822D01*
X70182795Y-78662284D01*
X70132523Y-78757836D01*
X70069820Y-78959773D01*
X70044967Y-79169754D01*
X70058796Y-79380749D01*
X70060217Y-79386345D01*
X70060218Y-79386350D01*
X70108262Y-79575520D01*
X70110845Y-79585690D01*
X70113262Y-79590933D01*
X70195054Y-79768353D01*
X70199369Y-79777714D01*
X70321405Y-79950391D01*
X70383329Y-80010715D01*
X70456947Y-80082430D01*
X70472865Y-80097937D01*
X70511868Y-80123998D01*
X70597837Y-80181441D01*
X70643365Y-80235918D01*
X70652213Y-80306361D01*
X70639343Y-80344874D01*
X70632523Y-80357836D01*
X70569820Y-80559773D01*
X70544967Y-80769754D01*
X70558796Y-80980749D01*
X70560217Y-80986345D01*
X70560218Y-80986350D01*
X70605651Y-81165238D01*
X70610845Y-81185690D01*
X70613262Y-81190933D01*
X70695279Y-81368843D01*
X70699369Y-81377714D01*
X70821405Y-81550391D01*
X70881759Y-81609185D01*
X70960971Y-81686350D01*
X70972865Y-81697937D01*
X71004849Y-81719308D01*
X71093320Y-81778423D01*
X71138848Y-81832900D01*
X71147696Y-81903343D01*
X71117054Y-81967387D01*
X71106396Y-81977919D01*
X70961881Y-82104655D01*
X70958310Y-82109185D01*
X70958307Y-82109188D01*
X70945486Y-82125452D01*
X70887606Y-82166566D01*
X70821955Y-82171027D01*
X70720775Y-82150901D01*
X70715000Y-82150825D01*
X70714996Y-82150825D01*
X70608976Y-82149437D01*
X70509346Y-82148133D01*
X70503649Y-82149112D01*
X70503648Y-82149112D01*
X70306650Y-82182962D01*
X70306649Y-82182962D01*
X70300953Y-82183941D01*
X70102575Y-82257127D01*
X70097614Y-82260079D01*
X70097613Y-82260079D01*
X69933298Y-82357836D01*
X69920856Y-82365238D01*
X69761881Y-82504655D01*
X69630976Y-82670708D01*
X69628287Y-82675819D01*
X69628285Y-82675822D01*
X69612328Y-82706152D01*
X69532523Y-82857836D01*
X69469820Y-83059773D01*
X69444967Y-83269754D01*
X64423640Y-83269754D01*
X64388442Y-83228543D01*
X64388437Y-83228538D01*
X64385224Y-83224776D01*
X64357856Y-83201401D01*
X64339602Y-83185811D01*
X64300793Y-83126360D01*
X64300287Y-83055366D01*
X64339602Y-82994189D01*
X64381460Y-82958439D01*
X64381462Y-82958437D01*
X64385224Y-82955224D01*
X64388437Y-82951462D01*
X64388442Y-82951457D01*
X64545621Y-82767424D01*
X64545624Y-82767419D01*
X64548836Y-82763659D01*
X64680466Y-82548859D01*
X64696900Y-82509185D01*
X64774979Y-82320684D01*
X64774980Y-82320682D01*
X64776873Y-82316111D01*
X64808839Y-82182962D01*
X64834528Y-82075961D01*
X64834529Y-82075955D01*
X64835683Y-82071148D01*
X64855449Y-81820000D01*
X64835683Y-81568852D01*
X64834266Y-81562946D01*
X64787551Y-81368366D01*
X64776873Y-81323889D01*
X64774979Y-81319316D01*
X64682361Y-81095715D01*
X64682359Y-81095711D01*
X64680466Y-81091141D01*
X64621671Y-80995197D01*
X64549851Y-80877997D01*
X64531313Y-80809463D01*
X64552769Y-80741787D01*
X64570166Y-80722985D01*
X64569345Y-80722166D01*
X64687813Y-80603491D01*
X64692984Y-80598311D01*
X64701695Y-80584179D01*
X66618877Y-80584179D01*
X66626887Y-80706395D01*
X66631275Y-80773333D01*
X66632706Y-80795174D01*
X66634127Y-80800770D01*
X66634128Y-80800775D01*
X66670953Y-80945771D01*
X66684755Y-81000115D01*
X66687172Y-81005358D01*
X66762634Y-81169048D01*
X66773279Y-81192139D01*
X66895315Y-81364816D01*
X66951686Y-81419730D01*
X66987319Y-81454442D01*
X67046775Y-81512362D01*
X67051571Y-81515567D01*
X67051574Y-81515569D01*
X67132415Y-81569585D01*
X67222587Y-81629836D01*
X67227895Y-81632117D01*
X67227896Y-81632117D01*
X67411560Y-81711025D01*
X67411563Y-81711026D01*
X67416863Y-81713303D01*
X67422492Y-81714577D01*
X67422493Y-81714577D01*
X67617460Y-81758694D01*
X67617463Y-81758694D01*
X67623096Y-81759969D01*
X67628867Y-81760196D01*
X67628869Y-81760196D01*
X67690899Y-81762633D01*
X67834380Y-81768271D01*
X67840089Y-81767443D01*
X67840093Y-81767443D01*
X68037925Y-81738758D01*
X68037929Y-81738757D01*
X68043640Y-81737929D01*
X68122897Y-81711025D01*
X68238393Y-81671820D01*
X68238398Y-81671818D01*
X68243865Y-81669962D01*
X68248908Y-81667138D01*
X68423305Y-81569471D01*
X68423309Y-81569468D01*
X68428352Y-81566644D01*
X68590922Y-81431437D01*
X68726129Y-81268867D01*
X68728953Y-81263824D01*
X68728956Y-81263820D01*
X68826623Y-81089423D01*
X68826624Y-81089421D01*
X68829447Y-81084380D01*
X68831303Y-81078913D01*
X68831305Y-81078908D01*
X68892416Y-80898878D01*
X68897414Y-80884155D01*
X68909237Y-80802619D01*
X68927224Y-80678565D01*
X68927224Y-80678563D01*
X68927756Y-80674895D01*
X68929339Y-80614425D01*
X68909991Y-80403865D01*
X68907400Y-80394676D01*
X68880248Y-80298403D01*
X68852596Y-80200356D01*
X68847950Y-80190933D01*
X68761629Y-80015894D01*
X68759075Y-80010715D01*
X68665715Y-79885690D01*
X68636014Y-79845916D01*
X68636013Y-79845915D01*
X68632561Y-79841292D01*
X68489957Y-79709470D01*
X68481532Y-79701682D01*
X68481530Y-79701680D01*
X68477291Y-79697762D01*
X68342982Y-79613019D01*
X68303344Y-79588009D01*
X68303343Y-79588009D01*
X68298464Y-79584930D01*
X68102070Y-79506577D01*
X68096413Y-79505452D01*
X68096407Y-79505450D01*
X67900352Y-79466453D01*
X67900350Y-79466453D01*
X67894685Y-79465326D01*
X67888910Y-79465250D01*
X67888906Y-79465250D01*
X67782886Y-79463862D01*
X67683256Y-79462558D01*
X67677559Y-79463537D01*
X67677558Y-79463537D01*
X67480560Y-79497387D01*
X67480559Y-79497387D01*
X67474863Y-79498366D01*
X67276485Y-79571552D01*
X67271524Y-79574504D01*
X67271523Y-79574504D01*
X67110869Y-79670083D01*
X67094766Y-79679663D01*
X66935791Y-79819080D01*
X66804886Y-79985133D01*
X66802197Y-79990244D01*
X66802195Y-79990247D01*
X66781756Y-80029095D01*
X66706433Y-80172261D01*
X66667265Y-80298403D01*
X66648811Y-80357836D01*
X66643730Y-80374198D01*
X66618877Y-80584179D01*
X64701695Y-80584179D01*
X64784814Y-80449334D01*
X64803198Y-80393910D01*
X64837744Y-80289759D01*
X64837745Y-80289757D01*
X64839910Y-80283228D01*
X64850500Y-80179866D01*
X64850500Y-78963671D01*
X64870502Y-78895550D01*
X64924158Y-78849057D01*
X64994432Y-78838953D01*
X65059012Y-78868447D01*
X65079397Y-78890951D01*
X65121405Y-78950391D01*
X65135037Y-78963671D01*
X65260971Y-79086350D01*
X65272865Y-79097937D01*
X65277661Y-79101142D01*
X65277664Y-79101144D01*
X65388497Y-79175200D01*
X65448677Y-79215411D01*
X65453985Y-79217692D01*
X65453986Y-79217692D01*
X65637650Y-79296600D01*
X65637653Y-79296601D01*
X65642953Y-79298878D01*
X65648582Y-79300152D01*
X65648583Y-79300152D01*
X65843550Y-79344269D01*
X65843553Y-79344269D01*
X65849186Y-79345544D01*
X65854957Y-79345771D01*
X65854959Y-79345771D01*
X65916989Y-79348208D01*
X66060470Y-79353846D01*
X66066179Y-79353018D01*
X66066183Y-79353018D01*
X66264015Y-79324333D01*
X66264019Y-79324332D01*
X66269730Y-79323504D01*
X66353120Y-79295197D01*
X66464483Y-79257395D01*
X66464488Y-79257393D01*
X66469955Y-79255537D01*
X66529097Y-79222416D01*
X66649395Y-79155046D01*
X66649399Y-79155043D01*
X66654442Y-79152219D01*
X66817012Y-79017012D01*
X66952219Y-78854442D01*
X66955043Y-78849399D01*
X66955046Y-78849395D01*
X67052713Y-78674998D01*
X67052714Y-78674996D01*
X67055537Y-78669955D01*
X67057393Y-78664488D01*
X67057395Y-78664483D01*
X67118001Y-78485942D01*
X67123504Y-78469730D01*
X67124904Y-78460079D01*
X67153314Y-78264140D01*
X67153314Y-78264138D01*
X67153846Y-78260470D01*
X67155429Y-78200000D01*
X67136081Y-77989440D01*
X67130703Y-77970369D01*
X67105253Y-77880131D01*
X67078686Y-77785931D01*
X67068616Y-77765510D01*
X66987719Y-77601469D01*
X66985165Y-77596290D01*
X66858651Y-77426867D01*
X66719175Y-77297937D01*
X66707622Y-77287257D01*
X66707620Y-77287255D01*
X66703381Y-77283337D01*
X66625884Y-77234440D01*
X66529434Y-77173584D01*
X66529433Y-77173584D01*
X66524554Y-77170505D01*
X66328160Y-77092152D01*
X66322503Y-77091027D01*
X66322497Y-77091025D01*
X66126442Y-77052028D01*
X66126440Y-77052028D01*
X66120775Y-77050901D01*
X66115000Y-77050825D01*
X66114996Y-77050825D01*
X66008976Y-77049437D01*
X65909346Y-77048133D01*
X65903649Y-77049112D01*
X65903648Y-77049112D01*
X65706650Y-77082962D01*
X65706649Y-77082962D01*
X65700953Y-77083941D01*
X65502575Y-77157127D01*
X65497614Y-77160079D01*
X65497613Y-77160079D01*
X65385060Y-77227041D01*
X65320856Y-77265238D01*
X65161881Y-77404655D01*
X65030976Y-77570708D01*
X65028287Y-77575819D01*
X65028285Y-77575822D01*
X64981098Y-77665510D01*
X64932523Y-77757836D01*
X64892983Y-77885178D01*
X64889392Y-77896742D01*
X64850089Y-77955867D01*
X64785060Y-77984358D01*
X64714950Y-77973168D01*
X64680041Y-77948551D01*
X64573491Y-77842187D01*
X64568311Y-77837016D01*
X64553156Y-77827674D01*
X64464330Y-77772922D01*
X64419334Y-77745186D01*
X64346423Y-77721002D01*
X64259759Y-77692256D01*
X64259757Y-77692255D01*
X64253228Y-77690090D01*
X64149866Y-77679500D01*
X62350134Y-77679500D01*
X62346888Y-77679837D01*
X62346884Y-77679837D01*
X62252339Y-77689647D01*
X62252335Y-77689648D01*
X62245481Y-77690359D01*
X62238945Y-77692540D01*
X62238943Y-77692540D01*
X62162861Y-77717923D01*
X62079471Y-77745744D01*
X61930655Y-77837834D01*
X61925482Y-77843016D01*
X61915673Y-77852842D01*
X61853390Y-77886921D01*
X61782570Y-77881918D01*
X61725697Y-77839420D01*
X61700829Y-77772922D01*
X61700500Y-77763824D01*
X61700500Y-76369754D01*
X68844967Y-76369754D01*
X68858796Y-76580749D01*
X68860217Y-76586345D01*
X68860218Y-76586350D01*
X68901307Y-76748133D01*
X68910845Y-76785690D01*
X68913262Y-76790933D01*
X68995374Y-76969048D01*
X68999369Y-76977714D01*
X69121405Y-77150391D01*
X69178752Y-77206256D01*
X69266424Y-77291662D01*
X69272865Y-77297937D01*
X69277661Y-77301142D01*
X69277664Y-77301144D01*
X69374984Y-77366171D01*
X69448677Y-77415411D01*
X69453985Y-77417692D01*
X69453986Y-77417692D01*
X69637650Y-77496600D01*
X69637653Y-77496601D01*
X69642953Y-77498878D01*
X69648582Y-77500152D01*
X69648583Y-77500152D01*
X69843550Y-77544269D01*
X69843553Y-77544269D01*
X69849186Y-77545544D01*
X69854957Y-77545771D01*
X69854959Y-77545771D01*
X69916989Y-77548208D01*
X70060470Y-77553846D01*
X70066179Y-77553018D01*
X70066183Y-77553018D01*
X70264015Y-77524333D01*
X70264019Y-77524332D01*
X70269730Y-77523504D01*
X70380417Y-77485931D01*
X70464483Y-77457395D01*
X70464488Y-77457393D01*
X70469955Y-77455537D01*
X70474998Y-77452713D01*
X70649395Y-77355046D01*
X70649399Y-77355043D01*
X70654442Y-77352219D01*
X70817012Y-77217012D01*
X70952219Y-77054442D01*
X70955043Y-77049399D01*
X70955046Y-77049395D01*
X71052713Y-76874998D01*
X71052714Y-76874996D01*
X71055537Y-76869955D01*
X71057393Y-76864488D01*
X71057395Y-76864483D01*
X71121647Y-76675200D01*
X71123504Y-76669730D01*
X71133406Y-76601444D01*
X71153314Y-76464140D01*
X71153314Y-76464138D01*
X71153846Y-76460470D01*
X71155429Y-76400000D01*
X71136081Y-76189440D01*
X71102326Y-76069754D01*
X75844967Y-76069754D01*
X75858796Y-76280749D01*
X75860217Y-76286345D01*
X75860218Y-76286350D01*
X75882784Y-76375200D01*
X75910845Y-76485690D01*
X75999369Y-76677714D01*
X76121405Y-76850391D01*
X76125539Y-76854418D01*
X76259577Y-76984992D01*
X76272865Y-76997937D01*
X76277661Y-77001142D01*
X76277664Y-77001144D01*
X76364084Y-77058888D01*
X76448677Y-77115411D01*
X76453985Y-77117692D01*
X76453986Y-77117692D01*
X76637650Y-77196600D01*
X76637653Y-77196601D01*
X76642953Y-77198878D01*
X76648582Y-77200152D01*
X76648583Y-77200152D01*
X76843550Y-77244269D01*
X76843553Y-77244269D01*
X76849186Y-77245544D01*
X76854957Y-77245771D01*
X76854959Y-77245771D01*
X76916989Y-77248208D01*
X77060470Y-77253846D01*
X77066179Y-77253018D01*
X77066183Y-77253018D01*
X77264015Y-77224333D01*
X77264019Y-77224332D01*
X77269730Y-77223504D01*
X77337527Y-77200490D01*
X78473339Y-77200490D01*
X78487168Y-77411485D01*
X78488589Y-77417081D01*
X78488590Y-77417086D01*
X78532928Y-77591662D01*
X78539217Y-77616426D01*
X78541634Y-77621669D01*
X78607168Y-77763824D01*
X78627741Y-77808450D01*
X78749777Y-77981127D01*
X78818639Y-78048209D01*
X78881526Y-78109471D01*
X78901237Y-78128673D01*
X78906033Y-78131878D01*
X78906036Y-78131880D01*
X78988914Y-78187257D01*
X79077049Y-78246147D01*
X79082357Y-78248428D01*
X79082358Y-78248428D01*
X79266022Y-78327336D01*
X79266025Y-78327337D01*
X79271325Y-78329614D01*
X79276954Y-78330888D01*
X79276955Y-78330888D01*
X79471922Y-78375005D01*
X79471925Y-78375005D01*
X79477558Y-78376280D01*
X79483329Y-78376507D01*
X79483331Y-78376507D01*
X79545361Y-78378944D01*
X79688842Y-78384582D01*
X79694551Y-78383754D01*
X79694555Y-78383754D01*
X79892387Y-78355069D01*
X79892391Y-78355068D01*
X79898102Y-78354240D01*
X79990277Y-78322951D01*
X80092855Y-78288131D01*
X80092860Y-78288129D01*
X80098327Y-78286273D01*
X80103570Y-78283337D01*
X80277767Y-78185782D01*
X80277771Y-78185779D01*
X80282814Y-78182955D01*
X80445384Y-78047748D01*
X80580591Y-77885178D01*
X80583415Y-77880135D01*
X80583418Y-77880131D01*
X80681085Y-77705734D01*
X80681086Y-77705732D01*
X80683909Y-77700691D01*
X80685765Y-77695224D01*
X80685767Y-77695219D01*
X80750019Y-77505936D01*
X80751876Y-77500466D01*
X80753178Y-77491490D01*
X80781686Y-77294876D01*
X80781686Y-77294874D01*
X80782218Y-77291206D01*
X80783801Y-77230736D01*
X80764453Y-77020176D01*
X80759086Y-77001144D01*
X80723110Y-76873584D01*
X80707058Y-76816667D01*
X80694383Y-76790965D01*
X80682192Y-76721024D01*
X80697453Y-76673671D01*
X80755537Y-76569955D01*
X80757393Y-76564488D01*
X80757395Y-76564483D01*
X80814483Y-76396305D01*
X80823504Y-76369730D01*
X80849646Y-76189440D01*
X80853314Y-76164140D01*
X80853314Y-76164138D01*
X80853846Y-76160470D01*
X80855429Y-76100000D01*
X80836081Y-75889440D01*
X80802596Y-75770708D01*
X80800455Y-75763118D01*
X80801215Y-75692126D01*
X80840236Y-75632814D01*
X80905130Y-75604015D01*
X80949532Y-75606024D01*
X81118549Y-75644269D01*
X81118555Y-75644270D01*
X81124186Y-75645544D01*
X81129957Y-75645771D01*
X81129959Y-75645771D01*
X81191989Y-75648208D01*
X81335470Y-75653846D01*
X81341179Y-75653018D01*
X81341183Y-75653018D01*
X81539015Y-75624333D01*
X81539019Y-75624332D01*
X81544730Y-75623504D01*
X81623987Y-75596600D01*
X81739483Y-75557395D01*
X81739488Y-75557393D01*
X81744955Y-75555537D01*
X81749998Y-75552713D01*
X81924395Y-75455046D01*
X81924399Y-75455043D01*
X81929442Y-75452219D01*
X82017075Y-75379336D01*
X82082239Y-75351155D01*
X82152295Y-75362679D01*
X82185566Y-75385955D01*
X82197865Y-75397937D01*
X82202661Y-75401142D01*
X82202664Y-75401144D01*
X82294167Y-75462284D01*
X82373677Y-75515411D01*
X82378985Y-75517692D01*
X82378986Y-75517692D01*
X82562650Y-75596600D01*
X82562653Y-75596601D01*
X82567953Y-75598878D01*
X82573582Y-75600152D01*
X82573583Y-75600152D01*
X82768550Y-75644269D01*
X82768553Y-75644269D01*
X82774186Y-75645544D01*
X82779957Y-75645771D01*
X82779959Y-75645771D01*
X82841989Y-75648208D01*
X82985470Y-75653846D01*
X82991179Y-75653018D01*
X82991183Y-75653018D01*
X83189015Y-75624333D01*
X83189019Y-75624332D01*
X83194730Y-75623504D01*
X83273987Y-75596600D01*
X83389483Y-75557395D01*
X83389488Y-75557393D01*
X83394955Y-75555537D01*
X83399998Y-75552713D01*
X83574395Y-75455046D01*
X83574399Y-75455043D01*
X83579442Y-75452219D01*
X83742012Y-75317012D01*
X83877219Y-75154442D01*
X83880043Y-75149399D01*
X83880046Y-75149395D01*
X83977713Y-74974998D01*
X83977714Y-74974996D01*
X83980537Y-74969955D01*
X83982393Y-74964488D01*
X83982395Y-74964483D01*
X84046647Y-74775200D01*
X84048504Y-74769730D01*
X84060594Y-74686353D01*
X84078314Y-74564140D01*
X84078314Y-74564138D01*
X84078846Y-74560470D01*
X84080429Y-74500000D01*
X84061081Y-74289440D01*
X84003686Y-74085931D01*
X84000400Y-74079266D01*
X83912719Y-73901469D01*
X83910165Y-73896290D01*
X83839656Y-73801867D01*
X83814924Y-73735319D01*
X83819495Y-73691751D01*
X83840302Y-73619187D01*
X83850500Y-73504924D01*
X83850500Y-72495076D01*
X83840302Y-72380813D01*
X83816464Y-72297679D01*
X83788835Y-72201324D01*
X83788834Y-72201322D01*
X83787077Y-72195194D01*
X83697615Y-72024070D01*
X83637899Y-71950850D01*
X83579600Y-71879369D01*
X83575571Y-71874429D01*
X83499374Y-71812284D01*
X83430873Y-71756416D01*
X83430870Y-71756414D01*
X83425930Y-71752385D01*
X83254806Y-71662923D01*
X83248678Y-71661166D01*
X83248676Y-71661165D01*
X83150319Y-71632962D01*
X83069187Y-71609698D01*
X83036904Y-71606817D01*
X82957717Y-71599749D01*
X82957711Y-71599749D01*
X82954924Y-71599500D01*
X82445076Y-71599500D01*
X82442289Y-71599749D01*
X82442283Y-71599749D01*
X82363096Y-71606817D01*
X82330813Y-71609698D01*
X82145194Y-71662923D01*
X82081338Y-71696306D01*
X82060165Y-71707375D01*
X81990529Y-71721209D01*
X81955100Y-71712743D01*
X81783524Y-71644292D01*
X81778160Y-71642152D01*
X81772503Y-71641027D01*
X81772497Y-71641025D01*
X81576442Y-71602028D01*
X81576440Y-71602028D01*
X81570775Y-71600901D01*
X81565000Y-71600825D01*
X81564996Y-71600825D01*
X81458976Y-71599437D01*
X81359346Y-71598133D01*
X81353649Y-71599112D01*
X81353648Y-71599112D01*
X81156650Y-71632962D01*
X81156649Y-71632962D01*
X81150953Y-71633941D01*
X80952575Y-71707127D01*
X80947614Y-71710079D01*
X80947613Y-71710079D01*
X80930089Y-71720505D01*
X80770856Y-71815238D01*
X80611881Y-71954655D01*
X80480976Y-72120708D01*
X80478287Y-72125819D01*
X80478285Y-72125822D01*
X80441787Y-72195194D01*
X80382523Y-72307836D01*
X80346369Y-72424272D01*
X80324384Y-72495076D01*
X80319820Y-72509773D01*
X80319141Y-72515510D01*
X80300293Y-72674758D01*
X80299500Y-72681455D01*
X80299500Y-73303641D01*
X80313919Y-73460560D01*
X80315488Y-73466122D01*
X80315488Y-73466124D01*
X80356972Y-73613214D01*
X80371314Y-73664069D01*
X80373872Y-73669257D01*
X80375940Y-73674643D01*
X80374775Y-73675090D01*
X80385887Y-73738840D01*
X80359641Y-73802634D01*
X80305976Y-73870708D01*
X80303287Y-73875819D01*
X80303285Y-73875822D01*
X80289792Y-73901469D01*
X80207523Y-74057836D01*
X80144820Y-74259773D01*
X80119967Y-74469754D01*
X80133796Y-74680749D01*
X80135219Y-74686350D01*
X80135219Y-74686353D01*
X80173554Y-74837298D01*
X80170936Y-74908246D01*
X80130375Y-74966516D01*
X80064751Y-74993607D01*
X80026854Y-74991892D01*
X79882868Y-74963252D01*
X79826442Y-74952028D01*
X79826440Y-74952028D01*
X79820775Y-74950901D01*
X79815000Y-74950825D01*
X79814996Y-74950825D01*
X79708976Y-74949437D01*
X79609346Y-74948133D01*
X79603649Y-74949112D01*
X79603648Y-74949112D01*
X79406650Y-74982962D01*
X79406649Y-74982962D01*
X79400953Y-74983941D01*
X79202575Y-75057127D01*
X79197614Y-75060079D01*
X79197613Y-75060079D01*
X79039003Y-75154442D01*
X79020856Y-75165238D01*
X78861881Y-75304655D01*
X78730976Y-75470708D01*
X78728287Y-75475819D01*
X78728285Y-75475822D01*
X78635217Y-75652715D01*
X78632523Y-75657836D01*
X78569820Y-75859773D01*
X78544967Y-76069754D01*
X78558796Y-76280749D01*
X78560217Y-76286345D01*
X78560218Y-76286350D01*
X78582784Y-76375200D01*
X78610845Y-76485690D01*
X78635925Y-76540094D01*
X78646280Y-76610329D01*
X78633008Y-76651508D01*
X78560895Y-76788572D01*
X78498192Y-76990509D01*
X78473339Y-77200490D01*
X77337527Y-77200490D01*
X77354422Y-77194755D01*
X77464483Y-77157395D01*
X77464488Y-77157393D01*
X77469955Y-77155537D01*
X77487563Y-77145676D01*
X77649395Y-77055046D01*
X77649399Y-77055043D01*
X77654442Y-77052219D01*
X77817012Y-76917012D01*
X77952219Y-76754442D01*
X77955043Y-76749399D01*
X77955046Y-76749395D01*
X78052713Y-76574998D01*
X78052714Y-76574996D01*
X78055537Y-76569955D01*
X78057393Y-76564488D01*
X78057395Y-76564483D01*
X78114483Y-76396305D01*
X78123504Y-76369730D01*
X78149646Y-76189440D01*
X78153314Y-76164140D01*
X78153314Y-76164138D01*
X78153846Y-76160470D01*
X78155429Y-76100000D01*
X78136081Y-75889440D01*
X78078686Y-75685931D01*
X78067553Y-75663354D01*
X77987719Y-75501469D01*
X77985165Y-75496290D01*
X77858651Y-75326867D01*
X77703381Y-75183337D01*
X77664632Y-75158888D01*
X77529434Y-75073584D01*
X77529433Y-75073584D01*
X77524554Y-75070505D01*
X77328160Y-74992152D01*
X77322503Y-74991027D01*
X77322497Y-74991025D01*
X77126442Y-74952028D01*
X77126440Y-74952028D01*
X77120775Y-74950901D01*
X77115000Y-74950825D01*
X77114996Y-74950825D01*
X77008976Y-74949437D01*
X76909346Y-74948133D01*
X76903649Y-74949112D01*
X76903648Y-74949112D01*
X76706650Y-74982962D01*
X76706649Y-74982962D01*
X76700953Y-74983941D01*
X76502575Y-75057127D01*
X76497614Y-75060079D01*
X76497613Y-75060079D01*
X76339003Y-75154442D01*
X76320856Y-75165238D01*
X76161881Y-75304655D01*
X76030976Y-75470708D01*
X76028287Y-75475819D01*
X76028285Y-75475822D01*
X75935217Y-75652715D01*
X75932523Y-75657836D01*
X75869820Y-75859773D01*
X75844967Y-76069754D01*
X71102326Y-76069754D01*
X71078686Y-75985931D01*
X71067553Y-75963354D01*
X70987719Y-75801469D01*
X70985165Y-75796290D01*
X70858651Y-75626867D01*
X70740546Y-75517692D01*
X70707622Y-75487257D01*
X70707620Y-75487255D01*
X70703381Y-75483337D01*
X70568031Y-75397937D01*
X70529434Y-75373584D01*
X70529433Y-75373584D01*
X70524554Y-75370505D01*
X70328160Y-75292152D01*
X70322503Y-75291027D01*
X70322497Y-75291025D01*
X70126442Y-75252028D01*
X70126440Y-75252028D01*
X70120775Y-75250901D01*
X70115000Y-75250825D01*
X70114996Y-75250825D01*
X70008976Y-75249437D01*
X69909346Y-75248133D01*
X69903649Y-75249112D01*
X69903648Y-75249112D01*
X69706650Y-75282962D01*
X69706649Y-75282962D01*
X69700953Y-75283941D01*
X69502575Y-75357127D01*
X69497614Y-75360079D01*
X69497613Y-75360079D01*
X69480089Y-75370505D01*
X69320856Y-75465238D01*
X69161881Y-75604655D01*
X69030976Y-75770708D01*
X69028287Y-75775819D01*
X69028285Y-75775822D01*
X68981098Y-75865510D01*
X68932523Y-75957836D01*
X68869820Y-76159773D01*
X68844967Y-76369754D01*
X61700500Y-76369754D01*
X61700500Y-74161599D01*
X61701726Y-74144063D01*
X61704404Y-74125010D01*
X61704404Y-74125007D01*
X61704955Y-74121088D01*
X61705249Y-74100000D01*
X61704809Y-74096081D01*
X61704809Y-74096072D01*
X61702924Y-74079266D01*
X61702259Y-74059728D01*
X61718904Y-73678476D01*
X61719862Y-73667526D01*
X61721050Y-73658502D01*
X61774217Y-73254654D01*
X61776125Y-73243837D01*
X61866255Y-72837288D01*
X61869100Y-72826670D01*
X61994323Y-72429516D01*
X61998079Y-72419194D01*
X62013977Y-72380813D01*
X62157446Y-72034449D01*
X62162079Y-72024514D01*
X62354373Y-71655122D01*
X62359863Y-71645613D01*
X62583606Y-71294407D01*
X62589910Y-71285403D01*
X62843420Y-70955021D01*
X62850486Y-70946601D01*
X63118746Y-70653846D01*
X63131817Y-70639582D01*
X63139586Y-70631813D01*
X63150681Y-70621647D01*
X63446604Y-70350484D01*
X63455021Y-70343420D01*
X63484627Y-70320703D01*
X63785403Y-70089910D01*
X63794407Y-70083606D01*
X64145613Y-69859863D01*
X64155122Y-69854373D01*
X64524514Y-69662079D01*
X64534449Y-69657446D01*
X64919202Y-69498076D01*
X64929516Y-69494323D01*
X65326671Y-69369100D01*
X65337288Y-69366255D01*
X65449812Y-69341309D01*
X65743846Y-69276123D01*
X65754654Y-69274217D01*
X66167527Y-69219862D01*
X66178475Y-69218904D01*
X66553983Y-69202509D01*
X66575269Y-69203383D01*
X66589455Y-69205175D01*
X66596462Y-69204488D01*
X66596465Y-69204488D01*
X66631005Y-69201101D01*
X66643300Y-69200500D01*
X69235042Y-69200500D01*
X69303163Y-69220502D01*
G37*
%TD.AperFunction*%
%TD*%
M02*
