%TF.GenerationSoftware,KiCad,Pcbnew,(6.0.6)*%
%TF.CreationDate,2023-03-01T01:58:39-05:00*%
%TF.ProjectId,Driver-Board,44726976-6572-42d4-926f-6172642e6b69,rev?*%
%TF.SameCoordinates,Original*%
%TF.FileFunction,Soldermask,Top*%
%TF.FilePolarity,Negative*%
%FSLAX46Y46*%
G04 Gerber Fmt 4.6, Leading zero omitted, Abs format (unit mm)*
G04 Created by KiCad (PCBNEW (6.0.6)) date 2023-03-01 01:58:39*
%MOMM*%
%LPD*%
G01*
G04 APERTURE LIST*
G04 Aperture macros list*
%AMRoundRect*
0 Rectangle with rounded corners*
0 $1 Rounding radius*
0 $2 $3 $4 $5 $6 $7 $8 $9 X,Y pos of 4 corners*
0 Add a 4 corners polygon primitive as box body*
4,1,4,$2,$3,$4,$5,$6,$7,$8,$9,$2,$3,0*
0 Add four circle primitives for the rounded corners*
1,1,$1+$1,$2,$3*
1,1,$1+$1,$4,$5*
1,1,$1+$1,$6,$7*
1,1,$1+$1,$8,$9*
0 Add four rect primitives between the rounded corners*
20,1,$1+$1,$2,$3,$4,$5,0*
20,1,$1+$1,$4,$5,$6,$7,0*
20,1,$1+$1,$6,$7,$8,$9,0*
20,1,$1+$1,$8,$9,$2,$3,0*%
G04 Aperture macros list end*
%ADD10RoundRect,0.200000X-0.200000X-0.275000X0.200000X-0.275000X0.200000X0.275000X-0.200000X0.275000X0*%
%ADD11RoundRect,0.135000X0.135000X0.185000X-0.135000X0.185000X-0.135000X-0.185000X0.135000X-0.185000X0*%
%ADD12RoundRect,0.140000X0.140000X0.170000X-0.140000X0.170000X-0.140000X-0.170000X0.140000X-0.170000X0*%
%ADD13RoundRect,0.225000X-0.250000X0.225000X-0.250000X-0.225000X0.250000X-0.225000X0.250000X0.225000X0*%
%ADD14RoundRect,0.225000X0.225000X0.250000X-0.225000X0.250000X-0.225000X-0.250000X0.225000X-0.250000X0*%
%ADD15RoundRect,0.140000X0.170000X-0.140000X0.170000X0.140000X-0.170000X0.140000X-0.170000X-0.140000X0*%
%ADD16RoundRect,0.075000X0.075000X-0.662500X0.075000X0.662500X-0.075000X0.662500X-0.075000X-0.662500X0*%
%ADD17RoundRect,0.075000X0.662500X-0.075000X0.662500X0.075000X-0.662500X0.075000X-0.662500X-0.075000X0*%
%ADD18RoundRect,0.250000X0.625000X-0.375000X0.625000X0.375000X-0.625000X0.375000X-0.625000X-0.375000X0*%
%ADD19RoundRect,0.225000X-0.225000X-0.250000X0.225000X-0.250000X0.225000X0.250000X-0.225000X0.250000X0*%
%ADD20RoundRect,0.200000X0.200000X0.450000X-0.200000X0.450000X-0.200000X-0.450000X0.200000X-0.450000X0*%
%ADD21O,0.800000X1.300000*%
%ADD22RoundRect,0.140000X-0.170000X0.140000X-0.170000X-0.140000X0.170000X-0.140000X0.170000X0.140000X0*%
%ADD23RoundRect,0.135000X-0.135000X-0.185000X0.135000X-0.185000X0.135000X0.185000X-0.135000X0.185000X0*%
%ADD24RoundRect,0.040600X-0.944400X-0.249400X0.944400X-0.249400X0.944400X0.249400X-0.944400X0.249400X0*%
%ADD25R,2.285000X2.285000*%
%ADD26RoundRect,0.140000X-0.140000X-0.170000X0.140000X-0.170000X0.140000X0.170000X-0.140000X0.170000X0*%
%ADD27RoundRect,0.135000X0.185000X-0.135000X0.185000X0.135000X-0.185000X0.135000X-0.185000X-0.135000X0*%
%ADD28C,0.800000*%
%ADD29C,6.400000*%
%ADD30RoundRect,0.150000X0.587500X0.150000X-0.587500X0.150000X-0.587500X-0.150000X0.587500X-0.150000X0*%
%ADD31RoundRect,0.200000X-0.200000X-0.450000X0.200000X-0.450000X0.200000X0.450000X-0.200000X0.450000X0*%
%ADD32R,1.200000X0.900000*%
%ADD33RoundRect,0.200000X0.275000X-0.200000X0.275000X0.200000X-0.275000X0.200000X-0.275000X-0.200000X0*%
%ADD34RoundRect,0.250000X-0.625000X0.312500X-0.625000X-0.312500X0.625000X-0.312500X0.625000X0.312500X0*%
%ADD35RoundRect,0.218750X0.256250X-0.218750X0.256250X0.218750X-0.256250X0.218750X-0.256250X-0.218750X0*%
%ADD36RoundRect,0.150000X0.150000X-0.825000X0.150000X0.825000X-0.150000X0.825000X-0.150000X-0.825000X0*%
%ADD37RoundRect,0.250000X-0.650000X0.325000X-0.650000X-0.325000X0.650000X-0.325000X0.650000X0.325000X0*%
%ADD38RoundRect,0.250000X0.625000X-0.312500X0.625000X0.312500X-0.625000X0.312500X-0.625000X-0.312500X0*%
%ADD39RoundRect,0.218750X-0.218750X-0.381250X0.218750X-0.381250X0.218750X0.381250X-0.218750X0.381250X0*%
%ADD40R,1.400000X1.000000*%
%ADD41RoundRect,0.412500X-0.412500X1.337500X-0.412500X-1.337500X0.412500X-1.337500X0.412500X1.337500X0*%
%ADD42R,2.500000X1.900000*%
%ADD43R,1.200000X1.400000*%
%ADD44R,1.400000X1.600000*%
%ADD45RoundRect,0.250000X0.650000X-0.325000X0.650000X0.325000X-0.650000X0.325000X-0.650000X-0.325000X0*%
%ADD46R,1.700000X1.700000*%
%ADD47O,1.700000X1.700000*%
%ADD48RoundRect,0.150000X-0.150000X0.512500X-0.150000X-0.512500X0.150000X-0.512500X0.150000X0.512500X0*%
%ADD49RoundRect,0.135000X-0.185000X0.135000X-0.185000X-0.135000X0.185000X-0.135000X0.185000X0.135000X0*%
%ADD50RoundRect,0.250000X-0.312500X-0.625000X0.312500X-0.625000X0.312500X0.625000X-0.312500X0.625000X0*%
G04 APERTURE END LIST*
D10*
%TO.C,R19*%
X75625000Y-74450000D03*
X77275000Y-74450000D03*
%TD*%
D11*
%TO.C,R4*%
X67010000Y-80050000D03*
X65990000Y-80050000D03*
%TD*%
D12*
%TO.C,C13*%
X69030000Y-84400000D03*
X68070000Y-84400000D03*
%TD*%
D13*
%TO.C,C5*%
X69400000Y-99525000D03*
X69400000Y-101075000D03*
%TD*%
D14*
%TO.C,C3*%
X72400000Y-94400000D03*
X70850000Y-94400000D03*
%TD*%
D15*
%TO.C,C28*%
X92600000Y-100780000D03*
X92600000Y-99820000D03*
%TD*%
D10*
%TO.C,R9*%
X81275000Y-75400000D03*
X82925000Y-75400000D03*
%TD*%
D16*
%TO.C,U7*%
X70700000Y-84762500D03*
X71200000Y-84762500D03*
X71700000Y-84762500D03*
X72200000Y-84762500D03*
X72700000Y-84762500D03*
X73200000Y-84762500D03*
X73700000Y-84762500D03*
X74200000Y-84762500D03*
X74700000Y-84762500D03*
X75200000Y-84762500D03*
X75700000Y-84762500D03*
X76200000Y-84762500D03*
D17*
X77612500Y-83350000D03*
X77612500Y-82850000D03*
X77612500Y-82350000D03*
X77612500Y-81850000D03*
X77612500Y-81350000D03*
X77612500Y-80850000D03*
X77612500Y-80350000D03*
X77612500Y-79850000D03*
X77612500Y-79350000D03*
X77612500Y-78850000D03*
X77612500Y-78350000D03*
X77612500Y-77850000D03*
D16*
X76200000Y-76437500D03*
X75700000Y-76437500D03*
X75200000Y-76437500D03*
X74700000Y-76437500D03*
X74200000Y-76437500D03*
X73700000Y-76437500D03*
X73200000Y-76437500D03*
X72700000Y-76437500D03*
X72200000Y-76437500D03*
X71700000Y-76437500D03*
X71200000Y-76437500D03*
X70700000Y-76437500D03*
D17*
X69287500Y-77850000D03*
X69287500Y-78350000D03*
X69287500Y-78850000D03*
X69287500Y-79350000D03*
X69287500Y-79850000D03*
X69287500Y-80350000D03*
X69287500Y-80850000D03*
X69287500Y-81350000D03*
X69287500Y-81850000D03*
X69287500Y-82350000D03*
X69287500Y-82850000D03*
X69287500Y-83350000D03*
%TD*%
D18*
%TO.C,F1*%
X87350000Y-106100000D03*
X87350000Y-103300000D03*
%TD*%
D12*
%TO.C,C29*%
X93200000Y-77800000D03*
X92240000Y-77800000D03*
%TD*%
D19*
%TO.C,C8*%
X73775000Y-101250000D03*
X75325000Y-101250000D03*
%TD*%
D20*
%TO.C,J3*%
X82700000Y-73000000D03*
D21*
X81450000Y-73000000D03*
%TD*%
D11*
%TO.C,R5*%
X67010000Y-81200000D03*
X65990000Y-81200000D03*
%TD*%
D22*
%TO.C,C21*%
X86400000Y-90050000D03*
X86400000Y-91010000D03*
%TD*%
D23*
%TO.C,R12*%
X65990000Y-82300000D03*
X67010000Y-82300000D03*
%TD*%
%TO.C,R18*%
X94210000Y-77800000D03*
X95230000Y-77800000D03*
%TD*%
D22*
%TO.C,C17*%
X68500000Y-85520000D03*
X68500000Y-86480000D03*
%TD*%
D19*
%TO.C,C10*%
X77975000Y-96500000D03*
X79525000Y-96500000D03*
%TD*%
D24*
%TO.C,U6*%
X93512500Y-81095000D03*
X93512500Y-82365000D03*
X93512500Y-83635000D03*
X93512500Y-84905000D03*
X98452500Y-84905000D03*
X98452500Y-83635000D03*
X98452500Y-82365000D03*
X98452500Y-81095000D03*
D25*
X95982500Y-83000000D03*
%TD*%
D26*
%TO.C,C16*%
X74970000Y-86450000D03*
X75930000Y-86450000D03*
%TD*%
D27*
%TO.C,R14*%
X93800000Y-100810000D03*
X93800000Y-99790000D03*
%TD*%
D28*
%TO.C,H2*%
X100000000Y-105100000D03*
X99297056Y-103402944D03*
X97600000Y-107500000D03*
X95902944Y-106797056D03*
D29*
X97600000Y-105100000D03*
D28*
X95200000Y-105100000D03*
X95902944Y-103402944D03*
X99297056Y-106797056D03*
X97600000Y-102700000D03*
%TD*%
D22*
%TO.C,C19*%
X72500000Y-88920000D03*
X72500000Y-89880000D03*
%TD*%
D30*
%TO.C,U2*%
X72637500Y-97850000D03*
X72637500Y-95950000D03*
X70762500Y-96900000D03*
%TD*%
D26*
%TO.C,C11*%
X84620000Y-75500000D03*
X85580000Y-75500000D03*
%TD*%
%TO.C,C6*%
X66000000Y-78950000D03*
X66960000Y-78950000D03*
%TD*%
D15*
%TO.C,C20*%
X86450000Y-86980000D03*
X86450000Y-86020000D03*
%TD*%
D21*
%TO.C,J2*%
X82725000Y-106200000D03*
D31*
X81475000Y-106200000D03*
%TD*%
D32*
%TO.C,D1*%
X87400000Y-97350000D03*
X87400000Y-100650000D03*
%TD*%
D13*
%TO.C,C4*%
X71100000Y-99525000D03*
X71100000Y-101075000D03*
%TD*%
D33*
%TO.C,R2*%
X74200000Y-92925000D03*
X74200000Y-91275000D03*
%TD*%
D14*
%TO.C,C7*%
X79525000Y-94800000D03*
X77975000Y-94800000D03*
%TD*%
D34*
%TO.C,R15*%
X101300000Y-98337500D03*
X101300000Y-101262500D03*
%TD*%
D35*
%TO.C,D3*%
X73350000Y-71087500D03*
X73350000Y-69512500D03*
%TD*%
D28*
%TO.C,H1*%
X68900000Y-105100000D03*
X64802944Y-103402944D03*
X64100000Y-105100000D03*
X66500000Y-107500000D03*
X64802944Y-106797056D03*
X68197056Y-103402944D03*
X66500000Y-102700000D03*
X68197056Y-106797056D03*
D29*
X66500000Y-105100000D03*
%TD*%
D12*
%TO.C,C18*%
X70580000Y-86400000D03*
X69620000Y-86400000D03*
%TD*%
D35*
%TO.C,D2*%
X71650000Y-71087500D03*
X71650000Y-69512500D03*
%TD*%
D33*
%TO.C,R7*%
X75350000Y-97825000D03*
X75350000Y-96175000D03*
%TD*%
D36*
%TO.C,U3*%
X80795000Y-82525000D03*
X82065000Y-82525000D03*
X83335000Y-82525000D03*
X84605000Y-82525000D03*
X84605000Y-77575000D03*
X83335000Y-77575000D03*
X82065000Y-77575000D03*
X80795000Y-77575000D03*
%TD*%
D14*
%TO.C,C2*%
X72375000Y-92900000D03*
X70825000Y-92900000D03*
%TD*%
D37*
%TO.C,C26*%
X98300000Y-97625000D03*
X98300000Y-100575000D03*
%TD*%
D27*
%TO.C,R11*%
X73750000Y-87760000D03*
X73750000Y-86740000D03*
%TD*%
D24*
%TO.C,U5*%
X93430000Y-91695000D03*
X93430000Y-92965000D03*
X93430000Y-94235000D03*
X93430000Y-95505000D03*
X98370000Y-95505000D03*
X98370000Y-94235000D03*
X98370000Y-92965000D03*
X98370000Y-91695000D03*
D25*
X95900000Y-93600000D03*
%TD*%
D27*
%TO.C,R13*%
X92600000Y-102810000D03*
X92600000Y-101790000D03*
%TD*%
D15*
%TO.C,C14*%
X70750000Y-74780000D03*
X70750000Y-73820000D03*
%TD*%
D38*
%TO.C,R3*%
X76550000Y-106012500D03*
X76550000Y-103087500D03*
%TD*%
D39*
%TO.C,FB1*%
X78787500Y-103250000D03*
X80912500Y-103250000D03*
%TD*%
D40*
%TO.C,Q1*%
X82900000Y-101500000D03*
X82900000Y-103400000D03*
X85100000Y-102450000D03*
%TD*%
D37*
%TO.C,C24*%
X95800000Y-97625000D03*
X95800000Y-100575000D03*
%TD*%
D41*
%TO.C,J6*%
X87225000Y-70225000D03*
X76975000Y-70225000D03*
%TD*%
D15*
%TO.C,C15*%
X78700000Y-76680000D03*
X78700000Y-75720000D03*
%TD*%
D12*
%TO.C,C9*%
X83180000Y-84400000D03*
X82220000Y-84400000D03*
%TD*%
D37*
%TO.C,C23*%
X98300000Y-86925000D03*
X98300000Y-89875000D03*
%TD*%
D10*
%TO.C,R8*%
X72175000Y-72800000D03*
X73825000Y-72800000D03*
%TD*%
D42*
%TO.C,L1*%
X83300000Y-95200000D03*
X83300000Y-99300000D03*
%TD*%
D43*
%TO.C,Y1*%
X69150000Y-88250000D03*
X69150000Y-90450000D03*
X70850000Y-90450000D03*
X70850000Y-88250000D03*
%TD*%
D26*
%TO.C,C30*%
X94240000Y-78900000D03*
X95200000Y-78900000D03*
%TD*%
D10*
%TO.C,R6*%
X73725000Y-99550000D03*
X75375000Y-99550000D03*
%TD*%
D44*
%TO.C,SW1*%
X62550000Y-90850000D03*
X62550000Y-98050000D03*
X65550000Y-98050000D03*
X65550000Y-90850000D03*
%TD*%
D28*
%TO.C,H4*%
X95902944Y-75797056D03*
X99297056Y-72402944D03*
X97600000Y-76500000D03*
X97600000Y-71700000D03*
X100000000Y-74100000D03*
X95200000Y-74100000D03*
D29*
X97600000Y-74100000D03*
D28*
X99297056Y-75797056D03*
X95902944Y-72402944D03*
%TD*%
D23*
%TO.C,R17*%
X92210000Y-78900000D03*
X93230000Y-78900000D03*
%TD*%
D45*
%TO.C,C1*%
X73900000Y-106025000D03*
X73900000Y-103075000D03*
%TD*%
D46*
%TO.C,J1*%
X63250000Y-79280000D03*
D47*
X63250000Y-81820000D03*
X63250000Y-84360000D03*
X63250000Y-86900000D03*
%TD*%
D48*
%TO.C,U1*%
X79300000Y-98812500D03*
X78350000Y-98812500D03*
X77400000Y-98812500D03*
X77400000Y-101087500D03*
X78350000Y-101087500D03*
X79300000Y-101087500D03*
%TD*%
D41*
%TO.C,J5*%
X87350000Y-108975000D03*
X77100000Y-108975000D03*
%TD*%
D49*
%TO.C,R10*%
X72450000Y-86740000D03*
X72450000Y-87760000D03*
%TD*%
D19*
%TO.C,C12*%
X72225000Y-74450000D03*
X73775000Y-74450000D03*
%TD*%
D28*
%TO.C,H3*%
X64902944Y-75797056D03*
X68297056Y-72402944D03*
X69000000Y-74100000D03*
X64902944Y-72402944D03*
D29*
X66600000Y-74100000D03*
D28*
X64200000Y-74100000D03*
X68297056Y-75797056D03*
X66600000Y-71700000D03*
X66600000Y-76500000D03*
%TD*%
D33*
%TO.C,R1*%
X75800000Y-92925000D03*
X75800000Y-91275000D03*
%TD*%
D22*
%TO.C,C27*%
X93800000Y-101820000D03*
X93800000Y-102780000D03*
%TD*%
D37*
%TO.C,C25*%
X95800000Y-86925000D03*
X95800000Y-89875000D03*
%TD*%
D50*
%TO.C,R16*%
X101062500Y-78900000D03*
X98137500Y-78900000D03*
%TD*%
D22*
%TO.C,C22*%
X67300000Y-85520000D03*
X67300000Y-86480000D03*
%TD*%
M02*
