%TF.GenerationSoftware,KiCad,Pcbnew,(6.0.6)*%
%TF.CreationDate,2023-03-01T01:58:39-05:00*%
%TF.ProjectId,Driver-Board,44726976-6572-42d4-926f-6172642e6b69,rev?*%
%TF.SameCoordinates,Original*%
%TF.FileFunction,Soldermask,Bot*%
%TF.FilePolarity,Negative*%
%FSLAX46Y46*%
G04 Gerber Fmt 4.6, Leading zero omitted, Abs format (unit mm)*
G04 Created by KiCad (PCBNEW (6.0.6)) date 2023-03-01 01:58:39*
%MOMM*%
%LPD*%
G01*
G04 APERTURE LIST*
G04 Aperture macros list*
%AMRoundRect*
0 Rectangle with rounded corners*
0 $1 Rounding radius*
0 $2 $3 $4 $5 $6 $7 $8 $9 X,Y pos of 4 corners*
0 Add a 4 corners polygon primitive as box body*
4,1,4,$2,$3,$4,$5,$6,$7,$8,$9,$2,$3,0*
0 Add four circle primitives for the rounded corners*
1,1,$1+$1,$2,$3*
1,1,$1+$1,$4,$5*
1,1,$1+$1,$6,$7*
1,1,$1+$1,$8,$9*
0 Add four rect primitives between the rounded corners*
20,1,$1+$1,$2,$3,$4,$5,0*
20,1,$1+$1,$4,$5,$6,$7,0*
20,1,$1+$1,$6,$7,$8,$9,0*
20,1,$1+$1,$8,$9,$2,$3,0*%
G04 Aperture macros list end*
%ADD10RoundRect,0.200000X0.200000X0.450000X-0.200000X0.450000X-0.200000X-0.450000X0.200000X-0.450000X0*%
%ADD11O,0.800000X1.300000*%
%ADD12C,0.800000*%
%ADD13C,6.400000*%
%ADD14RoundRect,0.200000X-0.200000X-0.450000X0.200000X-0.450000X0.200000X0.450000X-0.200000X0.450000X0*%
%ADD15R,1.700000X1.700000*%
%ADD16O,1.700000X1.700000*%
%ADD17RoundRect,0.150000X0.825000X0.150000X-0.825000X0.150000X-0.825000X-0.150000X0.825000X-0.150000X0*%
%ADD18RoundRect,0.412500X1.337500X0.412500X-1.337500X0.412500X-1.337500X-0.412500X1.337500X-0.412500X0*%
G04 APERTURE END LIST*
D10*
%TO.C,J3*%
X82700000Y-73000000D03*
D11*
X81450000Y-73000000D03*
%TD*%
D12*
%TO.C,H2*%
X100000000Y-105100000D03*
X99297056Y-103402944D03*
X97600000Y-107500000D03*
X95902944Y-106797056D03*
D13*
X97600000Y-105100000D03*
D12*
X95200000Y-105100000D03*
X95902944Y-103402944D03*
X99297056Y-106797056D03*
X97600000Y-102700000D03*
%TD*%
D11*
%TO.C,J2*%
X82725000Y-106200000D03*
D14*
X81475000Y-106200000D03*
%TD*%
D12*
%TO.C,H1*%
X68900000Y-105100000D03*
X64802944Y-103402944D03*
X64100000Y-105100000D03*
X66500000Y-107500000D03*
X64802944Y-106797056D03*
X68197056Y-103402944D03*
X66500000Y-102700000D03*
X68197056Y-106797056D03*
D13*
X66500000Y-105100000D03*
%TD*%
D12*
%TO.C,H4*%
X95902944Y-75797056D03*
X99297056Y-72402944D03*
X97600000Y-76500000D03*
X97600000Y-71700000D03*
X100000000Y-74100000D03*
X95200000Y-74100000D03*
D13*
X97600000Y-74100000D03*
D12*
X99297056Y-75797056D03*
X95902944Y-72402944D03*
%TD*%
D15*
%TO.C,J1*%
X63250000Y-79280000D03*
D16*
X63250000Y-81820000D03*
X63250000Y-84360000D03*
X63250000Y-86900000D03*
%TD*%
D12*
%TO.C,H3*%
X64902944Y-75797056D03*
X68297056Y-72402944D03*
X69000000Y-74100000D03*
X64902944Y-72402944D03*
D13*
X66600000Y-74100000D03*
D12*
X64200000Y-74100000D03*
X68297056Y-75797056D03*
X66600000Y-71700000D03*
X66600000Y-76500000D03*
%TD*%
D17*
%TO.C,U4*%
X84575000Y-87695000D03*
X84575000Y-88965000D03*
X84575000Y-90235000D03*
X84575000Y-91505000D03*
X79625000Y-91505000D03*
X79625000Y-90235000D03*
X79625000Y-88965000D03*
X79625000Y-87695000D03*
%TD*%
D18*
%TO.C,J4*%
X101500000Y-81300000D03*
X101500000Y-84900000D03*
X101500000Y-91300000D03*
X101500000Y-95000000D03*
%TD*%
M02*
