M48
; DRILL file {KiCad (6.0.6)} date Wed Mar  1 01:58:01 2023
; FORMAT={-:-/ absolute / metric / decimal}
; #@! TF.CreationDate,2023-03-01T01:58:01-05:00
; #@! TF.GenerationSoftware,Kicad,Pcbnew,(6.0.6)
; #@! TF.FileFunction,Plated,1,4,PTH
FMAT,2
METRIC
; #@! TA.AperFunction,Plated,PTH,ViaDrill
T1C0.400
; #@! TA.AperFunction,Plated,PTH,ComponentDrill
T2C0.500
; #@! TA.AperFunction,Plated,PTH,ComponentDrill
T3C1.000
; #@! TA.AperFunction,Plated,PTH,ComponentDrill
T4C3.200
%
G90
G05
T1
X62.55Y-89.6
X62.6Y-99.5
X66.0Y-78.2
X66.0Y-83.1
X67.0Y-78.2
X67.2Y-84.4
X67.3Y-87.2
X67.774Y-80.614
X67.912Y-83.412
X68.0Y-90.5
X68.5Y-99.5
X69.2Y-91.7
X69.4Y-96.9
X69.4Y-102.0
X69.8Y-93.0
X69.8Y-94.4
X70.0Y-71.5
X70.0Y-76.4
X70.5Y-69.5
X70.6Y-83.3
X70.95Y-78.0
X71.1Y-102.1
X71.2Y-79.2
X71.459Y-86.724
X71.7Y-80.8
X71.8Y-82.9
X72.4Y-103.1
X72.5Y-90.7
X72.8Y-99.5
X72.8Y-100.9
X73.775Y-81.2
X73.8Y-88.5
X73.9Y-94.1
X73.9Y-94.9
X74.0Y-97.6
X74.1Y-77.9
X74.2Y-90.3
X74.228Y-82.3
X74.278Y-79.567
X74.4Y-69.5
X74.7Y-94.1
X74.8Y-72.8
X74.902Y-78.747
X75.0Y-87.3
X75.7Y-83.55
X75.8Y-90.3
X76.0Y-87.3
X76.0Y-95.1
X76.15Y-82.1
X76.2Y-101.2
X76.6Y-69.0
X76.6Y-69.8
X76.6Y-70.6
X76.6Y-71.4
X76.7Y-107.7
X76.7Y-108.5
X76.7Y-109.3
X76.7Y-110.1
X77.0Y-76.1
X77.0Y-84.7
X77.1Y-94.8
X77.4Y-69.0
X77.4Y-69.8
X77.4Y-70.6
X77.4Y-71.4
X77.489Y-97.532
X77.5Y-107.7
X77.5Y-108.5
X77.5Y-109.3
X77.5Y-110.1
X78.1Y-74.4
X78.7Y-75.0
X79.15Y-82.3
X79.187Y-78.127
X79.2Y-81.15
X79.3Y-83.8
X79.628Y-77.231
X79.7Y-76.1
X80.5Y-94.6
X80.8Y-79.649
X81.275Y-74.5
X81.3Y-94.6
X81.3Y-95.4
X81.4Y-84.35
X81.4Y-101.5
X81.575Y-104.993
X82.5Y-94.7
X82.5Y-95.7
X82.625Y-104.993
X82.925Y-74.5
X83.7Y-79.649
X84.0Y-84.35
X84.1Y-94.7
X84.1Y-95.7
X85.4Y-79.1
X85.6Y-74.7
X86.35Y-89.0
X86.4Y-85.2
X86.4Y-91.8
X86.45Y-87.7
X87.4Y-101.7
X91.4Y-77.8
X91.6Y-79.5
X91.9Y-82.4
X91.9Y-83.62
X91.9Y-93.0
X91.9Y-94.2
X92.0Y-84.9
X92.6Y-103.5
X92.7Y-99.0
X92.8Y-96.2
X93.8Y-99.0
X93.8Y-103.5
X94.2Y-79.6
X95.2Y-79.6
X95.2Y-92.9
X95.2Y-94.3
X95.3Y-82.3
X95.3Y-83.7
X95.9Y-93.6
X96.0Y-83.0
X96.6Y-92.9
X96.6Y-94.3
X96.7Y-82.3
X96.7Y-83.7
X97.0Y-78.0
X97.0Y-78.9
X97.0Y-79.8
X100.2Y-84.5
X100.2Y-85.3
X100.2Y-94.6
X100.2Y-95.4
X100.3Y-80.7
X100.3Y-81.5
X100.3Y-82.8
X100.3Y-90.9
X100.3Y-91.7
X100.3Y-93.0
X100.406Y-97.207
X100.8Y-102.4
X101.0Y-84.5
X101.0Y-85.3
X101.0Y-94.6
X101.0Y-95.4
X101.1Y-80.7
X101.1Y-81.5
X101.1Y-82.8
X101.1Y-90.9
X101.1Y-91.7
X101.1Y-93.0
X101.3Y-97.2
X101.6Y-102.4
X101.8Y-84.5
X101.8Y-85.3
X101.8Y-94.6
X101.8Y-95.4
X101.9Y-80.7
X101.9Y-81.5
X101.9Y-82.8
X101.9Y-90.9
X101.9Y-91.7
X101.9Y-93.0
X102.2Y-97.2
X102.3Y-77.8
X102.3Y-78.6
X102.3Y-79.4
X102.4Y-102.4
X102.6Y-84.5
X102.6Y-85.3
X102.6Y-94.6
X102.6Y-95.4
X102.7Y-80.7
X102.7Y-81.5
X102.7Y-82.8
X102.7Y-90.9
X102.7Y-91.7
X102.7Y-93.0
T2
X64.1Y-105.1
X64.2Y-74.1
X64.803Y-103.403
X64.803Y-106.797
X64.903Y-72.403
X64.903Y-75.797
X66.5Y-102.7
X66.5Y-107.5
X66.6Y-71.7
X66.6Y-76.5
X68.197Y-103.403
X68.197Y-106.797
X68.297Y-72.403
X68.297Y-75.797
X68.9Y-105.1
X69.0Y-74.1
X81.45Y-73.0
X81.475Y-106.2
X82.7Y-73.0
X82.725Y-106.2
X95.2Y-74.1
X95.2Y-105.1
X95.903Y-72.403
X95.903Y-75.797
X95.903Y-103.403
X95.903Y-106.797
X97.6Y-71.7
X97.6Y-76.5
X97.6Y-102.7
X97.6Y-107.5
X99.297Y-72.403
X99.297Y-75.797
X99.297Y-103.403
X99.297Y-106.797
X100.0Y-74.1
X100.0Y-105.1
T3
X63.25Y-79.28
X63.25Y-81.82
X63.25Y-84.36
X63.25Y-86.9
T4
X66.5Y-105.1
X66.6Y-74.1
X97.6Y-74.1
X97.6Y-105.1
T0
M30
